<?xml version="1.0" standalone="no"?><!DOCTYPE svg PUBLIC "-//W3C//DTD SVG 1.1//EN" "http://www.w3.org/Graphics/SVG/1.1/DTD/svg11.dtd"><svg class="icon" width="200px" height="200.00px" viewBox="0 0 1024 1024" version="1.1" xmlns="http://www.w3.org/2000/svg"><path d="M93.06 171.12h823.78V825.7H93.06z" fill="#999999" /><path d="M292.39 343.57L319 316.94a22.33 22.33 0 1 0-31.57-31.58L260.81 312l-26.63-26.64a22.33 22.33 0 1 0-31.58 31.58l26.64 26.63-26.64 26.64a22.33 22.33 0 0 0 31.58 31.57l26.63-26.63 26.64 26.63A22.32 22.32 0 1 0 319 370.21zM411.37 806.18l120-84.52L415.63 643a31 31 0 0 1-10.44-39.2l91.18-187.23C367.16 394.47 220.57 566.76 96.06 723v89.84h310.13a30.55 30.55 0 0 1 5.18-6.66z" fill="#DDDDDD" /><path d="M667.82 610.31c-34.47-87.16-73-141.11-114.2-169.75l-80.94 166.22 124.82 84.91a31 31 0 0 1 4.26 47.78l-108.63 73.41h426.93V689.39c-137.89-265.85-252.24-79.08-252.24-79.08z" fill="#DDDDDD" /><path d="M959.06 207.82v585.73c0 34.35-28.74 62.5-63.73 62.5H130.11c-35 0-63.74-28.15-63.74-62.68V207.82c0-34.35 28.75-62.5 63.74-62.5h765.22c34.99 0 63.73 28.15 63.73 62.5z m-63.73 586.23a2.17 2.17 0 0 0 1.73-0.81V208.13a2.17 2.17 0 0 0-1.73-0.81H130.11a2.17 2.17 0 0 0-1.73 0.81V793.2a2.1 2.1 0 0 0 1.73 0.85z" fill="#CCCCCC" /></svg>