<?xml version="1.0" standalone="no"?><!DOCTYPE svg PUBLIC "-//W3C//DTD SVG 1.1//EN" "http://www.w3.org/Graphics/SVG/1.1/DTD/svg11.dtd"><svg class="icon" width="200px" height="200.00px" viewBox="0 0 1024 1024" version="1.1" xmlns="http://www.w3.org/2000/svg"><path fill="#333333" d="M830.05 65.15H287.34c-53.57 0-97.15 40.82-97.15 91v274.58c0 50.18 43.58 91 97.15 91H426.4c-0.79 3.82-1.57 7.76-2.34 11.86-6.53 34.52-61.86 67.1-87.27 79.1h-50.7v-10.56a31 31 0 0 0-31-31H153.33a31 31 0 0 0-31 31v325.78a31 31 0 0 0 31 31h101.76a31 31 0 0 0 31-31v-14.24h34.72l27.79 22.18a58.52 58.52 0 0 0 36.4 12.74h242.35a58.56 58.56 0 0 0 56.16-42.51l62.28-220.88a58.34 58.34 0 0 0-56.16-74.2H575c10.89-36.79 9.49-66.4 3.14-89.28h63.56l132 107.86a29 29 0 0 0 47.3-22.45v-85.4h9.07c53.56 0 97.14-40.82 97.14-91V156.15c-0.02-50.15-43.6-91-97.16-91z m-606 831.76h-39.72V633.13h39.76z m400.5-10.32H386.27l-27.79-22.17a58.54 58.54 0 0 0-36.4-12.75h-36v-177h57.35a31 31 0 0 0 12.1-2.45 348.54 348.54 0 0 0 56.73-31.92c41.8-29.09 66.26-61.13 72.71-95.21 4-21.11 7.44-33.32 9.87-40.23a58.62 58.62 0 0 1 18.9 21.46c11.21 21.81 9.36 51.84-5.35 86.83a31.13 31.13 0 0 0-2.39 12.4c0.24 20-4 83.06-25.83 110.28a31 31 0 1 0 48.37 38.79c22.45-28 32.17-69.31 36.35-101.61h119.92z m244.6-455.86c0 18.2-17.56 33-39.14 33H792a29 29 0 0 0-29 29V546l-92.64-75.7a29 29 0 0 0-18.36-6.57H542.59c-20.25-18.35-45-28.24-63-24.17-15 3.4-25.57 11.35-33.65 24.17h-158.6c-21.59 0-39.15-14.8-39.15-33V156.15c0-18.19 17.56-33 39.15-33h542.71c21.58 0 39.14 14.81 39.14 33z"  /><path fill="#333333" d="M791.27 188.25H337.65a29 29 0 0 0 0 58h453.62a29 29 0 0 0 0-58zM579.27 331.42H337.65a29 29 0 0 0 0 58h241.62a29 29 0 0 0 0-58z"  /></svg>