<?xml version="1.0" standalone="no"?><!DOCTYPE svg PUBLIC "-//W3C//DTD SVG 1.1//EN" "http://www.w3.org/Graphics/SVG/1.1/DTD/svg11.dtd"><svg class="icon" width="200px" height="200.00px" viewBox="0 0 1024 1024" version="1.1" xmlns="http://www.w3.org/2000/svg"><path fill="#333333" d="M594.75 602.6a133 133 0 0 0-56.65-26.27l-21.72 33.85v-36.33c-1.45-0.05-2.91-0.08-4.38-0.08s-3.24 0-4.85 0.09v35.59l-21.25-33.12a133.09 133.09 0 0 0-56.66 26.27 148.92 148.92 0 0 0 165.51 0zM507.15 474v55.8c1.62 0 3.23-0.07 4.85-0.07s2.92 0 4.38 0.05V474a24.62 24.62 0 1 0-9.23 0.06z"  /><path fill="#333333" d="M512 671.71a194 194 0 0 1-112.56-36.09 132.52 132.52 0 0 0-19.05 49.59h263.23a132.69 132.69 0 0 0-19-49.59A194.06 194.06 0 0 1 512 671.71z"  /><path fill="#333333" d="M742.68 98.56h-91.32a16.5 16.5 0 0 1-16.5 16.5H393.37a16.51 16.51 0 0 1-16.51-16.5h-90.3c-35.65 0-64.55 27.75-64.55 62v706.26c0 34.24 28.9 62 64.55 62h456.12c35.65 0 64.55-27.76 64.55-62V160.56c0-34.25-28.9-62-64.55-62zM450.53 266.62a26.17 26.17 0 0 1 26.17-26.17h67.73a26.17 26.17 0 0 1 26.17 26.17V319H450.53z m105.63 572.69a41.62 41.62 0 1 1-44.24-44.24 41.77 41.77 0 0 1 44.24 44.24z m145.48-322a193.67 193.67 0 0 1-44.13 88.51 176.47 176.47 0 0 1 31.93 101.43 22 22 0 0 1-22 22H356.55a22 22 0 0 1-22-22 176.4 176.4 0 0 1 31.94-101.43 193.67 193.67 0 0 1-44.13-88.51 22 22 0 1 1 43.09-8.86 148.33 148.33 0 0 0 30.82 64.4 177.4 177.4 0 0 1 64.57-35.52l-50.47-78.65a66.17 66.17 0 0 0 44.16-62.42v-26.4h-36.9V335.9h188.71v33.86h-36.89v26.46a66.2 66.2 0 0 0 44.18 62.42l-50.47 78.65a177.4 177.4 0 0 1 64.57 35.52 148.33 148.33 0 0 0 30.82-64.4 22 22 0 1 1 43.09 8.86z"  /></svg>