<?xml version="1.0" standalone="no"?><!DOCTYPE svg PUBLIC "-//W3C//DTD SVG 1.1//EN" "http://www.w3.org/Graphics/SVG/1.1/DTD/svg11.dtd"><svg class="icon" width="200px" height="200.00px" viewBox="0 0 1024 1024" version="1.1" xmlns="http://www.w3.org/2000/svg"><path fill="#333333" d="M649.51 304.06H192.35l135.58-135.59c13.91-13.9 13.91-34.76 0-46.93-13.9-13.91-34.76-13.91-46.93 0L88.06 312.75c-7 6.95-10.43 13.9-10.43 22.59a34.34 34.34 0 0 0 10.43 24.34l191.2 191.2c13.91 13.91 34.77 13.91 46.94 0 13.9-13.91 13.9-34.76 0-46.93l-132.11-132.1h455.42a229.44 229.44 0 1 1 0 458.88H301.86a34.77 34.77 0 0 0 0 69.53h347.65c165.12-1.73 297.23-135.58 297.23-299 0-165.13-132.11-297.23-297.23-297.23z m0 0" /></svg>