<?xml version="1.0" standalone="no"?><!DOCTYPE svg PUBLIC "-//W3C//DTD SVG 1.1//EN" "http://www.w3.org/Graphics/SVG/1.1/DTD/svg11.dtd"><svg class="icon" width="200px" height="200.00px" viewBox="0 0 1024 1024" version="1.1" xmlns="http://www.w3.org/2000/svg"><path fill="#333333" d="M903.45 515.81l0.11-0.33h-18.51c-3.82-10.88-8.56-21.74-13.26-32.32l9-9A66 66 0 0 0 900 426.73a61.69 61.69 0 0 0-19.22-44.42l-43.36-43.37c-12-12.05-29.89-19.53-46.59-19.53a64.72 64.72 0 0 0-46.6 19.53l-9 9c-10.6-4.7-21.47-9.45-32.31-13.25V321.1a65.18 65.18 0 0 0-64.72-64.72h-60.28a65.18 65.18 0 0 0-64.73 64.72v12.19c-11 3.84-22 8.66-32.68 13.41l-10.26-8c-12-11.93-29.79-19.33-46.39-19.33-17.92 0-34 7-45.29 19.62l-43.32 43.33a66 66 0 0 0-19.17 47.41 61.7 61.7 0 0 0 19.21 44.43l9 9c-4.7 10.6-9.45 21.47-13.25 32.32h-13.61a65.18 65.18 0 0 0-64.73 64.72v60.22a65.18 65.18 0 0 0 64.73 64.72h12.18c3.85 11 8.66 22 13.42 32.68l-8 10.26a66 66 0 0 0-19 47.22 61.72 61.72 0 0 0 19.21 44.43l43.37 43.36c12.05 12 29.9 19.53 46.6 19.53a64.72 64.72 0 0 0 46.6-19.53l9-9c10.6 4.7 21.48 9.45 32.32 13.25v12.16a65.18 65.18 0 0 0 64.72 64.73h60.21a65.18 65.18 0 0 0 64.73-64.73v-12.17c10.9-3.81 21.75-8.56 32.31-13.25l9 9c12.05 12 29.9 19.53 46.6 19.53a64.7 64.7 0 0 0 46.6-19.53l43.41-43.41A66 66 0 0 0 900 792.26a61.69 61.69 0 0 0-19.22-44.43l-9-9c4.7-10.61 9.45-21.48 13.26-32.31h12.19a65.18 65.18 0 0 0 64.71-64.73v-60.18c0-34.31-25.72-62.61-58.49-65.8zM897 642.93h-15.31a58.5 58.5 0 0 0-56 41v0.12a139.6 139.6 0 0 1-12.19 29.81l-0.07 0.12c-12.1 22.71-7.75 51.38 10.59 69.72l10.87 10.88a6.53 6.53 0 0 1-0.28 3l-42.79 42.81h-0.05a9 9 0 0 1-1 0h-1l-11.08-12.47-0.18-0.2c-11.69-11.68-26.74-18.12-42.38-18.12a59.49 59.49 0 0 0-27.13 6.07l-0.17 0.09A139.26 139.26 0 0 1 679 828h-0.15a58.48 58.48 0 0 0-41 56.1v15.2a1.53 1.53 0 0 1-1.3 1.3h-59.8a1.55 1.55 0 0 1-1.31-1.31v-15.16a58.46 58.46 0 0 0-41-56.11h-0.15a138.77 138.77 0 0 1-29.85-12.21l-0.17-0.09a59.42 59.42 0 0 0-27.21-6.08c-15.65 0-30.7 6.44-42.39 18.12l-11.19 11.2-0.06 0.05a6.58 6.58 0 0 1-1 0h-1l-0.08-0.08-43.1-43.06a6.61 6.61 0 0 1 0.25-2.87l11.83-10.51 0.19-0.19c18.41-18.4 22.59-45.73 10.66-69.61l-0.12-0.22A139.16 139.16 0 0 1 389 682.64v-0.13a58.47 58.47 0 0 0-55.95-41h-15.43a1.54 1.54 0 0 1-1.3-1.31v-59.79a1.53 1.53 0 0 1 1.31-1.3H333a58.48 58.48 0 0 0 55.95-41v-0.12a138.3 138.3 0 0 1 12.19-29.82l0.06-0.12c12.11-22.71 7.75-51.38-10.6-69.72l-10.87-10.87a6.6 6.6 0 0 1 0.29-3l42.8-42.8a6.88 6.88 0 0 1 1 0h0.94l11.08 12.46 0.18 0.19c11.68 11.69 26.74 18.12 42.38 18.12a59.69 59.69 0 0 0 27.23-6.07l0.22-0.12a138.25 138.25 0 0 1 29.81-12.18h0.13a58.49 58.49 0 0 0 41-56.14V321.3a1.53 1.53 0 0 1 1.3-1.3h59.81a1.54 1.54 0 0 1 1.3 1.3v15.19a58.52 58.52 0 0 0 41 56.11h0.13a138.66 138.66 0 0 1 29.81 12.18l0.22 0.12a59.39 59.39 0 0 0 27.22 6.1c15.64 0 30.7-6.43 42.38-18.11l11.2-11.2 0.05-0.05a9 9 0 0 1 1 0h0.94l0.08 0.07 43.08 43.08a6.49 6.49 0 0 1-0.28 3l-12 12c-18.4 18.4-22.58 45.73-10.65 69.62l0.12 0.22a139 139 0 0 1 12.19 29.82v0.12a58.47 58.47 0 0 0 55.95 41H897a1.54 1.54 0 0 1 1.3 1.31v59.84a1.54 1.54 0 0 1-1.3 1.21z"  /><path fill="#333333" d="M607.33 489.18A121.84 121.84 0 1 0 729.17 611a121.94 121.94 0 0 0-121.84-121.82z m46.57 168.4A65.87 65.87 0 1 1 673.15 611a65.76 65.76 0 0 1-19.25 46.58z"  /><path fill="#333333" d="M311.55 897.29H211.24a31 31 0 0 1-31-31V321.42h106.37a93.11 93.11 0 0 0 93-93v-88.07H694.2a31 31 0 0 1 31 31v64.26a122.37 122.37 0 0 1 23.62 33.68A122.15 122.15 0 0 1 787.2 262v-90.65a93.11 93.11 0 0 0-93-93H347.79c-0.6 0-1.19 0-1.78 0.1h-0.2c-0.65 0.06-1.29 0.14-1.93 0.24l-0.45 0.07c-0.65 0.11-1.29 0.24-1.93 0.39-0.63 0.15-1.25 0.33-1.87 0.51l-0.45 0.14c-0.61 0.2-1.21 0.41-1.8 0.64l-0.3 0.12c-0.52 0.21-1 0.43-1.54 0.67l-0.45 0.21c-0.56 0.27-1.12 0.56-1.67 0.87l-0.39 0.24c-0.49 0.28-1 0.57-1.43 0.88l-0.32 0.2c-0.53 0.37-1.06 0.75-1.57 1.14l-0.37 0.3c-0.52 0.41-1 0.84-1.53 1.29L128.4 267.47c-0.53 0.48-1 1-1.51 1.48l-0.4 0.42c-0.41 0.45-0.8 0.9-1.18 1.36l-0.21 0.25c-0.42 0.52-0.83 1.06-1.21 1.61l-0.35 0.51c-0.3 0.45-0.58 0.89-0.85 1.35-0.09 0.14-0.19 0.29-0.27 0.43-0.33 0.58-0.64 1.16-0.94 1.75l-0.23 0.5c-0.23 0.48-0.45 1-0.65 1.45l-0.21 0.51c-0.24 0.62-0.47 1.26-0.68 1.9 0 0.11-0.06 0.22-0.1 0.34-0.16 0.55-0.32 1.1-0.46 1.66l-0.12 0.54c-0.15 0.65-0.29 1.3-0.39 2a0.13 0.13 0 0 0 0 0.06c-0.11 0.67-0.19 1.35-0.25 2v0.58c0 0.54-0.06 1.07-0.07 1.6v576.51a93.11 93.11 0 0 0 93 93H400v-2a126.73 126.73 0 0 1-62-33.58z m-24.94-637.87h-57.13l88.13-80v49a31 31 0 0 1-31 31z"  /></svg>