<?xml version="1.0" standalone="no"?><!DOCTYPE svg PUBLIC "-//W3C//DTD SVG 1.1//EN" "http://www.w3.org/Graphics/SVG/1.1/DTD/svg11.dtd"><svg class="icon" width="200px" height="200.00px" viewBox="0 0 1024 1024" version="1.1" xmlns="http://www.w3.org/2000/svg"><path fill="#333333" d="M506.36 70.47C261.82 70.47 62.7 269.36 62.7 513.65c0 244.45 199.12 443.17 443.66 443.17C751.08 956.82 950 758.1 950 513.65c0-244.29-198.92-443.18-443.64-443.18zM675.12 640a29.85 29.85 0 0 1-42.23 42.19L506.36 555.83l-126.53 126.4A29.85 29.85 0 0 1 337.59 640l126.53-126.35-126.53-126.4a29.85 29.85 0 1 1 42.24-42.19l126.53 126.39 126.53-126.39a29.85 29.85 0 1 1 42.23 42.19l-126.53 126.4z" /></svg>