<?xml version="1.0" standalone="no"?><!DOCTYPE svg PUBLIC "-//W3C//DTD SVG 1.1//EN" "http://www.w3.org/Graphics/SVG/1.1/DTD/svg11.dtd"><svg class="icon" width="200px" height="200.00px" viewBox="0 0 1024 1024" version="1.1" xmlns="http://www.w3.org/2000/svg"><path fill="#333333" d="M388.84 234.53V76.86L199.16 266.53h157.68a32 32 0 0 0 32-32z"  /><path fill="#333333" d="M671.88 586.26A175.2 175.2 0 0 1 775 552.83a179.28 179.28 0 0 1 53.93 8.33v-422.3a62 62 0 0 0-62-62H430.57v157.67a72.08 72.08 0 0 1-72 72H200.89v530.33a62 62 0 0 0 62 62h332.57l42.26-58.56q-2.94-3.63-5.69-7.44a176.63 176.63 0 0 1 39.85-246.6zM555.32 244.38H707.9a31 31 0 0 1 0 62H555.32a31 31 0 0 1 0-62z m-76.19 495.8H326.55a31 31 0 0 1 0-62h152.58a31 31 0 0 1 0 62z m-153.78-226.9a31 31 0 0 1 0-62H707.9a31 31 0 0 1 0 62z"  /><path fill="#333333" d="M905.77 875.69L874.19 832c51.81-45.2 61.68-123.49 20.68-180.3A134.63 134.63 0 1 0 697.21 832l-31.53 43.69-14.56 20.17 46.17-0.75 7-0.12 1.22 3.89 14.71 46.88 25.12-34.81 33.22-46q3.64 0.2 7.29 0.2c2.31 0 4.62-0.08 6.93-0.2L826.1 911l25 34.71L865.8 899l1.28-4.1 7.37 0.12 45.84 0.75z m-77.56-86.31A72.62 72.62 0 1 1 844.6 688a72.71 72.71 0 0 1-16.39 101.38z"  /></svg>