<?xml version="1.0" standalone="no"?><!DOCTYPE svg PUBLIC "-//W3C//DTD SVG 1.1//EN" "http://www.w3.org/Graphics/SVG/1.1/DTD/svg11.dtd"><svg class="icon" width="200px" height="200.00px" viewBox="0 0 1024 1024" version="1.1" xmlns="http://www.w3.org/2000/svg"><path fill="#333333" d="M894.75 880.38H133.68a35.23 35.23 0 1 0 0 70.46h761.07a35.23 35.23 0 0 0 0-70.46zM228.81 809.9h47.57a82.7 82.7 0 0 0 82.8-82.8V439.94a82.71 82.71 0 0 0-82.8-82.8h-47.57a82.71 82.71 0 0 0-82.8 82.8v285.4c0 47.57 37 84.56 82.8 84.56z m-12.33-370a12 12 0 0 1 12.33-12.33h47.57a12 12 0 0 1 12.33 12.33v285.4a12 12 0 0 1-12.33 12.33h-47.57a12 12 0 0 1-12.33-12.33z m250.17 370h47.56A82.71 82.71 0 0 0 597 727.1V154.54a82.71 82.71 0 0 0-82.81-82.8h-47.54a82.7 82.7 0 0 0-82.8 82.8v570.8c0 47.57 37 84.56 82.8 84.56z m-12.34-655.36a12.05 12.05 0 0 1 12.34-12.34h47.56a12.05 12.05 0 0 1 12.34 12.34v570.8a12 12 0 0 1-12.34 12.33h-47.56a12 12 0 0 1-12.34-12.33zM704.48 809.9h47.57a82.7 82.7 0 0 0 82.8-82.8V297.24a82.7 82.7 0 0 0-82.8-82.8h-47.57a82.7 82.7 0 0 0-82.8 82.8v428.1c0 47.57 37 84.56 82.8 84.56z m-12.33-512.66a12 12 0 0 1 12.33-12.33h47.57a12 12 0 0 1 12.33 12.33v428.1a12 12 0 0 1-12.33 12.33h-47.57a12 12 0 0 1-12.33-12.33z m0 0" /></svg>