<?xml version="1.0" standalone="no"?><!DOCTYPE svg PUBLIC "-//W3C//DTD SVG 1.1//EN" "http://www.w3.org/Graphics/SVG/1.1/DTD/svg11.dtd"><svg class="icon" width="200px" height="200.00px" viewBox="0 0 1024 1024" version="1.1" xmlns="http://www.w3.org/2000/svg"><path fill="#333333" d="M958 601.57a238.34 238.34 0 0 0-60.79-159.51 231 231 0 0 0-129.11-73.15 277.6 277.6 0 0 0-89.34-123.74A265.13 265.13 0 0 0 514 188.23c-72.39 0-140.42 28.71-191.55 80.86a275.38 275.38 0 0 0-77.87 168.21C145.46 448.07 68 533.6 68 637.19c0 109.14 86 198.25 192.68 201 0.63 0 1.27 0.07 1.92 0.07h464.79c61.49-0.53 119.2-25.16 162.68-69.51C933.88 724 958 664.67 958 601.57zM725.34 776.24H265.73c-74.84 0-135.73-62.38-135.73-139s60.89-139 135.73-139c56.41 0 107.54 36.37 127.23 90.5a31 31 0 1 0 58.26-21.19 200.14 200.14 0 0 0-71.11-94.27 194.6 194.6 0 0 0-73.51-32.74c11.31-106.81 100-190.22 207.35-190.22 92.82 0 175.34 63.69 200.68 154.9a31 31 0 0 0 26.9 22.56C829.59 436.15 896 510.9 896 601.57c0 96.31-76.56 174.67-170.66 174.67z" /></svg>