<?xml version="1.0" standalone="no"?><!DOCTYPE svg PUBLIC "-//W3C//DTD SVG 1.1//EN" "http://www.w3.org/Graphics/SVG/1.1/DTD/svg11.dtd"><svg class="icon" width="200px" height="200.00px" viewBox="0 0 1024 1024" version="1.1" xmlns="http://www.w3.org/2000/svg"><path fill="#333333" d="M512.28 130.22a381.61 381.61 0 1 1-144.15 28 381.91 381.91 0 0 1 144.15-28m0-62a443.62 443.62 0 0 0-314.66 130.34c-173.78 173.78-173.78 455.54 0 629.33a445 445 0 0 0 629.33 0c173.78-173.79 173.78-455.55 0-629.33A443.64 443.64 0 0 0 512.28 68.22z"  /><path fill="#333333" d="M556.81 774.42a39 39 0 0 1-36.73-25.91l-65.5-183.9-181-63.19a39 39 0 0 1 1.34-74.08l391.36-120.88a39 39 0 0 1 48.78 48.78l-121 391.69a39 39 0 0 1-36.44 27.48zM347.22 465.71l139.58 48.71a29 29 0 0 1 17.76 17.65l51 143.12L649 372.5z"  /></svg>