<?xml version="1.0" standalone="no"?><!DOCTYPE svg PUBLIC "-//W3C//DTD SVG 1.1//EN" "http://www.w3.org/Graphics/SVG/1.1/DTD/svg11.dtd"><svg class="icon" width="200px" height="200.00px" viewBox="0 0 1024 1024" version="1.1" xmlns="http://www.w3.org/2000/svg"><path fill="#333333" d="M511.55 228c21.3 0 37.27 16 37.27 37.23v425.46l120.67-120.55A36.37 36.37 0 0 1 721 621.55L573.66 768.69c-17.74 17.72-40.81 26.59-62.11 26.59s-44.36-8.87-60.34-24.82L303.92 623.33a36.37 36.37 0 1 1 51.47-51.41l120.67 120.54V267c-1.77-23 14.19-39 35.49-39z m0 726.81c-244.9 0-443.65-198.54-443.65-443.17 0-170.19 95.83-322.64 248.44-398.87 5.33-1.77 10.65-3.54 16-3.54 12.43 0 26.63 7.09 31.95 19.5a35.51 35.51 0 0 1-16 47.86c-129.55 63.82-209.41 191.46-209.41 335 0 205.63 166.82 372.26 372.67 372.26s372.67-166.57 372.67-372.2c0-143.59-79.86-271.23-209.41-335a35.51 35.51 0 0 1-16-47.86c8.87-16 30.17-24.82 47.92-16C859.38 189 955.2 341.46 955.2 511.65c0 244.63-198.75 443.17-443.65 443.17z m3.55-815.45h-5.32c-19.53 1.78-35.49-14.18-37.27-33.68 0-19.5 14.2-35.45 33.72-37.22h8.87c19.52 0 35.49 16 35.49 33.68 0 19.5-16 37.22-35.49 37.22z m0 0" /></svg>