<?xml version="1.0" standalone="no"?><!DOCTYPE svg PUBLIC "-//W3C//DTD SVG 1.1//EN" "http://www.w3.org/Graphics/SVG/1.1/DTD/svg11.dtd"><svg t="1642813415146" class="icon" viewBox="0 0 1024 1024" version="1.1" xmlns="http://www.w3.org/2000/svg" p-id="13445" xmlns:xlink="http://www.w3.org/1999/xlink" width="16" height="16"><defs><style type="text/css"></style></defs><path d="M180.77 816.19h662.14V567.88a41.39 41.39 0 0 1 41.39-41.38 41.39 41.39 0 0 1 41.39 41.38v289.69A41.39 41.39 0 0 1 884.3 899H139.39A41.39 41.39 0 0 1 98 857.57V567.88a41.39 41.39 0 0 1 41.39-41.38 41.38 41.38 0 0 1 41.38 41.38z m413.84-413.84V639.6a11 11 0 0 1-11.05 11H440.13a11 11 0 0 1-11.05-11V402.35H248.84a11.06 11.06 0 0 1-7.84-18.87l263-263a11 11 0 0 1 15.63 0l263 263a11.06 11.06 0 0 1-7.82 18.87z m0 0" p-id="13446"></path></svg>