<?xml version="1.0" standalone="no"?><!DOCTYPE svg PUBLIC "-//W3C//DTD SVG 1.1//EN" "http://www.w3.org/Graphics/SVG/1.1/DTD/svg11.dtd"><svg class="icon" width="200px" height="200.00px" viewBox="0 0 1024 1024" version="1.1" xmlns="http://www.w3.org/2000/svg"><path fill="#333333" d="M909.81 411.82a93.3 93.3 0 0 0-26.42-57.19L585.66 127.19a94 94 0 0 0-132.77 0l-302.68 232.4c-21.63 17.19-35.83 43.47-35.83 73.22v399.36c0 51.73 42.27 94 93.79 94h220.12V632c0-46.77 38.31-85.12 85-85.12h21.31c46.73 0 85 38.35 85 85.12v294.21h198.89c51.69 0 94-42.31 94-94v-399.4a109.07 109.07 0 0 0-2.65-21z m0 0" /></svg>