<?xml version="1.0" standalone="no"?><!DOCTYPE svg PUBLIC "-//W3C//DTD SVG 1.1//EN" "http://www.w3.org/Graphics/SVG/1.1/DTD/svg11.dtd"><svg class="icon" width="200px" height="200.00px" viewBox="0 0 1024 1024" version="1.1" xmlns="http://www.w3.org/2000/svg"><path fill="#333333" d="M675.69 781.75a55 55 0 0 0 7.32-4.89q51.22-33.08 51.22-68.59-2.44-68.58-89-71-92.72 0-92.7 90.63h58.55q-1.23-40.41 31.71-41.64 23.16 2.47 25.61 22 2.43 23.28-46.35 53.89-32.92 22.05-47.56 36.74-29.28 30.63-26.84 62.46H733v-53.88H630.56q4.86-3.66 18.3-9.79 18.29-9.79 26.83-15.93zM908.65 640.91h-59.77L745.21 763.38v51.44h102.46v46.54h61v-46.54h28.03v-47.76h-28.05z m-61 126.15h-52.43l52.45-67.36zM483 267.3a31 31 0 0 0-31 31v205.16L342.08 613.38a31 31 0 1 0 43.84 43.84l119-119c0.37-0.37 0.73-0.75 1.09-1.14 0.12-0.14 0.24-0.29 0.37-0.43s0.41-0.47 0.61-0.72 0.34-0.43 0.51-0.65l0.42-0.53 0.54-0.76 0.33-0.47c0.18-0.27 0.34-0.54 0.51-0.8l0.3-0.48c0.16-0.27 0.31-0.54 0.46-0.81s0.2-0.34 0.29-0.52 0.27-0.51 0.4-0.77 0.2-0.4 0.29-0.6l0.33-0.71 0.3-0.69c0.09-0.22 0.17-0.43 0.25-0.64s0.21-0.53 0.3-0.8 0.13-0.38 0.19-0.56 0.2-0.6 0.29-0.9l0.14-0.5c0.09-0.32 0.18-0.64 0.26-1 0-0.15 0.07-0.31 0.11-0.46 0.08-0.34 0.16-0.68 0.22-1l0.09-0.47c0.06-0.33 0.12-0.67 0.17-1 0-0.18 0-0.36 0.07-0.54s0.08-0.63 0.11-0.95l0.06-0.73c0-0.26 0-0.52 0.05-0.78V298.3a31 31 0 0 0-30.98-31z"  /><path fill="#333333" d="M950.43 447.88a31 31 0 0 0-43.84 0l-4.69 4.69a420.24 420.24 0 1 0-462.11 473.24 29.93 29.93 0 0 0 3.4 0.19 31 31 0 0 0 3.32-61.82c-81.77-8.92-155.8-44.44-214.09-102.74-139.58-139.58-139.58-366.7 0-506.28s366.7-139.59 506.29 0c52.59 52.58 86.68 118.27 99.33 189.7a31 31 0 0 0-40.34 46.86l54.44 54.45a31 31 0 0 0 43.84 0l54.45-54.45a31 31 0 0 0 0-43.84z"  /></svg>