<?xml version="1.0" standalone="no"?><!DOCTYPE svg PUBLIC "-//W3C//DTD SVG 1.1//EN" "http://www.w3.org/Graphics/SVG/1.1/DTD/svg11.dtd"><svg class="icon" width="200px" height="200.00px" viewBox="0 0 1024 1024" version="1.1" xmlns="http://www.w3.org/2000/svg"><path fill="#333333" d="M846.63 147.58l-209-13v0.34l-4.92-0.34a26.89 26.89 0 0 0-23.53 10.33l-79.93 99.4a27.83 27.83 0 0 0 0.51 35.39l126.53 147.11-35.22 46.4-92.45 121.92 11.68-55.88 19.81-94.15a27.58 27.58 0 0 0-9.65-27.26L384.85 283.05l57.23-90.26 11.69-18.45a27.66 27.66 0 0 0-25.4-42.34l-119 8.3-23.7 2-108.37 9.48c-52.5 4.58-91.61 51.14-87 103.8L138 800.87a96 96 0 0 0 104 87.21l64.85-5.76v-0.51a22.57 22.57 0 0 0 3.39 0l57.58-5.58a31.6 31.6 0 0 0-4.92-63l-14.05 1.19-44.7 4.23 2.7-0.17v-0.34l-70.44 6.1a32.17 32.17 0 0 1-34.71-29.13l-3.39-38.77 137.77-143.26a33.94 33.94 0 0 1 9.65-5.76c3.9-1.35 5.59-1 8.81 1.7 30.82 25.74 64.34 57.23 73.83 66.2a60.07 60.07 0 0 0 12 9L482.55 801l23.54 65.53 61.81 3.9L800.73 885a96.12 96.12 0 0 0 101.77-89.72l33.87-545.93c3.22-52.83-36.91-98.55-89.74-101.77zM464.77 662.86l4.07-45.71z m-7.28 2.72l10-47.93c-13.88-13-41.82-38.77-68.58-61.3-22.86-19.3-50.8-23.87-78.9-12.86a97.86 97.86 0 0 0-32.35 20.65l-97.55 100.08L153.88 250A32 32 0 0 1 183 215.48l189.83-16.59-47.76 75.35a27.72 27.72 0 0 0 5.93 36.24l0.34 0.34a76.45 76.45 0 1 0 70.44 69.43 80 80 0 0 0-2.71-14.4l103.8 84.33-35.22 167.47M349 384.82a23.55 23.55 0 1 1-25.57-21.34A23.66 23.66 0 0 1 349 384.82z m489.32 406.74a32 32 0 0 1-33.86 30L544 805.28l-22.69-62.83-10.66-31.83 115.67-152.74c11.68-9.66 22.18-18.29 30.68-25.23l1.18-1.19c3.05-2.71 14.06-10.33 24.22-9.65 6.27 0.51 12.36 4.4 18.79 12.19 29 34.55 105.84 161.38 139.37 220.31zM848 637.8c-32.18-56.21-70.61-120.56-93.81-148.16-16.94-20.32-35.06-29.64-50.46-33.87L714 442.22a27.53 27.53 0 0 0-1-34.71L587 261l50.13-62.32 205.57 12.87a32 32 0 0 1 30 33.87z m0 0" /></svg>