<?xml version="1.0" standalone="no"?><!DOCTYPE svg PUBLIC "-//W3C//DTD SVG 1.1//EN" "http://www.w3.org/Graphics/SVG/1.1/DTD/svg11.dtd"><svg class="icon" width="200px" height="200.00px" viewBox="0 0 1024 1024" version="1.1" xmlns="http://www.w3.org/2000/svg"><path fill="#333333" d="M878 839.85H204.16v-79.34l122.35-111a94.19 94.19 0 0 0 136.88-17.47L634.48 679l0.21 0.05q1 0.27 2 0.48h0.11c0.75 0.15 1.5 0.28 2.25 0.38h0.16c0.66 0.08 1.32 0.15 2 0.19h0.4c0.7 0 1.4 0.07 2.1 0.07 0.81 0 1.62 0 2.42-0.09h0.2c0.8-0.06 1.59-0.15 2.38-0.26h0.2c0.8-0.12 1.58-0.27 2.36-0.44h0.16c0.8-0.18 1.58-0.39 2.36-0.62h0.08a35.89 35.89 0 0 0 4.59-1.76l0.17-0.08c0.68-0.32 1.35-0.66 2-1l0.36-0.2c0.62-0.35 1.22-0.72 1.82-1.1l0.44-0.3q0.86-0.57 1.68-1.2l0.44-0.34c0.55-0.43 1.09-0.88 1.61-1.34l0.34-0.32c0.52-0.47 1-1 1.52-1.47l0.21-0.22q0.78-0.81 1.5-1.68l0.19-0.22q0.75-0.91 1.44-1.89l0.16-0.21c0.46-0.67 0.91-1.36 1.33-2.06l0.1-0.17c0.43-0.72 0.84-1.46 1.21-2.22a0.83 0.83 0 0 0 0.07-0.13c0.38-0.77 0.73-1.55 1.06-2.36v-0.06l81.4-201.16a94.45 94.45 0 0 0 82.86-130.59 94.33 94.33 0 1 0-149 107.48L623 603.28l-142.75-39.16a94.33 94.33 0 1 0-186 31l-90.06 81.67V252.73a50 50 0 0 0-100 0v602.15a85.06 85.06 0 0 0 85 85H878a50 50 0 0 0 0-100z" /></svg>