<?xml version="1.0" standalone="no"?><!DOCTYPE svg PUBLIC "-//W3C//DTD SVG 1.1//EN" "http://www.w3.org/Graphics/SVG/1.1/DTD/svg11.dtd"><svg class="icon" width="200px" height="200.00px" viewBox="0 0 1024 1024" version="1.1" xmlns="http://www.w3.org/2000/svg"><path fill="#333333" d="M898.18 615.23l0.09-0.25h-14.1c-2.9-8.29-6.52-16.55-10.1-24.61l6.87-6.86a50.3 50.3 0 0 0 14.59-36.11 47 47 0 0 0-14.63-33.83l-33-33a52 52 0 0 0-35.48-14.87 49.28 49.28 0 0 0-35.48 14.87l-6.87 6.87c-8.07-3.59-16.35-7.2-24.6-10.1V467a49.63 49.63 0 0 0-49.28-49.28H650.3A49.63 49.63 0 0 0 601 467v9.28c-8.35 2.93-16.73 6.6-24.89 10.21l-7.81-6.07a52 52 0 0 0-35.3-14.74c-13.64 0-25.88 5.3-34.48 14.93l-33 33a50.26 50.26 0 0 0-14.6 36.11 47 47 0 0 0 14.63 33.83l6.84 6.83c-3.59 8.07-7.2 16.35-10.1 24.61H452a49.63 49.63 0 0 0-49.28 49.28v45.86A49.63 49.63 0 0 0 452 759.4h9.28c2.93 8.35 6.59 16.72 10.22 24.88l-6.08 7.82a50.28 50.28 0 0 0-14.44 35.95 47 47 0 0 0 14.63 33.83l33 33a52.07 52.07 0 0 0 35.49 14.87 49.28 49.28 0 0 0 35.48-14.87l6.86-6.86c8.08 3.58 16.36 7.2 24.61 10.09v9.27a49.63 49.63 0 0 0 49.29 49.28h45.85a49.63 49.63 0 0 0 49.28-49.28v-9.27c8.3-2.91 16.56-6.52 24.6-10.09l6.87 6.86a52 52 0 0 0 35.48 14.87 49.25 49.25 0 0 0 35.48-14.87l33.06-33.06a50.19 50.19 0 0 0 14.59-36.1 46.93 46.93 0 0 0-14.63-33.83l-6.82-6.83c3.58-8.07 7.19-16.36 10.09-24.6h9.28a49.61 49.61 0 0 0 49.28-49.29v-45.84c-0.03-26.12-19.61-47.66-44.57-50.1zM893.3 712h-11.69A44.53 44.53 0 0 0 839 743.21v0.1a106.35 106.35 0 0 1-9.28 22.7l-0.05 0.09a45.42 45.42 0 0 0 8.06 53.09l8.28 8.28a5 5 0 0 1-0.22 2.26l-32.58 32.6h-1.45l-8.43-9.49-0.14-0.15a46.08 46.08 0 0 0-53-9.17l-0.13 0.07a105.86 105.86 0 0 1-22.74 9.3h-0.11a44.54 44.54 0 0 0-31.19 42.72v11.56a1.16 1.16 0 0 1-1 1h-45.61a1.17 1.17 0 0 1-1-1v-11.48a44.52 44.52 0 0 0-31.2-42.69h-0.11a105.87 105.87 0 0 1-22.73-9.3l-0.13-0.07a46.08 46.08 0 0 0-53 9.17l-8.52 8.53h-1.46l-0.06-0.06-32.82-32.79a5 5 0 0 1 0.19-2.18l9-8 0.15-0.14c14-14 17.2-34.82 8.11-53l-0.09-0.17a105.61 105.61 0 0 1-9.28-22.7v-0.09a44.53 44.53 0 0 0-42.67-31.2H452.1a1.17 1.17 0 0 1-1-1v-45.58a1.17 1.17 0 0 1 1-1h11.69a44.54 44.54 0 0 0 42.61-31.18v-0.1a105 105 0 0 1 9.28-22.7v-0.09a45.43 45.43 0 0 0-8.07-53.09l-8.2-8.26a5.05 5.05 0 0 1 0.21-2.28l32.6-32.59h1.48l8.43 9.5 0.14 0.14a46 46 0 0 0 53 9.17l0.17-0.09a105.31 105.31 0 0 1 22.7-9.27h0.1a44.56 44.56 0 0 0 31.2-42.75v-12.71a1.15 1.15 0 0 1 1-1H696a1.17 1.17 0 0 1 1 1v11.57a44.55 44.55 0 0 0 31.19 42.72h0.1a105.41 105.41 0 0 1 22.7 9.27l0.16 0.09a46.05 46.05 0 0 0 53-9.17l8.53-8.52a5.41 5.41 0 0 1 0.75 0h0.71l0.06 0.05 32.8 32.78a5.09 5.09 0 0 1-0.22 2.28l-9.13 9.13c-14 14-17.19 34.82-8.11 53l0.09 0.17A106.14 106.14 0 0 1 839 633.2v0.09a44.54 44.54 0 0 0 42.61 31.19h11.69a1.17 1.17 0 0 1 1 1V711a1.17 1.17 0 0 1-1 1z"  /><path fill="#333333" d="M671.7 594a92.78 92.78 0 1 0 92.78 92.78A92.86 92.86 0 0 0 671.7 594z m35.46 128.24a50.16 50.16 0 1 1 14.66-35.46 50.11 50.11 0 0 1-14.66 35.41zM351.58 126.51h297.45v62H351.58z"  /><path fill="#333333" d="M949.86 311.32V222c0-52.62-41.72-95.44-93-95.44h-70.8v62h70.8c17.09 0 31 15 31 33.44v58.37H137.54V222c0-18.44 13.91-33.44 31-33.44h46v-62h-46c-51.28 0-93 42.82-93 95.44v81.59a31.06 31.06 0 0 0 0 15.56v402.64c0 52.62 41.72 95.43 93 95.43h220.78a109 109 0 0 1 2.46-15.69 111.12 111.12 0 0 1-18.45-14.69 109.53 109.53 0 0 1-22.45-31.62H168.54c-17.09 0-31-15-31-33.43V342.32h750.32v94.36l0.45 0.44 32.52 32.54a105.72 105.72 0 0 1 29 49.19V311.32z"  /><path fill="#333333" d="M286.82 245a31 31 0 0 0 31-31V99.58a31 31 0 1 0-62 0V214a31 31 0 0 0 31 31zM720.87 245a31 31 0 0 0 31-31V99.58a31 31 0 0 0-62 0V214a31 31 0 0 0 31 31zM447.61 482.74a31 31 0 0 0-31-31h-161a31 31 0 0 0 0 62h161a31 31 0 0 0 31-31zM255.58 596.9a31 31 0 0 0 0 62H339a31 31 0 0 0 0-62z"  /></svg>