<?xml version="1.0" standalone="no"?><!DOCTYPE svg PUBLIC "-//W3C//DTD SVG 1.1//EN" "http://www.w3.org/Graphics/SVG/1.1/DTD/svg11.dtd"><svg class="icon" width="200px" height="200.00px" viewBox="0 0 1024 1024" version="1.1" xmlns="http://www.w3.org/2000/svg"><path fill="#333333" d="M955.76 300.33c-0.07-4.62 0.41-14.07 0.77-21.27 0.62-12.3 1.33-26.24 1-37.82-0.31-11-1-34-20.26-40.1-8.62-2.73-17.85-0.58-25.33 5.92a52.44 52.44 0 0 0-9.31 11.13l-3.15 3.81c-0.66 0.81-1.38 1.69-2.08 2.53-4.92-2.31-12.51-6.43-20.42-10.72-8.79-4.76-19.43-10.53-32.9-17.5-11.53-22.23-26.52-37.69-44.62-46-17.39-8-37.1-8.49-54.08-1.37-21.81 9.13-34.27 28.42-31.57 47.09-2.23 14.83 2.88 27.94 6.8 37.29-21.47 9.27-29.21 25.14-31.81 37.54-3.16 15-0.09 29.87 2.61 43 0.75 3.61 1.73 8.38 2.24 12.1-65.08 0.52-82.09 15.8-97.53 35.71-6.85 8.83-11.8 15.22-37.58 19.27-20.73 3.25-27.15-0.56-36.86-6.32-5.63-3.35-12.64-7.51-21.92-10.16a22.64 22.64 0 0 0-3.05-0.64c-20.22-2.76-35.21-0.92-45.14 0.3-2.25 0.28-4.86 0.6-6.78 0.74-43.51-75.14-91.1-113.58-119-118.35-27.4-4.68-45.27-7.25-62.41-3.52-20.47 4.45-34.69 17-49.75 34.44-7.19 8.33-12.65 15.36-17 21-12.66 16.29-15.66 20.16-35.91 26.71-0.46 0.15-0.91 0.31-1.36 0.49a125.62 125.62 0 0 1-39.6 9.29c-10.08 0.92-21.5 2-31.78 11.32-9.22 8.4-14.55 20.94-20.15 38.47a22 22 0 0 0 1.64 17.23c10.11 18.52 9.16 24.36 8.23 30-2.53 15.51-0.53 28.11 17.19 46.65l0.53 0.54c11.89 11.6 18.46 21.87 19 29.7 0.4 5.9-2.61 11.91-6.11 18.87-3.3 6.57-7 14-8.37 22.72-1.8 11.9 1.47 23.4 9.47 33.26a21.7 21.7 0 0 0 5.19 4.65c30.05 19.29 51.29 37.95 70 54.4 19.15 16.82 34.27 30.1 51.92 37.85 18.37 8.07 36.71 8.83 57.06 2.24 4.07 8 10.87 20.88 26.48 25.69 16.6 5.13 33.05-2.24 44-8.22a22.17 22.17 0 0 0 4.5-3.26c6.46-6.07 11.17-8.16 13.37-8.1 1.95 0.05 4.95 1.89 7.84 3.66a46.86 46.86 0 0 0 12.13 5.8 28.23 28.23 0 0 0 8.27 1c-0.42 6.35-1.79 10.55-2.74 12.33a22 22 0 0 0-13.8 18.12c-0.93 8.68-1.15 18.7 4.27 27.22a26.56 26.56 0 0 0 17 11.8c3.1 42.7 36.1 54.38 52.39 60.14a22 22 0 0 0 17.31-1.12c2.22-1.13 4.61-2.67 8.24-5 27-17.37 45.93-24.95 56.31-22.53 2 0.46 3.67 1.35 5.48 4.07a45 45 0 0 0 29.85 24.18 58 58 0 0 0 9.29 1.57c-6.18 8.32-13 19.8-8.23 33.84 5.45 15.94 22.29 22.14 36.34 25.76a22.26 22.26 0 0 0 5.49 0.69 21.93 21.93 0 0 0 10-2.43c17.39-8.92 27.1-19.56 32.41-30a347.66 347.66 0 0 1-39.15-62.63c-16.62-34.74-25-69.86-25-104.4a196.8 196.8 0 0 1 197.3-197.31q7.35 0 14.59 0.53c20.12-16.29 26.89-36.22 31.73-50.48 1.5-4.42 3.74-11 5.24-12.85a6.2 6.2 0 0 1 1.07-0.2c0.37 0 0.74-0.1 1.11-0.17 29.83-5.3 47.59-13.94 57.58-28 10.48-14.77 8.71-30.59 7.41-42.13-0.77-6.81-1.43-12.68 0.31-16.62 2.23-5.08 10-10.66 21.75-15.71a22 22 0 0 0 12-27.67z"  /><path fill="#333333" d="M802.93 545.65A144.78 144.78 0 0 0 657.63 691c0 116.87 127.14 208.64 132.55 212.49a22 22 0 0 0 25.5 0c5.42-3.89 132.56-95.66 132.56-212.49a144.8 144.8 0 0 0-145.31-145.35z m0 197.38c-30.14 0-52.06-24.67-52.06-52.07 0-30.14 24.66-52.06 52.06-52.06S855 663.56 855 691c0 30.1-21.92 52-52.07 52z"  /></svg>