<?xml version="1.0" standalone="no"?><!DOCTYPE svg PUBLIC "-//W3C//DTD SVG 1.1//EN" "http://www.w3.org/Graphics/SVG/1.1/DTD/svg11.dtd"><svg class="icon" width="200px" height="200.00px" viewBox="0 0 1024 1024" version="1.1" xmlns="http://www.w3.org/2000/svg"><path fill="#333333" d="M523.73333333 704.84266667a165.472 165.472 0 0 1 47.49866667-116.49066667 359.17866667 359.17866667 0 0 0-46.77333333-23.09333333 244.66133333 244.66133333 0 0 0 36.52266666-30.08 242.13333333 242.13333333 0 1 0-342.4 0 244.66133333 244.66133333 0 0 0 36.52266667 30.08A357.90933333 357.90933333 0 0 0 35.78666667 844.24533333c0 0.18133333 0 0.36266667-0.08533334 0.544v0.224c-0.064 0.45866667-0.11733333 0.91733333-0.16 1.38666667 0 0.26666667 0 0.53333333-0.064 0.8s0 0.544 0 0.82133333v1.64266667a32.97066667 32.97066667 0 0 0 0.672 6.67733333 0.13866667 0.13866667 0 0 0 0 0.064q0.128 0.61866667 0.288 1.248l0.096 0.39466667c0.064 0.256 0.13866667 0.50133333 0.21333334 0.75733333s0.16 0.576 0.24533333 0.864a33.70666667 33.70666667 0 0 0 17.35466667 20.10666667l0.11733333 0.064c0.256 0.128 0.52266667 0.23466667 0.77866667 0.352l0.75733333 0.34133333 0.36266667 0.13866667c0.39466667 0.16 0.8 0.32 1.216 0.46933333a33.792 33.792 0 0 0 6.50666666 1.632h0.128q1.01333333 0.13866667 2.048 0.224h0.576c0.61866667 0 1.23733333 0.064 1.86666667 0.064h564.42666667l-60.58666667-60.58666666A165.49333333 165.49333333 0 0 1 523.73333333 704.84266667z"  /><path fill="#333333" d="M983.84 678.73066667a107.34933333 107.34933333 0 0 0-61.792-72.24533334q-3.648-1.55733333-7.41333333-2.83733333c-1.92-0.65066667-3.86133333-1.25866667-5.824-1.792a107.136 107.136 0 0 0-28.61866667-3.86133333c-1.55733333 0-3.104 0-4.65066667 0.10666666h-0.416c-1.472 0.07466667-2.944 0.17066667-4.40533333 0.29866667h-0.59733333c-1.42933333 0.13866667-2.85866667 0.29866667-4.26666667 0.49066667l-0.64 0.08533333c-1.41866667 0.192-2.82666667 0.416-4.26666667 0.672l-0.576 0.10666667c-1.44 0.26666667-2.85866667 0.56533333-4.26666666 0.88533333l-0.40533334 0.096c-1.472 0.352-2.944 0.71466667-4.39466666 1.06666667h-0.08533334q-4.576 1.28-9.01333333 2.96533333h-0.10666667c-1.44 0.55466667-2.86933333 1.14133333-4.26666666 1.74933333l-0.224 0.096q-2.13333333 0.91733333-4.16 1.92l-0.224 0.10666667c-1.38666667 0.68266667-2.752 1.38666667-4.11733334 2.13333333l-0.11733333 0.064a105.20533333 105.20533333 0 0 0-8.8 5.408l34.69866667 34.688A23.744 23.744 0 1 1 821.33333333 684.69333333l-36.04266666-36.032-18.976-18.98666666-0.448-0.34133334c-0.736-0.736-1.48266667-1.45066667-2.24-2.13333333l-0.16-0.14933333c-0.72533333-0.68266667-1.46133333-1.35466667-2.19733334-2.016a106.83733333 106.83733333 0 0 0-19.72266666-13.93066667l-0.128-0.064c-1.35466667-0.74666667-2.73066667-1.45066667-4.11733334-2.13333333l-0.224-0.10666667q-2.05866667-1.01333333-4.16-1.92l-0.224-0.096a123.41333333 123.41333333 0 0 0-4.26666666-1.74933333h-0.10666667c-2.95466667-1.12-5.952-2.13333333-9.01333333-2.96533334h-0.07466667c-1.46133333-0.40533333-2.92266667-0.768-4.40533333-1.06666666l-0.40533334-0.096c-1.41866667-0.32-2.83733333-0.61866667-4.26666666-0.88533334l-0.58666667-0.10666666c-1.39733333-0.256-2.816-0.48-4.26666667-0.672l-0.64-0.08533334c-1.41866667-0.192-2.848-0.352-4.26666666-0.49066666h-0.59733334c-1.46133333-0.128-2.92266667-0.224-4.39466666-0.29866667h-0.416c-1.54666667-0.064-3.09333333-0.10666667-4.65066667-0.10666667a107.15733333 107.15733333 0 0 0-28.62933333 3.86133334c-1.96266667 0.53333333-3.904 1.14133333-5.824 1.792-2.29333333 0.77866667-4.56533333 1.64266667-6.79466667 2.57066666-1.41866667 0.59733333-2.82666667 1.216-4.21333333 1.86666667-0.85333333 0.40533333-1.696 0.81066667-2.53866667 1.23733333a106.89066667 106.89066667 0 0 0-27.552 171.06133334l94.93333333 94.93333333a106.15466667 106.15466667 0 0 0 75.552 31.296A106.144 106.144 0 0 0 860.8 875.30666667l94.93333333-94.93333334a106.112 106.112 0 0 0 31.296-75.54133333 107.91466667 107.91466667 0 0 0-3.18933333-26.10133333z"  /></svg>