<?xml version="1.0" standalone="no"?><!DOCTYPE svg PUBLIC "-//W3C//DTD SVG 1.1//EN" "http://www.w3.org/Graphics/SVG/1.1/DTD/svg11.dtd"><svg t="1642813442141" class="icon" viewBox="0 0 1024 1024" version="1.1" xmlns="http://www.w3.org/2000/svg" p-id="14752" xmlns:xlink="http://www.w3.org/1999/xlink" width="16" height="16"><defs><style type="text/css"></style></defs><path d="M513.44 64.83c-247.3 0-448 200.7-448 448s200.71 448 448 448 448-200.7 448-448-200.72-448-448-448z m244.74 449.63c0 18.48-7.68 38.5-21.56 52.36L608.8 694.68A31.58 31.58 0 0 1 564.14 650l104.72-104.7H299.29c-18.45 0-32.29-13.85-32.29-32.3s13.82-32.34 33.84-30.81h369.57L565.68 377.44a31.59 31.59 0 1 1 44.69-44.67L738.16 460.6a69.49 69.49 0 0 1 20.02 53.86z" p-id="14753"></path></svg>