<?xml version="1.0" standalone="no"?><!DOCTYPE svg PUBLIC "-//W3C//DTD SVG 1.1//EN" "http://www.w3.org/Graphics/SVG/1.1/DTD/svg11.dtd"><svg class="icon" width="200px" height="200.00px" viewBox="0 0 1024 1024" version="1.1" xmlns="http://www.w3.org/2000/svg"><path fill="#333333" d="M511.17 70.82C266.27 70.82 67.51 269.36 67.51 514s198.76 443.17 443.66 443.17S954.82 758.63 954.82 514 756.06 70.82 511.17 70.82z m0 817.22c-205.86 0-374.45-168.41-374.45-374S305.31 140 511.17 140s374.44 166.59 374.44 374c0 205.63-168.59 374-374.44 374z m259.09-434.31L623 306.59A36.37 36.37 0 1 0 571.5 358l120.68 120.54H266.27c-23.07-1.77-39 14.18-39 35.46s16 37.23 37.26 37.23H690.4L569.73 671.77a36.37 36.37 0 0 0 51.46 51.41L768.48 576c16-15.95 24.85-39 24.85-60.27a80 80 0 0 0-23.07-62z m0 0" /></svg>