<?xml version="1.0" standalone="no"?><!DOCTYPE svg PUBLIC "-//W3C//DTD SVG 1.1//EN" "http://www.w3.org/Graphics/SVG/1.1/DTD/svg11.dtd"><svg class="icon" width="200px" height="200.00px" viewBox="0 0 1024 1024" version="1.1" xmlns="http://www.w3.org/2000/svg"><path fill="#333333" d="M898.69 650.67h-87.51v-100.2a65.21 65.21 0 0 0-65.13-65.13H542.48V376.46H630a33.5 33.5 0 0 0 33.4-33.4v-136.6a33.5 33.5 0 0 0-33.4-33.4H399a33.5 33.5 0 0 0-33.4 33.4v136.6a33.5 33.5 0 0 0 33.4 33.4h87.51v108.88H283.14A65.21 65.21 0 0 0 218 550.47v100.2h-87.5a33.5 33.5 0 0 0-33.4 33.4v136.6a33.5 33.5 0 0 0 33.4 33.4h231a33.5 33.5 0 0 0 33.4-33.4v-136.6a33.5 33.5 0 0 0-33.4-33.4H274v-100.2a9.55 9.55 0 0 1 9.35-9.35h462.7a9.55 9.55 0 0 1 9.35 9.35v100.2h-87.5a33.5 33.5 0 0 0-33.4 33.4v136.6a33.5 33.5 0 0 0 33.4 33.4h230.79a33.5 33.5 0 0 0 33.4-33.4v-136.6a33.5 33.5 0 0 0-33.4-33.4z m0 0" /></svg>