<?xml version="1.0" standalone="no"?><!DOCTYPE svg PUBLIC "-//W3C//DTD SVG 1.1//EN" "http://www.w3.org/Graphics/SVG/1.1/DTD/svg11.dtd"><svg class="icon" width="200px" height="200.00px" viewBox="0 0 1024 1024" version="1.1" xmlns="http://www.w3.org/2000/svg"><path fill="#333333" d="M168.68 805.59h687.69a63.57 63.57 0 0 0 63.5-63.5v-444.9a63.58 63.58 0 0 0-63.5-63.5h-66.72v63h66.72a0.49 0.49 0 0 1 0.5 0.5v444.9a0.5 0.5 0 0 1-0.5 0.5H168.68a0.51 0.51 0 0 1-0.5-0.5v-444.9a0.5 0.5 0 0 1 0.5-0.5h19.48v-63h-19.48a63.58 63.58 0 0 0-63.5 63.5v444.9a63.57 63.57 0 0 0 63.5 63.5zM605.55 844a32.28 32.28 0 0 1-32.19 32.19H453.29A32.28 32.28 0 0 1 421.1 844H71.4v10.69a71.68 71.68 0 0 0 71.67 71.68H882a71.68 71.68 0 0 0 71.68-71.68V844z"  /><path fill="#333333" d="M243 270.46h44v304L254.58 608a22 22 0 0 0 31.64 30.57l26.08-27h307.17V647a22 22 0 0 0 22 22h92.58a22 22 0 0 0 22-22v-35.4h44.05a22 22 0 0 0 22-22V481.1a22 22 0 0 0-22-22h-44.05V155.87a22.49 22.49 0 0 0-0.24-3.3l32.66-33.81a22 22 0 0 0-31.64-30.57l-44.13 45.68H439.48V98.48a22 22 0 0 0-22-22H309a22 22 0 0 0-22 22v35.39h-44a22 22 0 0 0-22 22v92.59a22 22 0 0 0 22 22zM712.05 625h-48.58v-13.4h48.58z m-48.59-376.86l48.59-50.29V459.1h-48.58V248.46c0-0.11 0-0.21-0.01-0.32z m-224-70.27h230.7l-46.95 48.59H439.48z m0 92.59h141.26L439.48 416.63z m180 23.21V459.1H459.62z m-202 209.43H778.1v64.47H354.81l62.31-64.48zM331 120.48h64.47v341.69L331 528.89z m-66 57.39h22v48.59h-22z"  /></svg>