<?xml version="1.0" standalone="no"?><!DOCTYPE svg PUBLIC "-//W3C//DTD SVG 1.1//EN" "http://www.w3.org/Graphics/SVG/1.1/DTD/svg11.dtd"><svg class="icon" width="200px" height="200.00px" viewBox="0 0 1024 1024" version="1.1" xmlns="http://www.w3.org/2000/svg"><path fill="#333333" d="M897.48 566a159.34 159.34 0 0 0-33.13-49.33 156.56 156.56 0 0 0-49-32.85 149.87 149.87 0 0 0-115-1.69l-0.37 0.16-1.31 0.61v-65a81.13 81.13 0 0 0-23.27-57.28 78.49 78.49 0 0 0-57.08-24.11h-33.59a158.58 158.58 0 0 0-36.2-166.6 164.16 164.16 0 0 0-49.37-33.71 155.68 155.68 0 0 0-122 0 163 163 0 0 0-49.36 33.7 160.62 160.62 0 0 0-33.35 49.67 152.52 152.52 0 0 0-12.67 62 147.34 147.34 0 0 0 9.65 53.26v0.1l0.63 1.55h-85a81.81 81.81 0 0 0-81.31 81.39V507a75 75 0 0 0 10 38.36l0.1 0.17a43.38 43.38 0 0 0 31.47 20.2h0.34a63.65 63.65 0 0 0 30.34-5.35l0.23-0.11c6.06-3 12.65-6.19 20.15-9.65l0.14-0.06a36.53 36.53 0 0 1 6.56-2.47l0.48-0.13 0.46-0.21a78 78 0 0 1 63.57-0.74h0.1a75.54 75.54 0 0 1 25.54 17.3l0.08 0.08a77 77 0 0 1 17.31 26.08 79.77 79.77 0 0 1 6.29 32.09v0.13a77.16 77.16 0 0 1-6.18 31.31 78.87 78.87 0 0 1-17.38 25.66l-0.08 0.08a75.67 75.67 0 0 1-25.74 17.3l-0.16 0.07c-22.92 10.14-42.79 10.57-60.75 1.32l-0.33-0.16c-0.61-0.27-1.37-0.67-2.43-1.22-1.34-0.7-3.19-1.66-5.81-2.91a62.76 62.76 0 0 1-5.81-3.29c-1.1-0.68-2.15-1.32-3.13-1.88a49.21 49.21 0 0 0-60.11-1.56l-0.27 0.21c-10.89 8.92-22.66 20.14-24.67 40.55a29.89 29.89 0 0 0-0.29 5.75V827a76.59 76.59 0 0 0 24.12 57.05 79.16 79.16 0 0 0 56.94 23.43h412.4A77.8 77.8 0 0 0 675 883.84a78.88 78.88 0 0 0 23.54-56.93v-58.23l1.69 0.67a149.8 149.8 0 0 0 115-1.26 151.64 151.64 0 0 0 49.13-33.41 158 158 0 0 0 33-48.51 150.15 150.15 0 0 0 12.12-60.32 152.51 152.51 0 0 0-12-59.85z m-53.73 94.63l-0.07 0.15a108.63 108.63 0 0 1-22.68 30.9 127.2 127.2 0 0 1-35.81 22.5h-0.1c-23.65 10.32-54.08 5.18-74.65-3.06a106 106 0 0 1-29.32-17.94l-0.13-0.11a25.85 25.85 0 0 0-27.11-3.5 25.38 25.38 0 0 0-14.68 22.8v112.82a25.07 25.07 0 0 1-7.62 18.43l-0.22 0.22a24.41 24.41 0 0 1-18.36 7.79H212.76a25.92 25.92 0 0 1-18.89-7.86l-0.2-0.2a24.81 24.81 0 0 1-7.77-18.48V743v-1.32c0-0.88 0-2.21 0.05-3.31a22.33 22.33 0 0 1 5.64 2.9l0.64 0.39c6.14 3.26 11.1 5.4 17.94 8.28 30.22 14.25 69 13.75 103.85-1.35l0.24-0.11A143.78 143.78 0 0 0 365 707.07l0.09-0.12a208.64 208.64 0 0 0 22.51-39.35v-0.1a129.79 129.79 0 0 0 0-100.1c-8.53-20.18-17.67-35.35-27.25-45.14-37.68-37.41-101.24-50.9-147.9-31.4-2.51 0.93-4.74 1.85-6.7 2.67-1.33 0.55-2.55 1.05-3.68 1.48l-0.58 0.26c-5.57 2.85-11 5.34-15.41 7.31a33.3 33.3 0 0 1-0.34-4.89v-79.56a25.34 25.34 0 0 1 8-18.78l0.35-0.36a24.46 24.46 0 0 1 18.69-8.09h132.4a25.27 25.27 0 0 0 19.75-41 107.48 107.48 0 0 0-8.75-9.31c-5-4.86-9.66-9.45-11.9-15.4a90.43 90.43 0 0 1-5.87-32.86 117 117 0 0 1 7.86-43.16 131.45 131.45 0 0 1 25.46-36 107.35 107.35 0 0 1 31.54-21.59 96.74 96.74 0 0 1 75.76 0 107.27 107.27 0 0 1 31.6 21.61c7.3 7.29 14.46 19.34 21.3 35.81a115.9 115.9 0 0 1 7.92 43.29v0.18c0.44 21.11-6.28 38.62-21.86 56.85a25.27 25.27 0 0 0 19.3 41.48h75.65a24 24 0 0 1 18.19 7.76l0.2 0.21A26.59 26.59 0 0 1 639.2 418v119a25.3 25.3 0 0 0 41.72 19.25c1.51-1.28 3-2.57 4.49-3.87 7.57-6.59 14.73-12.82 25.21-18a100.59 100.59 0 0 1 106 13.42l0.19 0.15a90.64 90.64 0 0 1 26.5 32.21l0.08 0.16c7.02 13.4 7.61 27.48 7.61 39.68a112.54 112.54 0 0 1-7.25 40.62z" /></svg>