<?xml version="1.0" standalone="no"?><!DOCTYPE svg PUBLIC "-//W3C//DTD SVG 1.1//EN" "http://www.w3.org/Graphics/SVG/1.1/DTD/svg11.dtd"><svg class="icon" width="200px" height="200.00px" viewBox="0 0 1024 1024" version="1.1" xmlns="http://www.w3.org/2000/svg"><path fill="#333333" d="M423.1625 308.375V95.95624999L178.128125 341h212.409375a32.625 32.625 0 0 0 32.625-32.625z"  /><path fill="#333333" d="M789.809375 95.95624999H464.834375v217.79062501a65.775 65.775 0 0 1-65.69062499 65.690625H181.371875v491.83125001a59.1375 59.1375 0 0 0 59.0625 59.06249998h549.375a59.128125 59.128125 0 0 0 59.0625-59.0625v-716.25a59.1375 59.1375 0 0 0-59.0625-59.0625z m-256.19062501 120.09375001h181.50937501a20.625 20.625 0 0 1 0 41.25H533.61875001a20.625 20.625 0 0 1-2e-8-41.25z m0 109.959375h145.79062501a20.625 20.625 0 0 1 0 41.25H533.61875001a20.625 20.625 0 0 1-2e-8-41.25zM420.51874999 845.328125H305.440625c-10.434375 0-18.88125001-6.675-18.88125-14.89687499V689.2625c0-4.63125001 2.71875001-8.990625 7.36875-11.8125L389.1875 619.71875001c12.825-7.7625 31.36875001-0.5625 31.36875001 12.18749998z m139.87500002 0H458.28124999V643.25c0-13.228125 19.78125001-20.278125 32.3625-11.53125001l69.75 48.45000002z m176.69999998-14.8875c0 8.221875-8.4375 14.8875-18.88124999 14.8875H598.15625001V655.521875l107.81249998-72.51562499a22.978125 22.978125 0 0 1 23.25-0.77812501c5.034375 2.8125 7.884375 7.5 7.88437501 12.35625z m0.15937501-349.89375L568.765625 589.23125001h-0.075c-0.375 0.234375-0.75 0.459375-1.125 0.66562499l-0.15 0.08437499c-0.421875 0.225-0.853125 0.45-1.28437501 0.64687501l-0.3375 0.14062499-0.9375 0.36562501c-0.234375 0.09375001-0.478125 0.16875001-0.7125 0.253125l-0.54374999 0.178125-0.80625001 0.225-0.47812499 0.121875-0.83437501 0.178125c-0.159375 0-0.31875001 0.05625001-0.4875 0.084375l-0.81562499 0.13124999-0.57187501 0.05625001c-0.24375001 0-0.496875 0.05625001-0.74062499 0.065625s-0.675 0-1.02187501 0H556.23125001c-0.3375 0-0.496875 0-0.75-0.065625l-0.5625-0.05625001-0.825-0.13124999-0.4875-0.084375-0.83437501-0.178125-0.47812499-0.121875-0.80625001-0.225-0.54374999-0.1875-0.7125-0.24375c-0.328125-0.121875-0.646875-0.2625-0.9375-0.40312501l-0.27187501-0.1125c-0.440625-0.196875-0.871875-0.421875-1.30312499-0.64687499l-0.12187501-0.075c-0.39375001-0.215625-0.778125-0.440625-1.15312499-0.684375h-0.06562501l-100.99687501-65.334375-115.74374999 64.621875A20.625 20.625 0 0 1 309.5 552.490625l126.5625-70.678125h0.065625l0.3-0.159375c0.515625-0.271875 1.040625-0.525 1.56562501-0.75h0.08437499a20.521875 20.521875 0 0 1 7.6125-1.63125h0.046875c0.609375 0 1.21875001 0 1.81874999 0.05625h0.225c0.5625 0.046875 1.125 0.121875 1.67812501 0.21562499l0.34687499 0.04687501q0.796875 0.159375 1.60312501 0.36562501l0.4125 0.1125c0.54375001 0.159375 1.0875 0.3375 1.6125 0.54374999l0.28125 0.103125c0.590625 0.234375 1.18125001 0.496875 1.75312499 0.7875h0.04687501a19.4625 19.4625 0 0 1 1.81875 1.05l100.21875 64.82812499 98.79375-63.75H617.75a20.625 20.625 0 0 1 0-41.25h108.2625a20.625 20.625 0 0 1 19.884375 15.14062501c0 0.103125 0.05625001 0.215625 0.09375 0.328125 0.09375001 0.365625 0.16875001 0.73125001 0.24375 1.10624999a20.625 20.625 0 0 1-8.98125 21.59062501z"  /></svg>