<?xml version="1.0" standalone="no"?><!DOCTYPE svg PUBLIC "-//W3C//DTD SVG 1.1//EN" "http://www.w3.org/Graphics/SVG/1.1/DTD/svg11.dtd"><svg class="icon" width="200px" height="200.00px" viewBox="0 0 1024 1024" version="1.1" xmlns="http://www.w3.org/2000/svg"><path fill="#333333" d="M156.809375 386.15a28.678125 28.678125 0 0 0 28.725-28.725V208.5875a19.2 19.2 0 0 1 19.2-19.2h124.6875a28.8 28.8 0 0 0 0-57.6h-124.6875a77.025 77.025 0 0 0-76.8 76.8v148.8375a28.809375 28.809375 0 0 0 28.875 28.725z m662.325-254.3625h-124.6875a28.81875 28.81875 0 1 0 0 57.6h124.6875a19.209375 19.209375 0 0 1 19.2 19.2v148.8375a28.725 28.725 0 1 0 57.440625 0V208.5875c0.159375-42.24375-34.40625-76.8-76.640625-76.8z m-489.525 704.25h-124.875a19.2 19.2 0 0 1-19.2-19.2V722.065625a28.8 28.8 0 0 0-57.6 0v94.771875a77.025 77.025 0 0 0 76.8 76.809375h124.6875a28.809375 28.809375 0 0 0 0.159375-57.609375z m537.6-142.6875a28.678125 28.678125 0 0 0-28.725 28.715625v94.771875a19.2 19.2 0 0 1-19.2 19.2h-124.6875a28.81875 28.81875 0 1 0 0 57.609375h124.5375a77.034375 77.034375 0 0 0 76.8-76.809375V722.065625a28.78125 28.78125 0 0 0-28.725-28.715625zM214.409375 515.75a28.678125 28.678125 0 0 0 28.725 28.725h537.6a28.725 28.725 0 0 0 0-57.45H243.134375A28.490625 28.490625 0 0 0 214.409375 515.75z m0 0" /></svg>