<?xml version="1.0" standalone="no"?><!DOCTYPE svg PUBLIC "-//W3C//DTD SVG 1.1//EN" "http://www.w3.org/Graphics/SVG/1.1/DTD/svg11.dtd"><svg class="icon" width="200px" height="200.00px" viewBox="0 0 1024 1024" version="1.1" xmlns="http://www.w3.org/2000/svg"><path fill="#333333" d="M511.73 70c-244.74 0-444 199.27-444 444 0 244.91 199.26 444 444 444 244.91 0 444-199.09 444-444 0-244.73-199.09-444-444-444zM723.6 411.88L472.48 663.19a33.5 33.5 0 0 1-23.62 9.81 33.84 33.84 0 0 1-23.63-9.76L299.67 537.62a33.28 33.28 0 0 1 47.07-47.06l102.12 102.12 227.68-227.87a33.28 33.28 0 0 1 47.06 47.07z m0 0" /></svg>