<?xml version="1.0" standalone="no"?><!DOCTYPE svg PUBLIC "-//W3C//DTD SVG 1.1//EN" "http://www.w3.org/Graphics/SVG/1.1/DTD/svg11.dtd"><svg class="icon" width="200px" height="200.00px" viewBox="0 0 1024 1024" version="1.1" xmlns="http://www.w3.org/2000/svg"><path fill="#333333" d="M130.33 548.25m62 0l214.29 0q62 0 62 62l0 227.84q0 62-62 62l-214.29 0q-62 0-62-62l0-227.84q0-62 62-62Z"  /><path fill="#333333" d="M130.33 123.7m62 0l214.29 0q62 0 62 62l0 227.84q0 62-62 62l-214.29 0q-62 0-62-62l0-227.84q0-62 62-62Z"  /><path fill="#333333" d="M558.63 123.7m62 0l214.29 0q62 0 62 62l0 227.84q0 62-62 62l-214.29 0q-62 0-62-62l0-227.84q0-62 62-62Z"  /><path fill="#333333" d="M519.02 522.38m189.66 0l0 0q189.66 0 189.66 189.66l0 0q0 189.66-189.66 189.66l0 0q-189.66 0-189.66-189.66l0 0q0-189.66 189.66-189.66Z"  /></svg>