<?xml version="1.0" standalone="no"?><!DOCTYPE svg PUBLIC "-//W3C//DTD SVG 1.1//EN" "http://www.w3.org/Graphics/SVG/1.1/DTD/svg11.dtd"><svg class="icon" width="200px" height="200.00px" viewBox="0 0 1024 1024" version="1.1" xmlns="http://www.w3.org/2000/svg"><path fill="#333333" d="M512 65.5c-246.14 0-445.62 199.26-445.62 445.18S265.86 955.85 512 955.85s445.69-199.26 445.69-445.17S758.21 65.5 512 65.5z m0 820c-207 0-375.24-168.1-375.24-374.83S305.08 135.84 512 135.84s375.23 168.1 375.23 374.84S719 885.51 512 885.51z"  /><path fill="#333333" d="M667.84 430.9L513.46 330.47c-26.91-18.34-61.32-19.94-90.91-3.92C392.78 344 375 376.41 376 409.89v201a94.23 94.23 0 0 0 48.49 84.76 86 86 0 0 0 89.13-4.09L667.3 590.45a96.11 96.11 0 0 0 0.54-159.55z m-39.93 99.9L474.25 631.94a17.5 17.5 0 0 1-8.92 2.85 12.82 12.82 0 0 1-6.24-1.43c-7.48-4.27-11.94-12.28-11.76-21.72v-203c-0.18-8.54 4.1-16.56 10.51-20.3a13.57 13.57 0 0 1 7-1.78 15.93 15.93 0 0 1 9.27 3l154.68 100.82c6.42 4.27 10.17 11.39 10 19.94a24.86 24.86 0 0 1-10.88 20.48z"  /></svg>