<?xml version="1.0" standalone="no"?><!DOCTYPE svg PUBLIC "-//W3C//DTD SVG 1.1//EN" "http://www.w3.org/Graphics/SVG/1.1/DTD/svg11.dtd"><svg class="icon" width="200px" height="200.00px" viewBox="0 0 1024 1024" version="1.1" xmlns="http://www.w3.org/2000/svg"><path fill="#333333" d="M511 71C266.07 71 67.32 269.56 67.32 514.19S266.07 957.37 511 957.37s443.62-198.54 443.62-443.18S755.87 71 511 71z m0 817.22c-205.85 0-374.44-168.4-374.44-374s168.59-374 374.44-374 374.44 168.41 374.44 374-168.58 374-374.44 374z m175.69-374H511V338.69a35.5 35.5 0 0 0-71 0v211a35.58 35.58 0 0 0 35.5 35.45h209.4a35.57 35.57 0 0 0 35.49-35.45c0-19.51-14.19-35.46-33.71-35.46z m0 0" /></svg>