<?xml version="1.0" standalone="no"?><!DOCTYPE svg PUBLIC "-//W3C//DTD SVG 1.1//EN" "http://www.w3.org/Graphics/SVG/1.1/DTD/svg11.dtd"><svg class="icon" width="200px" height="200.00px" viewBox="0 0 1024 1024" version="1.1" xmlns="http://www.w3.org/2000/svg"><path fill="#333333" d="M865.69 164.74H721.9v-29.55a31 31 0 1 0-62 0v29.55H372.18v-29.55a31 31 0 0 0-62 0v29.55H164.54a62 62 0 0 0-62 62V859a62 62 0 0 0 62 62h701.15a62 62 0 0 0 62-62V226.74a62 62 0 0 0-62-62z m-555.51 62v25.42a31 31 0 1 0 62 0v-25.42H659.9v25.42a31 31 0 1 0 62 0v-25.42h143.79v136.87H164.54V226.74zM164.54 859V425.61h701.15V859z"  /><path fill="#333333" d="M324.76 558.39h-76v173.44h74.16q92 0 92-90.49-0.98-82.01-90.16-82.95z m32.86 85.78q0 47.15-40.37 47.13h-12.2v-92.38h11.26q44.12-3.75 41.31 45.25zM484.34 558.39l-61.95 173.44h55.38l6.57-22.62h56.32l6.57 22.62h56.33l-62-173.44z m10.33 114.06l17.83-62.21 18.78 62.21zM700.24 616.83l-30.03-58.44h-62.9l63.83 110.29v63.15h57.26v-64.09l63.84-109.35h-61.96l-30.04 58.44z"  /></svg>