<?xml version="1.0" standalone="no"?><!DOCTYPE svg PUBLIC "-//W3C//DTD SVG 1.1//EN" "http://www.w3.org/Graphics/SVG/1.1/DTD/svg11.dtd"><svg class="icon" width="200px" height="200.00px" viewBox="0 0 1024 1024" version="1.1" xmlns="http://www.w3.org/2000/svg"><path fill="#333333" d="M817.5 688.51v-0.2c-0.06-0.65-0.15-1.28-0.26-1.91v-0.19c-0.13-0.64-0.28-1.26-0.45-1.88l-0.06-0.2a22.4 22.4 0 0 0-0.61-1.8 2.44 2.44 0 0 1-0.1-0.24c-0.23-0.58-0.49-1.14-0.77-1.69l-0.14-0.28c-0.29-0.55-0.61-1.08-0.94-1.6 0-0.09-0.11-0.18-0.17-0.27-0.35-0.53-0.73-1-1.13-1.55l-0.15-0.2c-0.44-0.53-0.9-1-1.38-1.54l-0.06-0.07a20.19 20.19 0 0 0-1.6-1.47l-0.07-0.06c-0.54-0.44-1.1-0.86-1.68-1.25l-0.17-0.11c-0.55-0.36-1.11-0.7-1.69-1l-0.19-0.1c-0.58-0.3-1.16-0.58-1.77-0.83l-0.14-0.06c-0.62-0.25-1.25-0.48-1.89-0.67H802c-0.65-0.2-1.32-0.37-2-0.51a23 23 0 0 0-4.09-0.42h-62l25.51-24.26A22 22 0 1 0 729 612.21l-65.39 62.2-0.08 0.1c-0.48 0.45-0.93 0.93-1.36 1.42-0.06 0.08-0.13 0.15-0.19 0.22-0.4 0.48-0.79 1-1.15 1.5-0.07 0.08-0.13 0.17-0.19 0.25q-0.52 0.78-1 1.59a2 2 0 0 0-0.14 0.25c-0.31 0.55-0.59 1.12-0.85 1.71l-0.09 0.19c-0.25 0.6-0.49 1.21-0.69 1.84v0.14c-0.2 0.62-0.37 1.26-0.52 1.91v0.14c-0.13 0.63-0.24 1.26-0.32 1.91v0.21c-0.07 0.62-0.12 1.24-0.14 1.86v2.46c0.05 0.63 0.12 1.25 0.22 1.87v0.19c0.11 0.65 0.25 1.28 0.41 1.91a0.83 0.83 0 0 1 0 0.15c0.18 0.63 0.38 1.26 0.61 1.87l0.06 0.17c0.24 0.61 0.5 1.21 0.78 1.79 0 0.07 0.07 0.14 0.11 0.2 0.29 0.58 0.6 1.14 0.94 1.69l0.14 0.22a17.4 17.4 0 0 0 1.11 1.59l0.15 0.19c0.41 0.53 0.85 1 1.3 1.52l0.08 0.09 0.08 0.08c0.48 0.49 1 1 1.5 1.42l0.19 0.16c0.52 0.43 1.05 0.84 1.6 1.23l0.2 0.14c0.56 0.38 1.15 0.74 1.75 1.07l0.13 0.08q0.95 0.51 1.95 0.93h0.05a19.6 19.6 0 0 0 2 0.74c0.69 0.21 1.4 0.39 2.11 0.54 0.7 0.14 1.42 0.24 2.14 0.32 0.71 0.07 1.43 0.1 2.16 0.1H742l-54.76 54.1a22 22 0 1 0 30.92 31.3L811 706c0.52-0.52 1-1.05 1.47-1.61l0.05-0.06c0.44-0.54 0.86-1.11 1.26-1.69l0.1-0.16c0.36-0.55 0.7-1.11 1-1.7l0.09-0.18q0.45-0.87 0.84-1.77s0-0.1 0.05-0.15c0.26-0.62 0.48-1.25 0.68-1.89v-0.07a19.67 19.67 0 0 0 0.5-2 22 22 0 0 0 0.43-4.08v-0.25c0.11-0.66 0.08-1.27 0.03-1.88zM401.18 343.85v159.33H241.24a31 31 0 0 0 0 62h190.94a31 31 0 0 0 31-31V343.85a31 31 0 0 0-62 0zM111.31 235.64a30.88 30.88 0 0 0 20.46-7.72l91-80a31 31 0 0 0-40.94-46.56l-91 80a31 31 0 0 0 20.48 54.28zM711.14 147.88l91 80a31 31 0 1 0 40.94-46.56l-91-80a31 31 0 1 0-40.94 46.56z"  /><path fill="#333333" d="M495.69 869.51q-14.26 1.2-28.72 1.22c-185.91 0-337.16-151-337.16-336.55S281.06 197.63 467 197.63c146.73 0 271.84 94.05 318.07 224.93a285 285 0 0 1 71.21 23.16 399.35 399.35 0 0 0-671.55-193.27A398.41 398.41 0 0 0 467 932.6a401.24 401.24 0 0 0 79.26-7.87q-9.24-7.82-17.91-16.43a291.16 291.16 0 0 1-32.66-38.79z"  /><path fill="#333333" d="M891.65 545.61a225.22 225.22 0 1 0 66.18 159.47 224.61 224.61 0 0 0-66.18-159.47zM731.9 872.73c-92.61 0-167.9-75.21-167.9-167.65s75.29-167.65 167.9-167.65 168 75.21 168 167.65-75.39 167.65-168 167.65z"  /></svg>