<?xml version="1.0" standalone="no"?><!DOCTYPE svg PUBLIC "-//W3C//DTD SVG 1.1//EN" "http://www.w3.org/Graphics/SVG/1.1/DTD/svg11.dtd"><svg class="icon" width="200px" height="200.00px" viewBox="0 0 1024 1024" version="1.1" xmlns="http://www.w3.org/2000/svg"><path fill="#333333" d="M329.84 199.17H158.46a56.63 56.63 0 0 0-56.52 56.52v171.55a56.64 56.64 0 0 0 56.52 56.52H330a56.64 56.64 0 0 0 56.52-56.52V255.69a56.77 56.77 0 0 0-56.69-56.52z m-8.68 64.55v154.67l-154 0.65-0.66-154.66z m8.68 274.6H158.46a56.63 56.63 0 0 0-56.52 56.52v171.54a56.64 56.64 0 0 0 56.52 56.53H330a56.64 56.64 0 0 0 56.52-56.53V594.84a56.77 56.77 0 0 0-56.69-56.52z m-8.68 64.55v154.67l-154 0.65-0.66-154.67z m135.49-292h431.72a32.61 32.61 0 0 0 0-65.21H456.65a32.61 32.61 0 0 0 0 65.21z m431.89 73.24H456.65a32.6 32.6 0 1 0 0 65.2h431.72a32.6 32.6 0 0 0 0.17-65.2z m0 203.65H456.65a32.6 32.6 0 1 0 0 65.2h431.72a32.6 32.6 0 0 0 0.17-65.2z m0 138.44H456.65a32.61 32.61 0 0 0 0 65.21h431.72a32.61 32.61 0 0 0 0.17-65.21z m0 0" /></svg>