<?xml version="1.0" standalone="no"?><!DOCTYPE svg PUBLIC "-//W3C//DTD SVG 1.1//EN" "http://www.w3.org/Graphics/SVG/1.1/DTD/svg11.dtd"><svg class="icon" width="200px" height="200.00px" viewBox="0 0 1024 1024" version="1.1" xmlns="http://www.w3.org/2000/svg"><path fill="#333333" d="M874.31 192.34H853s-81.63-1.78-166.8-33.72c-85.17-33.71-142-72.75-142-74.52L533.62 77c-10.64-10.65-21.29-8.87-31.94-3.55l-12.41 8.87s-58.56 39-143.73 74.53c-85.17 31.94-166.79 33.71-166.79 33.71h-23.07c-12.42 3.55-23.07 14.2-23.07 26.62v351.33c0 189.85 250.19 388.58 383.27 388.58s383.27-198.73 383.27-388.58V217.18c0-14.2-10.65-24.84-24.84-24.84z m-39 65.65v312.29c-1.78 67.43-46.13 147.27-120.66 216.47-78.07 72.75-156.14 104.69-197 104.69-102.91 0-317.61-181-317.61-321.16V258c28.39-1.78 95.82-10.65 170.34-40.81 69.2-26.62 122.43-58.56 145.5-72.75a923.94 923.94 0 0 0 149 74.52c49.68 19.52 106.46 31.94 170.34 39zM625.89 392.84L464.42 554.31 404.09 494c-7.09-7.1-17.74-10.64-26.61-10.64-10.65 0-19.52 3.54-28.39 12.41a42.69 42.69 0 0 0 0 53.24L436 635.93c7.1 7.1 17.74 10.65 26.62 10.65q16 0 26.62-10.65l188.11-188.08c12.42-16 12.42-40.81 0-53.24-7.1-7.09-17.74-10.64-26.62-10.64-7.09-3.55-17.74 0-24.84 8.87z m0 0" /></svg>