<?xml version="1.0" standalone="no"?><!DOCTYPE svg PUBLIC "-//W3C//DTD SVG 1.1//EN" "http://www.w3.org/Graphics/SVG/1.1/DTD/svg11.dtd"><svg class="icon" width="200px" height="200.00px" viewBox="0 0 1024 1024" version="1.1" xmlns="http://www.w3.org/2000/svg"><path fill="#333333" d="M769.87 102H249.1a93.11 93.11 0 0 0-93 93v641.1a93.11 93.11 0 0 0 93 93h520.77a93.11 93.11 0 0 0 93-93V195a93.11 93.11 0 0 0-93-93z m31 734.1a31 31 0 0 1-31 31H249.1a31 31 0 0 1-31-31V195a31 31 0 0 1 31-31h520.77a31 31 0 0 1 31 31z"  /><path fill="#333333" d="M714.33 284a31 31 0 0 0-43.33 6.62L511.33 508.45 351.67 290.62a31 31 0 0 0-50 36.65L486.19 579a29.58 29.58 0 0 0 2.44 3l0.36 0.38 0.78 0.78 0.59 0.56 0.53 0.48 0.83 0.7 0.15 0.12a30.62 30.62 0 0 0 3.13 2.22l0.27 0.17c0.61 0.36 1.22 0.71 1.85 1l0.25 0.14c0.66 0.33 1.32 0.63 2 0.91l0.69 0.27c0.43 0.17 0.86 0.33 1.3 0.48l0.91 0.29c0.4 0.13 0.81 0.24 1.21 0.34s0.88 0.22 1.32 0.32 0.94 0.2 1.42 0.28l1 0.13c0.41 0.06 0.82 0.11 1.24 0.15l0.85 0.07c0.63 0 1.27 0.07 1.91 0.07h0.35c0.64 0 1.27 0 1.91-0.07l0.85-0.07c0.42 0 0.83-0.09 1.24-0.15l1-0.13c0.47-0.08 0.94-0.18 1.4-0.28s0.9-0.2 1.34-0.32 0.81-0.21 1.2-0.33l0.92-0.3 1.28-0.47 0.71-0.28c0.67-0.28 1.33-0.58 2-0.91l0.28-0.15c0.61-0.32 1.22-0.66 1.81-1l0.3-0.18a31 31 0 0 0 3.07-2.17l0.21-0.16 0.79-0.69 0.57-0.5 0.57-0.54c0.27-0.26 0.53-0.53 0.79-0.8l0.19-0.36a31.47 31.47 0 0 0 2.46-3L721 327.27a31 31 0 0 0-6.67-43.27zM684.39 694.23H338.28a31 31 0 0 0 0 62h346.11a31 31 0 0 0 0-62z"  /></svg>