<?xml version="1.0" standalone="no"?><!DOCTYPE svg PUBLIC "-//W3C//DTD SVG 1.1//EN" "http://www.w3.org/Graphics/SVG/1.1/DTD/svg11.dtd"><svg class="icon" width="200px" height="200.00px" viewBox="0 0 1024 1024" version="1.1" xmlns="http://www.w3.org/2000/svg"><path fill="#333333" d="M513.35 709.75c109.63 0 199.8-90.17 199.8-199.8V267.73c0-109.62-90.17-199.79-199.8-199.79s-199.79 90.17-199.79 199.79V510c0 109.63 90.17 199.8 199.79 199.8z m-132.6-442a132.43 132.43 0 0 1 132.6-132.61c72.49 0 132.61 60.12 132.61 132.61V510a132.43 132.43 0 0 1-132.61 132.56c-72.49 0-132.6-60.11-132.6-132.61z m442 187.42a33.56 33.56 0 0 0-33.59 33.59c0 152-123.77 275.82-275.83 275.82S237.54 640.79 237.54 488.74a33.57 33.57 0 0 0-33.6-33.59c-19.45 0-33.59 14.14-33.59 33.59 0 178.57 136.14 323.56 309.41 341.24v90.17a33.57 33.57 0 0 0 33.59 33.59c19.46 0 33.6-14.14 33.6-33.59v-91.94C720.22 812.3 856.36 665.55 856.36 487c0-17.68-15.91-31.82-33.59-31.82z m0 0" /></svg>