<?xml version="1.0" standalone="no"?><!DOCTYPE svg PUBLIC "-//W3C//DTD SVG 1.1//EN" "http://www.w3.org/Graphics/SVG/1.1/DTD/svg11.dtd"><svg class="icon" width="200px" height="200.00px" viewBox="0 0 1024 1024" version="1.1" xmlns="http://www.w3.org/2000/svg"><path fill="#333333" d="M469.27 94.06c222.81 0 401 153.29 401 345.79v30.3c0 8.91 0 12.48-3.56 21.39 57 44.56 90.9 105.16 90.9 174.67v12.48c-3.56 51.69-26.73 99.81-60.6 139l-8.91 8.91v8.91l3.56 21.39c0 8.91 3.57 12.47 3.57 21.39 0 21.39-3.57 35.65-21.39 48.12-12.48 8.91-30.3 8.91-48.13 0l-7.12-1.78c-3.57 0-3.57-3.56-8.92-3.56l-30.3-14.26c-3.56 0-3.56-3.57-8.91-3.57-30.3 8.92-66 12.48-99.81 12.48-108.73 0-205-48.13-258.45-123h3.56c-12.47 0-26.73-3.56-39.21-3.56l-17.82-3.57c-3.57 0-8.92-3.56-26.74-8.91L305.3 789.2l-42.78 21.39C218 832 205.48 832 184.09 819.5c-17.82-12.48-26.73-30.3-21.39-51.69v-8.91c0-8.92 0-17.83 3.57-30.3l3.56-26.74v-21.39l-3.56-5.35c-60.6-60.6-96.27-135.45-99.81-213.88v-12.48c-3.57-197.84 180-354.7 402.81-354.7zM665.34 488C538.79 488 439 566.4 439 662.65s99.81 174.67 226.36 174.67c21.39 0 48.12-3.56 69.51-8.91l12.48-3.57c17.83-3.56 26.74-3.56 57 8.92l21.38 8.91v-21.39c0-17.82 0-30.3 12.48-44.56 39.22-30.3 57-74.86 57-117.64C891.7 570 791.89 488 665.34 488zM469.27 163.58c-188.93 0-342.21 126.55-342.21 279.83 0 69.52 30.3 135.47 87.33 187.16 12.48 12.47 17.83 30.3 17.83 51.68 0 8.92 0 12.48-3.57 21.39l-8.91 44.56 12.48-8.91c3.56 0 8.91-3.56 17.82-8.91l21.39-8.91c39.21-21.39 57-26.74 78.42-17.83l26.74 8.91c-3.59-12.47-3.59-30.3-3.59-48.12C373 529 508.49 423.81 670.69 423.81c51.69 0 99.81 8.91 139 30.3v-8.91c-5.34-155.07-153.28-281.62-340.44-281.62z m283.41 424.21c26.73 0 44.55 17.82 44.55 44.56s-17.82 44.56-44.55 44.56c-26.74-1.79-44.56-19.61-44.56-44.56 0-26.74 17.82-44.56 44.56-44.56z m-174.68 0c26.74 0 44.56 17.82 44.56 44.56s-17.82 44.56-44.56 44.56-44.56-17.83-44.56-44.56 17.83-44.56 44.56-44.56zM349.85 281.21c30.31 0 51.7 26.74 51.7 51.7 0 26.73-26.74 57-51.7 57-26.73 0-57-26.73-57-51.69s26.73-57 57-57z m237.07 0c30.29 0 51.68 26.74 51.68 51.7 0 26.73-21.39 57-51.68 57s-51.7-26.73-51.7-51.69c-1.78-24.95 25-57 51.7-57z m0 0" /></svg>