<?xml version="1.0" standalone="no"?><!DOCTYPE svg PUBLIC "-//W3C//DTD SVG 1.1//EN" "http://www.w3.org/Graphics/SVG/1.1/DTD/svg11.dtd"><svg class="icon" width="200px" height="200.00px" viewBox="0 0 1024 1024" version="1.1" xmlns="http://www.w3.org/2000/svg"><path fill="#333333" d="M256.59 345.3H136.91a16.53 16.53 0 0 1-12.31-5.4C99.28 311.68 118.83 279 146 279h119.71a16.5 16.5 0 0 1 12.3 5.4c25.33 28.17 5.78 60.9-21.42 60.9zM256.59 547.68H136.91a16.55 16.55 0 0 1-12.31-5.39c-25.32-28.22-5.77-60.95 21.43-60.95h119.68a16.5 16.5 0 0 1 12.3 5.4c25.33 28.26 5.78 60.94-21.42 60.94zM256.59 750.07H136.91a16.53 16.53 0 0 1-12.31-5.4c-25.32-28.21-5.77-60.94 21.43-60.94h119.68a16.53 16.53 0 0 1 12.3 5.39c25.33 28.22 5.78 60.95-21.42 60.95z"  /><path fill="#333333" d="M829.08 76.22H283.43a83 83 0 0 0-83 83v77h66.38a59.31 59.31 0 0 1 48.95 25.45c41.93 61-1.13 126.51-59.21 126.51h-56.08v50.43h66.38A59.31 59.31 0 0 1 315.8 464c41.93 61-1.13 126.51-59.21 126.51h-56.12v50.43h66.38a59.31 59.31 0 0 1 48.95 25.45c41.93 61-1.13 126.51-59.21 126.51h-56.12v77a83 83 0 0 0 83 82.95h545.61a83 83 0 0 0 82.92-83V159.18a83 83 0 0 0-82.92-82.96z m-98.62 483.1c27.19 0 46.75 32.73 21.42 60.95a16.51 16.51 0 0 1-12.31 5.4H624.74v87.54a16.51 16.51 0 0 1-5.4 12.31c-28.22 25.32-61 5.77-61-21.43v-78.42H443.56a16.51 16.51 0 0 1-12.31-5.4c-25.33-28.22-5.77-60.95 21.42-60.95h105.72v-64H443.56a16.51 16.51 0 0 1-12.31-5.4c-25.33-28.19-5.77-60.92 21.42-60.92h59l-50.9-62.42a33.17 33.17 0 0 1 51.42-41.93L591.56 422 671 324.66a33.17 33.17 0 0 1 51.42 41.93L671.47 429h68.1a16.54 16.54 0 0 1 12.31 5.39c25.33 28.22 5.77 61-21.42 61H624.74v64z"  /></svg>