<?xml version="1.0" standalone="no"?><!DOCTYPE svg PUBLIC "-//W3C//DTD SVG 1.1//EN" "http://www.w3.org/Graphics/SVG/1.1/DTD/svg11.dtd"><svg class="icon" width="200px" height="200.00px" viewBox="0 0 1024 1024" version="1.1" xmlns="http://www.w3.org/2000/svg"><path fill="#333333" d="M512.21 68.2c-245.09 0-444 198.91-444 444s198.91 444 444 444 444-198.92 444-444-198.92-444-444-444z m232.65 477.74H546v200.69a33.72 33.72 0 0 1-33.74 33.74c-19.54 0-33.75-14.21-33.75-33.74V545.94H279.55a33.72 33.72 0 0 1-33.74-33.74c0-19.54 14.2-33.75 33.74-33.75h200.69V279.54A33.72 33.72 0 0 1 514 245.8c19.54 0 33.75 14.2 33.75 33.74v200.69h200.67A33.72 33.72 0 0 1 782.16 514c0 19.51-17.76 31.94-37.3 31.94z" /></svg>