<?xml version="1.0" standalone="no"?><!DOCTYPE svg PUBLIC "-//W3C//DTD SVG 1.1//EN" "http://www.w3.org/Graphics/SVG/1.1/DTD/svg11.dtd"><svg class="icon" width="200px" height="200.00px" viewBox="0 0 1024 1024" version="1.1" xmlns="http://www.w3.org/2000/svg"><path fill="#333333" d="M512.68 69C267.78 69 69 267.49 69 512.13S267.78 955.3 512.68 955.3s443.65-198.54 443.65-443.17S757.58 69 512.68 69z m0 819c-207.63 0-378-168.41-378-375.81s170.36-377.59 378-377.59 378 170.18 378 377.59S720.32 888 512.68 888z m232.47-409.5H546.4V279.9a33.68 33.68 0 0 0-33.72-33.68c-19.52 0-33.72 14.18-33.72 33.68v200.32H280.21a33.68 33.68 0 0 0-33.72 33.68c0 19.5 14.19 33.68 33.72 33.68H479v198.54a33.68 33.68 0 0 0 33.72 33.69c19.52 0 33.72-14.19 33.72-33.69V545.81h198.71a33.68 33.68 0 0 0 33.72-33.68c0-19.5-14.19-33.69-33.72-33.69z m0 0" /></svg>