<?xml version="1.0" standalone="no"?><!DOCTYPE svg PUBLIC "-//W3C//DTD SVG 1.1//EN" "http://www.w3.org/Graphics/SVG/1.1/DTD/svg11.dtd"><svg class="icon" width="200px" height="200.00px" viewBox="0 0 1024 1024" version="1.1" xmlns="http://www.w3.org/2000/svg"><path fill="#333333" d="M233.56 427.87a75.25 75.25 0 1 0 75.25-75.25 75.42 75.42 0 0 0-75.25 75.25z m98.42 0a23.17 23.17 0 1 1-23.17-23.17A23.21 23.21 0 0 1 332 427.87z m573.08-159.8H778.58V141.41a30.27 30.27 0 0 0-60.54 0V267.9H591.55a30.27 30.27 0 1 0 0 60.54H718v126.49a30.27 30.27 0 0 0 60.54 0V328.44h126.52a30.19 30.19 0 1 0 0-60.37z m-52.93 248.58a31.4 31.4 0 0 0-31.45 31.45V666c-35-53.27-76.77-114.15-101.29-139.85-25.2-26.38-51.24-32-68.66-32-38.38 0-66.12 26-71 30.95-1.35 1.18-119.89 111.94-151.18 141.53-12.55-13.85-37.9-41.76-62.55-66.45-20.8-20.8-47.86-27.73-76.27-19.44a97.45 97.45 0 0 0-33.48 17.59l-104.34 90V278.72a31.5 31.5 0 0 1 31.45-31.45H486.2a31.46 31.46 0 0 0 0-62.91H183.33a94.69 94.69 0 0 0-94.52 94.53v538.93a94.69 94.69 0 0 0 94.52 94.53h605.73a94.7 94.7 0 0 0 94.53-94.53V548.27a31.43 31.43 0 0 0-31.46-31.62z m-31.45 301.17a31.49 31.49 0 0 1-31.45 31.45h-605.9a31.5 31.5 0 0 1-31.45-31.45V779.6l147.63-128.85a31.24 31.24 0 0 1 10-4.91c3.88-1 5.58-0.5 8.45 2.54 28.07 27.9 58.17 61.72 66.79 71.36 4.74 5.75 17.93 18.94 39.07 20.46 11.33 0.68 28.41-1.69 45.15-18.09 7.1-6.93 114.14-107 157.77-147.63l1.18-1.18c2.88-2.88 13.19-11 23.17-11 6.09 0 12.34 3.55 19.28 10.82 30.61 32.3 114 152 150.5 208v36.7z m0 0" /></svg>