<?xml version="1.0" standalone="no"?><!DOCTYPE svg PUBLIC "-//W3C//DTD SVG 1.1//EN" "http://www.w3.org/Graphics/SVG/1.1/DTD/svg11.dtd"><svg class="icon" width="200px" height="200.00px" viewBox="0 0 1024 1024" version="1.1" xmlns="http://www.w3.org/2000/svg"><path fill="#333333" d="M918 437.71L585.34 169.93c-25.61-20.48-53.71-25.64-77.19-14.42-26.14 12.64-41.26 42.91-41.26 83.14v103.63C243.5 361.15 70.79 612.37 67.77 830.12c0 22.61 12.45 40.77 31.12 46.11 8 2.14 35.22 6.59 57.45-30.09C218.06 735.93 316.77 680 449.64 680h17.07v110c0 37 17.08 68.19 44.29 81.36a63.79 63.79 0 0 0 27.74 6.41c16.55 0 33.44-6.41 48.92-18.87l330.11-265.23c24.9-19.93 39.3-48.42 39.3-78s-14.22-58.02-39.07-77.96z m-41.5 104.51L546.39 807.51a34.81 34.81 0 0 1-6.93 4.27c-2-1.07-6.76-8.37-6.76-21.72v-143a33 33 0 0 0-32.91-32.94h-50c-128.06 0-232.65 46.47-306.1 134.43C182 578.54 325 406.91 493.93 406.91h6A33 33 0 0 0 532.87 374V238.48c0-11.58 2.14-18.7 3.74-22.08a43.69 43.69 0 0 1 7.47 5l332.6 267.78c9.25 7.48 14.41 16.92 14.41 26.53s-5.16 19.03-14.59 26.51z" /></svg>