<?xml version="1.0" standalone="no"?><!DOCTYPE svg PUBLIC "-//W3C//DTD SVG 1.1//EN" "http://www.w3.org/Graphics/SVG/1.1/DTD/svg11.dtd"><svg class="icon" width="200px" height="200.00px" viewBox="0 0 1024 1024" version="1.1" xmlns="http://www.w3.org/2000/svg"><path fill="#333333" d="M951.17 514.05L789.58 361.12V192.2a91.1 91.1 0 0 0-91-91H160a91.1 91.1 0 0 0-91 91v595.52a91.1 91.1 0 0 0 91 91h208.18v0.33a61.06 61.06 0 0 0 61 61h329.54a61.07 61.07 0 0 0 61-61V660.54l129.55-102.7a29 29 0 0 0 1.92-43.79zM160 820.72a33 33 0 0 1-33-33V192.2a33 33 0 0 1 33-33h538.58a33 33 0 0 1 33 33v155.38a57.44 57.44 0 0 0-21.42 12.35 172.07 172.07 0 0 1-41 27.78l-0.57 0.29A170.8 170.8 0 0 1 594 405a172.62 172.62 0 0 1-40.84-4.85l111-104.83a29 29 0 1 0-39.83-42.17L495.89 374.36a172 172 0 0 1-17.7-14 58.13 58.13 0 0 0-78.62 0.9L238.12 514.05a29 29 0 0 0 1.88 43.74l32.57 26-86.68 81.81a29 29 0 1 0 39.82 42.17l92.65-87.5L368.18 660v160.72z m612.67-196.91a29 29 0 0 0-11 22.75v232.49a3 3 0 0 1-3 3H429.18a3 3 0 0 1-3-3V646a29 29 0 0 0-10.92-22.68l-113-90.09 137.1-129.8A229.4 229.4 0 0 0 496 441.11l0.68 0.33A230.9 230.9 0 0 0 694 440.17c0.45-0.21 0.9-0.43 1.34-0.66a230.5 230.5 0 0 0 51.79-34.79 29.22 29.22 0 0 0 6.91 2.57L887 533.18z"  /><path fill="#333333" d="M238.75 394.29a28.91 28.91 0 0 0 19.5-7.54L373.38 282.1a29 29 0 1 0-39-42.91L219.24 343.83a29 29 0 0 0 19.51 50.46z"  /></svg>