<?xml version="1.0" standalone="no"?><!DOCTYPE svg PUBLIC "-//W3C//DTD SVG 1.1//EN" "http://www.w3.org/Graphics/SVG/1.1/DTD/svg11.dtd"><svg class="icon" width="200px" height="200.00px" viewBox="0 0 1024 1024" version="1.1" xmlns="http://www.w3.org/2000/svg"><path fill="#333333" d="M814.29 433.73a33.29 33.29 0 0 0-12.38-2.06c2.07-56.38 3.27-119.29-36.78-161.91-44.35-47.1-114.81-44.18-177.21-41.6-0.69-39.16-15.81-76.66-41.92-103.82C519.68 97 483.76 82.06 444.57 82.06c-39 0-75.11 15-101.24 42.28-26.12 27.16-41.25 64.66-41.94 103.82-55.51-2.06-118.08-4.12-163.28 33.35-53.8 44.69-51.91 114.13-50.19 175.14 0.34 10.66 0.51 21.31 0.51 31.63a34.14 34.14 0 0 0 13.06 26.81 35.16 35.16 0 0 0 30.43 6.53c34-8.25 62.22 1 79.58 26.13 18.91 27.67 19.77 68.07 1.72 94.19-16.33 23.72-45.21 31.8-81.3 23.2a35.75 35.75 0 0 0-30.43 6.53 34.18 34.18 0 0 0-13.06 26.82c0 12.55-0.51 26-1.2 39.53-2.4 59.13-5.33 125.82 33.69 171.88 46.24 54.66 118.26 52.25 182 50.19 12-0.34 23.89-0.86 35.24-0.86a32.84 32.84 0 0 0 25.09-11c7.05-8.08 10.14-19.59 8.42-31.62-5.47-37.61 5.7-67.55 31.33-84.05 24.41-15.82 58.62-15.65 83 0 25.79 16.5 36.79 46.41 31.29 84.05-1.72 11.86 1.37 23.37 8.42 31.62 6.19 7.22 15.13 11 25.1 11 11.68 0 24.23 0.52 37 1 14.09 0.68 28.19 1.2 42.45 1.2 50.53 0 101.59-6.88 136.31-45.9 40.73-45.71 38-114 35.4-174.11v-0.69c84.91-0.51 130.29-66 136.82-128.57 6.88-65.31-29.22-142.66-124.44-158.47z m-82.5 248.37c0 10.48 0.34 20.79 0.51 31.11 1.2 41.42 2.24 80.61-16.33 117.57-19.94 39.87-44.35 39.87-84.39 39.53H586c-4.81-71.85-49.68-141.63-141.63-141.63s-137.13 72.53-141.6 142.83c-61.53 2.58-129.6 4.13-145.58-71.67-5.16-24.24-3.27-52.94-1.55-81l0.17-1.38c49.5 0.86 90.93-20.28 115.68-60.84 29.73-48.81 29.73-117 0.17-165.86-24.75-40.57-64.8-61.71-115.33-61-2.24-57.76-1-115.16 72.19-131.49 22-4.81 48.64-3.1 74.42-1.38 13.06 0.86 25.27 1.72 37.13 1.72a34.72 34.72 0 0 0 33.34-43.48c-9.11-34.55-0.34-63.26 24.92-80.79 28-19.59 69.1-20.28 95.74-1.72 23.72 16.67 31.63 45.9 21.83 82.51a34.43 34.43 0 0 0 6.19 30.08 33.87 33.87 0 0 0 27.16 13.4c8.76 0 19.25-0.52 30.59-1 50-2.58 118.6-6 142.32 30.08 16.5 24.92 13.41 72.36 11 110.52-0.86 12.55-1.55 24.23-1.55 33.86a34 34 0 0 0 12.89 26.81 34.52 34.52 0 0 0 29.91 6.71l26.13-4.3c31.79 3.44 54.83 19.25 64.8 44.34 10.65 26.82 4.81 59.65-14.44 82-18.39 21.14-45.21 28.71-75.8 21.32a35.12 35.12 0 0 0-30.43 6.7 32.84 32.84 0 0 0-12.88 26.47z m0 0" /></svg>