<?xml version="1.0" standalone="no"?><!DOCTYPE svg PUBLIC "-//W3C//DTD SVG 1.1//EN" "http://www.w3.org/Graphics/SVG/1.1/DTD/svg11.dtd"><svg class="icon" width="200px" height="200.00px" viewBox="0 0 1024 1024" version="1.1" xmlns="http://www.w3.org/2000/svg"><path fill="#333333" d="M594.31822222 174.39857778l7.64586667-20.87822223-21.20817778 6.64462223-17.49902222-13.66471111-0.23893334 22.20942222-18.432 12.42453333 21.0944 7.04284445 6.08711112 21.42435555 13.23235555-17.90862222 22.19804445 0.76231111-12.87964445-18.05653333zM188.58666667 439.42115555l-12.43591112-18.432-7.03146666 21.0944-21.34471111 6.07573334 17.82897777 13.26648889-0.7623111 22.23217777 18.0679111-12.93653333 20.92373334 7.63448889-6.71288889-21.20817778 13.67608889-17.48764444-22.20942222-0.23893334zM236.86257778 368.50346667l1.45635555-22.20942222 19.11466667-11.3208889-20.62791111-8.26026666-4.88106667-21.66328889-14.2336 17.06666667-22.10702222-2.048 11.82151111 18.78471111-8.79502222 20.38897777 21.56088889-5.40444444 16.6912 14.66595556zM812.43022222 659.99075555l-14.24497777 17.06666667-22.09564445-2.05937777 11.81013333 18.8416-8.8064 20.40035555 21.57226667-5.46133333 16.6912 14.65457778 1.46773333-22.16391112 19.08053334-11.3664-20.60515556-8.23751111-4.86968889-21.67466667zM445.45137778 857.91857778l6.13262222 21.34471111 13.22097778-17.84035556 22.20942222 0.77368889-12.87964445-18.06791111 7.5776-20.85546666-21.18542222 6.64462222-17.5104-13.68746667-0.18204444 22.2208-18.42062222 12.42453333 21.03751111 7.04284445zM598.96035555 829.22382222l-14.1767111-17.08942222-4.9720889 21.65191111-20.5824 8.24888889 19.0464 11.35502222 1.42222223 22.18666667 16.73671111-14.63182222 21.54951111 5.44995555-8.76088889-20.3776 11.85564444-18.78471111-22.1184 1.99111111zM697.86737778 806.37724445l9.37528889 20.10453333 10.29688888-19.6608 22.05013334-2.73066667-15.55342222-15.84924444 4.20977778-21.82257778-19.85422223 9.94417778-19.43324444-10.79751112 3.25404444 21.98186667-16.20195555 15.1552 21.85671111 3.67502223zM309.31626667 247.81937778l9.36391111 20.10453333 10.29688889-19.6608 22.016-2.73066666-15.54204445-15.84924445 4.25528889-21.8112-19.91111111 9.88728889-19.38773333-10.752 3.25404444 21.97048889-16.27022222 15.16657777 21.92497778 3.67502223zM439.46666667 167.75395555l-14.18808889-17.1008-4.9152 21.6632889-20.63928889 8.20337777 19.06915556 11.41191111 1.46773333 22.17528889 16.6912-14.63182222 21.53813333 5.46133333-8.77226666-20.42311111 11.8784-18.80746667-22.12977778 2.048zM858.32817778 559.65013333l-12.42453333-18.42062222-7.04284445 21.03751111-21.35608889 6.13262223 17.84035556 13.22097777-0.76231112 22.20942223 18.06791112-12.87964445 20.85546666 7.5776-6.64462222-21.18542222 13.68746667-17.5104-22.2208-0.18204445z"  /><path fill="#333333" d="M940.87395555 457.9328l-24.8832 17.43075555 0.2616889 2.048A383.43111111 383.43111111 0 0 1 754.4832 841.95555555a383.49937778 383.49937778 0 0 1-397.94915555 24.71253334l-1.83182223-0.96711111-25.03111111 17.408 4.76728889 2.67377777a411.05635555 411.05635555 0 0 0 200.69262222 52.33777778q10.10346667 0 20.22968889-0.50062222a411.43182222 411.43182222 0 0 0 386.3552-474.27128889zM94.03733333 567.97866667l25.03111112-17.408-0.2616889-2.05937778A383.95448889 383.95448889 0 0 1 678.37724445 159.28888889l1.83182222 0.95573333 25.03111111-17.45351111-4.75591111-2.6624a411.43182222 411.43182222 0 0 0-607.28888889 422.45688889z"  /><path fill="#333333" d="M252.87111111 468.54826667A257.72942222 257.72942222 0 0 1 359.53777778 294.16106667a257.79768889 257.79768889 0 0 1 200.13511111-41.472l1.44497778 0.29582222 29.58222222-20.79857778-7.02008889-1.92284444A284.94506667 284.94506667 0 0 0 223.63022222 483.55555555l-0.54613333 7.19075556 29.58222222-20.75306666zM1011.29102222 305.81191111L874.74631111 111.50222222a46.36444445 46.36444445 0 0 0-64.44373333-11.22986667l-785.84035556 552.96a46.19377778 46.19377778 0 0 0-11.19573333 64.44373334L149.95911111 911.99715555a46.35306667 46.35306667 0 0 0 64.45511111 11.22986667l785.63555556-552.96a46.26204445 46.26204445 0 0 0 11.24124444-64.44373333z m-26.68088889 42.16604444l-785.64693333 552.96a19.05777778 19.05777778 0 0 1-26.49884445-4.5511111L35.51004445 702.00888889a19.06915555 19.06915555 0 0 1 0-21.82257778 18.45475555 18.45475555 0 0 1 4.67626666-4.67626666L826.02666667 122.59555555a19.01226667 19.01226667 0 0 1 26.45333333 4.55111112l136.66986667 194.33244444a19.05777778 19.05777778 0 0 1-4.53973334 26.49884444zM767.2832 548.15857778A257.05813333 257.05813333 0 0 1 460.52693333 764.01777778l-1.45635555-0.29582223-29.51395556 20.80995556 6.95182223 1.91146667A284.92231111 284.92231111 0 0 0 796.44444445 533.13991111l0.54613333-7.20213333-29.58222223 20.75306667z"  /><path fill="#333333" d="M398.09706667 627.06346667q16.62293333 26.49884445 15.39413333 32.6656a13.96053333 13.96053333 0 0 1-5.57511111 8.24888888l-81.29422222 56.8888889q-8.9088 6.23502222-15.2576-2.83306667l-31.30026667-44.70328889L380.01777778 607.40266667l-47.62737778-68.02773334-122.88 86.07288889 10.31964445 14.79111111 107.37208888-75.18435555 26.98808889 38.53653333-84.3776 59.0848L254.31608889 640.56888889l-15.54204444 10.88853333 59.0848 84.3776q14.72284445 21.06026667 34.816 6.99733333l89.88444444-62.94186666q9.38666667-7.28177778 11.4688-16.71395556 0.93297778-9.35253333-17.46488889-41.83608888zM406.78968889 539.15875555l14.89351111-10.43342222L409.6 511.39697778l108.08888889-75.75324445 11.5712 16.52053334 14.89351111-10.43342222-21.43573333-30.60622223-61.5424 43.08764445q-4.55111111-3.7888-12.77724445-9.63697778l-14.5408 14.05155556a119.46666667 119.46666667 0 0 1 11.50293333 6.72426666l-60.57528888 42.41635556z"  /><path fill="#333333" d="M486.58204445 488.35697778L476.72888889 474.25991111l-15.22346667 10.66097778 9.86453333 14.09706666-47.616 33.3368889 56.5816889 80.78222222 15.06417777-10.5472L489.24444445 593.92l32.55182222-22.75555555 22.45973333 32.06257777 15.22346667-10.66097777L537.03111111 560.42382222l32.99555556-23.13102222 5.77991111 8.26026667 15.06417777-10.5472-56.25173333-80.32711112z m-37.79697778 47.70702222l32.55182222-22.75555555 10.66097778 15.22346666-32.55182222 22.75555556z m30.6176 43.7248l-10.5472-15.06417778 32.55182222-22.75555555 10.59271111 15.01866666z m80.78222222-56.59306667l-32.99555556 23.1424-10.5472-15.06417778 32.99555556-23.13102222z m-52.99768889-5.37031111l-10.66097778-15.22346667 32.99555556-23.13102222 10.66097777 15.22346667zM626.69937778 367.50222222l28.50133333-19.95662222q2.62826667 33.45066667-2.11626666 44.98773333a11.37777778 11.37777778 0 0 1-2.01386667 3.33368889l11.83288889 10.31964445q20.85546667-16.06542222 31.744-24.64426667a139.84426667 139.84426667 0 0 1-25.37244445 60.97351111l17.38524445 6.90631111q34.54293333-50.26702222 25.03111111-115.54133333l-17.06666667 2.09351111a219.70488889 219.70488889 0 0 1 1.67253334 25.14488889q-13.65333333 11.50293333-25.03111112 20.15004444 2.37795555-15.92888889-0.2048-44.7488l44.37333334-31.07271111-9.85315556-14.17671111-35.27111111 24.72391111A171.008 171.008 0 0 0 652.27662222 303.78666667l-13.89226667 13.58506666a111.43395555 111.43395555 0 0 1 16.82773334 9.216l-38.37724444 26.87431112z"  /><path fill="#333333" d="M743.87911111 347.02222222l-17.44213333 2.27555556q8.44231111 72.04408889-34.82737778 129.85457777l17.6128 7.2248889A193.57013333 193.57013333 0 0 0 740.69333333 418.58844445q27.8528 4.63075555 48.37831112 12.21973333l3.41333333-19.27395556a300.27093333 300.27093333 0 0 0-48.79928889-9.03395555 211.38773333 211.38773333 0 0 0 0.19342222-55.47804445zM664.64426667 436.56533333l-0.60302222-19.12604444q-22.9376-7.58897778-41.90435556-11.93528889l-6.12124444-8.74951111 17.80622222-12.51555556L623.50222222 369.55022222l-17.8176 12.51555556-21.20817777-30.28764445-14.79111112 10.31964445 21.1968 30.28764444-21.04888888 14.79111111 10.43342222 14.6432 20.40035555-14.29048888q13.36888889 34.57706667 13.19822223 68.48284444l17.43075555 11.44604444a234.0864 234.0864 0 0 0-9.34115555-50.90417778l52.33777777 74.82026667 14.79111111-10.31964444-54.8864-78.38151111q13.4144 5.76853333 30.44693334 13.89226666z"  /></svg>