<?xml version="1.0" standalone="no"?><!DOCTYPE svg PUBLIC "-//W3C//DTD SVG 1.1//EN" "http://www.w3.org/Graphics/SVG/1.1/DTD/svg11.dtd"><svg class="icon" width="200px" height="200.00px" viewBox="0 0 1024 1024" version="1.1" xmlns="http://www.w3.org/2000/svg"><path fill="#333333" d="M536.375 257.24375a29.0625 29.0625 0 0 0-48.09375 0L296.8625 448.690625a29.0625 29.0625 0 1 0 41.1 41.1l145.3125-145.3125v405.58125a29.0625 29.0625 0 0 0 58.125 0V344.459375l145.3125 145.3125a29.0625 29.0625 0 0 0 41.1-41.1z"  /><path fill="#333333" d="M511.371875 91.878125C279.5 91.878125 91.4375 279.884375 91.4375 511.8125S279.5 931.746875 511.371875 931.746875 931.30625 743.73125 931.30625 511.8125 743.3 91.878125 511.371875 91.878125z m255.84375 675.76875A360.4875 360.4875 0 1 1 844.8125 652.625a360.796875 360.796875 0 0 1-77.596875 115.021875z"  /></svg>