<?xml version="1.0" standalone="no"?><!DOCTYPE svg PUBLIC "-//W3C//DTD SVG 1.1//EN" "http://www.w3.org/Graphics/SVG/1.1/DTD/svg11.dtd"><svg class="icon" width="200px" height="200.00px" viewBox="0 0 1024 1024" version="1.1" xmlns="http://www.w3.org/2000/svg"><path fill="#333333" d="M512 91.878125c-231.890625 0-419.90625 188.00625-419.90625 419.934375S280.109375 931.746875 512 931.746875 932 743.73125 932 511.8125 743.95625 91.878125 512 91.878125z m216.50625 397.9125a29.0625 29.0625 0 0 1-41.1 0l-145.3125-145.3125v405.58125a29.0625 29.0625 0 1 1-58.125 0V344.459375l-145.3125 145.3125a29.0625 29.0625 0 0 1-41.1-41.1l191.409375-191.428125a29.0625 29.0625 0 0 1 48.09375 0l191.446875 191.446875a29.0625 29.0625 0 0 1 0 41.1z" /></svg>