<?xml version="1.0" standalone="no"?><!DOCTYPE svg PUBLIC "-//W3C//DTD SVG 1.1//EN" "http://www.w3.org/Graphics/SVG/1.1/DTD/svg11.dtd"><svg class="icon" width="200px" height="200.00px" viewBox="0 0 1024 1024" version="1.1" xmlns="http://www.w3.org/2000/svg"><path fill="#333333" d="M317.42 328.17H184.11A34.12 34.12 0 0 0 150 362.3v533.22h201.54V362.3a34.13 34.13 0 0 0-34.12-34.13zM841.89 453.79H708.58a34.13 34.13 0 0 0-34.12 34.13V895H876V487.92a34.12 34.12 0 0 0-34.11-34.13zM579.7 131.06H446.39a34.13 34.13 0 0 0-34.12 34.13v730.33h201.55V165.19a34.13 34.13 0 0 0-34.12-34.13z" /></svg>