<?xml version="1.0" standalone="no"?><!DOCTYPE svg PUBLIC "-//W3C//DTD SVG 1.1//EN" "http://www.w3.org/Graphics/SVG/1.1/DTD/svg11.dtd"><svg class="icon" width="200px" height="200.00px" viewBox="0 0 1024 1024" version="1.1" xmlns="http://www.w3.org/2000/svg"><path fill="#333333" d="M821.52 426.8H658.27V188.1a62.41 62.41 0 0 0-62.33-62.33H432.6a62.41 62.41 0 0 0-62.33 62.33v121.52H206.21a62 62 0 0 0-61.92 61.92v498.27a31 31 0 0 0 31 31h452a31.52 31.52 0 0 0 5.36-0.47h220.52a31 31 0 0 0 31-31V489.45a62.71 62.71 0 0 0-62.65-62.65z m-388.92-239h163.34a0.33 0.33 0 0 1 0.33 0.33v267.29c-0.06 0.79-0.1 1.58-0.1 2.38v381H432.29V371.54 188.1a0.33 0.33 0 0 1 0.31-0.33zM206.29 371.62h164v467.19h-164z m615.88 466.72h-163.9V488.8h163.25a0.65 0.65 0 0 1 0.65 0.65z" /></svg>