<?xml version="1.0" standalone="no"?><!DOCTYPE svg PUBLIC "-//W3C//DTD SVG 1.1//EN" "http://www.w3.org/Graphics/SVG/1.1/DTD/svg11.dtd"><svg class="icon" width="200px" height="200.00px" viewBox="0 0 1024 1024" version="1.1" xmlns="http://www.w3.org/2000/svg"><path fill="#333333" d="M586.3 297.2H333.2a62.29 62.29 0 0 0-7.87 0.52 29 29 0 0 0-25.89 8l-9.37 9.36-156.35 156.29-9.36 9.36a29 29 0 0 0-8 25.89 62.29 62.29 0 0 0-0.51 7.87v382.68a61.07 61.07 0 0 0 61 61H586.3a61.07 61.07 0 0 0 61-61v-539a61.08 61.08 0 0 0-61-60.97z m-295.36 99v73a3 3 0 0 1-3 3h-73.05z m298.36 501a3 3 0 0 1-3 3H176.87a3 3 0 0 1-3-3V530.25h114.07a61.08 61.08 0 0 0 61-61v-114H586.3a3 3 0 0 1 3 3z"  /><path fill="#333333" d="M719.67 182.71H451.32a28 28 0 1 0 0 56h268.35a4 4 0 0 1 4 4V824a28 28 0 0 0 56 0V242.71a60.08 60.08 0 0 0-60-60z"  /><path fill="#333333" d="M819.84 68.17H601.5a28 28 0 1 0 0 56h218.34a34 34 0 0 1 34 34v525.11a28 28 0 0 0 56 0V158.17a90.11 90.11 0 0 0-90-90z"  /></svg>