<?xml version="1.0" standalone="no"?><!DOCTYPE svg PUBLIC "-//W3C//DTD SVG 1.1//EN" "http://www.w3.org/Graphics/SVG/1.1/DTD/svg11.dtd"><svg class="icon" width="200px" height="200.00px" viewBox="0 0 1024 1024" version="1.1" xmlns="http://www.w3.org/2000/svg"><path fill="#333333" d="M889 889.26H137.45c-21.27 0-31.91 16-31.91 33.68 0 15.95 10.64 31.91 31.91 31.91h749.78c21.27 0 31.91-16 31.91-33.68 1.77-16-8.86-31.91-30.13-31.91zM759.61 423.08h-81.54c-7.09 0-12.41 7.09-12.41 14.18v31.91c0 7.09 7.1 14.18 12.41 14.18h81.54c7.09 0 12.41-7.09 12.41-14.18v-31.91c3.54-7.09-3.55-14.18-12.41-14.18z m0 152.44h-81.54c-7.09 0-12.41 7.09-12.41 14.18v31.91c0 7.09 7.1 14.18 12.41 14.18h81.54c7.09 0 12.41-7.09 12.41-14.18V589.7c3.54-8.86-3.55-14.18-12.41-14.18z m-480.36 60.27h81.54c7.09 0 12.4-7.09 12.4-14.18V589.7c1.77-8.86-3.54-14.18-12.4-14.18h-81.54c-7.09 0-12.41 7.09-12.41 14.18v31.91c-1.77 7.09 5.32 14.18 12.41 14.18z m0-152.44h81.54c7.09 0 12.4-7.09 12.4-14.18v-31.91c1.77-7.09-3.54-14.18-12.4-14.18h-81.54c-7.09 0-12.41 7.09-12.41 14.18v31.91c-1.77 7.09 5.32 14.18 12.41 14.18z m0-152.44h81.54c7.09 0 12.4-7.09 12.4-14.18v-31.91c1.77-7.09-3.54-14.18-12.4-14.18h-81.54c-7.09 0-12.41 7.09-12.41 14.18v31.91c-1.77 7.09 5.32 14.18 12.41 14.18z m163.07 304.88h81.54c7.09 0 12.41-7.09 12.41-14.18V589.7c0-8.86-7.09-14.18-12.41-14.18h-81.54c-7.09 0-12.4 7.09-12.4 14.18v31.91c0 7.09 7.08 14.18 12.4 14.18z m0-152.44h81.54c7.09 0 12.41-7.09 12.41-14.18v-31.91c0-7.09-7.09-14.18-12.41-14.18h-81.54c-7.09 0-12.4 7.09-12.4 14.18v31.91c0 7.09 7.08 14.18 12.4 14.18z m0-152.44h81.54c7.09 0 12.41-7.09 12.41-14.18v-31.91c0-7.09-7.09-14.18-12.41-14.18h-81.54c-7.09 0-12.4 7.09-12.4 14.18v31.91c0 7.09 7.08 14.18 12.4 14.18z m411.24-47.86c0-46.09-35.46-85.09-78-85.09H640.85v-44.31c0-46.09-35.45-85.08-78-85.08h-312c-44.31 0-78 37.22-78 85.08v710.8h682.48v-581.4zM250.89 135.93h312c5.31 0 10.63 7.09 10.63 17.72v641.66H240.25V153.65c0-10.63 5.32-17.72 10.64-17.72z m390 659.38V267.09h134.67c5.32 0 10.64 7.1 10.64 17.73v510.49z m0 0" /></svg>