<?xml version="1.0" standalone="no"?><!DOCTYPE svg PUBLIC "-//W3C//DTD SVG 1.1//EN" "http://www.w3.org/Graphics/SVG/1.1/DTD/svg11.dtd"><svg class="icon" width="200px" height="200.00px" viewBox="0 0 1024 1024" version="1.1" xmlns="http://www.w3.org/2000/svg"><path fill="#333333" d="M514.59 72.66c-244.9 0-443.66 198.54-443.66 443.18S269.69 959 514.59 959s443.65-198.53 443.65-443.16S759.48 72.66 514.59 72.66z m0 824.31C303.4 897 133 726.79 133 515.84S303.4 134.7 514.59 134.7s381.53 170.18 381.53 381.14S725.76 897 514.59 897z m168.58-549.54c-12.42-12.43-30.17-12.43-42.59 0l-126 125.86-126-125.86c-12.42-12.43-30.16-12.43-42.58 0s-12.43 30.14 0 42.54l126 125.87L346 641.7c-12.43 12.41-12.43 30.13 0 42.54s30.16 12.42 42.59 0l126-125.86 126 125.86c12.42 12.42 30.17 12.42 42.59 0s12.43-30.13 0-42.54l-126-125.86L683.17 390c12.43-12.4 12.43-31.91 0-42.54z m0 0" /></svg>