<?xml version="1.0" standalone="no"?><!DOCTYPE svg PUBLIC "-//W3C//DTD SVG 1.1//EN" "http://www.w3.org/Graphics/SVG/1.1/DTD/svg11.dtd"><svg class="icon" width="200px" height="200.00px" viewBox="0 0 1024 1024" version="1.1" xmlns="http://www.w3.org/2000/svg"><path fill="#333333" d="M959.37 969.53666663c-1-118.46-0.52-236.92-0.52-355.38-10.4-23.9-67-83.13-109.11-88.32h-31.18c-29.56 5.71-51.43 15.58-82.56 33.25-21.82 12.47-37.41 33.25-56.63 49.36-47.8 41-90.92 87.29-139.24 127.81-43.7 36.41-84.22 35.85-130.98 10.91-41-21.82-82.09-44.16-126.25-60.79-50.4-19.22-104.44-5.19-137.17 37.41-41 54-73.78 112.75-80 181.33-2.08 20.26 0 41.56-0.52 62.35v2.07z m0 0" /></svg>