<?xml version="1.0" standalone="no"?><!DOCTYPE svg PUBLIC "-//W3C//DTD SVG 1.1//EN" "http://www.w3.org/Graphics/SVG/1.1/DTD/svg11.dtd"><svg class="icon" width="200px" height="200.00px" viewBox="0 0 1024 1024" version="1.1" xmlns="http://www.w3.org/2000/svg"><path fill="#333333" d="M461.23 875.6c-182.37-24.57-320-181.81-320-365.93 0.36-203.36 166.14-369 369.71-369.14 184.32 0 341.73 137.29 366.33 319.46a37 37 0 0 0 73.26-9.8C921 231.52 732 66.63 511 66.63c-244.57 0-443.51 198.72-443.51 443 0 221 165.07 409.73 383.79 439.12a37.21 37.21 0 0 0 4.46 0.35h0.54a36.94 36.94 0 0 0 5-73.54z"  /><path fill="#333333" d="M651.61 466.75a36.92 36.92 0 0 0 70.59-21.54c-27.8-91.89-114.09-156-210.17-156h-0.89c-121.57 0.18-220.68 99-220.68 220.62 0.35 97.77 63.45 182.53 157 211.2a36.91 36.91 0 0 0 21.22-70.7 146.84 146.84 0 0 1-104.47-140.5c0-80.84 66-146.55 146.89-146.72h0.71c63.86-0.17 121.26 42.39 139.8 103.64z"  /><path fill="#333333" d="M573.89 597.83l109.56 328.49a20 20 0 0 0 33.11 7.82l219.27-218.89a20 20 0 0 0-7.83-33.13L599.19 572.53a20 20 0 0 0-25.3 25.3z m104.28 78.87L822 724.6l-95.9 95.8z"  /></svg>