<?xml version="1.0" standalone="no"?><!DOCTYPE svg PUBLIC "-//W3C//DTD SVG 1.1//EN" "http://www.w3.org/Graphics/SVG/1.1/DTD/svg11.dtd"><svg class="icon" width="200px" height="200.00px" viewBox="0 0 1024 1024" version="1.1" xmlns="http://www.w3.org/2000/svg"><path fill="#333333" d="M267.87 554.87c-49.88 7.2-65 23-75 33.41-1.25 1.3-2.33 2.43-3.31 3.34-7 6.5-11.18 18.37-13.68 38.47-1.56 12.45-1.84 23.57-1.85 24a15 15 0 0 0 15 15.37h310.74a15 15 0 0 0 15-14.75c0-0.46 0.18-11.62-0.9-24.1-1.77-20.33-5.72-32.36-12.85-39a48.72 48.72 0 0 1-3.68-4.11c-10.93-13-25.3-26.22-69.64-32.62-19.82-2.86-28-8.57-31-11.72a11.77 11.77 0 0 1-3.6-7.38c-0.05-0.36-0.13-0.85-0.25-1.42 0.17-4.11 0.42-8.65 0.64-12.44 9.36-5.31 23.75-15.51 31.75-31.27 13.85-6.7 17.51-14.21 19-25 0.12-0.95 0.25-1.84 0.41-2.69 0-0.22 0.08-0.43 0.11-0.65a142 142 0 0 0 1.17-15.31c0.33-14.07-2-23-7.43-28.94a20.46 20.46 0 0 0-5.18-4.07c0.39-13.76 0.35-35-0.56-43.79-1.5-14.76-11.45-44-38.38-49-12.85-2.39-14.58-2.55-16.87-2.57l-0.63-0.08c-4.41-2.67-8.94-4.37-17.17-4.56L337 309.46a14.61 14.61 0 0 0-3-0.29c-13.88 0-22.58 10.44-28.33 17.36-0.42 0.49-0.91 1.09-1.4 1.66-4.49-0.83-9.83-1.34-18.77 0.28-12.21 2.28-21.3 10.43-25.61 22.94-2.9 8.44-3.18 17.44-3.36 23.4-0.05 1.55-0.1 3.16-0.18 4 0 0.27-2.27 22.44-1.43 37.17a22.53 22.53 0 0 0-4.73 4.08c-10.19 11.54-8.65 33.77-7.52 42.79a13.07 13.07 0 0 0 0.27 1.52c3.08 13.32 11.73 18.26 20.09 23 0.84 0.47 1.72 1 2.65 1.52 7.64 16.45 21.67 29.05 30.17 35.63 0 5 0.1 11.18 0.15 14v0.86c-0.19 10.62-21.6 14.54-28.13 15.49z m58.18-14.6c0-0.53 0.05-1 0-1.58-0.08-3.82-0.2-21.82-0.2-22a15.09 15.09 0 0 0-6.85-12.51c-5.85-3.8-22.16-16.71-27.17-30.68a15 15 0 0 0-6.22-7.69c-2.92-1.8-5.42-3.23-7.61-4.48s-4.6-2.63-5.62-3.42a69 69 0 0 1 0.18-16.12 18 18 0 0 0 8.32-5.07c2.63-2.81 6.69-9.1 4.33-19.5-0.94-4.3-0.2-23.05 1.06-35.4 0.19-1.86 0.25-3.91 0.32-6.08 0.15-4.64 0.33-10.42 1.75-14.57 1-2.88 1.73-3 2.68-3.19 4.9-0.89 6.49-0.57 8.68-0.13a31.42 31.42 0 0 0 11.19 0.57h0.15c8.22-1.21 13.29-7.31 17.77-12.68a55.14 55.14 0 0 1 5.67-6.18l20.7 4.15a15.26 15.26 0 0 0 2.94 0.29 21.31 21.31 0 0 1 3.09 0.17l0.19 0.12a26.24 26.24 0 0 0 10.64 3.91 35.3 35.3 0 0 0 5 0.46c0.83 0.1 3.48 0.51 11.81 2.07 9 1.67 13.48 17.3 14 22.52 0.77 7.52 0.81 30.91 0.29 43.82a20.92 20.92 0 0 0 4 16.87 20.06 20.06 0 0 0 8.57 6.24 91.6 91.6 0 0 1-0.77 17.48c-0.29 1.53-0.47 2.88-0.62 4 0 0.27-0.07 0.58-0.12 0.88a40 40 0 0 1-6 2.77 15 15 0 0 0-8.63 8.88c-4.59 12.75-20.66 21.93-26.41 24.36a15 15 0 0 0-9.22 12.8c0 0.59-1 14.57-1.35 24.8a15.14 15.14 0 0 0 0.92 5.65c4.27 23 24.89 37.76 59.76 42.8 36.73 5.3 44.62 14.68 51 22.23a81 81 0 0 0 5.7 6.28c2 3.43 3.67 14.29 4.38 26.42H205c1.22-12.21 3.35-23 5.43-26.32 1.44-1.37 2.79-2.79 4.1-4.16 8-8.35 17.95-18.73 57.61-24.46 20.88-3 36-10 45-20.78a37.38 37.38 0 0 0 8.91-23.54zM681.76 459.6a26 26 0 0 0 0-52H577.92a26 26 0 0 0 0 52zM577.92 292.1a26 26 0 0 0 0 52h207.69a26 26 0 0 0 0-52z"  /><path fill="#333333" d="M158.66 779.36a33 33 0 0 1-33-33V238a33 33 0 0 1 33-33h705.93a33 33 0 0 1 33 33v231a254.08 254.08 0 0 1 57.95 48.09V238a91 91 0 0 0-90.93-91H158.66a91 91 0 0 0-90.92 91v508.38a91 91 0 0 0 90.92 91h387.12a250.31 250.31 0 0 1-22.53-58z"  /><path fill="#333333" d="M767.68 494.81c-104.81 0-190.07 85.29-190.07 190.13s85.26 190.13 190.07 190.13 190.06-85.3 190.06-190.13-85.26-190.13-190.06-190.13z m0 330.28c-77.26 0-140.11-62.87-140.11-140.15s62.85-140.16 140.11-140.16 140.11 62.88 140.11 140.16-62.86 140.15-140.11 140.15z"  /><path fill="#333333" d="M864.06 624a26 26 0 0 0-36.77 0l-84 84-31.52-31.54A26 26 0 0 0 675 713.21l50 49.93a26 26 0 0 0 36.77 0l102.3-102.38a26 26 0 0 0-0.01-36.76z"  /></svg>