<?xml version="1.0" standalone="no"?><!DOCTYPE svg PUBLIC "-//W3C//DTD SVG 1.1//EN" "http://www.w3.org/Graphics/SVG/1.1/DTD/svg11.dtd"><svg class="icon" width="200px" height="200.00px" viewBox="0 0 1024 1024" version="1.1" xmlns="http://www.w3.org/2000/svg"><path fill="#333333" d="M945.9 693.61c0 98.31-79.95 178.29-178.22 178.29s-178.23-80-178.23-178.29 79.95-178.28 178.23-178.28S945.9 595.31 945.9 693.61z m-118.61-60.94l-84 84-31.52-31.54A26 26 0 1 0 675 721.88l50 49.93a26 26 0 0 0 36.77 0l102.3-102.38a26 26 0 0 0-36.78-36.76z"  /><path fill="#333333" d="M955.38 241.74a91 91 0 0 0-90.79-86H158.66a91 91 0 0 0-90.92 90.95v508.37a91 91 0 0 0 90.92 91h433.13l-1.17-1.37c-0.76-0.9-1.53-1.8-2.28-2.7l-1.46-1.8c-0.64-0.79-1.28-1.57-1.9-2.36-0.51-0.64-1-1.29-1.5-1.93s-1.19-1.54-1.77-2.31l-1.49-2c-0.57-0.77-1.13-1.53-1.69-2.31s-1-1.37-1.45-2.05-1.09-1.56-1.63-2.35l-1.45-2.14c-0.53-0.8-1.06-1.6-1.58-2.4s-0.91-1.39-1.35-2.09-1.05-1.66-1.56-2.5-0.86-1.37-1.27-2.07c-0.53-0.87-1-1.76-1.57-2.64-0.39-0.66-0.78-1.32-1.16-2-0.59-1-1.15-2-1.72-3.08-0.3-0.54-0.61-1.07-0.9-1.61q-1.26-2.34-2.48-4.69c-0.27-0.53-0.52-1.06-0.79-1.59-0.54-1.07-1.09-2.15-1.61-3.24-0.33-0.67-0.64-1.34-0.95-2-0.46-1-0.91-1.92-1.35-2.89-0.33-0.71-0.65-1.44-1-2.16a236.248 236.248 0 0 1-2.16-5.03c-0.39-0.93-0.77-1.86-1.15-2.8-0.3-0.75-0.6-1.51-0.89-2.27-0.37-0.94-0.72-1.88-1.08-2.82l-0.84-2.29c-0.35-1-0.68-1.93-1-2.89l-0.78-2.26-1-3c-0.23-0.73-0.47-1.46-0.69-2.19-0.34-1.09-0.66-2.18-1-3.27-0.19-0.66-0.39-1.32-0.58-2-0.4-1.39-0.77-2.8-1.14-4.2l-0.3-1.1c-0.45-1.76-0.89-3.54-1.3-5.33-0.13-0.56-0.25-1.12-0.37-1.69-0.28-1.23-0.56-2.47-0.81-3.71-0.15-0.71-0.29-1.42-0.43-2.13-0.21-1.11-0.43-2.22-0.63-3.33-0.14-0.76-0.27-1.52-0.4-2.29-0.19-1.07-0.37-2.14-0.54-3.22-0.12-0.79-0.24-1.58-0.35-2.37q-0.24-1.59-0.45-3.18c-0.11-0.81-0.21-1.61-0.31-2.41-0.13-1.07-0.25-2.14-0.37-3.21-0.08-0.81-0.17-1.61-0.25-2.41-0.1-1.09-0.2-2.19-0.29-3.28-0.06-0.79-0.13-1.58-0.19-2.37-0.08-1.14-0.15-2.29-0.22-3.44 0-0.74-0.09-1.48-0.13-2.23-0.06-1.27-0.1-2.55-0.14-3.82 0-0.63 0-1.26-0.07-1.89 0-1.91-0.07-3.82-0.07-5.74 0-128.4 104.44-232.86 232.81-232.86 2.23 0 4.45 0 6.66 0.1l2.13 0.08c1.51 0.06 3 0.13 4.53 0.21l2.43 0.16c1.43 0.09 2.85 0.2 4.28 0.32l2.38 0.21c1.52 0.15 3 0.32 4.54 0.49l2 0.23q6.51 0.81 12.9 2l1.84 0.35c1.52 0.29 3 0.59 4.56 0.91l2.12 0.47c1.45 0.32 2.89 0.65 4.32 1 0.68 0.16 1.37 0.32 2 0.5 1.56 0.39 3.11 0.8 4.66 1.23l1.55 0.42q6.27 1.75 12.4 3.86l1.3 0.46c1.6 0.56 3.19 1.13 4.78 1.73l1.62 0.62c1.51 0.58 3 1.17 4.51 1.78l1.51 0.62c1.67 0.69 3.32 1.4 5 2.13l0.88 0.39q6 2.7 11.84 5.72l0.6 0.31q2.55 1.34 5.07 2.73l1 0.58c1.59 0.89 3.17 1.79 4.73 2.72l0.91 0.53q2.64 1.59 5.25 3.24l0.16 0.1q8.4 5.34 16.31 11.37l0.46 0.36q2.43 1.84 4.8 3.77l0.37 0.3a234.14 234.14 0 0 1 19.65 17.88l0.1 0.11q2.31 2.34 4.54 4.76h0.05a235.23 235.23 0 0 1 17.07 20.69V241.74zM475.63 663.43a15 15 0 0 1-15 14.74H149.91a15 15 0 0 1-15-15.36c0-0.47 0.3-11.6 1.85-24 2.51-20.11 6.73-32 13.68-38.47 1-0.91 2.06-2 3.31-3.35 10-10.43 25.1-26.2 75-33.4 6.54-0.95 27.94-4.89 28.19-15.45v-0.85c-0.05-2.87-0.1-9-0.14-14-8.51-6.57-22.53-19.17-30.17-35.63l-2.63-1.61c-8.36-4.78-17-9.72-20.1-23-0.11-0.51-0.2-1-0.27-1.52-1.13-9-2.66-31.25 7.52-42.79a22.54 22.54 0 0 1 4.74-4.08c-0.84-14.74 1.39-36.9 1.42-37.17 0.08-0.81 0.13-2.42 0.18-4 0.19-6 0.47-15 3.37-23.39 4.3-12.51 13.4-20.66 25.61-22.94 8.94-1.63 14.28-1.11 18.77-0.28l1.39-1.67c5.76-6.91 14.45-17.36 28.34-17.36a15.26 15.26 0 0 1 2.94 0.29l22.67 4.54c8.24 0.19 12.77 1.9 17.17 4.57l0.64 0.08c2.29 0 4 0.17 16.87 2.57 26.92 5 36.88 34.21 38.37 49 0.91 8.84 0.95 30 0.56 43.8a20.07 20.07 0 0 1 5.18 4.07c5.47 5.94 7.77 14.87 7.44 28.93a137.73 137.73 0 0 1-1.26 15.3c0 0.21-0.06 0.43-0.11 0.64-0.16 0.85-0.28 1.75-0.41 2.7-1.45 10.8-5.1 18.32-18.95 25-8 15.76-22.39 26-31.75 31.27-0.23 3.79-0.48 8.32-0.64 12.44 0.12 0.57 0.19 1.05 0.25 1.42a11.69 11.69 0 0 0 3.6 7.37c3.08 3.16 11.21 8.87 31 11.73 44.34 6.4 58.72 19.62 69.64 32.62a50.23 50.23 0 0 0 3.69 4.11C469 607 473 619 474.73 639.33c1.08 12.47 0.9 23.67 0.9 24.1z m161.74-195.16H533.53a26 26 0 0 1 0-52h103.84a26 26 0 0 1 0 52z m103.85-115.49H533.53a26 26 0 0 1 0-52h207.69a26 26 0 0 1 0 52z"  /><path fill="#333333" d="M815.92 465.79c-1.52-0.32-3-0.62-4.56-0.91 1.52 0.29 3.04 0.59 4.56 0.91zM822.36 467.26zM794.63 462.32c-1.51-0.17-3-0.34-4.54-0.49 1.52 0.17 3.03 0.32 4.54 0.49zM809.52 464.53q-6.39-1.17-12.9-2 6.51 0.83 12.9 2zM908.48 508.3q-7.9-6-16.31-11.37 8.4 5.34 16.31 11.37zM892 496.83q-2.61-1.65-5.25-3.24 2.65 1.59 5.25 3.24zM885.85 493.06zM829.07 469c-1.55-0.43-3.1-0.84-4.66-1.23 1.59 0.38 3.11 0.79 4.66 1.23zM938.4 535.48q-2.24-2.41-4.54-4.76 2.31 2.34 4.54 4.76zM955.52 556.22a235.23 235.23 0 0 0-17.07-20.69 236.71 236.71 0 0 1 17.07 20.69zM913.74 512.43q-2.37-1.92-4.8-3.77 2.43 1.85 4.8 3.77zM855.23 477.86zM880.1 489.76q-2.52-1.39-5.07-2.73 2.55 1.34 5.07 2.73zM849.1 475.46zM874.43 486.72q-5.83-3-11.84-5.72 6.02 2.7 11.84 5.72zM861.71 480.61zM843 473.27q-6.12-2.1-12.4-3.86 6.29 1.76 12.4 3.86zM559.66 798.09c0.27 0.53 0.52 1.06 0.79 1.59-0.27-0.53-0.52-1.06-0.79-1.59zM562.93 804.37c0.29 0.54 0.6 1.07 0.9 1.61-0.3-0.54-0.61-1.07-0.9-1.61zM565.55 809.06c0.38 0.66 0.77 1.32 1.16 2-0.39-0.68-0.78-1.34-1.16-2zM568.28 813.68c0.41 0.7 0.84 1.38 1.27 2.07-0.43-0.69-0.86-1.37-1.27-2.07zM571.11 818.25c0.44 0.7 0.89 1.39 1.35 2.09-0.46-0.7-0.91-1.34-1.35-2.09zM552.62 782.76zM557.1 792.84zM554.78 787.79c0.32 0.72 0.64 1.45 1 2.16-0.36-0.71-0.68-1.44-1-2.16zM586.88 840.14l1.46 1.8zM550.58 777.69zM914.11 512.73a234.14 234.14 0 0 1 19.65 17.88 234.14 234.14 0 0 0-19.65-17.88zM590.62 844.64l1.17 1.37zM574 822.74l1.41 2.08c-0.41-0.69-0.91-1.38-1.41-2.08zM583.48 835.85c0.5 0.64 1 1.29 1.5 1.93-0.51-0.64-0.98-1.29-1.5-1.93zM577.08 827.17c0.48 0.68 1 1.37 1.45 2.05-0.53-0.68-0.97-1.37-1.45-2.05zM580.22 831.53l1.49 2zM535.15 705.06c0 0.75 0.09 1.49 0.13 2.23-0.04-0.74-0.09-1.48-0.13-2.23zM536 716.38c0.08 0.8 0.17 1.6 0.25 2.41-0.1-0.79-0.19-1.61-0.25-2.41zM548.66 772.58l0.84 2.29zM787.71 461.62zM536.6 722c0.1 0.8 0.2 1.6 0.31 2.41-0.11-0.81-0.21-1.61-0.31-2.41zM537.36 727.59c0.11 0.79 0.23 1.58 0.35 2.37-0.12-0.79-0.24-1.58-0.35-2.37zM534.94 699.35c0 0.63 0 1.26 0.07 1.89-0.01-0.63-0.01-1.24-0.07-1.89zM781 461.14c-1.5-0.08-3-0.15-4.53-0.21 1.53 0.07 3.03 0.13 4.53 0.21zM774.34 460.85zM535.5 710.73c0.06 0.79 0.13 1.58 0.19 2.37-0.06-0.79-0.13-1.58-0.19-2.37zM545.19 762.22c0.22 0.73 0.46 1.46 0.69 2.19-0.23-0.73-0.47-1.41-0.69-2.19zM546.86 767.43l0.78 2.26zM543.63 757c0.19 0.67 0.39 1.33 0.58 2-0.21-0.71-0.39-1.37-0.58-2zM539.28 738.8c0.14 0.71 0.28 1.42 0.43 2.13-0.15-0.71-0.29-1.42-0.43-2.13zM542.19 751.66l0.3 1.1zM538.25 733.18c0.13 0.77 0.26 1.53 0.4 2.29-0.14-0.76-0.27-1.47-0.4-2.29zM540.52 744.64zM537.36 727.59q-0.24-1.59-0.45-3.18 0.21 1.59 0.45 3.18zM539.28 738.8c-0.21-1.11-0.43-2.22-0.63-3.33 0.2 1.11 0.42 2.22 0.63 3.33zM538.25 733.18c-0.19-1.07-0.37-2.14-0.54-3.22 0.17 1.04 0.35 2.15 0.54 3.22zM542.19 751.66zM545.19 762.22c-0.34-1.09-0.66-2.18-1-3.27 0.34 1.05 0.66 2.18 1 3.27zM794.63 462.32l2 0.23zM540.52 744.64c-0.28-1.23-0.56-2.47-0.81-3.71 0.29 1.24 0.53 2.48 0.81 3.71zM535.5 710.73c-0.08-1.14-0.15-2.29-0.22-3.44 0.07 1.15 0.14 2.3 0.22 3.44zM534.94 699.35c0-1.91-0.07-3.82-0.07-5.74 0 1.92 0.03 3.83 0.07 5.74zM781 461.14l2.43 0.16zM774.34 460.85l2.13 0.08zM787.71 461.62l2.38 0.21zM536 716.38c-0.1-1.09-0.2-2.19-0.29-3.28 0.07 1.09 0.17 2.19 0.29 3.28zM536.6 722c-0.13-1.07-0.25-2.14-0.37-3.21 0.12 1.07 0.24 2.14 0.37 3.21zM546.86 767.43l-1-3zM535.15 705.06c-0.06-1.27-0.1-2.55-0.14-3.82 0.04 1.27 0.08 2.55 0.14 3.82zM543.63 757c-0.4-1.39-0.77-2.8-1.14-4.2 0.37 1.36 0.74 2.77 1.14 4.2zM574 822.74c-0.53-0.8-1.06-1.6-1.58-2.4 0.58 0.8 1.09 1.6 1.58 2.4zM577.08 827.17c-0.55-0.78-1.09-1.56-1.63-2.35 0.55 0.79 1.08 1.57 1.63 2.35zM580.22 831.53zM568.28 813.68c-0.53-0.87-1-1.76-1.57-2.64 0.52 0.88 1.04 1.77 1.57 2.64zM571.11 818.25zM583.48 835.85c-0.59-0.77-1.19-1.54-1.77-2.31 0.58 0.77 1.18 1.54 1.77 2.31zM548.66 772.58c-0.35-1-0.68-1.93-1-2.89 0.34 0.96 0.65 1.93 1 2.89zM586.88 840.14c-0.64-0.79-1.28-1.57-1.9-2.36 0.62 0.79 1.26 1.57 1.9 2.36zM590.62 844.64c-0.76-0.9-1.53-1.8-2.28-2.7 0.75 0.9 1.52 1.8 2.28 2.7zM552.62 782.76zM550.58 777.69c-0.37-0.94-0.72-1.88-1.08-2.82 0.36 0.94 0.71 1.88 1.08 2.82zM554.78 787.79c-0.41-0.93-0.82-1.86-1.22-2.8 0.44 0.94 0.81 1.87 1.22 2.8zM562.93 804.37q-1.26-2.34-2.48-4.69 1.22 2.32 2.48 4.69zM565.55 809.06c-0.59-1-1.15-2-1.72-3.08 0.57 1.02 1.17 2.02 1.72 3.08zM559.66 798.09c-0.54-1.07-1.09-2.15-1.61-3.24 0.52 1.09 1.07 2.15 1.61 3.24zM557.1 792.84c-0.46-1-0.91-1.92-1.35-2.89 0.44 0.97 0.89 1.93 1.35 2.89zM849.1 475.46l1.62 0.62zM913.74 512.43l0.37 0.3zM829.07 469l1.55 0.42c-0.51-0.16-1.03-0.29-1.55-0.42zM933.76 530.61l0.1 0.11zM861.71 480.61l0.88 0.39zM880.1 489.76l1 0.58zM892 496.83l0.16 0.1zM908.48 508.3l0.46 0.36zM855.23 477.86l1.51 0.62zM822.36 467.26c0.68 0.16 1.37 0.32 2 0.5-0.63-0.18-1.36-0.34-2-0.5zM843 473.27l1.3 0.46zM815.92 465.79l2.12 0.47zM874.43 486.72l0.6 0.31zM938.4 535.48h0.05zM809.52 464.53l1.84 0.35zM885.85 493.06l0.91 0.53z"  /></svg>