<?xml version="1.0" standalone="no"?><!DOCTYPE svg PUBLIC "-//W3C//DTD SVG 1.1//EN" "http://www.w3.org/Graphics/SVG/1.1/DTD/svg11.dtd"><svg class="icon" width="200px" height="200.00px" viewBox="0 0 1024 1024" version="1.1" xmlns="http://www.w3.org/2000/svg"><path fill="#333333" d="M676.65 314.09a31 31 0 0 0-31-31H508.39a31 31 0 0 0 0 62h137.26a31 31 0 0 0 31-31zM307.61 678.18a31 31 0 0 0 0 62h127.25a31 31 0 0 0 0-62zM666.65 511.64a31 31 0 0 0-31-31H306.46a31 31 0 1 0 0 62h329.19a31 31 0 0 0 31-31z"  /><path fill="#333333" d="M231.68 839.56a27 27 0 0 1-27-27V347.69h155.74a59 59 0 0 0 59.05-59.05V132.93H703a27 27 0 0 1 27 27v365.63c3.28-0.15 6.57-0.24 9.87-0.24a213.93 213.93 0 0 1 34 2.74q9.18 1.49 18.1 3.75V159.9a89 89 0 0 0-89-89H386.22l-0.79 0.06-0.9 0.11-0.59 0.08c-0.33 0-0.65 0.1-1 0.16l-0.52 0.09-1 0.21-0.51 0.12-0.93 0.25-0.54 0.15-0.86 0.28-0.59 0.2-0.77 0.29-0.68 0.27-0.65 0.28-0.75 0.35c-0.19 0.08-0.37 0.18-0.55 0.27s-0.55 0.27-0.82 0.42l-0.48 0.26-0.85 0.49-0.42 0.26-0.86 0.55-0.41 0.29-0.75 0.66-0.45 0.36c-0.25 0.18-0.49 0.37-0.73 0.57l-0.58 0.49-0.57 0.5c-0.35 0.32-0.69 0.64-1 1l-0.08 0.07-214.8 214.77a30.9 30.9 0 0 0-6.6 9.77l-0.06 0.14c-0.16 0.38-0.31 0.77-0.46 1.16 0 0.1-0.07 0.2-0.11 0.3-0.12 0.34-0.24 0.68-0.35 1-0.05 0.15-0.1 0.3-0.14 0.45s-0.18 0.61-0.27 0.92l-0.15 0.57c-0.07 0.28-0.13 0.57-0.2 0.85s-0.09 0.43-0.14 0.64l-0.15 0.84c0 0.22-0.08 0.45-0.11 0.67s-0.08 0.59-0.11 0.88-0.06 0.42-0.08 0.63-0.05 0.71-0.08 1.06V812.56a89 89 0 0 0 89 89h292.58L565.19 845q-1.82-2.7-3.55-5.43z m125.79-662.79v108.92H248.54z"  /><path fill="#333333" d="M831.46 842.18c56.12-46.82 67.28-130 23.86-190.18a140.61 140.61 0 1 0-204.17 190.19l-27.94 38.72-14.33 19.85 45.43-0.74 6.92-0.12 1.2 3.83 14.47 46.13 24.72-34.25 29.7-41.15a137.009 137.009 0 0 0 19.99 0.03l29.75 41.21 24.65 34.16 14.41-45.93 1.27-4 7.25 0.12 45.1 0.74L859.45 881z m-45.76-46.39a75.86 75.86 0 1 1-44.55-137.38 77.06 77.06 0 0 1 12.26 1 75.36 75.36 0 0 1 49.41 30.49 75.93 75.93 0 0 1-17.12 105.89z"  /></svg>