<?xml version="1.0" standalone="no"?><!DOCTYPE svg PUBLIC "-//W3C//DTD SVG 1.1//EN" "http://www.w3.org/Graphics/SVG/1.1/DTD/svg11.dtd"><svg class="icon" width="200px" height="200.00px" viewBox="0 0 1024 1024" version="1.1" xmlns="http://www.w3.org/2000/svg"><path fill="#333333" d="M872.34 860.31H156.88a33.51 33.51 0 1 0 0 67h715.46a33.51 33.51 0 1 0 0-67z m-683.69-57.09h118.47a41.49 41.49 0 0 0 41.36-41.37V413.56a41.37 41.37 0 0 0-41.36-41.37H188.65a41.49 41.49 0 0 0-41.37 41.37v348.29a41.6 41.6 0 0 0 41.37 41.37z m244.38 0h118.48a41.49 41.49 0 0 0 41.36-41.37V141.37A41.36 41.36 0 0 0 551.51 100H433a41.49 41.49 0 0 0-41.36 41.37v620.48A41.49 41.49 0 0 0 433 803.22z m252 0h118.48a41.5 41.5 0 0 0 41.37-41.37v-484.3a41.36 41.36 0 0 0-41.37-41.37H685a41.49 41.49 0 0 0-41.37 41.37v484.3A41.6 41.6 0 0 0 685 803.22z m0 0" /></svg>