<?xml version="1.0" standalone="no"?><!DOCTYPE svg PUBLIC "-//W3C//DTD SVG 1.1//EN" "http://www.w3.org/Graphics/SVG/1.1/DTD/svg11.dtd"><svg class="icon" width="200px" height="200.00px" viewBox="0 0 1024 1024" version="1.1" xmlns="http://www.w3.org/2000/svg"><path fill="#333333" d="M514.2 69.21c-244.9 0-443.66 198.54-443.66 443.18S269.3 955.56 514.2 955.56 957.85 757 957.85 512.39 759.09 69.21 514.2 69.21z m374.44 443.18c0 207.4-168.59 374-374.44 374-207.63 0-374.45-166.64-374.45-374s166.82-374 374.45-374 374.44 166.61 374.44 374z m-211.18 81.54l-127.77-74.46V313.84a35.5 35.5 0 0 0-71 0v221.59c0 12.41 14.2 23.05 26.62 30.14a27.58 27.58 0 0 0 14.2 10.63l129.55 78a29.94 29.94 0 0 0 17.74 5.32c3.55 0 5.33 0 8.88-1.77 8.87-1.78 16-8.86 19.52-17.73 7.09-15.95 0-37.22-17.75-46.09z m0 0" /></svg>