<?xml version="1.0" standalone="no"?><!DOCTYPE svg PUBLIC "-//W3C//DTD SVG 1.1//EN" "http://www.w3.org/Graphics/SVG/1.1/DTD/svg11.dtd"><svg class="icon" width="200px" height="200.00px" viewBox="0 0 1024 1024" version="1.1" xmlns="http://www.w3.org/2000/svg"><path fill="#333333" d="M106.34 848.59c0 41.12 37 74.38 82.74 74.38h653.56c45.71 0 82.74-33.26 82.74-74.38V332.66h-819z m519.21-355.7a22.65 22.65 0 0 1 0-31.78c8.52-8.52 23.27-8.52 31.78 0l147 147a22.56 22.56 0 0 1 0 31.79l-147 147a22.47 22.47 0 0 1-31.78-31.9l131.07-131zM441.23 763.72l105.35-289.51a23.53 23.53 0 1 1 44.24 16.06L485.47 779.78a23.76 23.76 0 0 1-22.12 15.4 22.35 22.35 0 0 1-8-1.48 23 23 0 0 1-13.27-12.12 22.54 22.54 0 0 1-0.85-17.86zM227.58 608.24l147-147a22.65 22.65 0 0 1 31.78 0 22.54 22.54 0 0 1 0 31.79l-131.1 131.1L406.33 755.2a22.63 22.63 0 0 1 0 31.78 22.52 22.52 0 0 1-31.78 0l-147-147.12A22.17 22.17 0 0 1 221 624a21.49 21.49 0 0 1 6.58-15.76zM842.8 103.77H189.08c-45.71 0-82.74 33.26-82.74 74.39V272h819.2v-93.84c0-41.16-37.03-74.39-82.74-74.39z" /></svg>