<?xml version="1.0" standalone="no"?><!DOCTYPE svg PUBLIC "-//W3C//DTD SVG 1.1//EN" "http://www.w3.org/Graphics/SVG/1.1/DTD/svg11.dtd"><svg class="icon" width="200px" height="200.00px" viewBox="0 0 1024 1024" version="1.1" xmlns="http://www.w3.org/2000/svg"><path fill="#333333" d="M279.16 926.6a53.39 53.39 0 0 1-32-10.54 54.39 54.39 0 0 1-21.78-53.42L265.16 631 97 467a54.62 54.62 0 0 1 30.25-93.17l232.46-33.73L463.6 129.39a54.55 54.55 0 0 1 97.84 0L665.32 340.1l232.49 33.71A54.62 54.62 0 0 1 928.06 467L759.88 631l39.75 231.62a54.6 54.6 0 0 1-79.17 57.57L512.52 811 304.57 920.21a53.81 53.81 0 0 1-25.41 6.39z m0 0" /></svg>