<?xml version="1.0" standalone="no"?><!DOCTYPE svg PUBLIC "-//W3C//DTD SVG 1.1//EN" "http://www.w3.org/Graphics/SVG/1.1/DTD/svg11.dtd"><svg class="icon" width="200px" height="200.00px" viewBox="0 0 1024 1024" version="1.1" xmlns="http://www.w3.org/2000/svg"><path fill="#333333" d="M280.78 921.91c-12.06 0-22.41-3.45-32.75-10.34a54.15 54.15 0 0 1-22.4-53.44l39.64-231-165.46-162C84.3 451.38 79.12 429 86 410c6.89-20.69 22.41-34.47 43.09-36.2l232.67-34.46L465.2 129.08a53 53 0 0 1 96.51 0l103.42 210.28 232.67 34.46c20.68 3.45 37.92 17.24 43.09 36.2 6.89 20.68 1.72 41.36-13.79 55.15L759.92 628.91l39.64 231a54.15 54.15 0 0 1-22.4 53.43c-17.24 12.06-39.65 13.79-56.88 3.45L513.46 808.15 306.63 916.74a69.28 69.28 0 0 1-25.85 5.17zM156.69 432.42l156.84 153.4c12.06 12.06 19 31 15.51 48.26l-37.92 217.16 194.76-101.69a51.58 51.58 0 0 1 50 0l194.74 101.69-37.92-217.16c-3.44-17.24 3.45-36.2 15.51-48.26l156.85-153.4-213.72-32.74c-17.24-1.68-32.75-13.79-41.34-29.3L513.46 173.9l-98.25 198.2c-8.61 15.51-22.4 27.58-41.36 29.3z m0 0" /></svg>