<?xml version="1.0" standalone="no"?><!DOCTYPE svg PUBLIC "-//W3C//DTD SVG 1.1//EN" "http://www.w3.org/Graphics/SVG/1.1/DTD/svg11.dtd"><svg class="icon" width="200px" height="200.00px" viewBox="0 0 1024 1024" version="1.1" xmlns="http://www.w3.org/2000/svg"><path fill="#333333" d="M798.63 116H224.29A137.06 137.06 0 0 0 86.65 253.66v407.82a137.06 137.06 0 0 0 137.64 137.64h28.88v49.28c0 25.49 11.9 47.58 32.29 57.77 8.5 5.1 18.69 6.8 28.89 6.8a77.52 77.52 0 0 0 37.38-10.19l180.12-105.36h268.48A137.06 137.06 0 0 0 938 659.78V252a139.29 139.29 0 0 0-139.37-136zM870 661.48c0 39.09-32.28 71.37-71.37 71.37H516.56c-3.4 0-5.1 0-8.5 1.7L319.45 845v-95.15a17 17 0 0 0-17-17h-78.16c-39.09 0-71.37-32.28-71.37-71.37V253.66c0-39.08 32.28-71.37 71.37-71.37h574.34c39.09 0 71.37 32.29 71.37 71.37zM263.37 466.07A49.28 49.28 0 1 0 288 423.39a49.29 49.29 0 0 0-24.64 42.68z m198.81 0a49.28 49.28 0 1 0 24.64-42.68 49.29 49.29 0 0 0-24.64 42.68z m197.12 0a49.28 49.28 0 1 0 24.64-42.68 49.29 49.29 0 0 0-24.64 42.68z m0 0" /></svg>