<?xml version="1.0" standalone="no"?><!DOCTYPE svg PUBLIC "-//W3C//DTD SVG 1.1//EN" "http://www.w3.org/Graphics/SVG/1.1/DTD/svg11.dtd"><svg class="icon" width="200px" height="200.00px" viewBox="0 0 1024 1024" version="1.1" xmlns="http://www.w3.org/2000/svg"><path fill="#333333" d="M594.31822222 174.39857778l7.64586667-20.87822223-21.20817778 6.64462223-17.49902222-13.66471111-0.23893334 22.20942222-18.432 12.42453333 21.0944 7.04284445 6.08711112 21.42435555 13.23235555-17.90862222 22.19804445 0.76231111-12.87964445-18.05653333zM188.58666667 439.42115555l-12.43591112-18.432-7.03146666 21.0944-21.34471111 6.07573334 17.82897777 13.26648889-0.7623111 22.23217777 18.0679111-12.93653333 20.92373334 7.63448889-6.71288889-21.20817778 13.67608889-17.48764444-22.20942222-0.23893334zM236.86257778 368.50346667l1.45635555-22.20942222 19.11466667-11.3208889-20.62791111-8.26026666-4.88106667-21.66328889-14.2336 17.06666667-22.10702222-2.048 11.82151111 18.78471111-8.79502222 20.38897777 21.56088889-5.40444444 16.6912 14.66595556zM812.43022222 659.99075555l-14.24497777 17.06666667-22.09564445-2.05937777 11.81013333 18.8416-8.8064 20.40035555 21.57226667-5.46133333 16.6912 14.65457778 1.46773333-22.16391112 19.08053334-11.3664-20.60515556-8.23751111-4.86968889-21.67466667zM445.45137778 857.91857778l6.13262222 21.34471111 13.22097778-17.84035556 22.20942222 0.77368889-12.87964445-18.06791111 7.5776-20.85546666-21.18542222 6.64462222-17.5104-13.68746667-0.18204444 22.2208-18.42062222 12.42453333 21.03751111 7.04284445zM598.96035555 829.22382222l-14.1767111-17.08942222-4.9720889 21.65191111-20.5824 8.24888889 19.0464 11.35502222 1.42222223 22.18666667 16.73671111-14.63182222 21.54951111 5.44995555-8.76088889-20.3776 11.85564444-18.78471111-22.1184 1.99111111zM697.86737778 806.37724445l9.37528889 20.10453333 10.29688888-19.6608 22.05013334-2.73066667-15.55342222-15.84924444 4.20977778-21.82257778-19.85422223 9.94417778-19.43324444-10.79751112 3.25404444 21.98186667-16.20195555 15.1552 21.85671111 3.67502223zM309.31626667 247.81937778l9.36391111 20.10453333 10.29688889-19.6608 22.016-2.73066666-15.54204445-15.84924445 4.25528889-21.8112-19.91111111 9.88728889-19.38773333-10.752 3.25404444 21.97048889-16.27022222 15.16657777 21.92497778 3.67502223zM439.46666667 167.75395555l-14.18808889-17.1008-4.9152 21.6632889-20.63928889 8.20337777 19.06915556 11.41191111 1.46773333 22.17528889 16.6912-14.63182222 21.53813333 5.46133333-8.77226666-20.42311111 11.8784-18.80746667-22.12977778 2.048zM858.32817778 559.65013333l-12.42453333-18.42062222-7.04284445 21.03751111-21.35608889 6.13262223 17.84035556 13.22097777-0.76231112 22.20942223 18.06791112-12.87964445 20.85546666 7.5776-6.64462222-21.18542222 13.68746667-17.5104-22.2208-0.18204445z"  /><path fill="#333333" d="M930.63395555 455.65724445l-24.8832 17.43075555 0.2616889 2.048A383.43111111 383.43111111 0 0 1 744.2432 839.68a383.49937778 383.49937778 0 0 1-397.94915555 24.71253333l-1.83182223-0.96711111-25.03111111 17.408 4.76728889 2.67377778a411.05635555 411.05635555 0 0 0 200.69262222 52.33777778q10.10346667 0 20.22968889-0.50062223a411.43182222 411.43182222 0 0 0 386.3552-474.27128888zM94.03733333 567.97866667l25.03111112-17.408-0.2616889-2.05937778A383.95448889 383.95448889 0 0 1 678.37724445 159.28888889l1.83182222 0.95573333 25.03111111-17.45351111-4.75591111-2.6624a411.43182222 411.43182222 0 0 0-607.28888889 422.45688889z"  /><path fill="#333333" d="M252.87111111 468.54826667A257.72942222 257.72942222 0 0 1 359.53777778 294.16106667a257.80906667 257.80906667 0 0 1 200.13511111-41.472l1.44497778 0.29582222 29.58222222-20.79857778-7.02008889-1.92284444A284.94506667 284.94506667 0 0 0 223.63022222 483.55555555l-0.54613333 7.19075556 29.58222222-20.75306666zM1011.29102222 305.81191111L874.74631111 111.50222222a46.36444445 46.36444445 0 0 0-64.44373333-11.22986667l-785.84035556 552.96a46.19377778 46.19377778 0 0 0-11.19573333 64.44373334L149.95911111 911.99715555a46.35306667 46.35306667 0 0 0 64.45511111 11.22986667l785.63555556-552.96a46.26204445 46.26204445 0 0 0 11.24124444-64.44373333z m-26.68088889 42.16604444l-785.64693333 552.96a19.05777778 19.05777778 0 0 1-26.49884445-4.5511111L35.51004445 702.00888889a19.06915555 19.06915555 0 0 1 0-21.82257778 18.45475555 18.45475555 0 0 1 4.67626666-4.67626666L826.02666667 122.59555555a19.01226667 19.01226667 0 0 1 26.45333333 4.55111112l136.66986667 194.33244444a19.05777778 19.05777778 0 0 1-4.53973334 26.49884444zM771.83431111 554.98524445A257.05813333 257.05813333 0 0 1 465.07804445 770.84444445l-1.45635556-0.29582223-29.51395556 20.80995556 6.95182222 1.91146667A284.92231111 284.92231111 0 0 0 800.99555555 539.96657778l0.54613334-7.20213333-29.58222222 20.75306666z"  /><path fill="#333333" d="M398.09706667 627.06346667q16.62293333 26.49884445 15.39413333 32.6656a13.96053333 13.96053333 0 0 1-5.57511111 8.24888888l-81.29422222 56.8888889q-8.9088 6.23502222-15.2576-2.83306667l-31.30026667-44.70328889L380.01777778 607.40266667l-47.62737778-68.02773334-122.88 86.07288889 10.31964445 14.79111111 107.37208888-75.18435555 26.98808889 38.53653333-84.3776 59.0848L254.31608889 640.56888889l-15.54204444 10.88853333 59.0848 84.3776q14.72284445 21.06026667 34.816 6.99733333l89.88444444-62.94186666q9.38666667-7.28177778 11.4688-16.71395556 0.93297778-9.35253333-17.46488889-41.83608888zM582.46257778 515.34506667q11.21848889 17.73795555 12.1856 21.87946666c0.54613333 2.83306667-0.1024 4.90382222-1.93422223 6.17813334L572.30222222 557.69315555q-6.15537778 4.32355555-11.37777777-3.14026666l-23.69991112-33.84888889L581.40444445 489.74506667l-10.24-14.73422222-142.07431112 99.45315555 10.31964445 14.79111111 42.91697777-30.04871111 0.34133334 0.48924445q11.0592 17.85173333 9.69386666 35.2711111-2.62826667 17.27146667-23.83644444 41.79057778l18.44337778 7.52071112q21.61777778-25.99822222 24.46222222-47.78666667 2.09351111-23.17653333-13.48266666-47.5136l-0.34133334-0.48924445 24.29155556-17.06666666 25.97546666 37.09155555Q560.92444445 587.3664 577.64977778 575.71555555l28.02346667-19.61528888q8.0896-5.68888889 8.96568888-13.03893334T600.22328889 509.72444445zM414.4128 551.43537778L430.08 540.44444445l-16.32711111-23.32444445 108.17991111-75.74186667 16.32711111 23.31306667 15.71271111-11.00231111-26.76053333-38.21795556-61.70168889 43.23555556q-9.728-7.68-16.73671111-12.1856L433.49333333 461.53955555a122.29973333 122.29973333 0 0 1 14.79111112 9.26151112l-60.5752889 42.41635555z"  /><path fill="#333333" d="M432.77312 526.99591111l91.66279111-64.18204444L534.75555555 477.54808889l-91.66392888 64.18318222zM757.00906667 388.53973333q13.58506667 25.95271111 10.35377778 28.22826667-3.8912 2.73066667-18.93262223-2.91271111a111.91182222 111.91182222 0 0 1-12.288-6.13262222q-0.23893333-31.69848889-12.58382222-70.36017778l-18.28408889 3.87982222a243.48444445 243.48444445 0 0 1 11.68497778 52.87253334q-4.74453333-3.66364445-7.96444444-6.5080889-14.9504-12.86826667-36.9664-40.448l48.26453333-33.792-10.31964445-14.7911111-19.43324444 13.65333333 2.27555556-12.66346667a177.09511111 177.09511111 0 0 0-30.97031112-3.90257778l-3.18577778 16.20195556a147.91111111 147.91111111 0 0 1 27.30666667 3.53848889L661.04888889 332.86826667q-11.08195555-14.4384-17.31697778-23.3472l-15.54204444 10.87715555q11.37777778 16.19057778 16.98702222 23.58613333l-66.71928889 46.71715556 37.76284445 53.93066667q27.02222222 39.97013333 27.30666666 72.81777777l18.92124444 2.2072889q-0.64853333-40.58453333-30.8679111-85.79982223l-0.68266667-0.96711111 24.46222222-17.12355556q17.88586667 26.56711111 20.48 32.99555556 2.27555555 6.36017778-1.82044445 9.46631111-3.41333333 2.38933333-16.80497777 10.80888889l14.44977777 10.63822222q8.97706667-5.08586667 14.00604445-8.6016 12.40177778-9.15911111 9.26151111-21.93635555-4.27804445-14.37013333-34.52017778-58.60693333l-39.68568888 27.78453333L604.16 394.67235555l52.14435555-36.52266666q22.75555555 28.72888889 41.43786667 44.37333333 10.52444445 8.8064 19.26257778 14.79111111a127.61315555 127.61315555 0 0 1-18.20444445 57.83324445l17.8176 6.82666667A134.25777778 134.25777778 0 0 0 735.00444445 427.80444445a96.71111111 96.71111111 0 0 0 14.44977777 5.80266666q21.76568889 6.25777778 32.44942223-1.2288 11.66222222-8.18062222-5.77991112-46.15964444z"  /></svg>