<?xml version="1.0" standalone="no"?><!DOCTYPE svg PUBLIC "-//W3C//DTD SVG 1.1//EN" "http://www.w3.org/Graphics/SVG/1.1/DTD/svg11.dtd"><svg class="icon" width="200px" height="200.00px" viewBox="0 0 1024 1024" version="1.1" xmlns="http://www.w3.org/2000/svg"><path fill="#333333" d="M550.4375 449.91875V159.725a36.646875 36.646875 0 0 0-73.29375 0v290.04375a85.415625 85.415625 0 0 0-49.115625 77.34375c0 34.14375 20.11875 63.46875 49.115625 77.34375v261.665625a36.646875 36.646875 0 0 0 73.29375 0V604.45625a85.3125 85.3125 0 0 0 0-154.5375zM299.834375 245.80625v-86.08125a36.646875 36.646875 0 1 0-73.29375 0v86.08125a85.425 85.425 0 0 0-49.115625 77.34375c0 34.303125 20.11875 63.459375 49.115625 77.34375v465.778125a36.646875 36.646875 0 0 0 73.29375 0v-465.9375a85.3125 85.3125 0 0 0 0-154.528125zM801.0125 653.890625V159.725a36.646875 36.646875 0 1 0-73.284375 0v494.165625a85.396875 85.396875 0 0 0-49.125 77.34375c0 34.14375 20.11875 63.46875 49.125 77.34375v57.54375a36.646875 36.646875 0 0 0 73.284375 0v-57.54375a85.415625 85.415625 0 0 0 49.125-77.34375c0-34.153125-20.11875-63.46875-49.125-77.34375z" /></svg>