<?xml version="1.0" standalone="no"?><!DOCTYPE svg PUBLIC "-//W3C//DTD SVG 1.1//EN" "http://www.w3.org/Graphics/SVG/1.1/DTD/svg11.dtd"><svg class="icon" width="200px" height="200.00px" viewBox="0 0 1024 1024" version="1.1" xmlns="http://www.w3.org/2000/svg"><path fill="#333333" d="M835.33 98.9h-636a62 62 0 0 0-62 62v702a62 62 0 0 0 62 62h636a62 62 0 0 0 62-62v-702a62 62 0 0 0-62-62z m0 764h-636v-702h636zM727.51 354.75H552.17a98.61 98.61 0 0 0-188.5 0h-52.42a29 29 0 0 0 0 58h52.43a98.61 98.61 0 0 0 188.49 0h175.34a29 29 0 0 0 0-58z m-269.59 69.59a40.6 40.6 0 1 1 40.6-40.6 40.64 40.64 0 0 1-40.6 40.6zM727.51 646.27h-52.42a98.62 98.62 0 0 0-188.5 0H311.25a29 29 0 0 0 0 58h175.34a98.61 98.61 0 0 0 188.5 0h52.42a29 29 0 0 0 0-58z m-146.67 69.61a40.66 40.66 0 0 1-40.25-35.32 28.8 28.8 0 0 0 0-10.58 40.6 40.6 0 1 1 40.25 45.9z" /></svg>