<?xml version="1.0" standalone="no"?><!DOCTYPE svg PUBLIC "-//W3C//DTD SVG 1.1//EN" "http://www.w3.org/Graphics/SVG/1.1/DTD/svg11.dtd"><svg class="icon" width="200px" height="200.00px" viewBox="0 0 1024 1024" version="1.1" xmlns="http://www.w3.org/2000/svg"><path fill="#333333" d="M832.13 103.35H378.3a91.6 91.6 0 0 0-91.75 91.75v455.48a91.6 91.6 0 0 0 91.75 91.75h455.48a91.61 91.61 0 0 0 91.75-91.75V195.1c-1.65-50.79-42.61-91.75-93.4-91.75z m22.94 545.59c0 13.11-9.83 22.94-22.94 22.94H378.3c-13.11 0-22.94-9.83-22.94-22.94V195.1c0-13.1 9.83-22.93 22.94-22.93h455.48c13.1 0 22.93 9.83 22.93 22.93v453.84zM707.62 786.56c-19.66 0-34.41 14.75-34.41 34.41v11.47c0 13.11-9.83 22.94-22.94 22.94H196.44c-13.11 0-22.94-9.83-22.94-22.94V377c0-13.11 9.83-22.94 22.94-22.94h11.46c19.66 0 34.41-14.75 34.41-34.41s-14.75-34.4-34.41-34.4h-11.46A91.6 91.6 0 0 0 104.69 377v455.44c0 49.15 41 90.11 91.75 90.11h455.47a91.6 91.6 0 0 0 91.75-91.75v-11.47a35.84 35.84 0 0 0-36-32.77z m0 0" /></svg>