<?xml version="1.0" standalone="no"?><!DOCTYPE svg PUBLIC "-//W3C//DTD SVG 1.1//EN" "http://www.w3.org/Graphics/SVG/1.1/DTD/svg11.dtd"><svg t="1642813427364" class="icon" viewBox="0 0 1024 1024" version="1.1" xmlns="http://www.w3.org/2000/svg" p-id="14026" xmlns:xlink="http://www.w3.org/1999/xlink" width="16" height="16"><defs><style type="text/css"></style></defs><path d="M758.4 434.84V329.39a62 62 0 0 0-62-62H165.54a62 62 0 0 0-62 62v532.17a62 62 0 0 0 62 62H696.4a62 62 0 0 0 62-62V434.84z m-187.63 284h-279c-15.8 0-29.15-12.39-29.59-28.18a29 29 0 0 1 29-29.82h279c15.81 0 29.16 12.39 29.6 28.19a29 29 0 0 1-29.01 29.8z m0-188.71h-279c-15.8 0-29.15-12.39-29.59-28.18a29 29 0 0 1 29-29.82h279c15.81 0 29.16 12.39 29.6 28.19a29 29 0 0 1-29.01 29.8z" p-id="14027"></path><path d="M829.51 103.57h-466.8a94 94 0 0 0-94 93.91v118.31a36.77 36.77 0 0 0 36.9 33.65c20.15 0 35.26-15.15 35.26-35.34v-118c0-13.46 10.08-23.56 23.51-23.56h465.13c13.43 0 23.51 10.1 23.51 23.56v467.7c0 13.46-10.08 23.55-23.51 23.55H722.16c-20.15 0-35.27 15.15-35.27 35.34S702 758 722.16 758h107.35a94 94 0 0 0 94-93.91v-468c0.03-50.46-41.99-92.52-94-92.52z" p-id="14028"></path></svg>