<?xml version="1.0" standalone="no"?><!DOCTYPE svg PUBLIC "-//W3C//DTD SVG 1.1//EN" "http://www.w3.org/Graphics/SVG/1.1/DTD/svg11.dtd"><svg class="icon" width="200px" height="200.00px" viewBox="0 0 1024 1024" version="1.1" xmlns="http://www.w3.org/2000/svg"><path fill="#333333" d="M911 135.81v-0.05l-0.21-0.91A34.69 34.69 0 0 0 877.07 108H683a34.77 34.77 0 0 0 0 69.54h97.7L575.16 346.23 397.84 200.31l-0.46-0.38c-0.44-0.37-0.9-0.73-1.36-1.07h-0.07c-0.44-0.32-0.87-0.63-1.32-0.92l-0.23-0.16c-0.38-0.25-0.77-0.49-1.16-0.72l-0.45-0.27-0.95-0.53c-0.22-0.13-0.45-0.24-0.68-0.36l-0.73-0.36-0.92-0.43-0.53-0.23q-0.56-0.24-1.11-0.45l-0.37-0.14q-0.63-0.24-1.26-0.45l-0.27-0.08c-0.45-0.15-0.9-0.28-1.35-0.4l-0.23-0.07-1.37-0.34-0.27-0.05c-0.44-0.1-0.88-0.19-1.33-0.26l-0.37-0.07-1.21-0.18-0.53-0.06-1.06-0.1h-4.84c-0.43 0-0.87 0-1.3 0.09h-0.3l-1.41 0.18h-0.2c-0.49 0.07-1 0.15-1.46 0.25h-0.17c-0.48 0.1-1 0.2-1.44 0.32l-0.21 0.05-1.35 0.37-0.32 0.1-1.19 0.38-0.5 0.18-1 0.38-0.71 0.29-0.75 0.33-0.95 0.44-0.5 0.25-1.17 0.63-0.27 0.15c-0.46 0.26-0.9 0.53-1.35 0.81l-0.1 0.06q-0.72 0.47-1.41 1h-0.06c-0.15 0.11-0.3 0.21-0.45 0.33L128.45 359.59a34.78 34.78 0 0 0 20.05 63.15 34.47 34.47 0 0 0 20-6.39l205.34-145.87 179.33 147.57 0.26 0.21 0.89 0.7 0.35 0.26c0.63 0.46 1.27 0.9 1.92 1.31l0.36 0.23c0.26 0.17 0.53 0.32 0.79 0.47l0.76 0.44 0.68 0.36 1 0.51 0.48 0.23c1.09 0.5 2.21 0.94 3.33 1.33h0.13c0.55 0.18 1.1 0.35 1.65 0.5h0.13a34.14 34.14 0 0 0 5.37 1h0.26c0.51 0.05 1 0.1 1.51 0.13h4.1c0.5 0 1-0.08 1.51-0.13h0.27a35 35 0 0 0 5.35-1h0.14c0.55-0.16 1.1-0.32 1.64-0.51h0.13a34.73 34.73 0 0 0 3.32-1.32l0.48-0.23c0.35-0.17 0.69-0.33 1-0.51l0.68-0.36 0.76-0.43 0.79-0.47 0.35-0.23c0.65-0.41 1.29-0.85 1.92-1.31l0.35-0.26c0.3-0.22 0.6-0.46 0.89-0.7l0.27-0.2 302-247.87A34.82 34.82 0 0 0 911 135.81zM406.07 500.22V918H572V576.55L458.68 476.37c-20.46-18.08-52.61-3.51-52.61 23.85zM846.42 374a30.64 30.64 0 0 0-37.79 1.61L633.41 525.56V918h195.13a30.74 30.74 0 0 0 30.69-30.79V399.56A31.27 31.27 0 0 0 846.42 374zM293.72 451.55L139 570.91a30.83 30.83 0 0 0-12 24.42v291.9A30.74 30.74 0 0 0 157.65 918h187V476.75c0.04-26.37-30.1-41.27-50.93-25.2z" /></svg>