<?xml version="1.0" standalone="no"?><!DOCTYPE svg PUBLIC "-//W3C//DTD SVG 1.1//EN" "http://www.w3.org/Graphics/SVG/1.1/DTD/svg11.dtd"><svg class="icon" width="200px" height="200.00px" viewBox="0 0 1024 1024" version="1.1" xmlns="http://www.w3.org/2000/svg"><path fill="#333333" d="M869.48 146.26H138.61a71.25 71.25 0 0 0-71.3 71.23v569.88a71.24 71.24 0 0 0 71.3 71.23h748.7a71.24 71.24 0 0 0 71.3-71.23V235.3a89.12 89.12 0 0 0-89.13-89.04zM358.59 612c-53.3 0-96.8-38.28-96.8-108.63 0-69.63 44.75-110.23 98.22-110.23 26.74 0 48.31 12.82 61.86 27.06l-22.28 26.72c-10.52-10.33-22.82-17.63-38.87-17.63-31.9 0-56 27.42-56 72.66 0 46 21.75 73.55 55.09 73.55 18 0 32.26-8.55 43.67-20.84l22.28 26.18C408.5 601.09 385.86 612 358.59 612zM514 612c-28.17 0-56.51-11-77-30.8l24.24-29c15.16 13.89 35.12 23.33 53.66 23.33 21.93 0 33.69-9.44 33.69-24.23 0-15.67-12.83-20.47-31.73-28.49l-28.15-12.01c-21.39-8.9-42.78-26-42.78-56.81 0-34.55 30.31-61.08 73.09-61.08 24.6 0 49 9.61 66.14 27.06l-21.4 26.54c-13.36-11-27.45-17.45-44.74-17.45-18.54 0-30.48 8.19-30.48 22.26 0 15.14 15.15 20.48 33.16 27.61l27.62 11.75c25.68 10.5 42.43 26.71 42.43 57.34C591.57 582.57 562.7 612 514 612z m172.56 0c-28.17 0-56.51-11-77-30.8l24.24-29c15.2 13.8 35.14 23.25 53.68 23.25 21.92 0 33.69-9.44 33.69-24.23 0-15.67-12.84-20.47-31.73-28.49l-28.17-11.93c-21.39-8.9-42.78-26-42.78-56.81 0-34.55 30.3-61.08 73.09-61.08 24.6 0 49 9.61 66.13 27.06l-21.39 26.54c-13.37-11-27.45-17.45-44.74-17.45-18.54 0-30.49 8.19-30.49 22.26 0 15.14 15.16 20.48 33.16 27.61l27.63 11.75c25.67 10.5 42.43 26.71 42.43 57.34-0.18 34.55-29.06 63.98-77.72 63.98z" /></svg>