<?xml version="1.0" standalone="no"?><!DOCTYPE svg PUBLIC "-//W3C//DTD SVG 1.1//EN" "http://www.w3.org/Graphics/SVG/1.1/DTD/svg11.dtd"><svg class="icon" width="200px" height="200.00px" viewBox="0 0 1024 1024" version="1.1" xmlns="http://www.w3.org/2000/svg"><path fill="#333333" d="M269 232.21a31 31 0 1 0-43.84 43.84l238.17 238.22-236.46 236.46a31 31 0 1 0 43.84 43.84l258.38-258.38a31 31 0 0 0 0-43.84zM872.89 492.35L612.75 232.21a31 31 0 1 0-43.84 43.84l238.22 238.22-236.46 236.46a31 31 0 1 0 43.84 43.84l258.38-258.38a31 31 0 0 0 0-43.84z" /></svg>