<?xml version="1.0" standalone="no"?><!DOCTYPE svg PUBLIC "-//W3C//DTD SVG 1.1//EN" "http://www.w3.org/Graphics/SVG/1.1/DTD/svg11.dtd"><svg class="icon" width="200px" height="200.00px" viewBox="0 0 1024 1024" version="1.1" xmlns="http://www.w3.org/2000/svg"><path fill="#333333" d="M865.24 475.06a63.07 63.07 0 0 0 63-63v-194a63.07 63.07 0 0 0-63-63h-702a63.07 63.07 0 0 0-63 63v194a63.07 63.07 0 0 0 63 63h29.29v78.39h-29.28a63.07 63.07 0 0 0-63 63v194a63.07 63.07 0 0 0 63 63h702a63.07 63.07 0 0 0 63-63v-194a63.07 63.07 0 0 0-63-63H836v-78.39z m-703-63v-194a1 1 0 0 1 1-1h702a1 1 0 0 1 1 1v194a1 1 0 0 1-1 1h-702a1 1 0 0 1-0.99-1z m704 204.39v194a1 1 0 0 1-1 1h-702a1 1 0 0 1-1-1v-194a1 1 0 0 1 1-1h702a1 1 0 0 1 1 1z m-92.29-63H254.54v-78.39H774z"  /><path fill="#333333" d="M249.58 315.06m-40.36 0a40.36 40.36 0 1 0 80.72 0 40.36 40.36 0 1 0-80.72 0Z"  /><path fill="#333333" d="M358.37 315.06m-40.36 0a40.36 40.36 0 1 0 80.72 0 40.36 40.36 0 1 0-80.72 0Z"  /><path fill="#333333" d="M467.15 315.06m-40.36 0a40.36 40.36 0 1 0 80.72 0 40.36 40.36 0 1 0-80.72 0Z"  /><path fill="#333333" d="M779.8 315.06m-40.36 0a40.36 40.36 0 1 0 80.72 0 40.36 40.36 0 1 0-80.72 0Z"  /><path fill="#333333" d="M249.58 713.45m-40.36 0a40.36 40.36 0 1 0 80.72 0 40.36 40.36 0 1 0-80.72 0Z"  /><path fill="#333333" d="M358.37 713.45m-40.36 0a40.36 40.36 0 1 0 80.72 0 40.36 40.36 0 1 0-80.72 0Z"  /><path fill="#333333" d="M467.15 713.45m-40.36 0a40.36 40.36 0 1 0 80.72 0 40.36 40.36 0 1 0-80.72 0Z"  /><path fill="#333333" d="M779.8 713.45m-40.36 0a40.36 40.36 0 1 0 80.72 0 40.36 40.36 0 1 0-80.72 0Z"  /></svg>