<?xml version="1.0" standalone="no"?><!DOCTYPE svg PUBLIC "-//W3C//DTD SVG 1.1//EN" "http://www.w3.org/Graphics/SVG/1.1/DTD/svg11.dtd"><svg class="icon" width="200px" height="200.00px" viewBox="0 0 1024 1024" version="1.1" xmlns="http://www.w3.org/2000/svg"><path fill="#333333" d="M798.1 79.32H289.58A115.62 115.62 0 0 0 174.09 194.8V812.88c0 73.52 59.82 133.34 133.34 133.34H799.1a52.54 52.54 0 0 0 52.48-52.48V132.8a53.54 53.54 0 0 0-53.48-53.48zM307.9 878.54a68.56 68.56 0 1 1-0.47-137h482.15v42.33h-436a29 29 0 0 0 0 58h436v36.66z m161.79-728.25v131.22l-22.36-19.19a31 31 0 0 0-40.38 0l-22.36 19.19V150.29z m-180.11-9h33V349a31 31 0 0 0 51.19 23.52l53.36-45.79 53.36 45.79a31 31 0 0 0 51.2-23.52V141.32h257.89v538.23H307.43a132.6 132.6 0 0 0-71.34 20.73V194.8a53.55 53.55 0 0 1 53.49-53.48z" /></svg>