<?xml version="1.0" standalone="no"?><!DOCTYPE svg PUBLIC "-//W3C//DTD SVG 1.1//EN" "http://www.w3.org/Graphics/SVG/1.1/DTD/svg11.dtd"><svg class="icon" width="200px" height="200.00px" viewBox="0 0 1024 1024" version="1.1" xmlns="http://www.w3.org/2000/svg"><path fill="#333333" d="M382.07 177.25c0-19.67-13.57-35.54-30.28-35.54s-30.26 15.87-30.26 35.54v25h60.54z"  /><path fill="#333333" d="M846 202.21H704.93v-25c0-19.67-13.57-35.54-30.27-35.54s-30.27 15.87-30.27 35.54v25h60.37v105.46c0 19.67-13.56 35.54-30.27 35.54s-30.27-15.87-30.27-35.54V202.21H382.07v105.46c0 19.67-13.57 35.54-30.28 35.54s-30.26-15.87-30.26-35.54V202.21H180.44a80.9 80.9 0 0 0-80.71 80.66V807c0 44.3 36.38 80.67 80.71 80.67H846c44.33 0 80.72-36.37 80.72-80.67V282.87c0.01-44.46-36.38-80.66-80.72-80.66zM376.11 746.38h-78.73c-14.56 0-26.3-13.56-26.3-30.25s11.74-30.26 26.3-30.26h78.73c14.56 0 26.3 13.56 26.3 30.26-0.17 16.87-11.91 30.25-26.3 30.25z m0-141h-78.73c-14.56 0-26.3-13.55-26.3-30.24s11.74-30.26 26.3-30.26h78.73c14.56 0 26.3 13.56 26.3 30.26s-11.91 30.23-26.3 30.23z m181.44 141h-78.73c-14.55 0-26.29-13.56-26.29-30.25s11.74-30.26 26.29-30.26h78.73c14.56 0 26.3 13.56 26.3 30.26 0 16.87-11.74 30.25-26.3 30.25z m0-141h-78.73c-14.55 0-26.29-13.55-26.29-30.24s11.74-30.26 26.29-30.26h78.73c14.56 0 26.3 13.56 26.3 30.26s-11.74 30.23-26.3 30.23z m181.61 141h-78.73c-14.55 0-26.3-13.56-26.3-30.25s11.75-30.26 26.3-30.26h78.73c14.56 0 26.3 13.56 26.3 30.26-0.16 16.87-11.91 30.25-26.3 30.25z m0-141h-78.73c-14.55 0-26.3-13.55-26.3-30.24s11.75-30.26 26.3-30.26h78.73c14.56 0 26.3 13.56 26.3 30.26s-11.91 30.23-26.3 30.23zM849 444H177.46c-15.05 0-27.29-13.56-27.29-30.25s12.24-30.25 27.29-30.25H849c15 0 27.29 13.56 27.29 30.25S864 444 849 444z"  /></svg>