<?xml version="1.0" standalone="no"?><!DOCTYPE svg PUBLIC "-//W3C//DTD SVG 1.1//EN" "http://www.w3.org/Graphics/SVG/1.1/DTD/svg11.dtd"><svg class="icon" width="200px" height="200.00px" viewBox="0 0 1024 1024" version="1.1" xmlns="http://www.w3.org/2000/svg"><path fill="#333333" d="M235.89 425v158.9h67.94q84.29 0 84.29-82.9-0.87-75.13-82.57-76z m99.76 78.59q0 43.18-37 43.18h-11.16v-84.61h10.32q40.43-3.43 37.84 41.46zM504.22 425h-52.46L395 583.93h50.74l6-20.72h51.6l6 20.72H561z m-43 104.49l16.34-57 17.2 57zM675.37 583.93v-58.72l58.48-100.18h-56.76l-27.52 53.54-27.52-53.54h-57.63l58.49 101.04v57.86h52.46zM539.22 892.12l-0.92 0.11a21.5 21.5 0 0 0 2.55 42.85 21 21 0 0 0 2.61-0.16l1.06-0.13a21.5 21.5 0 1 0-5.3-42.67zM676.67 846.39l-1.23 0.71a21.5 21.5 0 1 0 21.24 37.39l1.39-0.8a21.5 21.5 0 0 0-21.4-37.3zM610.26 876.11l-1.36 0.45a21.5 21.5 0 0 0 6.7 41.93 21.27 21.27 0 0 0 6.72-1.08l1.51-0.5a21.5 21.5 0 0 0-13.57-40.8zM815.9 747a21.5 21.5 0 0 0-30.15 4l-0.87 1.13a21.5 21.5 0 0 0 34 26.34l1-1.27a21.49 21.49 0 0 0-3.98-30.2zM735.91 804.07l-1.08 0.94A21.5 21.5 0 1 0 763 837.46l1.21-1.05a21.5 21.5 0 0 0-28.34-32.34zM852.92 679.28a21.5 21.5 0 0 0-28.78 9.81l-0.65 1.33a21.5 21.5 0 1 0 38.56 19l0.68-1.4a21.48 21.48 0 0 0-9.81-28.74zM875.58 606a21.5 21.5 0 0 0-26.23 15.36l-0.23 0.87a21.5 21.5 0 0 0 41.55 11.08l0.28-1.07A21.5 21.5 0 0 0 875.58 606z"  /><path fill="#333333" d="M950.15 454.71a31 31 0 0 0-43.84 0l-4.68 4.69a420.25 420.25 0 1 0-462.12 473.24 29.93 29.93 0 0 0 3.4 0.19 31 31 0 0 0 3.32-61.83c-81.77-8.92-155.8-44.44-214.09-102.73-139.58-139.58-139.58-366.7 0-506.27s366.71-139.59 506.29 0c52.57 52.57 86.68 118.26 99.33 189.7a31 31 0 0 0-40.34 46.85L851.87 553a31 31 0 0 0 43.84 0l54.44-54.45a31 31 0 0 0 0-43.84z"  /></svg>