<?xml version="1.0" standalone="no"?><!DOCTYPE svg PUBLIC "-//W3C//DTD SVG 1.1//EN" "http://www.w3.org/Graphics/SVG/1.1/DTD/svg11.dtd"><svg t="1642813317858" class="icon" viewBox="0 0 1024 1024" version="1.1" xmlns="http://www.w3.org/2000/svg" p-id="12718" xmlns:xlink="http://www.w3.org/1999/xlink" width="16" height="16"><defs><style type="text/css"></style></defs><path d="M672.77 119v-0.07a35.75 35.75 0 0 0-35.15-35.14H392.73a35.74 35.74 0 0 0-36.34 35.14V363.9c-0.33 19.74 15.41 16 35.15 16.34s36 4.6 36.34-15.14V155.27h173.4V363.9c-0.33 19.74 15.41 16 35.15 16.34s36 4.6 36.34-15.14V119z" p-id="12719"></path><path d="M852.62 193l-677.38-1.78a35.75 35.75 0 0 0-1.2 71.48h1.2l42.92 0.11v579.32a96.11 96.11 0 0 0 95.71 96.51h390.45a96.11 96.11 0 0 0 96.51-95.71V264.34l51.79 0.14a35.75 35.75 0 0 0 0-71.49zM450.54 670.49c0 21.44-16.09 37.53-35.75 37.53a35.85 35.85 0 0 1-35.74-35.74V477.73a35.75 35.75 0 0 1 71.49 0zM607.82 708a35.85 35.85 0 0 1-35.75-35.74V477.73a35.75 35.75 0 0 1 71.48 0v192.76c0 21.44-16.08 37.51-35.73 37.51z" p-id="12720"></path></svg>