<?xml version="1.0" standalone="no"?><!DOCTYPE svg PUBLIC "-//W3C//DTD SVG 1.1//EN" "http://www.w3.org/Graphics/SVG/1.1/DTD/svg11.dtd"><svg class="icon" width="200px" height="200.00px" viewBox="0 0 1024 1024" version="1.1" xmlns="http://www.w3.org/2000/svg"><path fill="#333333" d="M380.65 174.13c0-19.76-13.61-35.71-30.36-35.71s-30.35 16-30.35 35.71v25.08h60.71z m323.78 0c0-19.76-13.61-35.71-30.36-35.71s-30.35 16-30.35 35.71v25.08h60.71z m141.48 25.08H704.26v106c0 19.77-13.6 35.71-30.35 35.71s-30.36-15.94-30.36-35.71v-106h-262.9v106c0 19.77-13.61 35.71-30.36 35.71s-30.35-15.94-30.35-35.71v-106H178.45a81.21 81.21 0 0 0-80.94 81v526.68c0 44.5 36.49 81 80.94 81h667.46c44.46 0 81-36.54 81-81V280.25a81.21 81.21 0 0 0-81-81zM374.68 745.94h-79c-14.59 0-26.37-13.63-26.37-30.4s11.78-30.39 26.37-30.39h79c14.59 0 26.37 13.62 26.37 30.39-0.17 16.94-11.94 30.4-26.37 30.4z m0-141.67h-79c-14.59 0-26.37-13.62-26.37-30.39s11.78-30.39 26.37-30.39h79c14.59 0 26.37 13.61 26.37 30.39s-11.94 30.39-26.37 30.39z m182 141.67h-79c-14.6 0-26.37-13.63-26.37-30.4s11.77-30.39 26.37-30.39h79c14.59 0 26.37 13.62 26.37 30.39 0 16.94-11.78 30.4-26.37 30.4z m0-141.67h-79c-14.6 0-26.37-13.62-26.37-30.39s11.77-30.39 26.37-30.39h79c14.59 0 26.37 13.61 26.37 30.39s-11.78 30.39-26.37 30.39z m182.08 141.67h-79c-14.6 0-26.38-13.63-26.38-30.4s11.78-30.39 26.38-30.39h79c14.6 0 26.38 13.62 26.38 30.39-0.17 16.94-11.95 30.4-26.38 30.4z m0-141.67h-79c-14.6 0-26.38-13.62-26.38-30.39s11.78-30.39 26.38-30.39h79c14.6 0 26.38 13.61 26.38 30.39s-11.95 30.39-26.38 30.39zM848.9 442.18H175.47c-15.1 0-27.37-13.62-27.37-30.4s12.27-30.39 27.37-30.39H848.9c15.09 0 27.37 13.62 27.37 30.39s-12.28 30.4-27.37 30.4z m0 0" /></svg>