<?xml version="1.0" standalone="no"?><!DOCTYPE svg PUBLIC "-//W3C//DTD SVG 1.1//EN" "http://www.w3.org/Graphics/SVG/1.1/DTD/svg11.dtd"><svg class="icon" width="200px" height="200.00px" viewBox="0 0 1024 1024" version="1.1" xmlns="http://www.w3.org/2000/svg"><path fill="#333333" d="M886.58 842V263.63L675.39 98.38H252.84c-58 0-105.59 37.18-105.59 82.63V842c0 45.44 47.59 82.62 105.59 82.62h528c58.17 0 105.76-37.18 105.76-82.62z m-80.81-558.87h-93a54.51 54.51 0 0 1-54.37-54.37v-61z m15.54 65.27V842c-0.66 4-14.71 17.35-40.32 17.35H252.84c-25.61 0-39.66-13.39-40.32-17.52v-661c0.66-4 14.71-17.35 40.32-17.35h340.09v65.27c0 65.94 53.71 119.64 119.64 119.64z m0 0"  /><path fill="#333333" d="M342.91 652.8H658.2a32.55 32.55 0 1 1 0 65.1H342.91a32.55 32.55 0 1 1 0-65.1zM680 587.68H342.91a32.55 32.55 0 1 1 0-65.1h336.94a32.55 32.55 0 0 1 0.17 65.1zM484.36 457.14H343.07a32.56 32.56 0 0 1 0-65.11h141.29a32.56 32.56 0 1 1 0 65.11z m0 0"  /></svg>