<?xml version="1.0" standalone="no"?><!DOCTYPE svg PUBLIC "-//W3C//DTD SVG 1.1//EN" "http://www.w3.org/Graphics/SVG/1.1/DTD/svg11.dtd"><svg class="icon" width="200px" height="200.00px" viewBox="0 0 1024 1024" version="1.1" xmlns="http://www.w3.org/2000/svg"><path fill="#333333" d="M791.94 636.85l-84.59 90.53L667.93 688a22 22 0 0 0-31.08 31.14l55.51 55.42 0.26 0.23c0.09 0.09 0.17 0.19 0.26 0.27s0.41 0.35 0.62 0.52 0.52 0.46 0.78 0.67 0.62 0.46 0.92 0.68l0.84 0.58 1 0.58c0.28 0.16 0.56 0.33 0.85 0.48s0.71 0.33 1.07 0.49 0.56 0.26 0.84 0.37 0.78 0.28 1.17 0.41 0.53 0.19 0.8 0.27c0.43 0.12 0.86 0.22 1.29 0.31 0.25 0.06 0.49 0.13 0.73 0.17 0.49 0.1 1 0.16 1.47 0.22l0.58 0.08q1 0.09 2.07 0.09c0.72 0 1.44 0 2.16-0.1l0.6-0.09c0.52-0.07 1-0.13 1.54-0.23 0.26-0.05 0.51-0.13 0.76-0.19 0.45-0.1 0.9-0.21 1.35-0.34l0.82-0.29c0.41-0.14 0.83-0.28 1.23-0.45s0.57-0.27 0.86-0.4 0.75-0.35 1.12-0.54 0.58-0.35 0.88-0.52 0.68-0.41 1-0.64 0.58-0.42 0.86-0.63 0.64-0.47 0.94-0.73 0.54-0.48 0.81-0.73 0.43-0.37 0.63-0.57 0.17-0.19 0.25-0.28 0.18-0.16 0.26-0.25l100.11-107.12a22 22 0 0 0-32.15-30zM400.05 343.85v159.33H240.11a31 31 0 0 0 0 62h190.94a31 31 0 0 0 31-31V343.85a31 31 0 0 0-62 0zM110.18 235.64a30.88 30.88 0 0 0 20.46-7.72l91-80a31 31 0 0 0-40.95-46.56l-91 80a31 31 0 0 0 20.48 54.28zM710 147.88l91 80a31 31 0 1 0 41-46.52l-91-80a31 31 0 1 0-41 46.52z"  /><path fill="#333333" d="M494.56 869.51q-14.26 1.2-28.72 1.22c-185.91 0-337.16-151-337.16-336.55s151.25-336.55 337.16-336.55c146.73 0 271.84 94.05 318.07 224.93a285 285 0 0 1 71.21 23.16A399.36 399.36 0 0 0 183.6 252.45 398.42 398.42 0 0 0 465.84 932.6a401.16 401.16 0 0 0 79.26-7.87q-9.24-7.82-17.91-16.43a291.16 291.16 0 0 1-32.63-38.79z"  /><path fill="#333333" d="M890.53 545.61a225.25 225.25 0 1 0 66.17 159.47 224.65 224.65 0 0 0-66.17-159.47zM730.77 872.73c-92.61 0-167.95-75.21-167.95-167.65s75.34-167.65 167.95-167.65 168 75.21 168 167.65-75.39 167.65-168 167.65z"  /></svg>