<?xml version="1.0" standalone="no"?><!DOCTYPE svg PUBLIC "-//W3C//DTD SVG 1.1//EN" "http://www.w3.org/Graphics/SVG/1.1/DTD/svg11.dtd"><svg class="icon" width="200px" height="200.00px" viewBox="0 0 1024 1024" version="1.1" xmlns="http://www.w3.org/2000/svg"><path fill="#333333" d="M514.23 63.26c-220 0-398.92 178.89-398.92 398.92 0 191.42 132.38 352.42 316.63 390 0 7.15 1.79 17.89 1.79 23.25 1.79 34 5.37 82.29 46.52 82.29 26.83 0 46.51-26.83 75.13-66.19C564.32 879 576.85 861.11 584 854c189.62-34 327.37-198.57 327.37-391.77 1.79-220-177.1-398.92-397.14-398.92z m53.67 726.3c-21.46 3.57-35.78 23.25-64.4 62.61-1.79 1.78-1.79 3.58-3.58 3.58-3.57-32.21-8.94-62.62-39.35-66.19C299.56 762.72 181.5 625 181.5 462.18c0-184.25 150.26-332.73 332.73-332.73S847 277.93 847 462.18C847 625 728.91 762.72 567.9 789.56z m-66.19-193.21c-23.26 0-42.93 19.68-42.93 42.94s19.67 42.93 42.93 42.93 42.93-19.68 42.93-42.93-17.88-42.94-42.93-42.94z m69.77-314.84a154.27 154.27 0 0 0-64.4-14.32q-40.24 0-69.77 16.1c-19.68 10.74-35.78 25-44.72 42.94-10.74 16.1-16.1 34-16.1 50.08a33 33 0 0 0 8.94 21.47c7.16 7.16 14.31 10.74 23.26 10.74 16.1 0 26.83-8.95 32.2-28.63s14.31-32.2 23.25-42.93c8.95-8.94 23.26-14.31 41.15-14.31A58.94 58.94 0 0 1 544.64 337c10.74 8.9 14.36 21.43 14.36 35.74 0 7.15-1.79 14.31-5.37 19.68s-7.15 10.73-12.52 16.1S528.54 421 517.81 430c-12.52 10.74-21.46 21.47-28.62 28.63a154 154 0 0 0-17.89 28.62c-3.58 10.73-7.16 23.26-7.16 37.57 0 12.52 3.58 19.67 8.95 26.83a33 33 0 0 0 21.47 9c16.1 0 26.83-9 30.41-26.84 1.79-8.94 3.57-14.31 3.57-17.89 1.79-3.58 1.79-7.16 3.58-10.73s3.58-7.16 7.16-10.74l14.31-14.31c21.47-19.67 35.78-32.2 42.93-41.14s14.31-18 21.48-28.7c5.37-10.73 9-23.25 9-39.35 0-19.68-5.37-35.78-16.11-51.88-7.15-14.31-21.46-26.83-39.35-37.56z m0 0" /></svg>