<?xml version="1.0" standalone="no"?><!DOCTYPE svg PUBLIC "-//W3C//DTD SVG 1.1//EN" "http://www.w3.org/Graphics/SVG/1.1/DTD/svg11.dtd"><svg class="icon" width="200px" height="200.00px" viewBox="0 0 1024 1024" version="1.1" xmlns="http://www.w3.org/2000/svg"><path fill="#333333" d="M872.26 405.87a33 33 0 0 0-32.91 32.9v353.78c0 29.61-24.68 54.3-54.3 54.3H222.31c-31.26 0-54.3-23-54.3-54.3V229.8c0-31.26 23-54.3 54.3-54.3h350.48a32.91 32.91 0 1 0 0-65.81H222.31c-65.82 0-120.12 54.29-120.12 120.11v564.39c0 65.82 54.3 120.12 120.12 120.12H786.7c65.81 0 120.11-54.3 120.11-120.12V438.77c-1.64-18.1-16.45-32.9-34.55-32.9z m44.43-286.31a33.34 33.34 0 0 0-46.08-1.65l-495.28 470.6a33.34 33.34 0 0 0-1.64 46.07 32.5 32.5 0 0 0 23 9.88c8.22 0 16.45-3.3 23-8.23L915 165.63c13.17-11.52 13.17-32.91 1.65-46.07z m0 0" /></svg>