<?xml version="1.0" standalone="no"?><!DOCTYPE svg PUBLIC "-//W3C//DTD SVG 1.1//EN" "http://www.w3.org/Graphics/SVG/1.1/DTD/svg11.dtd"><svg class="icon" width="200px" height="200.00px" viewBox="0 0 1024 1024" version="1.1" xmlns="http://www.w3.org/2000/svg"><path fill="#333333" d="M947.64 249c-10.72-21.44-30.37-37.52-53.6-46.46a101.26 101.26 0 0 0-32.16-5.36H161.45c-10.71 0-23.22 1.79-32.16 5.36-23.23 8.94-42.88 25-53.6 46.46Q65 267.76 65 291.87v437.77c0 12.5 1.78 23.23 7.15 33.94 10.71 28.59 35.73 50 67.89 57.18 7.15 1.79 14.3 3.58 21.44 3.58h700.4c7.15 0 14.29-1.79 21.44-3.58A90.75 90.75 0 0 0 953 754.65c1.79-8.93 3.58-16.08 3.58-25V291.87a69.25 69.25 0 0 0-8.94-42.87z m-436 271.59l-55.4-44.67-264.41-212.63h641.46z m84 12.51L863.66 760H168.6l262.66-221.55 62.54 50c8.93 7.15 23.23 7.15 32.16 0zM384.8 497.35L127.51 713.56V291.87z m511 207.27L643.89 493.78l251.93-201.91z m0 0" /></svg>