<?xml version="1.0" standalone="no"?><!DOCTYPE svg PUBLIC "-//W3C//DTD SVG 1.1//EN" "http://www.w3.org/Graphics/SVG/1.1/DTD/svg11.dtd"><svg class="icon" width="200px" height="200.00px" viewBox="0 0 1024 1024" version="1.1" xmlns="http://www.w3.org/2000/svg"><path fill="#333333" d="M583.30666667 410.76266667h-86.144v-86.13333334a34.528 34.528 0 1 0-69.056 0v86.13333334h-86.144a34.53866667 34.53866667 0 0 0 0 69.06666666h86.144v86.13333334a34.528 34.528 0 1 0 69.056 0v-86.13333334h86.144a34.53866667 34.53866667 0 0 0 0-69.06666666z"  /><path fill="#333333" d="M950.09066667 896.576l-199.46666667-199.28533333c57.48266667-68.13866667 92.384-155.936 92.384-251.98933334 0-216-175.04-391.04-391.02933333-391.04S60.94933333 229.33333333 60.94933333 445.30133333s175.04 391.02933333 391.04 391.02933334a387.98933333 387.98933333 0 0 0 233.6-78.05866667L887.104 959.57333333a44.544 44.544 0 0 0 62.98666667-62.99733333z m-498.13333334-149.33333333c-166.592 0-301.96266667-135.552-301.96266666-301.952 0-166.592 135.552-301.96266667 301.96266666-301.96266667s301.984 135.56266667 301.984 301.97333333-135.37066667 301.952-301.952 301.952z"  /></svg>