<?xml version="1.0" standalone="no"?><!DOCTYPE svg PUBLIC "-//W3C//DTD SVG 1.1//EN" "http://www.w3.org/Graphics/SVG/1.1/DTD/svg11.dtd"><svg class="icon" width="200px" height="200.00px" viewBox="0 0 1024 1024" version="1.1" xmlns="http://www.w3.org/2000/svg"><path fill="#333333" d="M950.88 252.15c-10.74-21.49-30.44-37.6-53.72-46.56a101.48 101.48 0 0 0-32.24-5.37h-702c-10.74 0-23.28 1.79-32.24 5.37-23.27 9-43 25.07-53.72 46.56q-10.74 18.81-10.74 43v438.73c0 12.54 1.79 23.28 7.16 34 10.74 28.66 35.81 50.15 68.05 57.31 7.16 1.79 14.33 3.58 21.49 3.58h702c7.17 0 14.33-1.79 21.49-3.58A91 91 0 0 0 956.25 759c1.79-9 3.58-16.12 3.58-25.07V295.14a69.44 69.44 0 0 0-9-43zM513.93 524.36l-55.52-44.77-265-213.11h642.9z m84.16 12.53l268.62 227.44H170.09l263.25-222.07L496 592.41c9 7.16 23.28 7.16 32.23 0z m-211.31-35.81L128.9 717.76V295.14zM899 708.81L646.44 497.49 899 295.14z m0 0" /></svg>