<?xml version="1.0" standalone="no"?><!DOCTYPE svg PUBLIC "-//W3C//DTD SVG 1.1//EN" "http://www.w3.org/Graphics/SVG/1.1/DTD/svg11.dtd"><svg class="icon" width="200px" height="200.00px" viewBox="0 0 1024 1024" version="1.1" xmlns="http://www.w3.org/2000/svg"><path fill="#333333" d="M890.71 903.3L814.3 826c59.1-82.32 52-198.52-21.27-272.71a206.59 206.59 0 0 0-294.32 0c-81.15 82.14-81.15 215.78 0 297.92a206.57 206.57 0 0 0 269.42 21.53L844.54 950a32.37 32.37 0 0 0 46.17 0 33.33 33.33 0 0 0 0-46.7z m-345.84-98.87c-55.68-56.37-55.68-148.09 0-204.46a141.79 141.79 0 0 1 202 0c55.69 56.37 55.69 148.09 0 204.45a141.79 141.79 0 0 1-202 0.01z"  /><path fill="#333333" d="M375.72 733.73a33.1 33.1 0 0 1-18.11 5.37h-67.94a34 34 0 0 1 0-68h67.94a33.18 33.18 0 0 1 17.31 4.9 271.22 271.22 0 0 1 37.68-116H289.67a34 34 0 0 1 0-68h156a33.12 33.12 0 0 1 18.49 5.62 266.11 266.11 0 0 1 355.3-0.24V158.79c0-38.09-30.62-69.08-68.25-69.08H198.52c-37.63 0-68.25 31-68.25 69.08v708.72c0 38.09 30.62 69.09 68.25 69.09h310a271.57 271.57 0 0 1-132.8-202.87z m-86.05-420.88h370.39a34 34 0 0 1 0 68H289.67a34 34 0 0 1 0-68z"  /></svg>