<?xml version="1.0" standalone="no"?><!DOCTYPE svg PUBLIC "-//W3C//DTD SVG 1.1//EN" "http://www.w3.org/Graphics/SVG/1.1/DTD/svg11.dtd"><svg class="icon" width="200px" height="200.00px" viewBox="0 0 1024 1024" version="1.1" xmlns="http://www.w3.org/2000/svg"><path fill="#333333" d="M891.18 576.45H137.52a28.91 28.91 0 0 0-6.4 0.65 19.49 19.49 0 0 0-2.78 0.82c-1.15 0.33-2.29 0.66-3.28 1-1.15 0.49-2.13 1.14-3.11 1.64-0.82 0.49-1.64 0.82-2.46 1.31a31.44 31.44 0 0 0-9 9c-0.49 0.82-0.82 1.64-1.31 2.46-0.49 1-1.15 2-1.64 3.11a23.6 23.6 0 0 0-1 3.28 17.2 17.2 0 0 0-0.82 2.78 33.5 33.5 0 0 0 0 12.78 17.61 17.61 0 0 0 0.82 2.79c0.32 1.14 0.65 2.29 1 3.27 0.49 1.15 1.15 2.13 1.64 3.12 0.49 0.82 0.82 1.63 1.31 2.45a29.91 29.91 0 0 0 4.1 4.92l186 186a32.79 32.79 0 1 0 46.37-46.37L216.81 641.33h674.37a32.86 32.86 0 0 0 32.76-32.77c0-17.53-14.74-32.11-32.76-32.11zM137.52 452.92h753.66a28.31 28.31 0 0 0 6.39-0.66 17.2 17.2 0 0 0 2.78-0.82l3.44-1a18.45 18.45 0 0 0 3.12-1.64 20.41 20.41 0 0 0 2.62-1.48 28 28 0 0 0 4.91-3.93h0.16a0.16 0.16 0 0 1 0.17-0.16 28.58 28.58 0 0 0 3.93-4.92c0.49-0.82 1-1.8 1.48-2.62 0.49-1 1.14-2 1.64-3.11a28.24 28.24 0 0 0 1-3.44 20 20 0 0 0 0.82-2.79 33.5 33.5 0 0 0 0-12.78 19.49 19.49 0 0 0-0.82-2.78c-0.33-1.15-0.66-2.3-1-3.28-0.5-1.14-1.15-2.13-1.64-3.11-0.49-0.82-0.82-1.8-1.31-2.62a29 29 0 0 0-3.94-4.92 0.16 0.16 0 0 0-0.16-0.16L728.32 210.92A32.79 32.79 0 1 0 682 257.29l130 130.09H137.52a32.77 32.77 0 1 0 0 65.54z m0 0" /></svg>