<?xml version="1.0" standalone="no"?><!DOCTYPE svg PUBLIC "-//W3C//DTD SVG 1.1//EN" "http://www.w3.org/Graphics/SVG/1.1/DTD/svg11.dtd"><svg t="1642813327078" class="icon" viewBox="0 0 1024 1024" version="1.1" xmlns="http://www.w3.org/2000/svg" p-id="13009" xmlns:xlink="http://www.w3.org/1999/xlink" width="16" height="16"><defs><style type="text/css"></style></defs><path d="M512.35 64.74c-247.42 0-448 200.57-448 448s200.58 448 448 448 448-200.57 448-448-200.57-448-448-448zM681 635.41H427l39.68 35.34a31.69 31.69 0 1 1-42.15 47.33l-101.89-90.69-0.11-0.1-0.66-0.62-0.51-0.48-0.46-0.48c-0.22-0.22-0.44-0.45-0.64-0.68a31.79 31.79 0 0 1-4.34-6.09l-0.06-0.11c-0.18-0.33-0.34-0.66-0.5-1-0.07-0.14-0.15-0.27-0.21-0.41s-0.23-0.49-0.33-0.73-0.22-0.48-0.32-0.72l-0.18-0.44c-0.13-0.34-0.27-0.68-0.39-1a0.76 0.76 0 0 1 0-0.11 31 31 0 0 1-1.66-7.27c0-0.3-0.05-0.61-0.08-0.92s0-0.45-0.05-0.67 0-0.46 0-0.7v-0.91-0.14-0.49-1-0.68c0-0.23 0-0.58 0.07-0.87s0.05-0.5 0.08-0.74 0.06-0.53 0.1-0.8l0.12-0.78c0-0.25 0.09-0.49 0.14-0.74s0.1-0.54 0.16-0.8 0.11-0.47 0.17-0.71 0.13-0.53 0.21-0.8 0.12-0.47 0.19-0.7 0.16-0.52 0.25-0.77 0.15-0.48 0.24-0.71 0.17-0.49 0.27-0.74 0.18-0.49 0.28-0.73l0.29-0.68c0.11-0.25 0.22-0.5 0.34-0.75s0.21-0.43 0.31-0.64l0.38-0.75 0.35-0.63c0.13-0.24 0.27-0.48 0.41-0.72l0.39-0.63c0.14-0.22 0.28-0.45 0.43-0.67l0.45-0.66 0.44-0.61 0.52-0.69 0.43-0.54c0.19-0.24 0.4-0.48 0.6-0.71s0.21-0.26 0.33-0.39l0.1-0.11 0.61-0.65c0.16-0.17 0.32-0.35 0.49-0.51s0.32-0.31 0.48-0.46 0.44-0.44 0.67-0.65a31.37 31.37 0 0 1 6.08-4.33l0.11-0.06c0.32-0.18 0.65-0.34 1-0.51l0.42-0.21 0.72-0.32 0.72-0.33 0.45-0.17 1-0.4h0.12a31.35 31.35 0 0 1 7.22-1.65h0.1c0.29 0 0.59-0.05 0.89-0.08H681a31.69 31.69 0 1 1 0 63.37z m31.67-213.16v1.62c0 0.22 0 0.59-0.07 0.88s0 0.49-0.08 0.73-0.06 0.54-0.1 0.8l-0.12 0.78c0 0.25-0.09 0.5-0.14 0.74s-0.11 0.54-0.16 0.81-0.11 0.47-0.17 0.7-0.13 0.54-0.21 0.81-0.12 0.46-0.19 0.69-0.16 0.52-0.25 0.78-0.15 0.47-0.24 0.71-0.17 0.49-0.27 0.73-0.18 0.49-0.28 0.73-0.19 0.46-0.29 0.68-0.23 0.51-0.34 0.75-0.21 0.44-0.31 0.65-0.25 0.5-0.39 0.74-0.22 0.42-0.34 0.63-0.27 0.48-0.41 0.72l-0.39 0.63-0.43 0.68-0.45 0.65-0.44 0.61c-0.17 0.24-0.35 0.47-0.52 0.69s-0.28 0.37-0.43 0.54l-0.6 0.72c-0.11 0.13-0.21 0.26-0.33 0.38l-0.09 0.1c-0.27 0.3-0.54 0.59-0.82 0.87l-0.33 0.35c-0.37 0.37-0.74 0.73-1.13 1.07l-0.73 0.64-0.47 0.4-0.81 0.64-0.44 0.34-0.84 0.59-0.47 0.32-0.84 0.54-0.53 0.32-0.81 0.47-0.63 0.33q-0.36 0.21-0.75 0.39l-0.77 0.36-0.64 0.29-1 0.4-0.47 0.19-1.26 0.44-0.22 0.07a31.59 31.59 0 0 1-9 1.48H343.71a31.69 31.69 0 0 1 0-63.38h254.05l-39.68-35.34a31.69 31.69 0 0 1 42.15-47.33l101.84 90.69 0.11 0.1 0.66 0.62 0.51 0.48 0.46 0.48 0.64 0.68a31.49 31.49 0 0 1 4.34 6.09l0.06 0.1c0.17 0.33 0.34 0.66 0.5 1 0.07 0.14 0.15 0.28 0.21 0.42s0.22 0.48 0.33 0.73 0.22 0.47 0.32 0.71l0.18 0.45c0.13 0.34 0.27 0.68 0.39 1a0.56 0.56 0 0 1 0 0.12 30.8 30.8 0 0 1 1.66 7.26v0.05c0 0.31 0 0.61 0.07 0.92l0.06 0.68v1.75c0 0.05 0.11 0.37 0.1 0.54z" p-id="13010"></path></svg>