<?xml version="1.0" standalone="no"?><!DOCTYPE svg PUBLIC "-//W3C//DTD SVG 1.1//EN" "http://www.w3.org/Graphics/SVG/1.1/DTD/svg11.dtd"><svg class="icon" width="200px" height="200.00px" viewBox="0 0 1024 1024" version="1.1" xmlns="http://www.w3.org/2000/svg"><path fill="#333333" d="M660.91 149.52a39 39 0 0 0-28.29 0A35 35 0 0 0 613.17 169a39 39 0 0 0 0 28.29 35 35 0 0 0 19.45 19.45c127.32 54.82 210.43 178.6 210.43 316.53 0 189.21-153.85 344.82-344.82 344.82S153.41 724.22 153.41 535c0-137.93 83.11-263.48 210.43-316.53A35.05 35.05 0 0 0 383.29 199a39.11 39.11 0 0 0 0-28.29 35.07 35.07 0 0 0-19.45-19.46 39.14 39.14 0 0 0-28.3 0C179.93 214.94 80.91 365.25 80.91 535c0 229.88 187.44 417.32 417.32 417.32S915.55 764.89 915.55 535c0-169.76-99-320.07-254.64-385.49z m-150.3 419.09c21.22 0 37.13-15.92 37.13-37.14V105.31c0-21.22-15.91-37.14-37.13-37.14s-37.14 15.92-37.14 37.14v426.16c0 21.22 15.91 37.14 37.14 37.14z m0 0" /></svg>