<?xml version="1.0" standalone="no"?><!DOCTYPE svg PUBLIC "-//W3C//DTD SVG 1.1//EN" "http://www.w3.org/Graphics/SVG/1.1/DTD/svg11.dtd"><svg class="icon" width="200px" height="200.00px" viewBox="0 0 1024 1024" version="1.1" xmlns="http://www.w3.org/2000/svg"><path fill="#333333" d="M890.59 872.62h-757c-37.67 0-70-30.5-70-70V214.3c0-37.67 30.49-70 70-70h285.23c30.5 0 57.4 19.73 66.37 50.22l19.73 66.38h385.67c37.67 0 70 30.49 70 69.95v473.6c0 37.67-30.49 68.17-70 68.17z m-757-661.91a3.85 3.85 0 0 0-3.59 3.59v588.36a3.86 3.86 0 0 0 3.59 3.59h757a3.87 3.87 0 0 0 3.59-3.59V330.89a3.86 3.86 0 0 0-3.59-3.58H479.81c-14.35 0-26.91-9-32.29-23.33l-26.9-89.68c0-1.8-1.8-1.8-3.59-1.8H133.61z m0 0" /></svg>