<?xml version="1.0" standalone="no"?><!DOCTYPE svg PUBLIC "-//W3C//DTD SVG 1.1//EN" "http://www.w3.org/Graphics/SVG/1.1/DTD/svg11.dtd"><svg class="icon" width="200px" height="200.00px" viewBox="0 0 1024 1024" version="1.1" xmlns="http://www.w3.org/2000/svg"><path fill="#333333" d="M685.34 196.42c47.87 0 92.44 18.16 127.11 52.82 69.32 69.33 69.32 184.88 0 254.21L513.67 802.23 214.89 503.45c-69.33-69.33-69.33-184.88 0-254.21 34.67-34.66 79.24-52.82 127.1-52.82s92.45 18.16 127.11 52.82a63.76 63.76 0 0 0 44.57 18.16c16.5 0 31.36-6.6 44.57-18.16 33-34.66 77.58-52.82 127.1-52.82m0-62.72a242.48 242.48 0 0 0-171.67 71c-47.87-47.88-108.95-71-171.68-71a242.48 242.48 0 0 0-171.67 71c-94.09 94.09-94.09 247.6 0 341.69l343.35 343.33L855.36 548c94.09-94.09 94.09-247.61 0-341.69-46.22-47.88-108.94-72.63-170-72.63z m0 0" /></svg>