<?xml version="1.0" standalone="no"?><!DOCTYPE svg PUBLIC "-//W3C//DTD SVG 1.1//EN" "http://www.w3.org/Graphics/SVG/1.1/DTD/svg11.dtd"><svg class="icon" width="200px" height="200.00px" viewBox="0 0 1024 1024" version="1.1" xmlns="http://www.w3.org/2000/svg"><path fill="#333333" d="M899.06 385.45V344c0-32.88-26.8-59.86-59.67-59.86H508.83l-17.15-56.82a59.24 59.24 0 0 0-57.36-42.71H190.79a59.86 59.86 0 0 0-59.86 59.86v141z m51.46 30.2a28.27 28.27 0 0 0-21.8-10H92.33a29.14 29.14 0 0 0-21.79 10 28.39 28.39 0 0 0-6.26 23l63.43 374.69a28.41 28.41 0 0 0 28.06 23.76H865.3a28.4 28.4 0 0 0 28.05-23.76L957 438.69a27.7 27.7 0 0 0-6.43-23z m0 0" /></svg>