<?xml version="1.0" standalone="no"?><!DOCTYPE svg PUBLIC "-//W3C//DTD SVG 1.1//EN" "http://www.w3.org/Graphics/SVG/1.1/DTD/svg11.dtd"><svg class="icon" width="200px" height="200.00px" viewBox="0 0 1024 1024" version="1.1" xmlns="http://www.w3.org/2000/svg"><path fill="#333333" d="M952.49 418.66a28.36 28.36 0 0 0-21.85-10h-29.9V347a60.07 60.07 0 0 0-59.81-60H509.85l-17.19-56.94a59.37 59.37 0 0 0-57.48-42.8H191.12a60 60 0 0 0-60 60v161.37H92.46a29.23 29.23 0 0 0-21.85 10 28.46 28.46 0 0 0-6.26 23.1l63.56 375.49A28.47 28.47 0 0 0 156 841.06h711.08a28.47 28.47 0 0 0 28.11-23.81l63.74-375.49a27.79 27.79 0 0 0-6.44-23.1zM188.26 247.12a2.83 2.83 0 0 1 2.86-2.87h244.24a3 3 0 0 1 2.87 2.15l23.45 77.36A28.44 28.44 0 0 0 488.9 344h352.21a2.82 2.82 0 0 1 2.86 2.87v61.59H188.26z m654.82 536.82H180l-48.88-289-5-29.55H897z m0 0" /></svg>