<?xml version="1.0" standalone="no"?><!DOCTYPE svg PUBLIC "-//W3C//DTD SVG 1.1//EN" "http://www.w3.org/Graphics/SVG/1.1/DTD/svg11.dtd"><svg class="icon" width="200px" height="200.00px" viewBox="0 0 1024 1024" version="1.1" xmlns="http://www.w3.org/2000/svg"><path fill="#333333" d="M865.14 850.16H161.68a65 65 0 0 1-64.91-64.89v-547a65 65 0 0 1 64.91-64.9h264.23a64.38 64.38 0 0 1 62.19 46.36l18.55 61.62H865a65 65 0 0 1 64.9 64.9v439a64.87 64.87 0 0 1-64.71 64.89z m-703.27-615a3 3 0 0 0-3.09 3.09v547a3 3 0 0 0 3.09 3.08h703.27a3.17 3.17 0 0 0 3.09-3.08v-439a3 3 0 0 0-3.09-3.09H483.86a30.84 30.84 0 0 1-29.56-22L429 237.29a3.12 3.12 0 0 0-3.09-2.32h-264z m0 0" /></svg>