<?xml version="1.0" standalone="no"?><!DOCTYPE svg PUBLIC "-//W3C//DTD SVG 1.1//EN" "http://www.w3.org/Graphics/SVG/1.1/DTD/svg11.dtd"><svg class="icon" width="32px" height="32.00px" viewBox="0 0 1024 1024" version="1.1" xmlns="http://www.w3.org/2000/svg"><path fill="#333333" d="M277.57 356.15m-30.25 0a30.25 30.25 0 1 0 60.5 0 30.25 30.25 0 1 0-60.5 0Z"  /><path fill="#333333" d="M716.62 561.15c-5.35-30-25.76-102.85-99.38-130.88-69.56-26.49-155.31 0.67-195.22 61.83-9.27 14.2-16.15 43.81-11.11 66.88 1.49 6.84 4.71 15.9 11.56 20.22 16.35 10.31 33.1 13.27 50.83 16.41 16.59 2.93 33.74 6 49.66 15.28 19.35 11.34 32.26 29.19 39.47 54.57 5.65 19.9 7.52 41.86 9.34 63.11 4.31 50.45 8.64 68.72 24.37 70.73 10.44 1.34 31.52-6.49 56.55-33 42.45-44.92 78.75-125.35 64.18-203.82z"  /><path fill="#333333" d="M513.33 63.8c-247.43 0-448 200.58-448 448s200.57 448 448 448 448-200.57 448-448-200.58-448-448-448zM677.5 214.11a53.22 53.22 0 1 1-53.22 53.21 53.21 53.21 0 0 1 53.22-53.21z m-195.89-17a53.22 53.22 0 1 1-53.21 53.21 53.21 53.21 0 0 1 53.21-53.16z m-204 251.24a92.25 92.25 0 1 1 92.25-92.25 92.36 92.36 0 0 1-92.29 92.3zM765 695.89c-14.76 42.59-38.66 82.73-67.29 113-32.32 34.2-67.13 52.54-99.15 52.54a80.48 80.48 0 0 1-10.33-0.65c-21.6-2.76-50.48-14.31-65.45-53.66-8.42-22.2-10.64-48.12-12.78-73.27-1.63-19.18-3.18-37.28-7.21-51.45-5.39-19-11.06-20.57-40.27-25.74-20.71-3.66-46.48-8.21-73.12-25a82 82 0 0 1-24.79-24.5 103.61 103.61 0 0 1-14.27-34.94c-8.06-36.92 0.07-83.79 19.77-114 26.79-41.06 68.67-72.55 117.9-88.64 50-16.34 103.74-15.37 151.3 2.75C687 390.5 725.55 425 750.72 472a263.42 263.42 0 0 1 26.94 78.29l0.16 0.93c8.54 45.91 4.12 95.94-12.82 144.67z"  /></svg>