<?xml version="1.0" standalone="no"?><!DOCTYPE svg PUBLIC "-//W3C//DTD SVG 1.1//EN" "http://www.w3.org/Graphics/SVG/1.1/DTD/svg11.dtd"><svg t="1642813323799" class="icon" viewBox="0 0 1024 1024" version="1.1" xmlns="http://www.w3.org/2000/svg" p-id="12864" xmlns:xlink="http://www.w3.org/1999/xlink" width="16" height="16"><defs><style type="text/css"></style></defs><path d="M811.33 395H725v-78.12c0-119.55-98-219.19-219.2-219.19s-219.21 99.64-219.21 219.19v78.05h-73.06a91.06 91.06 0 0 0-91.33 90.8V835c-1.67 51.48 39.9 93 91.33 93h597.8a91.07 91.07 0 0 0 91.33-90.8V487.94c1.66-51.48-39.85-92.94-91.33-92.94z m-264 347c0 19.93-14.94 34.87-34.88 34.87s-34.87-16.6-34.87-34.87V595.86c0-19.93 16.61-34.87 34.87-34.87s34.88 14.92 34.88 34.87z m109.56-347.07H354.67v-78.05c0-83 68.08-151.1 151.11-151.1s151.11 68.07 151.11 151.1z" p-id="12865"></path></svg>