<?xml version="1.0" standalone="no"?><!DOCTYPE svg PUBLIC "-//W3C//DTD SVG 1.1//EN" "http://www.w3.org/Graphics/SVG/1.1/DTD/svg11.dtd"><svg class="icon" width="200px" height="200.00px" viewBox="0 0 1024 1024" version="1.1" xmlns="http://www.w3.org/2000/svg"><path fill="#333333" d="M513 63.8c-247.42 0-448 200.57-448 448s200.58 448 448 448 448-200.58 448-448-200.58-448-448-448z m-93.13 727.12H290.48A54.54 54.54 0 0 1 236 736.44V608.09a31 31 0 0 1 62 0v77l94.43-94.42a31 31 0 1 1 43.84 43.84l-94.43 94.42h78a31 31 0 0 1 0 62z m0-494h-78l94.24 94.24A31 31 0 1 1 392.24 435L298 340.76v78.47a31 31 0 0 1-62 0V289.41a54.54 54.54 0 0 1 54.48-54.49h129.39a31 31 0 0 1 0 62zM792 736.44a54.54 54.54 0 0 1-54.48 54.48h-128.8a31 31 0 0 1 0-62h77.44L587.24 630a31 31 0 0 1 43.84-43.84L730 685.08v-77a31 31 0 0 1 62 0z m0-317.21a31 31 0 0 1-62 0v-78.47l-94.48 94.49a31 31 0 0 1-43.85-43.84l94.49-94.49h-77.44a31 31 0 1 1 0-62h128.8A54.54 54.54 0 0 1 792 289.41z" /></svg>