<?xml version="1.0" standalone="no"?><!DOCTYPE svg PUBLIC "-//W3C//DTD SVG 1.1//EN" "http://www.w3.org/Graphics/SVG/1.1/DTD/svg11.dtd"><svg class="icon" width="200px" height="200.00px" viewBox="0 0 1024 1024" version="1.1" xmlns="http://www.w3.org/2000/svg"><path fill="#333333" d="M907.27 431.89c-19.93-18.27-44.84-18.27-53.14-18.27h-181c29.87-122.89 26.55-212.57-11.65-267.37-23.25-34.88-56.46-46.5-73.07-46.5-24.91 0-68.08 8.3-68.08 66.43v1.66c0 3.32-1.67 5-1.67 8.3C517 307.34 380.83 410.3 374.18 415.28s-11.62 13.29-11.62 24.91v408.53c0 53.15 64.77 76.4 98 76.4h313.85c41.52 0 68.09-69.75 74.73-93 78.06-262.39 78.06-345.43 78.06-348.75 0-21.59-6.65-39.86-19.93-51.48zM786 813.85c-6.64 21.59-16.61 38.2-21.59 46.5H462.2c-10 0-29.89-6.64-33.21-13.28V455.14c39.85-33.22 152.78-137.84 156.1-275.68a57.18 57.18 0 0 0 1.66-14.94v-1.67h1.66A57.37 57.37 0 0 1 610 181.12c16.61 23.25 38.2 88-5 240.8l-3.32 14.95c-1.66 10 0 19.93 6.64 26.57 6.64 8.3 14.95 11.63 24.91 11.63h230.86v5c-1.66 3.32-3.32 84.7-78.05 333.8zM269.56 412H143.35c-3.33 0-8.31 0-13.29 3.32-21.59 5-33.21 26.57-33.21 44.84v1.66L123.42 877c0 26.57 19.93 46.5 48.16 46.5h107.94c24.91 0 38.2-16.61 43.18-31.56 0-3.32 1.66-5 1.66-8.3V465.1c0-6.64 0-23.25-13.28-38.19a69.07 69.07 0 0 0-41.52-15z m-11.62 448.35h-71.42l-23.25-383.62h94.67z m0 0" /></svg>