<?xml version="1.0" standalone="no"?><!DOCTYPE svg PUBLIC "-//W3C//DTD SVG 1.1//EN" "http://www.w3.org/Graphics/SVG/1.1/DTD/svg11.dtd"><svg class="icon" width="200px" height="200.00px" viewBox="0 0 1024 1024" version="1.1" xmlns="http://www.w3.org/2000/svg"><path fill="#333333" d="M511.59 68.56c-244.54 0-443.65 198.9-443.65 443.18 0 244.46 199.11 443.18 443.65 443.18 244.72 0 443.65-198.72 443.65-443.18 0-244.28-198.93-443.18-443.65-443.18z m0 709.09c-30 0-54.48-24.82-54.48-55.49s24.31-55.31 54.48-55.31c30 0 54.48 24.82 54.48 55.31-0.18 30.67-24.49 55.49-54.48 55.49zM663.5 429.49a153.38 153.38 0 0 1-26.8 37.05C626.41 477 607.77 494.37 581.15 519a203.9 203.9 0 0 0-17.74 18.26 78 78 0 0 0-9.94 14.36 79.71 79.71 0 0 0-5.15 13.12q-1.86 6.64-5.32 22.86c-4.08 23.23-17 34.92-38.86 34.92-11.36 0-20.77-3.72-28.58-11.34S464 592.22 464 577.33c0-18.79 2.84-35.1 8.52-48.75a121 121 0 0 1 22.53-36.16c9.41-10.46 22-22.69 37.81-37.05 13.83-12.41 24-22 30.16-28.36a97 97 0 0 0 15.62-21.28 52.39 52.39 0 0 0 6.39-25.52c0-17.91-6.57-33-19.35-45.21-13-12.23-29.63-18.44-50-18.44-24 0-41.52 6.21-52.88 18.62S441.85 365.84 434 390c-7.46 25.17-21.48 37.93-42.06 37.93a40.72 40.72 0 0 1-30.84-13.33c-8.34-8.87-12.6-18.44-12.6-28.72 0-21.27 6.57-42.72 19.88-64.53s32.65-39.88 58-54.07c25.38-14.35 55.19-21.45 89.08-21.45 31.59 0 59.45 6 83.59 17.91s42.77 28.18 55.9 48.75a122 122 0 0 1 19.69 67q0 28.44-11.17 50z m0 0" /></svg>