<?xml version="1.0" standalone="no"?><!DOCTYPE svg PUBLIC "-//W3C//DTD SVG 1.1//EN" "http://www.w3.org/Graphics/SVG/1.1/DTD/svg11.dtd"><svg class="icon" width="200px" height="200.00px" viewBox="0 0 1024 1024" version="1.1" xmlns="http://www.w3.org/2000/svg"><path fill="#333333" d="M273.71 620.67a464.47 464.47 0 0 1-122-106.12 465.91 465.91 0 0 1 215.5-149.14 208.07 208.07 0 0 0-52.49 214.25l48.47-48.48a153.31 153.31 0 0 1-0.93-16.69 149.85 149.85 0 0 1 6.41-43.43 121.76 121.76 0 0 0 18.94 35.7l41.69-41.68a63.9 63.9 0 0 1 31.74-91.84q2.79-1 5.62-1.92a63.68 63.68 0 0 1 50.14 6.25l89.41-89.4a529.67 529.67 0 0 0-220.24 7A523.39 523.39 0 0 0 270.4 338.9 529.87 529.87 0 0 0 87.61 496.3l-13.29 18.25 13.29 18.25a530.71 530.71 0 0 0 140.92 133.05zM937.69 496.3A529.87 529.87 0 0 0 754.9 338.9q-8.26-4.31-16.68-8.28l75.36-75.36a31 31 0 1 0-43.84-43.84L211.05 770.1a31 31 0 1 0 43.84 43.84l91.54-91.53Q366 728.94 386 733.89a529.32 529.32 0 0 0 253.34 0 522.86 522.86 0 0 0 115.56-43.68A530 530 0 0 0 937.69 532.8L951 514.55z m-425 168.57a149.52 149.52 0 0 1-83.38-25.31l89.85-89.84a122.5 122.5 0 0 0 82.33-82.34l36.27-36.26A149.48 149.48 0 0 1 663 514.49c0 82.92-67.43 150.38-150.35 150.38z m145.25-1.12a208 208 0 0 0 21.38-274.2l11.78-11.77a465.39 465.39 0 0 1 182.48 136.77 465.75 465.75 0 0 1-215.68 149.2z" /></svg>