<?xml version="1.0" standalone="no"?><!DOCTYPE svg PUBLIC "-//W3C//DTD SVG 1.1//EN" "http://www.w3.org/Graphics/SVG/1.1/DTD/svg11.dtd"><svg class="icon" width="200px" height="200.00px" viewBox="0 0 1024 1024" version="1.1" xmlns="http://www.w3.org/2000/svg"><path fill="#333333" d="M511.86 70.82C266.78 70.82 68.2 269.19 68.2 514s198.58 443.17 443.66 443.17S955.51 758.81 955.51 514 756.93 70.82 511.86 70.82z m0 816.33c-206 0-373.56-167.34-373.56-373.15s167.53-373.15 373.56-373.15S885.41 308.19 885.41 514 717.89 887.15 511.86 887.15z m0 0"  /><path fill="#333333" d="M687 514H511.86V339a35 35 0 0 0-69.92 0v209.92a34.89 34.89 0 0 0 35 34.92H687a34.92 34.92 0 1 0 0-69.84z m0 0"  /></svg>