<?xml version="1.0" standalone="no"?><!DOCTYPE svg PUBLIC "-//W3C//DTD SVG 1.1//EN" "http://www.w3.org/Graphics/SVG/1.1/DTD/svg11.dtd"><svg class="icon" width="32px" height="32.00px" viewBox="0 0 1024 1024" version="1.1" xmlns="http://www.w3.org/2000/svg"><path fill="#333333" d="M513.64 64.71c-247.42 0-448 200.58-448 448s200.58 448 448 448 448-200.58 448-448-200.58-448-448-448zM176.31 606.89l-0.31-1.09a21.5 21.5 0 0 1 41.59-10.92l0.24 0.92a21.5 21.5 0 1 1-41.54 11.09z m44.82 78.6A21.48 21.48 0 0 1 202 673.76l-0.58-1.15a21.5 21.5 0 1 1 38.37-19.4l0.5 1a21.51 21.51 0 0 1-19.13 31.29z m46.25 47a21.49 21.49 0 0 1-30.18-3.66l-0.78-1a21.5 21.5 0 1 1 33.91-26.44l0.71 0.9a21.51 21.51 0 0 1-3.66 30.21z m45.19 41.55a21.49 21.49 0 0 1-30.33 2.14l-1-0.86A21.5 21.5 0 1 1 309.61 743l0.82 0.71a21.5 21.5 0 0 1 2.14 30.34zM368.38 808a21.49 21.49 0 0 1-29.26 8.27l-1.14-0.64a21.5 21.5 0 1 1 21.17-37.42l1 0.53a21.51 21.51 0 0 1 8.23 29.26z m57.72 20.86a21.47 21.47 0 0 1-27.1 13.68l-1.2-0.4a21.5 21.5 0 0 1 13.53-40.82l1.08 0.36a21.51 21.51 0 0 1 13.69 27.14z m62.41 9.52a21.5 21.5 0 0 1-21.32 18.94 22.79 22.79 0 0 1-2.59-0.16l-1.08-0.13a21.5 21.5 0 1 1 5.25-42.68l1 0.12a21.49 21.49 0 0 1 18.74 23.87z m1.8-301.82c-0.37-0.37-0.72-0.75-1.07-1.13-0.15-0.16-0.28-0.33-0.43-0.49s-0.38-0.43-0.56-0.66-0.36-0.45-0.54-0.68l-0.39-0.5c-0.19-0.26-0.37-0.52-0.55-0.79l-0.31-0.44c-0.19-0.28-0.36-0.55-0.54-0.83s-0.18-0.3-0.28-0.45-0.32-0.55-0.47-0.83-0.19-0.33-0.28-0.49-0.27-0.54-0.41-0.8l-0.28-0.57c-0.12-0.25-0.22-0.5-0.33-0.74l-0.3-0.67c-0.09-0.22-0.17-0.44-0.26-0.67s-0.2-0.51-0.29-0.77l-0.2-0.59c-0.09-0.29-0.19-0.58-0.28-0.87l-0.15-0.52c-0.09-0.31-0.17-0.63-0.25-0.95l-0.12-0.49c-0.07-0.33-0.15-0.65-0.21-1l-0.09-0.5c-0.06-0.32-0.12-0.65-0.17-1s-0.05-0.39-0.07-0.58-0.08-0.61-0.11-0.91 0-0.52-0.06-0.78 0-0.49-0.05-0.73V335.6a31 31 0 1 1 62 0v166.14l88.63 88.63A31 31 0 1 1 588 634.21z m271.32 219.22a349.08 349.08 0 0 1-209.58 100.56 32.55 32.55 0 0 1-3.4 0.18 31 31 0 0 1-3.32-61.82A288.31 288.31 0 1 0 232 446.34a31 31 0 0 1 29.49 52L216.8 543a31 31 0 0 1-43.8 0l-44.71-44.7a31 31 0 0 1 39.83-47.22 350.48 350.48 0 1 1 593.51 304.7z" /></svg>