<?xml version="1.0" standalone="no"?><!DOCTYPE svg PUBLIC "-//W3C//DTD SVG 1.1//EN" "http://www.w3.org/Graphics/SVG/1.1/DTD/svg11.dtd"><svg class="icon" width="200px" height="200.00px" viewBox="0 0 1024 1024" version="1.1" xmlns="http://www.w3.org/2000/svg"><path fill="#333333" d="M485.74 887.1l-0.92-0.11a21.5 21.5 0 1 0-5.3 42.67l1.06 0.13a21 21 0 0 0 2.61 0.16 21.5 21.5 0 0 0 2.55-42.85zM415.14 871.44l-1.35-0.45a21.5 21.5 0 0 0-13.58 40.8l1.52 0.5a21.5 21.5 0 0 0 13.41-40.85zM348.61 842l-1.27-0.72A21.5 21.5 0 0 0 326 878.6l1.35 0.77A21.5 21.5 0 1 0 348.61 842zM200.53 685.33l-0.64-1.29A21.5 21.5 0 0 0 161.28 703l0.7 1.42a21.5 21.5 0 0 0 38.55-19.06zM289.22 799.92l-1.11-1a21.5 21.5 0 1 0-28.3 32.37l1.18 1a21.5 21.5 0 0 0 28.23-32.44zM238.26 745.83a21.5 21.5 0 0 0-34.06 26.25l1 1.25a21.5 21.5 0 0 0 34-26.34zM174.91 617.23l-0.25-0.92a21.5 21.5 0 1 0-41.58 10.94l0.26 1a21.5 21.5 0 1 0 41.57-11zM929.3 351.36a420.06 420.06 0 0 0-805.63 102.27l-4.67-4.69a31 31 0 0 0-43.84 43.85l54.45 54.43 0.59 0.56 0.57 0.54c0.2 0.19 0.41 0.36 0.62 0.54l0.57 0.49 0.7 0.54 0.54 0.42c0.26 0.19 0.53 0.37 0.8 0.55s0.31 0.23 0.47 0.33l0.78 0.49 0.53 0.33c0.28 0.17 0.58 0.33 0.87 0.48l0.46 0.26 0.94 0.46 0.43 0.22 1 0.43 0.38 0.17 1.29 0.49h0.12c0.41 0.15 0.83 0.28 1.24 0.4l0.19 0.06 1 0.28 0.41 0.11 1 0.22 0.47 0.1 1 0.17 0.5 0.08 1.22 0.15h0.26l0.78 0.05q1.1 0.09 2.19 0.09t2.19-0.09l0.78-0.05h0.26L156 556l0.31-0.05c0.88-0.14 1.75-0.31 2.62-0.52 0.15 0 0.3-0.08 0.44-0.12 0.34-0.08 0.67-0.17 1-0.27l0.32-0.1c0.37-0.12 0.74-0.23 1.11-0.36l0.26-0.1 1.15-0.43 0.38-0.17 1-0.43 0.43-0.22 0.94-0.46 0.38-0.21 0.95-0.53 0.39-0.24c0.31-0.19 0.62-0.38 0.92-0.58l0.42-0.3c0.29-0.19 0.57-0.38 0.85-0.59s0.31-0.23 0.46-0.35l0.78-0.6 0.57-0.49c0.2-0.18 0.42-0.35 0.62-0.54l0.57-0.54 0.59-0.56 54.45-54.43a31 31 0 0 0-40.34-46.86c12.65-71.41 46.74-137.08 99.33-189.65 139.59-139.56 366.73-139.56 506.33 0a357.82 357.82 0 0 1 0 506.15c-58.3 58.28-132.33 93.8-214.11 102.71a31 31 0 0 0 3.3 61.84 32.36 32.36 0 0 0 3.39-0.18A420.13 420.13 0 0 0 929.3 351.36z"  /><path fill="#333333" d="M635.12 658.25A31 31 0 0 0 679 614.4L569 504.51V299.4a31 31 0 0 0-62 0v219.54l0.06 0.77c0 0.25 0 0.49 0.05 0.73s0.08 0.63 0.12 1 0 0.37 0.07 0.55c0.05 0.33 0.11 0.67 0.17 1 0 0.16 0 0.32 0.08 0.48 0.07 0.34 0.14 0.67 0.22 1 0 0.16 0.07 0.32 0.11 0.48 0.08 0.32 0.17 0.64 0.26 1s0.09 0.34 0.15 0.51 0.18 0.59 0.28 0.88 0.13 0.39 0.2 0.58 0.19 0.52 0.29 0.78 0.17 0.44 0.26 0.66 0.19 0.44 0.29 0.67 0.22 0.49 0.34 0.74 0.18 0.38 0.28 0.56 0.26 0.54 0.41 0.81l0.27 0.48c0.16 0.28 0.31 0.57 0.48 0.84l0.27 0.44 0.54 0.84 0.3 0.42c0.19 0.28 0.37 0.55 0.57 0.81l0.37 0.47 0.56 0.72 0.52 0.6c0.16 0.18 0.31 0.37 0.47 0.54 0.34 0.38 0.69 0.75 1.06 1.12z"  /></svg>