<?xml version="1.0" standalone="no"?><!DOCTYPE svg PUBLIC "-//W3C//DTD SVG 1.1//EN" "http://www.w3.org/Graphics/SVG/1.1/DTD/svg11.dtd"><svg class="icon" width="200px" height="200.00px" viewBox="0 0 1024 1024" version="1.1" xmlns="http://www.w3.org/2000/svg"><path fill="#333333" d="M170.18 743.27666666h684.5a63.58 63.58 0 0 0 63.5-63.5V237.03666666a63.58 63.58 0 0 0-63.5-63.5h-684.5a63.58 63.58 0 0 0-63.5 63.5v442.74a63.58 63.58 0 0 0 63.5 63.5z m-0.5-506.24a0.5 0.5 0 0 1 0.5-0.5h684.5a0.51 0.51 0 0 1 0.5 0.5v442.74a0.51 0.51 0 0 1-0.5 0.5h-684.5a0.5 0.5 0 0 1-0.5-0.5zM604.89 782.77666666a32.28 32.28 0 0 1-32.19 32.19H452.63a32.28 32.28 0 0 1-32.19-32.19H70.74v10.7a71.67 71.67 0 0 0 71.67 71.67h738.91A71.68 71.68 0 0 0 953 793.47666666v-10.7z"  /><path fill="#333333" d="M211.67 277.82666666h597.2v130.65h-597.2zM211.67 448.56666666h217.69v191.58H211.67zM474.63 448.56666666h334.24v191.58H474.63z"  /></svg>