<?xml version="1.0" standalone="no"?><!DOCTYPE svg PUBLIC "-//W3C//DTD SVG 1.1//EN" "http://www.w3.org/Graphics/SVG/1.1/DTD/svg11.dtd"><svg class="icon" width="200px" height="200.00px" viewBox="0 0 1024 1024" version="1.1" xmlns="http://www.w3.org/2000/svg"><path fill="#333333" d="M519.39 147.48c3.52 0 10.54 1.75 17.58 7l7 7 311.2 237.39a86.12 86.12 0 0 1 5.28 12.31c0 3.52 0 7 1.76 8.79v430.72c0 14.06-12.31 24.61-24.62 24.61H187.12c-14.07 0-24.61-12.3-24.61-24.61V427c0-8.79 5.27-15.82 8.79-19.34L493 159.78c1.76-1.76 5.27-3.51 7-7 7-5.27 14.07-5.27 19.34-5.27m0-75.6c-26.37 0-51 10.55-70.32 29.88l-323.43 246.1c-22.86 17.58-38.68 45.71-38.68 77.36v425.44c0 54.5 45.71 100.21 100.21 100.21h650.47c54.5 0 100.21-45.71 100.21-100.21V427c0-7-1.76-15.82-3.52-22.85-1.75-22.86-10.54-43.95-28.12-61.54L589.71 100C570.37 82.43 544 71.88 519.39 71.88z m0 0" /></svg>