<?xml version="1.0" standalone="no"?><!DOCTYPE svg PUBLIC "-//W3C//DTD SVG 1.1//EN" "http://www.w3.org/Graphics/SVG/1.1/DTD/svg11.dtd"><svg class="icon" width="200px" height="200.00px" viewBox="0 0 1024 1024" version="1.1" xmlns="http://www.w3.org/2000/svg"><path fill="#333333" d="M867 144H136.07a71.25 71.25 0 0 0-71.3 71.23v569.86a71.25 71.25 0 0 0 71.3 71.24h748.7a71.25 71.25 0 0 0 71.3-71.24V233A89.12 89.12 0 0 0 867 144zM291.69 605.58h-41.88V514.4h-79.87v91.18H127.7V394.73h42.24v83h79.87v-83h41.88z m195.92-175.77h-59.9v176h-42.25v-176H326.1v-35.08h161.51z m226.56 175.77h-39v-88.15c0-19.95 3.21-49.33 5.16-69.28h-1.06l-17.12 49.69-32.44 88.68h-24.27l-32.8-88.68-16.76-49.69h-1.07c2 20 5.35 49.33 5.35 69.28v88.15h-38V394.73h46.88l36 98.65c4.63 13.18 8.56 27.08 12.83 40.79h1.43c4.63-13.71 8.2-27.61 12.84-40.79l35.11-98.65h46.88z m179 0H765.34V394.73h42.25v175.59h85.56z" /></svg>