<?xml version="1.0" standalone="no"?><!DOCTYPE svg PUBLIC "-//W3C//DTD SVG 1.1//EN" "http://www.w3.org/Graphics/SVG/1.1/DTD/svg11.dtd"><svg class="icon" width="200px" height="200.00px" viewBox="0 0 1024 1024" version="1.1" xmlns="http://www.w3.org/2000/svg"><path fill="#333333" d="M327.23 463.57a78.69 78.69 0 1 0-78.69-78.69 78.76 78.76 0 0 0 78.69 78.69z m0-102.86a24.17 24.17 0 1 1-24.17 24.17 24.2 24.2 0 0 1 24.17-24.17zM828.8 130.83H196.85a98.78 98.78 0 0 0-98.62 98.62V791.9a98.8 98.8 0 0 0 98.62 98.62H828.8a98.8 98.8 0 0 0 98.62-98.62V229.45a98.78 98.78 0 0 0-98.62-98.62z m-631.95 65.81H828.8a32.86 32.86 0 0 1 32.82 32.81v404.19c-36.52-55.57-80.1-119.09-105.68-145.9-26.29-27.52-53.46-33.35-71.63-33.35-40 0-69 27.17-74.1 32.29-1.41 1.23-125.08 116.79-157.72 147.66-13.06-14.46-39.49-43.57-65.28-69.34-21.7-21.7-49.93-28.93-79.57-20.29a101.75 101.75 0 0 0-34.93 18.35L164 656.75v-427.3a32.76 32.76 0 0 1 32.82-32.81zM828.8 824.71H196.85A32.87 32.87 0 0 1 164 791.9V752l154-134.43a32.76 32.76 0 0 1 10.41-5.12c4.06-1.06 5.82-0.53 8.82 2.65 29.29 29.1 60.69 64.39 69.69 74.45 4.94 6 18.7 19.75 40.75 21.35 11.82 0.7 29.65-1.77 47.11-18.88 7.41-7.24 119.09-111.68 164.61-154l1.23-1.24c3-3 13.76-11.46 24.17-11.46 6.35 0 12.88 3.7 20.11 11.29 31.94 33.69 118.91 158.6 157 217v38.29a33.29 33.29 0 0 1-33.17 32.81z m0 0" /></svg>