<?xml version="1.0" standalone="no"?><!DOCTYPE svg PUBLIC "-//W3C//DTD SVG 1.1//EN" "http://www.w3.org/Graphics/SVG/1.1/DTD/svg11.dtd"><svg t="1642813411826" class="icon" viewBox="0 0 1024 1024" version="1.1" xmlns="http://www.w3.org/2000/svg" p-id="13299" xmlns:xlink="http://www.w3.org/1999/xlink" width="16" height="16"><defs><style type="text/css"></style></defs><path d="M182.43 822.26h662.15V574A41.38 41.38 0 0 1 886 532.57 41.39 41.39 0 0 1 927.35 574v289.64A41.39 41.39 0 0 1 886 905H141.05a41.39 41.39 0 0 1-41.38-41.39V574a41.38 41.38 0 0 1 41.38-41.38A41.38 41.38 0 0 1 182.43 574z" p-id="13300"></path><path d="M430.73 371.61V134.36a11.06 11.06 0 0 1 11.06-11.05h143.43a11.05 11.05 0 0 1 11 11.05v237.25h180.29a11.05 11.05 0 0 1 7.81 18.87l-263 263a11 11 0 0 1-15.63 0l-263-263a11.05 11.05 0 0 1 7.81-18.87z" p-id="13301"></path></svg>