<?xml version="1.0" standalone="no"?><!DOCTYPE svg PUBLIC "-//W3C//DTD SVG 1.1//EN" "http://www.w3.org/Graphics/SVG/1.1/DTD/svg11.dtd"><svg class="icon" width="200px" height="200.00px" viewBox="0 0 1024 1024" version="1.1" xmlns="http://www.w3.org/2000/svg"><path fill="#333333" d="M463.37 683.77A72.29 72.29 0 0 0 514.49 705a71.3 71.3 0 0 0 51.11-21.24l124.3-124.3a31 31 0 1 0-43.81-43.82L545.52 616.23v-357a31 31 0 1 0-62.06 0v357L382.89 515.65a31 31 0 1 0-43.82 43.82z"  /><path fill="#333333" d="M897.18 564.94a32.23 32.23 0 0 0-32.18 32.2V831.8a32.23 32.23 0 0 1-32.2 32.2H196.19A32.23 32.23 0 0 1 164 831.8V597.14a32.2 32.2 0 1 0-64.39 0V831.8a96.67 96.67 0 0 0 96.59 96.59H833a96.68 96.68 0 0 0 96.59-96.59V597.14a32.49 32.49 0 0 0-32.41-32.2z"  /></svg>