<?xml version="1.0" standalone="no"?><!DOCTYPE svg PUBLIC "-//W3C//DTD SVG 1.1//EN" "http://www.w3.org/Graphics/SVG/1.1/DTD/svg11.dtd"><svg class="icon" width="200px" height="200.00px" viewBox="0 0 1024 1024" version="1.1" xmlns="http://www.w3.org/2000/svg"><path fill="#333333" d="M585.7 426.23c-31.37 0-51.34 27.07-51.34 72.48 0 45.06 20 73.91 51.34 73.91s51.3-28.85 51.3-73.91c0-45.41-19.93-72.48-51.3-72.48z"  /><path fill="#333333" d="M869.14 143.25H138.26A71.25 71.25 0 0 0 67 214.49v569.88a71.25 71.25 0 0 0 71.3 71.23H887a71.25 71.25 0 0 0 71.3-71.23V232.3a89.11 89.11 0 0 0-89.16-89.05zM207.79 609c-30.84 0-51.34-12.46-65.6-37l29.06-21.37c8.19 15.32 19.42 21.9 31.37 21.9 18.54 0 28.16-10 28.16-39V394H273v142.83h0.18c0.03 39.71-19.94 72.17-65.39 72.17z m179.15 0c-28.16 0-56.51-11-77-30.81l24.25-29c15.15 13.9 35.11 23.33 53.65 23.33 21.92 0 33.69-9.43 33.69-24.22 0-15.67-12.83-20.48-31.73-28.49l-28.17-12.01c-21.39-8.91-42.78-26-42.78-56.81 0-34.55 30.3-61.09 73.08-61.09 24.6 0 49 9.62 66.14 27.07l-21.39 26.54c-13.38-11.05-27.46-17.45-44.75-17.45-18.54 0-30.48 8.19-30.48 22.25 0 15.15 15.15 20.49 33.15 27.61l27.63 11.75c25.67 10.51 42.43 26.72 42.43 57.35 0 34.54-28.88 63.98-77.72 63.98z m198.76 0c-56 0-94.48-41.85-94.48-110.24 0-68.74 38.51-108.63 94.48-108.63s94.48 40.25 94.48 108.63c0 68.16-38.51 110.24-94.48 110.24z m297.3-4.15h-42.74L779.11 492l-21.39-45.41h-1.42c2 22.79 5.16 49.32 5.16 73.54v84.6h-39.92V394h43.13L826 506.37 847 552h1.43c-2.32-21.9-5.35-49.86-5.35-73.9V394H883z"  /></svg>