<?xml version="1.0" standalone="no"?><!DOCTYPE svg PUBLIC "-//W3C//DTD SVG 1.1//EN" "http://www.w3.org/Graphics/SVG/1.1/DTD/svg11.dtd"><svg class="icon" width="200px" height="200.00px" viewBox="0 0 1024 1024" version="1.1" xmlns="http://www.w3.org/2000/svg"><path fill="#333333" d="M791.67 125.69H231.2A133.76 133.76 0 0 0 96.88 260v398A133.76 133.76 0 0 0 231.2 792.28h28.19v48.09c0 24.87 11.6 46.43 31.5 56.38 8.3 5 18.24 6.63 28.2 6.63a75.48 75.48 0 0 0 36.47-10l175.77-102.8h262a133.76 133.76 0 0 0 134.32-134.27v-398a135.94 135.94 0 0 0-136-132.65zM861.31 658c0 38.14-31.5 69.64-69.64 69.64H516.41c-3.32 0-5 0-8.29 1.66L324.06 837.06V744.2a16.62 16.62 0 0 0-16.58-16.59H231.2c-38.14 0-69.65-31.5-69.65-69.64V260c0-38.14 31.51-69.64 69.65-69.64h560.47c38.14 0 69.64 31.5 69.64 69.64z m-592-190.69a48.09 48.09 0 1 0 24-41.65 48.07 48.07 0 0 0-24 41.65z m194 0a48.09 48.09 0 1 0 24-41.65 48.09 48.09 0 0 0-24 41.65z m192.35 0a48.09 48.09 0 1 0 24-41.65 48.07 48.07 0 0 0-24 41.65z m0 0" /></svg>