<?xml version="1.0" standalone="no"?><!DOCTYPE svg PUBLIC "-//W3C//DTD SVG 1.1//EN" "http://www.w3.org/Graphics/SVG/1.1/DTD/svg11.dtd"><svg class="icon" width="200px" height="200.00px" viewBox="0 0 1024 1024" version="1.1" xmlns="http://www.w3.org/2000/svg"><path fill="#333333" d="M896.9 873.31H169.17a6 6 0 0 1-5.94-5.95v-74.49a30.86 30.86 0 0 0 4.37-3.19l161-140.45a94.22 94.22 0 0 0 139.78-20.81L638 675.21a31 31 0 0 0 36-16.08c0.31-0.62 0.59-1.26 0.86-1.91 0-0.1 0.09-0.19 0.13-0.29l0.3-0.74v-0.08l80.45-198.79h0.26a94.34 94.34 0 0 0 86.94-130.64 94.33 94.33 0 1 0-145.77 110.08l-69.33 171.33-144.63-39.89a94.33 94.33 0 1 0-186.56 26.63l-133.42 116.4v-480a31 31 0 0 0-62 0v636.13a68 68 0 0 0 67.94 67.95H896.9a31 31 0 1 0 0-62z m-155-543.89a36.33 36.33 0 1 1-19.55 47.52 36.08 36.08 0 0 1 19.54-47.52zM389.3 540.74a36.33 36.33 0 1 1-36.3 36.33 36.37 36.37 0 0 1 36.3-36.33z" /></svg>