<?xml version="1.0" standalone="no"?><!DOCTYPE svg PUBLIC "-//W3C//DTD SVG 1.1//EN" "http://www.w3.org/Graphics/SVG/1.1/DTD/svg11.dtd"><svg class="icon" width="200px" height="200.00px" viewBox="0 0 1024 1024" version="1.1" xmlns="http://www.w3.org/2000/svg"><path fill="#333333" d="M797.51 97.11h-570a62 62 0 0 0-62 62v706a62 62 0 0 0 62 62h570a62 62 0 0 0 62-62v-706a62 62 0 0 0-62-62z m0 768h-570v-706h570z"  /><path fill="#333333" d="M477.73 339h203.64a31 31 0 0 0 0-62H477.73a31 31 0 0 0 0 62zM477.73 537.55h203.64a31 31 0 1 0 0-62H477.73a31 31 0 0 0 0 62zM477.73 747.25h203.64a31 31 0 0 0 0-62H477.73a31 31 0 0 0 0 62zM312.8 311a32.956 32.956 0 0 0 0.45 3c0.1 0.49 0.22 1 0.34 1.49s0.26 1 0.41 1.46 0.3 1 0.47 1.44 0.36 0.95 0.55 1.41 0.4 0.94 0.62 1.39 0.44 0.91 0.68 1.36 0.48 0.89 0.74 1.32 0.53 0.86 0.81 1.28 0.57 0.84 0.87 1.25 0.62 0.81 0.94 1.2 0.65 0.78 1 1.16 0.7 0.75 1.06 1.11 0.73 0.71 1.1 1.05 0.77 0.67 1.16 1 0.79 0.64 1.2 0.94 0.83 0.59 1.25 0.87 0.85 0.55 1.28 0.81 0.88 0.51 1.32 0.75l1.36 0.68c0.46 0.21 0.92 0.42 1.39 0.61s0.94 0.38 1.41 0.55 1 0.33 1.44 0.47 1 0.29 1.47 0.41 1 0.24 1.48 0.34 1 0.19 1.5 0.26 1 0.14 1.51 0.19 1 0.09 1.52 0.12h3.05c0.52 0 1-0.07 1.52-0.12s1-0.11 1.52-0.19 1-0.16 1.49-0.26 1-0.21 1.48-0.34 1-0.26 1.47-0.41 1-0.3 1.44-0.47 1-0.36 1.41-0.55 0.93-0.4 1.39-0.61l1.36-0.68c0.44-0.24 0.89-0.49 1.32-0.75s0.86-0.53 1.28-0.81 0.84-0.57 1.25-0.87 0.81-0.62 1.2-0.94 0.78-0.65 1.16-1 0.75-0.69 1.11-1.05 0.71-0.73 1.05-1.11 0.67-0.77 1-1.16 0.64-0.79 0.94-1.2 0.59-0.82 0.87-1.25 0.55-0.85 0.81-1.28 0.51-0.88 0.75-1.32 0.46-0.9 0.68-1.36 0.42-0.92 0.61-1.39 0.38-0.94 0.55-1.41 0.33-1 0.48-1.44 0.28-1 0.4-1.46 0.24-1 0.34-1.49 0.19-1 0.26-1.49 0.14-1 0.19-1.51 0.09-1 0.12-1.52 0-1 0-1.53v-1.53c0-0.53-0.07-1-0.12-1.52s-0.11-1-0.19-1.51-0.16-1-0.26-1.5-0.21-1-0.34-1.48-0.26-1-0.4-1.47-0.31-1-0.48-1.44-0.36-0.95-0.55-1.41-0.4-0.93-0.61-1.39-0.45-0.91-0.68-1.35-0.49-0.89-0.75-1.33-0.53-0.86-0.81-1.28-0.57-0.84-0.87-1.25-0.62-0.81-0.94-1.2-0.65-0.78-1-1.16-0.69-0.75-1.05-1.1-0.73-0.72-1.11-1.06-0.77-0.67-1.16-1-0.79-0.63-1.2-0.94-0.83-0.59-1.25-0.87-0.85-0.55-1.28-0.81-0.88-0.51-1.32-0.74-0.9-0.47-1.36-0.68-0.92-0.43-1.39-0.62-0.94-0.38-1.41-0.55-1-0.33-1.44-0.47-1-0.29-1.47-0.41-1-0.24-1.48-0.34-1-0.19-1.49-0.26-1-0.14-1.52-0.19-1-0.09-1.52-0.12c-1-0.05-2-0.05-3.05 0-0.51 0-1 0.07-1.52 0.12s-1 0.11-1.51 0.19-1 0.16-1.5 0.26-1 0.22-1.48 0.34-1 0.26-1.47 0.41-1 0.3-1.44 0.47-0.95 0.36-1.41 0.55-0.93 0.4-1.39 0.62-0.91 0.44-1.36 0.68-0.89 0.48-1.32 0.74-0.86 0.53-1.28 0.81-0.84 0.58-1.25 0.87-0.81 0.62-1.2 0.94-0.78 0.65-1.16 1-0.75 0.7-1.1 1.06-0.72 0.73-1.06 1.1-0.67 0.77-1 1.16-0.64 0.8-0.94 1.2-0.59 0.83-0.87 1.25-0.55 0.85-0.81 1.28-0.51 0.88-0.74 1.33-0.47 0.9-0.68 1.35-0.43 0.92-0.62 1.39-0.38 0.94-0.55 1.41-0.33 1-0.47 1.44-0.29 1-0.41 1.47-0.24 1-0.34 1.48-0.19 1-0.26 1.5-0.14 1-0.19 1.51-0.09 1-0.12 1.52 0 1 0 1.53v1.53c0 0.53 0.07 1.04 0.12 1.52zM312.8 509.6a32.956 32.956 0 0 0 0.45 3c0.1 0.49 0.22 1 0.34 1.49s0.26 1 0.41 1.46 0.3 1 0.47 1.44 0.36 1 0.55 1.41 0.4 0.94 0.62 1.39 0.44 0.91 0.68 1.36 0.48 0.89 0.74 1.32 0.53 0.87 0.81 1.29 0.57 0.83 0.87 1.24 0.62 0.81 0.94 1.2 0.65 0.79 1 1.16 0.7 0.75 1.06 1.11 0.73 0.71 1.1 1 0.77 0.67 1.16 1 0.79 0.64 1.2 0.94 0.83 0.59 1.25 0.87 0.85 0.55 1.28 0.81 0.88 0.51 1.32 0.75 0.9 0.46 1.36 0.68 0.92 0.42 1.39 0.61 0.94 0.38 1.41 0.55l1.44 0.48c0.49 0.14 1 0.28 1.47 0.4s1 0.24 1.48 0.34 1 0.19 1.5 0.27 1 0.13 1.51 0.18 1 0.09 1.52 0.12 1 0 1.53 0h1.52c0.52 0 1-0.06 1.52-0.12s1-0.11 1.52-0.18 1-0.17 1.49-0.27 1-0.21 1.48-0.34 1-0.26 1.47-0.4l1.44-0.48c0.47-0.17 1-0.35 1.41-0.55s0.93-0.4 1.39-0.61 0.91-0.45 1.36-0.68 0.89-0.49 1.32-0.75 0.86-0.53 1.28-0.81 0.84-0.57 1.25-0.87 0.81-0.62 1.2-0.94 0.78-0.65 1.16-1 0.75-0.69 1.11-1 0.71-0.73 1.05-1.11 0.67-0.76 1-1.16 0.64-0.79 0.94-1.2 0.59-0.82 0.87-1.24 0.55-0.86 0.81-1.29 0.51-0.88 0.75-1.32 0.46-0.9 0.68-1.36 0.42-0.92 0.61-1.39 0.38-0.94 0.55-1.41 0.33-1 0.48-1.44 0.28-1 0.4-1.46 0.24-1 0.34-1.49 0.19-1 0.26-1.49 0.14-1 0.19-1.51 0.09-1 0.12-1.52 0-1 0-1.53v-1.53c0-0.53-0.07-1-0.12-1.52s-0.11-1-0.19-1.51-0.16-1-0.26-1.5-0.21-1-0.34-1.48-0.26-1-0.4-1.46-0.31-1-0.48-1.44-0.36-0.95-0.55-1.42-0.4-0.93-0.61-1.39-0.45-0.91-0.68-1.35-0.49-0.89-0.75-1.32-0.53-0.87-0.81-1.29-0.57-0.84-0.87-1.25-0.62-0.81-0.94-1.2-0.65-0.78-1-1.15-0.69-0.75-1.05-1.11-0.73-0.71-1.11-1.06-0.77-0.67-1.16-1-0.79-0.63-1.2-0.93-0.83-0.6-1.25-0.88-0.85-0.55-1.28-0.81l-1.32-0.74c-0.45-0.24-0.9-0.47-1.36-0.68s-0.92-0.42-1.39-0.62-0.94-0.37-1.41-0.54-1-0.33-1.44-0.48-1-0.29-1.47-0.41-1-0.24-1.48-0.34-1-0.18-1.49-0.26-1-0.14-1.52-0.19-1-0.09-1.52-0.11h-3.05c-0.51 0-1 0.06-1.52 0.11s-1 0.12-1.51 0.19-1 0.16-1.5 0.26-1 0.22-1.48 0.34-1 0.26-1.47 0.41l-1.44 0.48a28.187 28.187 0 0 0-2.8 1.16c-0.46 0.22-0.91 0.44-1.36 0.68l-1.32 0.74c-0.43 0.26-0.86 0.54-1.28 0.81s-0.84 0.58-1.25 0.88-0.81 0.61-1.2 0.93-0.78 0.66-1.16 1-0.75 0.7-1.1 1.06-0.72 0.73-1.06 1.11-0.67 0.76-1 1.15-0.64 0.8-0.94 1.2-0.59 0.83-0.87 1.25-0.55 0.85-0.81 1.29-0.51 0.87-0.74 1.32-0.47 0.9-0.68 1.35-0.43 0.93-0.62 1.39-0.38 0.94-0.55 1.42-0.33 1-0.47 1.44-0.29 1-0.41 1.46-0.24 1-0.34 1.48-0.19 1-0.26 1.5-0.14 1-0.19 1.51-0.09 1-0.12 1.52 0 1 0 1.53v1.53c0 0.53 0.07 1.01 0.12 1.52zM312.8 719.29c0.05 0.51 0.11 1 0.19 1.51s0.16 1 0.26 1.5 0.22 1 0.34 1.48 0.26 1 0.41 1.47 0.3 1 0.47 1.44 0.36 0.95 0.55 1.41 0.4 0.93 0.62 1.39 0.44 0.91 0.68 1.35 0.48 0.89 0.74 1.33 0.53 0.86 0.81 1.28 0.57 0.84 0.87 1.25 0.62 0.81 0.94 1.2 0.65 0.78 1 1.16 0.7 0.75 1.06 1.11 0.73 0.71 1.1 1.05 0.77 0.67 1.16 1 0.79 0.64 1.2 0.94 0.83 0.59 1.25 0.87 0.85 0.55 1.28 0.81 0.88 0.51 1.32 0.74 0.9 0.47 1.36 0.68 0.92 0.42 1.39 0.62 0.94 0.37 1.41 0.54 1 0.33 1.44 0.48 1 0.29 1.47 0.41 1 0.24 1.48 0.33 1 0.19 1.5 0.27 1 0.14 1.51 0.19 1 0.09 1.52 0.11 1 0 1.53 0h1.52c0.52 0 1-0.06 1.52-0.11s1-0.12 1.52-0.19 1-0.17 1.49-0.27 1-0.21 1.48-0.33 1-0.26 1.47-0.41 1-0.31 1.44-0.48 1-0.35 1.41-0.54 0.93-0.4 1.39-0.62 0.91-0.44 1.36-0.68 0.89-0.48 1.32-0.74 0.86-0.53 1.28-0.81 0.84-0.57 1.25-0.87 0.81-0.62 1.2-0.94 0.78-0.65 1.16-1 0.75-0.7 1.11-1.05 0.71-0.74 1.05-1.11 0.67-0.77 1-1.16 0.64-0.79 0.94-1.2 0.59-0.83 0.87-1.25 0.55-0.85 0.81-1.28 0.51-0.88 0.75-1.33 0.46-0.9 0.68-1.35 0.42-0.92 0.61-1.39 0.38-0.94 0.55-1.41 0.33-1 0.48-1.44 0.28-1 0.4-1.47 0.24-1 0.34-1.48 0.19-1 0.26-1.5 0.14-1 0.19-1.51 0.09-1 0.12-1.52 0-1 0-1.53v-1.52c0-0.52-0.07-1-0.12-1.53s-0.11-1-0.19-1.51-0.16-1-0.26-1.49-0.21-1-0.34-1.49-0.26-1-0.4-1.46-0.31-1-0.48-1.44-0.36-0.95-0.55-1.41-0.4-0.94-0.61-1.39-0.45-0.91-0.68-1.36-0.49-0.89-0.75-1.32-0.53-0.86-0.81-1.28-0.57-0.84-0.87-1.25-0.62-0.81-0.94-1.2-0.65-0.78-1-1.16-0.69-0.75-1.05-1.11-0.73-0.71-1.11-1.05-0.77-0.67-1.16-1-0.79-0.64-1.2-0.94-0.83-0.59-1.25-0.87-0.85-0.55-1.28-0.81-0.88-0.51-1.32-0.75l-1.36-0.68c-0.46-0.21-0.92-0.42-1.39-0.61s-0.94-0.38-1.41-0.55-1-0.33-1.44-0.48-1-0.28-1.47-0.4-1-0.24-1.48-0.34-1-0.19-1.49-0.26-1-0.14-1.52-0.19-1-0.09-1.52-0.12h-3.05c-0.51 0-1 0.07-1.52 0.12s-1 0.11-1.51 0.19-1 0.16-1.5 0.26-1 0.21-1.48 0.34-1 0.26-1.47 0.4-1 0.31-1.44 0.48-0.95 0.36-1.41 0.55-0.93 0.4-1.39 0.61l-1.36 0.68c-0.44 0.24-0.89 0.49-1.32 0.75s-0.86 0.53-1.28 0.81-0.84 0.57-1.25 0.87-0.81 0.62-1.2 0.94-0.78 0.65-1.16 1-0.75 0.7-1.1 1.05-0.72 0.73-1.06 1.11-0.67 0.77-1 1.16-0.64 0.79-0.94 1.2-0.59 0.82-0.87 1.25-0.55 0.85-0.81 1.28-0.51 0.88-0.74 1.32-0.47 0.9-0.68 1.36-0.43 0.92-0.62 1.39-0.38 0.94-0.55 1.41-0.33 1-0.47 1.44-0.29 1-0.41 1.46-0.24 1-0.34 1.49-0.19 1-0.26 1.49-0.14 1-0.19 1.51-0.09 1-0.12 1.53 0 1 0 1.52v1.53c0 0.53 0.07 1.02 0.12 1.52z"  /></svg>