<?xml version="1.0" standalone="no"?><!DOCTYPE svg PUBLIC "-//W3C//DTD SVG 1.1//EN" "http://www.w3.org/Graphics/SVG/1.1/DTD/svg11.dtd"><svg class="icon" width="200px" height="200.00px" viewBox="0 0 1024 1024" version="1.1" xmlns="http://www.w3.org/2000/svg"><path fill="#333333" d="M883.11 434.71c0-203.37-165.91-369.27-369.27-369.27s-369.27 165.9-369.27 369.27c0 101.68 41 194.44 108.81 260.45l260.46 262.23 262.23-262.23c66-66 107-158.77 107-260.45z m-162.34 221.2L513.84 862.85 306.9 655.91c-1.78-1.78-3.57-5.35-5.35-7.13-57.08-57.09-89.19-133.8-89.19-214.07 0-165.91 135.57-301.49 301.48-301.49S815.32 268.8 815.32 434.71c0 80.27-32.11 157-89.2 214.07 0 1.78-3.57 3.57-5.35 7.13zM513.84 267c-85.63 0-157 69.57-157 157 0 85.62 69.58 157 157 157s157-69.57 157-157-71.35-157-157-157z m0 253.32c-53.52 0-98.12-44.6-98.12-98.12s44.6-98.12 98.12-98.12S612 368.7 612 422.22s-44.59 98.12-98.11 98.12z m0 0" /></svg>