<?xml version="1.0" standalone="no"?><!DOCTYPE svg PUBLIC "-//W3C//DTD SVG 1.1//EN" "http://www.w3.org/Graphics/SVG/1.1/DTD/svg11.dtd"><svg class="icon" width="200px" height="200.00px" viewBox="0 0 1024 1024" version="1.1" xmlns="http://www.w3.org/2000/svg"><path fill="#333333" d="M514.91 71.72C270 71.72 71.25 270.27 71.25 514.9S270 958.08 514.91 958.08 958.56 759.54 958.56 514.9 759.8 71.72 514.91 71.72z m0 817.22c-205.86 0-374.45-168.4-374.45-374s168.59-374 374.45-374 374.44 166.63 374.44 374c0 205.64-168.59 374-374.44 374zM774 454.63L626.71 307.49a36.37 36.37 0 1 0-51.47 51.41l120.68 120.55H270c-23.07-1.77-39 14.18-39 35.45s16 37.23 37.27 37.23h425.9l-120.7 120.54a36.37 36.37 0 0 0 51.46 51.41L772.22 577c16-16 24.85-39 24.85-60.28a80 80 0 0 0-23.07-62z m0 0" /></svg>