<?xml version="1.0" standalone="no"?><!DOCTYPE svg PUBLIC "-//W3C//DTD SVG 1.1//EN" "http://www.w3.org/Graphics/SVG/1.1/DTD/svg11.dtd"><svg class="icon" width="200px" height="200.00px" viewBox="0 0 1024 1024" version="1.1" xmlns="http://www.w3.org/2000/svg"><path fill="#333333" d="M677.25 144.32a39.31 39.31 0 0 0-28.48 0 35.25 35.25 0 0 0-19.58 19.59 39.28 39.28 0 0 0 0 28.47A35.25 35.25 0 0 0 648.77 212c128.17 55.18 211.84 179.79 211.84 318.64 0 190.47-154.88 347.13-347.13 347.13s-347.13-154.9-347.13-345.38c0-138.85 83.67-265.24 211.84-318.64a35.26 35.26 0 0 0 19.58-19.58 39.34 39.34 0 0 0 0-28.49 35.26 35.26 0 0 0-19.58-19.58 39.31 39.31 0 0 0-28.48 0C193.05 210.19 93.37 361.5 93.37 532.39c0 231.42 188.69 420.11 420.11 420.11s420.11-188.69 420.11-420.11c0-170.89-99.69-322.2-256.34-388.07zM525.94 566.21c21.36 0 37.38-16 37.38-37.38v-429c0-21.36-16-37.38-37.38-37.38s-37.38 16-37.38 37.38v429c0 21.36 16 37.38 37.38 37.38z m0 0" /></svg>