<?xml version="1.0" standalone="no"?><!DOCTYPE svg PUBLIC "-//W3C//DTD SVG 1.1//EN" "http://www.w3.org/Graphics/SVG/1.1/DTD/svg11.dtd"><svg class="icon" width="32px" height="32.00px" viewBox="0 0 1024 1024" version="1.1" xmlns="http://www.w3.org/2000/svg"><path fill="#333333" d="M513 64.7c-247.42 0-448 200.58-448 448s200.58 448 448 448 448-200.57 448-448-200.58-448-448-448z m244.19 666.77c0 34.74-27.89 63-62.16 63H345.5c-34.28 0-62.17-28.26-62.17-63V293.94c0-34.74 27.89-63 62.17-63H695c34.27 0 62.16 28.26 62.16 63V349h-62v-55.06a1.37 1.37 0 0 0-0.33-1H345.67a1.37 1.37 0 0 0-0.34 1v437.53a1.37 1.37 0 0 0 0.34 1h349.19a1.37 1.37 0 0 0 0.33-1v-50.33h62zM695.23 626v-82.3H485.4v-62h209.83v-82.29L837 512.7z" /></svg>