<?xml version="1.0" standalone="no"?><!DOCTYPE svg PUBLIC "-//W3C//DTD SVG 1.1//EN" "http://www.w3.org/Graphics/SVG/1.1/DTD/svg11.dtd"><svg class="icon" width="200px" height="200.00px" viewBox="0 0 1024 1024" version="1.1" xmlns="http://www.w3.org/2000/svg"><path fill="#333333" d="M857.64 548.4l-119.4 68.92-26.53 15.31V829.8l24.84-14.34L856 746.52l14-8.13a24.8 24.8 0 0 0 12.41-21.49V534.07zM855.92 289.01l-119.39-68.93-24.82 14.32-53.05 30.62-92.91 53.64 92.91 53.63 26.49 15.29 26.56-15.33 144.21-83.24zM539.27 364.63V502.46l26.49 15.29 92.9 53.63V433.55l-26.57-15.34-92.82-53.58zM486.22 272.75L512.69 288l26.58-15.34 119.39-68.92 24.82-14.33-24.82-14.32-119.39-68.91L525.15 98a24.84 24.84 0 0 0-24.82 0l-14.11 8.15-119.4 68.94L342 189.48l24.87 14.35zM167.75 548.39L143 534.12V716.9a24.8 24.8 0 0 0 12.41 21.49l14 8.11 119.41 68.94 24.88 14.36V632.68l-26.61-15.36zM143.03 335v137.87l24.72 14.27 53.06 30.62 92.96 53.66V433.55l-26.6-15.35L143.03 335zM366.82 663.3v197.13l119.4 68.93V732.22l-26.58-15.34-92.82-53.58zM459.63 318.66l-92.81-53.57-53.05-30.63-24.87-14.35-119.38 68.92 144.25 83.27 26.46 15.27 26.59-15.34 92.81-53.57zM632.12 617.32l-92.85-53.6-26.57-15.34-26.48 15.29-92.94 53.65 92.94 53.64 26.48 15.29 26.57-15.34 92.85-53.59zM366.82 433.48v137.85l92.82-53.58 26.58-15.33V364.56l-92.93 53.64-26.47 15.28zM539.27 732.17v197.19l119.39-68.93V663.25l-92.9 53.63-26.49 15.29zM711.71 433.51v137.86l92.87-53.6 53.05-30.63 24.82-14.32V334.95l-144.24 83.26-26.5 15.3z" /></svg>