<?xml version="1.0" standalone="no"?><!DOCTYPE svg PUBLIC "-//W3C//DTD SVG 1.1//EN" "http://www.w3.org/Graphics/SVG/1.1/DTD/svg11.dtd"><svg class="icon" width="200px" height="200.00px" viewBox="0 0 1024 1024" version="1.1" xmlns="http://www.w3.org/2000/svg"><path fill="#333333" d="M956.91 300.33c-0.07-4.62 0.41-14.07 0.77-21.27 0.62-12.3 1.32-26.24 1-37.82-0.31-11-1-34-20.26-40.1-8.62-2.73-17.85-0.58-25.33 5.92a52.44 52.44 0 0 0-9.31 11.13l-3.15 3.81c-0.66 0.81-1.38 1.69-2.08 2.53-4.92-2.31-12.51-6.43-20.42-10.72-8.79-4.76-19.43-10.53-32.9-17.5-11.53-22.23-26.52-37.69-44.63-46a67.42 67.42 0 0 0-54.07-1.37c-21.81 9.13-34.27 28.42-31.53 47.06-2.23 14.83 2.88 27.94 6.8 37.29-21.47 9.27-29.21 25.14-31.81 37.54-3.16 15-0.09 29.87 2.61 43 0.75 3.61 1.73 8.38 2.24 12.1-65.08 0.52-82.09 15.8-97.53 35.71-6.85 8.83-11.8 15.22-37.59 19.27-20.72 3.25-27.14-0.56-36.85-6.32-5.63-3.35-12.64-7.51-21.92-10.16a22.64 22.64 0 0 0-3.05-0.64c-20.21-2.76-35.21-0.92-45.14 0.3-2.25 0.28-4.86 0.6-6.78 0.74-43.51-75.14-91.1-113.58-119-118.35-27.4-4.68-45.27-7.25-62.41-3.52-20.47 4.45-34.69 17-49.76 34.44-7.18 8.33-12.64 15.36-17 21-12.66 16.29-15.66 20.16-35.91 26.71-0.46 0.15-0.91 0.31-1.36 0.49a125.62 125.62 0 0 1-39.6 9.29c-10.08 0.92-21.5 2-31.78 11.32-9.22 8.4-14.55 20.94-20.15 38.47a22 22 0 0 0 1.64 17.23c10.11 18.52 9.16 24.36 8.23 30-2.62 15.53-0.62 28.09 17.12 46.67l0.53 0.54c11.89 11.6 18.46 21.87 19 29.7 0.4 5.9-2.61 11.91-6.11 18.87-3.3 6.57-7 14-8.37 22.72-1.8 11.9 1.47 23.4 9.46 33.26a21.94 21.94 0 0 0 5.2 4.65c30.05 19.29 51.29 37.94 70 54.4 19.15 16.82 34.27 30.1 51.92 37.85 18.36 8.07 36.71 8.83 57.06 2.24 4.07 8 10.87 20.88 26.48 25.69 16.6 5.13 33.05-2.24 44-8.22a22.17 22.17 0 0 0 4.5-3.26c6.47-6.07 11.13-8.13 13.37-8.1 1.95 0.05 4.94 1.89 7.84 3.66a46.86 46.86 0 0 0 12.13 5.8 28.23 28.23 0 0 0 8.27 1c-0.42 6.35-1.8 10.55-2.74 12.33a22 22 0 0 0-13.8 18.12c-0.93 8.68-1.15 18.7 4.27 27.22a26.57 26.57 0 0 0 17 11.8c3.15 42.67 36.15 54.35 52.44 60.12a22 22 0 0 0 17.32-1.12c2.22-1.13 4.61-2.67 8.23-5 27-17.37 45.93-24.95 56.32-22.53 2 0.46 3.67 1.35 5.47 4.07a45.06 45.06 0 0 0 29.86 24.18 58 58 0 0 0 9.29 1.57c-6.18 8.32-13 19.8-8.23 33.84C592.14 880 609 886.16 623 889.78a22.26 22.26 0 0 0 5.49 0.69 21.93 21.93 0 0 0 10-2.43c17.39-8.92 27.1-19.56 32.41-30a347.66 347.66 0 0 1-39.15-62.63 308.53 308.53 0 0 1-3.82-8.34 43 43 0 0 0-10.81-1.22c-2.81 0-5.51 0.18-8 0.34-3.49 0.24-11.66 0.78-13.49-0.44a4.16 4.16 0 0 1-0.71-1.19c-0.34-0.71-0.71-1.41-1.11-2.08-7.83-13-19.46-21.63-33.64-24.93-31.86-7.42-67.52 14-86.81 26.28-10.77-4.84-13.76-9.66-13.71-21.88a21.87 21.87 0 0 0-1-6.76c-3.14-9.91-7.72-16.4-12.53-20.66 6.53-11 9.83-25.91 9.14-43.23-1.07-26.64-11-43.77-27.27-47a26.47 26.47 0 0 0-22.58 6.13c-13.36-6.44-36.12-11.92-63.63 12.47a45.34 45.34 0 0 1-6.49 2.77c-0.58-1.06-1.18-2.24-1.67-3.19-2.55-5-5.73-11.22-11.28-16.46-8.25-7.78-19.22-10.83-30.88-8.59a22.25 22.25 0 0 0-4.39 1.33c-25.52 10.75-36.07 2.85-72.38-29C197 594 175.05 574.79 145.16 555c0.86-2.18 2.42-5.29 3.57-7.56 9.27-18.45 26.5-52.76-21.19-99.52a43.94 43.94 0 0 1-5.64-6.92c0.09-0.6 0.22-1.38 0.32-2 2-11.95 2.79-25.61-8.52-49.37 2.24-6.12 3.71-8.93 4.52-10.2 1.6-0.27 4.33-0.52 6.63-0.73 10.8-1 27.06-2.47 51.18-12 31.13-10.17 40.8-21.23 56.44-41.37 4.29-5.52 9.14-11.78 15.59-19.24 20.93-24.27 25-24.24 71.44-16.3 2.72 0.46 14.45 5.62 32.19 22.66 13.56 13 34.36 36.58 56.49 74.91 6.31 10.93 14.9 17.77 25.53 20.31 8.33 2 16.12 1 24.37 0 8.67-1.07 18.44-2.27 32.08-0.61a58.24 58.24 0 0 1 10.2 5.26c12.56 7.45 29.76 17.67 66.15 11.95 39.74-6.24 53.68-20.48 65.53-35.77 4.58-5.9 7.1-9.15 13.42-12 9.76-4.31 26.7-6.58 50.35-6.72 15.6-0.1 27.37-4.92 35-14.34 12.2-15.06 8.3-34 4.86-50.65-1.84-8.9-3.92-19-2.65-25 0.41-2 1-5 10.32-7.65 11-3.19 18.62-9.19 22.74-17.83 6.53-13.69 0.92-27.05-3.18-36.8-2.33-5.54-5.23-12.44-4.29-15.61a22 22 0 0 0 0.59-9.89 20 20 0 0 1 13.55-4.21c13.46 0.57 26.21 12.56 35.92 33.77a22 22 0 0 0 10 10.42c16.16 8.27 28.55 15 38.51 20.39 21.63 11.72 31.5 17.07 42.68 17.7a32 32 0 0 0 14.33-2.35c-0.15 3.37-0.31 6.46-0.43 9-0.33 6.52-0.65 12.74-0.77 18-39.23 22.94-35.81 53.31-33.89 70.41 0.43 3.82 1.15 10.23 0.46 11.71 0 0.06-3.81 5.59-28.94 10.11-28.8 4.04-36.62 27.22-41.89 42.6-5.16 15.2-9.61 28.33-29.6 37.67a22 22 0 0 0-7 5.21q-11.86 13.14-15.13 26.79a199.79 199.79 0 0 1 47-5.58q7.35 0 14.59 0.53c20.12-16.29 26.89-36.22 31.73-50.48 1.5-4.42 3.74-11 5.24-12.85a6.2 6.2 0 0 1 1.07-0.2c0.37 0 0.74-0.1 1.11-0.17 29.83-5.3 47.59-13.94 57.58-28 10.48-14.77 8.71-30.59 7.41-42.13-0.77-6.81-1.43-12.68 0.31-16.62 2.23-5.08 10-10.66 21.75-15.71a22 22 0 0 0 12-27.67z"  /><path fill="#333333" d="M804.08 545.65A144.78 144.78 0 0 0 658.78 691c0 116.87 127.14 208.64 132.55 212.49a22 22 0 0 0 25.5 0c5.42-3.85 132.56-95.62 132.56-212.49a144.8 144.8 0 0 0-145.31-145.35z m0 311.91c-29.78-24.67-101.3-91.73-101.3-166.6 0-56.81 44.5-101.31 101.3-101.31S905.39 634.15 905.39 691c0 74.83-71.54 141.9-101.31 166.56z"  /><path fill="#333333" d="M804.08 616.9a74.07 74.07 0 0 0 0 148.13c42.23 0 74.07-31.85 74.07-74.07 0-39.45-34.61-74.06-74.07-74.06z m0 104.13C785.51 721 774 705.42 774 691c0-18.57 15.61-30.06 30.06-30.06 15.17 0 30.07 14.89 30.07 30.06 0.02 17.94-12.07 30-30.05 30z"  /></svg>