<?xml version="1.0" standalone="no"?><!DOCTYPE svg PUBLIC "-//W3C//DTD SVG 1.1//EN" "http://www.w3.org/Graphics/SVG/1.1/DTD/svg11.dtd"><svg class="icon" width="200px" height="200.00px" viewBox="0 0 1024 1024" version="1.1" xmlns="http://www.w3.org/2000/svg"><path fill="#333333" d="M512.44 179.23a183.07 183.07 0 0 1 183.09 183.09c0 27-7.17 55.48-21.33 84.6-12.89 26.53-31.61 53.8-55.64 81.05-36.7 41.64-77.79 74.44-106.12 94.82C484.12 602.41 443 569.61 406.33 528c-24-27.25-42.75-54.52-55.64-81.05-14.16-29.12-21.34-57.58-21.34-84.6a183.09 183.09 0 0 1 183.09-183.12m0-62c-135.35 0-245.09 109.73-245.09 245.09 0 157.6 170.83 285.6 227.25 323.58a31.94 31.94 0 0 0 35.69 0c56.42-38 227.24-166 227.24-323.58 0-135.36-109.73-245.09-245.09-245.09z"  /><path fill="#333333" d="M512.44 316.06a43.16 43.16 0 1 1-43.16 43.16 43.22 43.22 0 0 1 43.16-43.16m0-58a101.16 101.16 0 1 0 101.17 101.16 101.16 101.16 0 0 0-101.17-101.16zM927.35 781.87l-47.82-160.36a96 96 0 0 0-92-68.55h-25.19a533.6 533.6 0 0 1-46.42 62h71.64a34.19 34.19 0 0 1 32.56 24.26l47.82 160.37a2.54 2.54 0 0 1-2.43 3.26H161.33a2.54 2.54 0 0 1-2.43-3.26l47.6-160.33A34.17 34.17 0 0 1 239.07 615H309a532.46 532.46 0 0 1-46.42-62h-23.51a95.95 95.95 0 0 0-92 68.65L99.46 781.94a64.55 64.55 0 0 0 61.87 82.91h704.18a64.54 64.54 0 0 0 61.84-83z"  /></svg>