<?xml version="1.0" standalone="no"?><!DOCTYPE svg PUBLIC "-//W3C//DTD SVG 1.1//EN" "http://www.w3.org/Graphics/SVG/1.1/DTD/svg11.dtd"><svg class="icon" width="200px" height="200.00px" viewBox="0 0 1024 1024" version="1.1" xmlns="http://www.w3.org/2000/svg"><path fill="#333333" d="M926.57 781.87l-47.82-160.36a95.95 95.95 0 0 0-92-68.55h-25.19a532.46 532.46 0 0 1-46.42 62h71.64a34.19 34.19 0 0 1 32.56 24.26l47.82 160.37a2.54 2.54 0 0 1-2.43 3.26H160.55a2.54 2.54 0 0 1-2.43-3.26l47.6-160.33A34.18 34.18 0 0 1 238.29 615h69.9a533.6 533.6 0 0 1-46.42-62h-23.48a95.95 95.95 0 0 0-92 68.65L98.68 781.94a64.55 64.55 0 0 0 61.87 82.91h704.18a64.54 64.54 0 0 0 61.84-83zM512 316.06a43.16 43.16 0 1 1-43.17 43.16A43.21 43.21 0 0 1 512 316.06"  /><path fill="#333333" d="M512.64 117.23c-135.36 0-245.09 109.73-245.09 245.09 0 157.6 170.82 285.6 227.24 323.58a32 32 0 0 0 35.7 0c56.42-38 227.24-166 227.24-323.58C757.73 227 648 117.23 512.64 117.23z m0 343.15A101.16 101.16 0 1 1 613.8 359.22a101.16 101.16 0 0 1-101.16 101.16z"  /></svg>