<?xml version="1.0" standalone="no"?><!DOCTYPE svg PUBLIC "-//W3C//DTD SVG 1.1//EN" "http://www.w3.org/Graphics/SVG/1.1/DTD/svg11.dtd"><svg class="icon" width="200px" height="200.00px" viewBox="0 0 1024 1024" version="1.1" xmlns="http://www.w3.org/2000/svg"><path fill="#333333" d="M887.9 432.57C887.9 227 720.17 59.22 514.56 59.22S141.21 227 141.21 432.57c0 102.8 41.49 196.59 110 263.32L514.56 961l265.13-265.11c66.73-66.73 108.21-160.52 108.21-263.32zM723.78 656.21L514.56 865.43 305.34 656.21c-1.8-1.8-3.61-5.41-5.41-7.21-57.72-57.72-90.18-135.27-90.18-216.43 0-167.74 137.07-304.81 304.81-304.81s304.81 137.07 304.81 304.81c0 81.16-32.47 158.71-90.18 216.43 0 1.8-3.61 3.61-5.41 7.21zM514.56 263c-86.56 0-158.72 70.37-158.72 158.75 0 86.57 70.34 158.71 158.72 158.71s158.72-70.33 158.72-158.71S601.13 263 514.56 263z m0 256.11c-54.11 0-99.2-45.09-99.2-99.2s45.09-99.2 99.2-99.2 99.2 45.09 99.2 99.2-45.09 99.2-99.2 99.2z m0 0" /></svg>