<?xml version="1.0" standalone="no"?><!DOCTYPE svg PUBLIC "-//W3C//DTD SVG 1.1//EN" "http://www.w3.org/Graphics/SVG/1.1/DTD/svg11.dtd"><svg class="icon" width="200px" height="200.00px" viewBox="0 0 1024 1024" version="1.1" xmlns="http://www.w3.org/2000/svg"><path fill="#333333" d="M888.69 313.78H280.54a63 63 0 0 0-62.92 62.94v189.11h61.93V379.11l239.38 239.45a93 93 0 0 0 131.38 0l239.38-239.45V800.7a1 1 0 0 1-1 1H280.54a1 1 0 0 1-1-1V767h-61.92v33.7a63 63 0 0 0 62.92 62.95h608.15a63 63 0 0 0 62.93-62.95v-424a63 63 0 0 0-62.93-62.92z m-282.17 261a31 31 0 0 1-43.8 0l-199-199h441.77z"  /><path fill="#333333" d="M105.88 547.65a28 28 0 0 0 28-28V283.48a64 64 0 0 1 63.86-63.88h591a28 28 0 0 0 0-55.95h-591A120 120 0 0 0 77.91 283.48v236.19a28 28 0 0 0 27.97 27.98zM136.48 624.6a22 22 0 0 0 22 22h178.61a22 22 0 0 0 0-44H158.45a22 22 0 0 0-21.97 22zM315.18 714.33a22 22 0 0 0-22-22H97.6a22 22 0 0 0 0 44h195.61a22 22 0 0 0 21.97-22z"  /></svg>