<?xml version="1.0" standalone="no"?><!DOCTYPE svg PUBLIC "-//W3C//DTD SVG 1.1//EN" "http://www.w3.org/Graphics/SVG/1.1/DTD/svg11.dtd"><svg class="icon" width="200px" height="200.00px" viewBox="0 0 1024 1024" version="1.1" xmlns="http://www.w3.org/2000/svg"><path fill="#333333" d="M836.85 702.3L812 675.73V406.44c0-127.55-88.57-237.39-216.13-271-5.32-37.2-37.2-67.32-76.18-67.32a76.52 76.52 0 0 0-76.17 65.55c-129.29 31.84-223.19 145.22-223.19 272.77v269.29l-24.8 26.57c-21.26 23-26.57 53.14-14.17 81.49 14.17 28.35 42.52 46.06 76.18 46.06h519.07c33.66 0 62-17.71 74.41-47.83 10.63-26.58 5.31-58.47-14.17-79.72zM796.1 759c-1.77 3.54-7.09 12.4-21.26 12.4h-517.3c-14.17 0-19.49-8.86-21.26-12.4s-3.55-10.63 3.54-17.72l31.89-35.43c5.32-5.31 7.09-12.4 7.09-19.49V406.44c0-108.06 85-202 198.42-219.67 8.85-1.78 15.94-5.32 21.25-12.4s5.32-16 3.55-23c0-1.77-1.78-3.54-1.78-5.31A17.76 17.76 0 0 1 518 128.31c8.86 0 17.72 8.85 17.72 17.71 0 1.77 0 3.54-1.77 5.31a54.63 54.63 0 0 0 5.31 23c3.54 7.08 12.4 12.4 19.49 14.17 111.61 19.49 193.1 111.61 193.1 217.9v279.95c0 7.09 3.54 14.18 7.09 19.49l31.88 35.43c8.86 7.09 7.09 14.17 5.32 17.72zM626 842.25c-14.18-7.09-31.89-1.77-39 12.4-14.17 26.58-40.74 42.52-69.09 42.52s-56.69-15.94-69.09-42.52c-7.09-14.17-24.8-19.49-39-12.4s-19.48 24.8-12.4 39c24.8 44.28 70.87 72.63 120.47 72.63s97.44-28.35 120.47-72.63c7.09-14.18 1.77-31.89-12.4-39z m0 0" /></svg>