<?xml version="1.0" standalone="no"?><!DOCTYPE svg PUBLIC "-//W3C//DTD SVG 1.1//EN" "http://www.w3.org/Graphics/SVG/1.1/DTD/svg11.dtd"><svg class="icon" width="32px" height="32.00px" viewBox="0 0 1024 1024" version="1.1" xmlns="http://www.w3.org/2000/svg"><path fill="#333333" d="M684.42 654.56a31 31 0 0 1-4.81-16.56V436a166.67 166.67 0 0 0-125.73-161.5 31 31 0 0 1-23.34-30V234a18 18 0 0 0-36.08 0v10.62a31 31 0 0 1-23.24 30A166.78 166.78 0 0 0 346 436v202.47a31 31 0 0 1-4.8 16.57l-24.41 38.57h392.3z"  /><path fill="#333333" d="M513 63.8c-247.43 0-448 200.58-448 448s200.57 448 448 448 448-200.57 448-448-200.61-448-448-448z m-0.35 787.55c-36 0-67.48-20.45-85.1-51.14L598.42 799c-17.42 31.34-49.36 52.35-85.8 52.35z m250.79-127.81a62 62 0 0 1-54.34 32.11H316.83a62 62 0 0 1-52.41-95.2l19.6-31V436a225.93 225.93 0 0 1 49-141 231.32 231.32 0 0 1 100.45-73.35 80 80 0 0 1 158.12-0.25 231.38 231.38 0 0 1 100.89 73.31A229 229 0 0 1 741.61 436v193l19.91 31.45a62.05 62.05 0 0 1 1.92 63.09z"  /></svg>