<?xml version="1.0" standalone="no"?><!DOCTYPE svg PUBLIC "-//W3C//DTD SVG 1.1//EN" "http://www.w3.org/Graphics/SVG/1.1/DTD/svg11.dtd"><svg class="icon" width="200px" height="200.00px" viewBox="0 0 1024 1024" version="1.1" xmlns="http://www.w3.org/2000/svg"><path fill="#333333" d="M850.73 777.31l-36.64-40.37V417.75c0-139.95-107.58-257-248.42-281.67a51.93 51.93 0 0 0 2.67-15.83 54.24 54.24 0 0 0-108.47 0 52.49 52.49 0 0 0 2.31 14.93C318 157.24 206.83 275.84 206.83 417.92v319.2l-36.46 40.19c-32.54 35.74-5.51 91.22 44.46 91.22h591.62c49.79-0.18 76.82-55.48 44.28-91.22zM510.55 955.13a123.33 123.33 0 0 0 108.83-65.08H401.72a123.31 123.31 0 0 0 108.83 65.08z m0 0" /></svg>