<?xml version="1.0" standalone="no"?><!DOCTYPE svg PUBLIC "-//W3C//DTD SVG 1.1//EN" "http://www.w3.org/Graphics/SVG/1.1/DTD/svg11.dtd"><svg class="icon" width="200px" height="200.00px" viewBox="0 0 1024 1024" version="1.1" xmlns="http://www.w3.org/2000/svg"><path fill="#333333" d="M837.91 261.49L561 91.67a92.62 92.62 0 0 0-97.23 0L186.79 261.49a93.6 93.6 0 0 0-44.39 79.29V687a93.57 93.57 0 0 0 44.39 79.28l276.94 169.85a92.59 92.59 0 0 0 97.23 0l276.95-169.82A93.57 93.57 0 0 0 882.3 687V340.78a93.6 93.6 0 0 0-44.39-79.29z m-341.77-117a30.84 30.84 0 0 1 32.41 0L790 304.85l-107.26 60-154.2-94.56a31 31 0 0 0-32.41 0L341.94 364.9l-107.25-60z m16.21 550.14L401 626.39l111.36-71.46 111.36 71.46zM651 570.26l-107.69-69.1v-149l107.69 66z m-169.69-69.1l-107.69 69.1V418.18l107.69-66zM219.2 713.46A31.2 31.2 0 0 1 204.4 687V359l107.26 60v208a31 31 0 0 0 14.79 26.43l154.9 95v125.78z m586.3 0L543.35 874.21V748.39l154.9-95A31 31 0 0 0 713 627V419l107.3-60v328a31.2 31.2 0 0 1-14.8 26.46z" /></svg>