<?xml version="1.0" standalone="no"?><!DOCTYPE svg PUBLIC "-//W3C//DTD SVG 1.1//EN" "http://www.w3.org/Graphics/SVG/1.1/DTD/svg11.dtd"><svg class="icon" width="200px" height="200.00px" viewBox="0 0 1024 1024" version="1.1" xmlns="http://www.w3.org/2000/svg"><path fill="#333333" d="M404.28 312.17h197.14c62.47 0 110.6-134.5 110.6-134.5 0-38.41-4.78-72-72-72s-86.54 48.13-134.51 48.13c-48.13 0-77-38.4-139.44-48.13-62.48-9.56-72 33.63-72 72 4.38 4.77 47.74 134.5 110.21 134.5zM615.76 355.35H404.28c-230.77 0-288.46 451.82-288.46 451.82 0 57.69 48.13 120.16 110.6 120.16h572c57.69 0 110.6-57.69 110.6-120.16-4.96 0-62.49-451.82-293.26-451.82z m24.07 346.16c14.34 0 24.06 9.56 24.06 24.06 0 14.34-9.56 24.07-24.06 24.07H534.17v67.25c0 14.34-9.56 24.07-24.07 24.07-14.34 0.04-24.1-9.56-24.1-24.07v-67.25H380.38c-14.34 0-24.07-9.56-24.07-24.07 0-14.34 9.56-24.06 24.07-24.06H486v-33.63H380.38c-14.34 0-24.07-9.56-24.07-24.06s9.56-24.07 24.07-24.07h72l-72-124.94c-4.78-14.51-4.78-28.85 9.56-33.63s28.84-4.78 33.62 9.56l86.54 153.79h4.78l86.54-153.79c4.78-14.34 24.07-14.34 33.63-9.56 14.34 4.78 14.34 24.06 9.55 33.63l-72 124.94h67.26c14.34 0 24.06 9.56 24.06 24.07 0 14.34-9.56 24.06-24.06 24.06H534.17v33.63z" /></svg>