<?xml version="1.0" standalone="no"?><!DOCTYPE svg PUBLIC "-//W3C//DTD SVG 1.1//EN" "http://www.w3.org/Graphics/SVG/1.1/DTD/svg11.dtd"><svg class="icon" width="200px" height="200.00px" viewBox="0 0 1024 1024" version="1.1" xmlns="http://www.w3.org/2000/svg"><path fill="#333333" d="M512.47 71c-244.73 0-444 199.09-444 444s199.09 444 444 444c244.73 0 444-199.27 444-444 0-244.91-199.27-444-444-444z m0 819.27C305.57 890.3 137.2 721.93 137.2 515s168.37-375.24 375.27-375.24S887.74 308.13 887.74 515 719.37 890.3 512.47 890.3zM291.53 515a53.28 53.28 0 1 0 53.28-53.28A53.28 53.28 0 0 0 291.53 515zM467 515a53.28 53.28 0 1 0 53.28-53.28A53.26 53.26 0 0 0 467 515z m175.47 0a53.29 53.29 0 1 0 53.29-53.28A53.28 53.28 0 0 0 642.47 515z m0 0" /></svg>