<?xml version="1.0" standalone="no"?><!DOCTYPE svg PUBLIC "-//W3C//DTD SVG 1.1//EN" "http://www.w3.org/Graphics/SVG/1.1/DTD/svg11.dtd"><svg class="icon" width="200px" height="200.00px" viewBox="0 0 1024 1024" version="1.1" xmlns="http://www.w3.org/2000/svg"><path fill="#333333" d="M139.72 392.45a28.34 28.34 0 0 0 21.28 4.48l155.39-29.38a28.26 28.26 0 0 0 22.58-32.88c-2.83-14.77-18.26-25.23-33-22.57l-83.84 15.77a344.66 344.66 0 0 1 291.36-161c189.59 0 344 154.23 344 344a32.87 32.87 0 1 0 65.74 0c0-225.77-183.78-409.55-409.56-409.55a409.54 409.54 0 0 0-344 187.43L154 208.5c-2.66-14.77-18.1-25.4-33-22.58a28.4 28.4 0 0 0-22.41 33l29.38 155.39a27.88 27.88 0 0 0 11.75 18.14zM927.79 804.67l-20.91-156.73a28.32 28.32 0 0 0-10.8-18.75 27.7 27.7 0 0 0-20.91-5.48l-156.72 20.92a28.31 28.31 0 0 0-18.76 10.79 27.78 27.78 0 0 0-5.48 20.91c2 14.95 16.77 26.24 31.71 24.24l81-10.79a344.48 344.48 0 0 1-293.69 165c-189.58 0-344-154.4-344-344a32.79 32.79 0 1 0-65.58 0c0 225.79 183.78 409.57 409.56 409.57A409.84 409.84 0 0 0 860.56 727.8l11.29 84.33c2 15 16.77 26.24 31.71 24.24a28.12 28.12 0 0 0 24.23-31.7z" /></svg>