<?xml version="1.0" standalone="no"?><!DOCTYPE svg PUBLIC "-//W3C//DTD SVG 1.1//EN" "http://www.w3.org/Graphics/SVG/1.1/DTD/svg11.dtd"><svg t="1642813439349" class="icon" viewBox="0 0 1024 1024" version="1.1" xmlns="http://www.w3.org/2000/svg" p-id="14607" xmlns:xlink="http://www.w3.org/1999/xlink" width="16" height="16"><defs><style type="text/css"></style></defs><path d="M513.2 65.33c-247.48 0-448 200.52-448 448s200.53 448 448 448 448-200.53 448-448-200.53-448-448-448zM276 312.64a22.4 22.4 0 0 1 25.78 17.62l7.13 36.52a251.78 251.78 0 0 1 204.64-105.22c138.84 0 251.79 113 251.79 251.79a24.8 24.8 0 0 1-24.81 24.82 24.8 24.8 0 0 1-24.79-24.82c0-111.54-90.75-202.29-202.29-202.29A201.55 201.55 0 0 0 348.66 396l38.81-7.3a22.5 22.5 0 0 1 25.72 17.58 22.08 22.08 0 0 1-17.6 25.66L302 449.61a22.26 22.26 0 0 1-16.58-3.49 21.92 21.92 0 0 1-9.18-14.18l-17.69-93.58A22.2 22.2 0 0 1 276 312.64z m487.69 393.43a21.78 21.78 0 0 1-14.56 8.38 22.41 22.41 0 0 1-24.71-18.91l-5-37.62a252 252 0 0 1-206.15 107.17c-138.84 0-251.79-113-251.79-251.79a24.75 24.75 0 0 1 24.76-24.77A24.77 24.77 0 0 1 311 513.3c0 111.54 90.74 202.28 202.28 202.28 66.46-0.06 129.44-33.54 166.88-88l-38 5.07a22.42 22.42 0 0 1-24.73-18.9A21.89 21.89 0 0 1 636.3 589l94.42-12.6a21.91 21.91 0 0 1 24.73 18.9l12.61 94.57a21.74 21.74 0 0 1-4.37 16.2z" p-id="14608"></path></svg>