<?xml version="1.0" standalone="no"?><!DOCTYPE svg PUBLIC "-//W3C//DTD SVG 1.1//EN" "http://www.w3.org/Graphics/SVG/1.1/DTD/svg11.dtd"><svg class="icon" width="200px" height="200.00px" viewBox="0 0 1024 1024" version="1.1" xmlns="http://www.w3.org/2000/svg"><path fill="#333333" d="M773.36 203.37L514 464.45 254.69 203.37c-14-14-35-14-49.06 0s-14 35 0 49.06L465 513.52 203.88 772.85c-14 14-14 35 0 49.06s35 14 49.06 0L514 562.58l259.36 259.33c14 14 35 14 49.06 0s14-35 0-49.06L563.09 513.52l259.33-259.34c14-14 14-35 0-49.06s-35-15.77-49.06-1.75z m0 0" /></svg>