<?xml version="1.0" standalone="no"?><!DOCTYPE svg PUBLIC "-//W3C//DTD SVG 1.1//EN" "http://www.w3.org/Graphics/SVG/1.1/DTD/svg11.dtd"><svg class="icon" width="200px" height="200.00px" viewBox="0 0 1024 1024" version="1.1" xmlns="http://www.w3.org/2000/svg"><path fill="#333333" d="M926.85 930.66c-16 0-30.16-12.41-30.16-28.38-14.19-177.37-149-319.28-324.6-345.88-14.19-1.78-24.83-14.19-26.6-28.38s7.09-28.38 21.28-31.93c72.73-23.06 120.62-88.69 120.62-165 0-94-78-172.06-173.83-172.06s-173.83 78.09-173.83 173.88c0 76.27 47.89 141.89 120.62 165 14.19 3.54 23 17.73 21.28 31.92S469.22 556.4 455 558.17C279.42 583 146.39 726.68 132.2 902.28c-1.78 17.74-16 30.16-33.7 28.38s-30.16-16-28.38-33.7c16-177.37 133-324.6 296.22-381.36-55-44.34-88.69-110-88.69-184.47 0-129.48 106.42-235.91 235.91-235.91s235.91 106.43 235.91 235.91c0 72.73-33.7 140.13-88.69 184.47C824 572.36 941 719.59 957 897c1.77 17.74-10.64 31.93-28.38 33.7z m0 0" /></svg>