<?xml version="1.0" standalone="no"?><!DOCTYPE svg PUBLIC "-//W3C//DTD SVG 1.1//EN" "http://www.w3.org/Graphics/SVG/1.1/DTD/svg11.dtd"><svg class="icon" width="200px" height="200.00px" viewBox="0 0 1024 1024" version="1.1" xmlns="http://www.w3.org/2000/svg"><path fill="#333333" d="M513.23 68.27C268.15 68.27 69.58 266.86 69.58 512c0 111.64 41.52 213.51 109.67 291.42 78.44 89.77 192.19 147.45 319.6 151.58h28.58A441.37 441.37 0 0 0 847 803.38C915.36 725.47 956.88 623.6 956.88 512c0-245.1-198.58-443.69-443.65-443.69z m0 866.27c-129.55 0-245.25-58.39-322.8-150.15 57.85-91.58 153.5-157.06 265.12-173.93-75.95-24.31-131-95.48-131-179.43 0-104 84.29-188.48 188.46-188.48 104 0 188.46 84.3 188.46 188.48 0 84-55 155.12-131 179.43 111.8 16.87 207.28 82.35 265.13 173.93-77.2 91.76-192.9 150.15-322.45 150.15z m0 0" /></svg>