<?xml version="1.0" standalone="no"?><!DOCTYPE svg PUBLIC "-//W3C//DTD SVG 1.1//EN" "http://www.w3.org/Graphics/SVG/1.1/DTD/svg11.dtd"><svg class="icon" width="200px" height="200.00px" viewBox="0 0 1024 1024" version="1.1" xmlns="http://www.w3.org/2000/svg"><path fill="#333333" d="M640.65 497.56a164.95 164.95 0 1 0-255.61 0A238.09 238.09 0 0 0 275 698.2a31 31 0 0 0 31 31h413.68a31 31 0 0 0 31-31 238 238 0 0 0-110-200.64zM339.76 667.2C350.61 607.5 392.18 556 450 533.92a31 31 0 0 0 5.64-55A103.07 103.07 0 0 1 410 397.36 103.36 103.36 0 0 1 514.3 290.5c55.91 0.79 101.4 46.93 101.4 102.87a102.71 102.71 0 0 1-45.11 85.14 31 31 0 0 0 5.07 55.41C633.45 556 675 607.5 685.88 667.2z"  /><path fill="#333333" d="M919.15 338.11a442.33 442.33 0 1 0 34.67 171.66 439.27 439.27 0 0 0-34.67-171.66zM512.82 888.77c-209 0-379-170-379-379s170-379 379-379 379 170 379 379-170.02 379-379 379z"  /></svg>