<?xml version="1.0" standalone="no"?><!DOCTYPE svg PUBLIC "-//W3C//DTD SVG 1.1//EN" "http://www.w3.org/Graphics/SVG/1.1/DTD/svg11.dtd"><svg class="icon" width="200px" height="200.00px" viewBox="0 0 1024 1024" version="1.1" xmlns="http://www.w3.org/2000/svg"><path fill="#333333" d="M773.1 87H252.32a93.11 93.11 0 0 0-93 93v669.1a93.11 93.11 0 0 0 93 93H773.1a93.11 93.11 0 0 0 93-93V180a93.11 93.11 0 0 0-93-93z m31 762.1a31 31 0 0 1-31 31H252.32a31 31 0 0 1-31-31V180a31 31 0 0 1 31-31H773.1a31 31 0 0 1 31 31z"  /><path fill="#333333" d="M299.94 506H527a22 22 0 0 0 22-22 135.62 135.62 0 0 0-58.16-111.29 95.47 95.47 0 1 0-154.72 0A135.66 135.66 0 0 0 277.94 484a22 22 0 0 0 22 22z m80.81-107.49a22 22 0 0 0 4-39 51.46 51.46 0 1 1 57.66-0.22 22 22 0 0 0 3.7 39.25A92.17 92.17 0 0 1 502.25 462H324.66a92.16 92.16 0 0 1 56.09-63.53zM725 599.38H301.32a29 29 0 0 0 0 58H725a29 29 0 0 0 0-58zM725 742.23H301.32a29 29 0 1 0 0 58H725a29 29 0 0 0 0-58zM725 289.55h-89.84a29 29 0 0 0 0 58H725a29 29 0 0 0 0-58zM725 448h-89.84a29 29 0 0 0 0 58H725a29 29 0 0 0 0-58z"  /></svg>