<?xml version="1.0" standalone="no"?><!DOCTYPE svg PUBLIC "-//W3C//DTD SVG 1.1//EN" "http://www.w3.org/Graphics/SVG/1.1/DTD/svg11.dtd"><svg class="icon" width="200px" height="200.00px" viewBox="0 0 1024 1024" version="1.1" xmlns="http://www.w3.org/2000/svg"><path fill="#333333" d="M606.05 761.44333333a32.28 32.28 0 0 1-32.19 32.19H453.79a32.29 32.29 0 0 1-32.2-32.19H71.89v10.7a71.68 71.68 0 0 0 71.68 71.67h738.91a71.67 71.67 0 0 0 71.67-71.67v-10.7zM320.23 599.33333333h447.59a22 22 0 0 0 22-22V363.66333333a84.09 84.09 0 0 0-84-84H258.23a22 22 0 0 0-22 22V515.33333333a84.09 84.09 0 0 0 84 84z m-40-275.65h425.59a40 40 0 0 1 40 40V555.33333333H320.23a40 40 0 0 1-40-40z"  /><path fill="#333333" d="M450.6 495.12333333c0 34.48 124.85 34.48 124.85 0a62.45 62.45 0 0 0-37.22-57.13 44 44 0 1 0-50.41 0 62.45 62.45 0 0 0-37.22 57.13z"  /><path fill="#333333" d="M169.18 723.06333333h687.69a63.57 63.57 0 0 0 63.5-63.5v-444.9a63.56 63.56 0 0 0-63.5-63.5H169.18a63.56 63.56 0 0 0-63.5 63.5v444.9a63.57 63.57 0 0 0 63.5 63.5zM513 164.67333333a18 18 0 1 1-18 18 18 18 0 0 1 18-18z m-344.34 50a0.5 0.5 0 0 1 0.5-0.5h687.71a0.5 0.5 0 0 1 0.5 0.5v444.9a0.5 0.5 0 0 1-0.5 0.5H169.18a0.5 0.5 0 0 1-0.5-0.5z"  /></svg>