<?xml version="1.0" standalone="no"?><!DOCTYPE svg PUBLIC "-//W3C//DTD SVG 1.1//EN" "http://www.w3.org/Graphics/SVG/1.1/DTD/svg11.dtd"><svg class="icon" width="200px" height="200.00px" viewBox="0 0 1024 1024" version="1.1" xmlns="http://www.w3.org/2000/svg"><path fill="#333333" d="M826.65 333.6h-60.49L574 175.2a66.42 66.42 0 1 0-123 0L258.76 333.6h-57.53a93.1 93.1 0 0 0-93 93v407a93.11 93.11 0 0 0 93 93h625.42a93.11 93.11 0 0 0 93-93v-407a93.1 93.1 0 0 0-93-93z m-326.9-118.28a66.28 66.28 0 0 0 25.42 0L668.68 333.6H356.24z m357.9 618.31a31 31 0 0 1-31 31H201.23a31 31 0 0 1-31-31v-407a31 31 0 0 1 31-31h625.42a31 31 0 0 1 31 31z"  /><path fill="#333333" d="M274.07 567.25h26a31 31 0 0 0 0-62h-26a31 31 0 1 0 0 62zM753.81 504.76H381.46a31 31 0 0 0 0 62h372.35a31 31 0 0 0 0-62zM753.81 693.46h-26a31 31 0 0 0 0 62h26a31 31 0 0 0 0-62zM646.41 693H274.07a31 31 0 1 0 0 62h372.34a31 31 0 0 0 0-62z"  /></svg>