<?xml version="1.0" standalone="no"?><!DOCTYPE svg PUBLIC "-//W3C//DTD SVG 1.1//EN" "http://www.w3.org/Graphics/SVG/1.1/DTD/svg11.dtd"><svg class="icon" width="200px" height="200.00px" viewBox="0 0 1024 1024" version="1.1" xmlns="http://www.w3.org/2000/svg"><path fill="#333333" d="M534.11 144.19a31 31 0 0 0-32.73 3.57L305.44 302.53h-167a31 31 0 0 0-31 31v402.64a31 31 0 0 0 31 31h167l195.94 154.77a31 31 0 0 0 50.21-24.33V172.09a31 31 0 0 0-17.48-27.9z m-44.52 689.43L335.42 711.85a31 31 0 0 0-19.22-6.68H169.45V364.53H316.2a31 31 0 0 0 19.22-6.68l154.17-121.77zM863.66 361.24a416 416 0 0 0-89.4-132.68 31 31 0 0 0-43.85 43.84 355.44 355.44 0 0 1 0 502.92 31 31 0 1 0 43.84 43.84 417.82 417.82 0 0 0 89.41-457.92z"  /><path fill="#333333" d="M710.65 422.82a251.83 251.83 0 0 0-57.08-81.64A31 31 0 1 0 610.73 386a190.73 190.73 0 0 1-7 282.12A31 31 0 0 0 644.3 715a252.92 252.92 0 0 0 66.35-292.16z"  /></svg>