<?xml version="1.0" standalone="no"?><!DOCTYPE svg PUBLIC "-//W3C//DTD SVG 1.1//EN" "http://www.w3.org/Graphics/SVG/1.1/DTD/svg11.dtd"><svg class="icon" width="200px" height="200.00px" viewBox="0 0 1024 1024" version="1.1" xmlns="http://www.w3.org/2000/svg"><path fill="#333333" d="M596.16142222 174.39857778l7.63448889-20.87822223-21.20817778 6.64462223-17.48764444-13.66471111-0.23893334 22.20942222-18.432 12.42453333 21.08302223 7.04284445 6.08711111 21.42435555 13.23235556-17.90862222 22.19804444 0.76231111-12.86826667-18.05653333zM190.41848889 439.42115555l-12.42453334-18.432-7.04284444 21.0944-21.34471111 6.07573334 17.82897778 13.26648889-0.76231111 22.23217777 18.06791111-12.93653333 20.92373333 7.63448889-6.70151111-21.20817778 13.66471111-17.48764444-22.20942222-0.23893334zM238.70577778 368.50346667l1.44497777-22.20942222 19.11466667-11.3208889-20.61653333-8.26026666-4.88106667-21.66328889-14.24497777 17.06666667-22.10702223-2.048 11.82151111 18.78471111-8.79502222 20.38897777 21.56088889-5.40444444 16.70257778 14.66595556zM814.26204445 659.99075555l-14.24497778 17.06666667-22.09564445-2.05937777 11.82151111 18.8416-8.8064 20.40035555 21.56088889-5.46133333L819.2 723.43324445l1.45635555-22.16391112 19.09191112-11.3664-20.60515556-8.23751111-4.88106666-21.67466667zM447.29457778 857.91857778l6.12124444 21.34471111 13.22097778-17.84035556 22.20942222 0.77368889-12.87964444-18.06791111 7.58897777-20.85546666-21.1968 6.64462222-17.5104-13.68746667-0.18204444 22.2208-18.42062222 12.42453333 21.04888889 7.04284445zM600.79217778 829.22382222l-14.17671111-17.08942222-4.96071112 21.65191111-20.59377777 8.24888889 19.05777777 11.35502222 1.41084445 22.18666667 16.74808889-14.63182222 21.53813333 5.44995555-8.76088889-20.3776 11.85564445-18.78471111-22.1184 1.99111111zM699.6992 806.37724445l9.37528889 20.10453333 10.29688889-19.6608 22.05013333-2.73066667-15.55342222-15.84924444 4.20977778-21.82257778-19.85422222 9.94417778-19.43324445-10.79751112 3.26542222 21.98186667-16.21333333 15.1552 21.85671111 3.67502223zM311.14808889 247.81937778l9.37528889 20.10453333 10.29688889-19.6608 22.016-2.73066666-15.55342222-15.84924445 4.25528888-21.8112-19.91111111 9.88728889-19.38773333-10.752 3.25404444 21.97048889-16.27022222 15.16657777 21.92497778 3.67502223zM441.29848889 167.75395555l-14.18808889-17.1008-4.9152 21.6632889-20.62791111 8.20337777 19.06915556 11.41191111 1.45635555 22.17528889 16.6912-14.63182222 21.53813333 5.46133333-8.76088888-20.42311111 11.86702222-18.80746667-22.12977778 2.048zM860.16 559.65013333l-12.42453333-18.42062222-7.04284445 21.03751111-21.34471111 6.13262223 17.84035556 13.22097777-0.77368889 22.20942223 18.06791111-12.87964445 20.86684444 7.5776-6.656-21.18542222 13.68746667-17.5104-22.2208-0.18204445z"  /><path fill="#333333" d="M932.46577778 468.1728l-24.8832 17.43075555 0.26168889 2.048A383.49937778 383.49937778 0 0 1 746.0864 852.19555555 383.49937778 383.49937778 0 0 1 348.16 876.91946667l-1.83182222-0.96711112-25.03111111 17.408 4.76728888 2.67377778a411.05635555 411.05635555 0 0 0 200.69262223 52.33777778q10.10346667 0 20.22968889-0.50062222a411.43182222 411.43182222 0 0 0 386.32106666-474.28266667zM95.86915555 567.97866667l25.09937778-17.408-0.27306666-2.05937778A383.95448889 383.95448889 0 0 1 680.20906667 159.28888889l1.83182222 0.95573333 25.03111111-17.45351111-4.75591111-2.6624a411.42044445 411.42044445 0 0 0-607.27751111 422.45688889z"  /><path fill="#333333" d="M254.70293333 468.54826667a257.72942222 257.72942222 0 0 1 106.62115556-174.3872 257.80906667 257.80906667 0 0 1 200.13511111-41.472l1.45635555 0.29582222 29.51395556-20.79857778-6.95182222-1.92284444A284.94506667 284.94506667 0 0 0 225.46204445 483.55555555l-0.53475556 7.19075556 29.58222222-20.75306666zM1013.12284445 305.81191111L876.57813333 111.50222222a46.36444445 46.36444445 0 0 0-64.44373333-11.22986667L26.28266667 653.30062222a46.22791111 46.22791111 0 0 0-11.19573334 64.44373333l136.71537778 194.2528a46.34168889 46.34168889 0 0 0 64.44373334 11.22986667l785.64693333-552.96a46.27342222 46.27342222 0 0 0 11.22986667-64.44373333zM986.45333333 347.97795555l-785.64693333 552.96a19.05777778 19.05777778 0 0 1-26.49884445-4.5511111L37.34186667 702.00888889a19.0464 19.0464 0 0 1 0-21.82257778 18.40924445 18.40924445 0 0 1 4.66488888-4.67626666l785.85173334-552.96a19.01226667 19.01226667 0 0 1 26.45333333 4.5511111L991.00444445 321.47911111a19.08053333 19.08053333 0 0 1-4.55111112 26.49884444zM769.13777778 548.15857778A257.06951111 257.06951111 0 0 1 462.35875555 764.01777778l-1.44497777-0.29582223-29.58222223 20.80995556 6.9632 1.91146667a284.93368889 284.93368889 0 0 0 360.02702223-253.30346667l0.53475555-7.20213333-29.58222222 20.75306667z"  /><path fill="#333333" d="M347.40906667 632.70684445l50.06222222-35.04355556-10.43342222-14.89351111-62.83946667 43.99786667-17.59004445-25.11075556 54.24924445-37.9904-10.42204445-14.89351111-54.24924444 37.9904-14.63182222-20.8896-15.55342222 10.87715555 14.63182222 20.90097778L227.55555555 634.88l10.43342223 14.89351111 53.12284444-37.19395556 17.57866667 25.09937778L245.76 681.65404445l10.43342222 14.8935111 50.06222223-35.04355555q4.35768889 42.78044445-17.93137778 88.12088889l19.00088888 8.16924444q21.48124445-53.41866667 11.09333334-104.78933333l0.64853333-0.45511111 50.80177778 72.55608889 15.55342222-10.88853333L334.60906667 641.70666667l0.64853333-0.45511112q41.09653333 24.576 100.54542222 26.38506667l1.13777778-21.51537777q-53.64622222 3.69777778-89.53173333-13.4144zM593.29422222 544.03982222a239.19502222 239.19502222 0 0 1-21.84533333 13.65333333L559.43395555 540.44444445l31.85777778-22.33457778-9.5232-13.65333334-31.91466666 22.34595556-10.38791112-14.80248889 38.87786667-27.21564445-9.64835555-13.74435555L475.59111111 536.20053333l9.63697778 13.76711112 39.51502222-27.67075556 29.58222222 42.26844444-1.79768888 0.53475556q-11.82151111 2.75342222-29.37742223-6.46257778a142.4384 142.4384 0 0 0-9.40942222-18.20444444l-14.79111111 7.90755555q16.65706667 27.92106667 14.47253333 62.03164445l18.42062223 1.82044444a127.43111111 127.43111111 0 0 0-2.77617778-35.03217778q14.63182222 6.40568889 26.27128888 4.76728889 15.63306667-2.49173333 48.41244445-24.96284444 10.58133333-6.92906667 17.39662222-11.69635556l-6.22364444-17.85173333a264.28302222 264.28302222 0 0 1-21.62915556 16.62293333zM470.57351111 562.15324445l7.96444444-14.79111112-10.91128888-15.68995555q-3.97084445 8.0896-7.8848 14.92764444l-18.81884445-26.88568889 15.06417778-10.5472-10.31964445-14.73422222-15.06417777 10.5472-20.48-29.30915556-15.55342223 10.87715556 20.48 29.32053334-18.29546666 12.81137777 10.31964444 14.79111111 18.29546667-12.81137778 23.36995555 33.35964445a249.86737778 249.86737778 0 0 1-16.25884444 20.55964445l14.60906667 12.93653333q8.6016-11.81013333 12.64071111-17.78346667l24.49635556 34.98666667q3.75466667 5.33617778-1.76355556 9.19324444a140.43591111 140.43591111 0 0 1-13.03893334 7.96444445l13.83537778 12.51555555 14.41564445-10.09208889q15.70133333-11.00231111 4.82417777-26.55573333zM553.08515555 469.37884445l-40.96-58.4704L439.27324445 461.93777778l40.96 58.4704z m-90.18026666-5.39306667l42.91697778-30.06008889 7.58897778 10.8544-42.91697778 30.04871111z m58.6752-7.54346667l7.71413333 11.01368889-42.91697777 30.04871111-7.71413334-11.01368889zM573.97475555 408.89457778l144.29297778-101.03466667-10.31964444-14.79111111-62.99875556 44.11164445A214.90346667 214.90346667 0 0 0 622.83093333 324.26666667l-15.13244444 14.93902222a146.77333333 146.77333333 0 0 1 20.25244444 9.95555556l-64.29582222 44.9991111zM711.86204445 425.52888889a187.99502222 187.99502222 0 0 0 1.0695111-56.02417778L694.26062222 373.19111111a148.98062222 148.98062222 0 0 1-1.67253333 51.38204444 142.91626667 142.91626667 0 0 1-49.152-14.34737777l-7.96444444 16.90737777a169.34684445 169.34684445 0 0 0 52.0192 15.70133334q-12.40177778 35.72622222-42.5984 70.144l19.34222222 7.68q30.8224-36.31786667 42.96248888-76.23111111 39.82222222 1.35395555 85.33333334-14.62044445l-0.53475556-21.10577778q-42.89422222 16.5888-80.13368888 16.82773334zM619.65653333 380.01777778a216.42808889 216.42808889 0 0 1-17.2032 70.21226667l19.11466667 5.92782222q14.79111111-37.41013333 16.1792-74.08071112zM670.74275555 359.24195555q45.31768889 3.01511111 74.59271112 11.7304889l3.41333333-19.27395556q-33.35964445-7.96444445-74.60408889-10.0352z"  /></svg>