<?xml version="1.0" standalone="no"?><!DOCTYPE svg PUBLIC "-//W3C//DTD SVG 1.1//EN" "http://www.w3.org/Graphics/SVG/1.1/DTD/svg11.dtd"><svg class="icon" width="200px" height="200.00px" viewBox="0 0 1024 1024" version="1.1" xmlns="http://www.w3.org/2000/svg"><path fill="#333333" d="M851.55 670.66v-97.89a98.15 98.15 0 0 0-98-98H543.64v-71.31c64.44-14.63 112.68-72.37 112.68-141.17 0-79.82-64.94-144.76-144.76-144.76S366.8 182.47 366.8 262.29c0 69.57 49.33 127.82 114.84 141.65v70.79H271.78a98.16 98.16 0 0 0-98 98v97.89a119.87 119.87 0 1 0 62 0v-97.85a36.09 36.09 0 0 1 36-36h209.86v133.52a119.87 119.87 0 1 0 62 0.76V536.73h209.87a36.08 36.08 0 0 1 36 36v97.89a119.87 119.87 0 1 0 62 0zM428.8 262.29a82.76 82.76 0 1 1 82.76 82.76 82.85 82.85 0 0 1-82.76-82.76zM262.6 786.46a57.87 57.87 0 1 1-64.07-57.53 31.36 31.36 0 0 0 12.41 0 57.93 57.93 0 0 1 51.66 57.53z m306.49 0a57.87 57.87 0 1 1-65-57.41 30.88 30.88 0 0 0 16.2 0.25 58 58 0 0 1 48.8 57.16z m251.46 57.86a57.86 57.86 0 0 1-6.2-115.39 31.36 31.36 0 0 0 12.41 0 57.86 57.86 0 0 1-6.21 115.39z" /></svg>