<?xml version="1.0" standalone="no"?><!DOCTYPE svg PUBLIC "-//W3C//DTD SVG 1.1//EN" "http://www.w3.org/Graphics/SVG/1.1/DTD/svg11.dtd"><svg class="icon" width="200px" height="200.00px" viewBox="0 0 1024 1024" version="1.1" xmlns="http://www.w3.org/2000/svg"><path fill="#333333" d="M886.78 636.07a31 31 0 0 0-31-31H674.52a64.12 64.12 0 0 0-64 64v180.69a31 31 0 0 0 62 0V710.91l160.72 160.77a31 31 0 1 0 43.84-43.84L716.32 667.07h139.46a31 31 0 0 0 31-31zM396.35 144.19a31 31 0 0 0-31 31v140.92L211.17 161.92a31 31 0 1 0-43.84 43.84L321.51 360h-140.3a31 31 0 1 0 0 62h182.1a64.12 64.12 0 0 0 64-64.05V175.19a31 31 0 0 0-30.96-31zM674.52 422h181.26a31 31 0 0 0 0-62H716.32l154.52-154.58A31 31 0 1 0 827 161.58L672.48 316.11V175.19a31 31 0 0 0-62 0V357.9a64.12 64.12 0 0 0 64.04 64.1zM363.31 605.07h-182.1a31 31 0 0 0 0 62h140.3L167.07 821.52a31 31 0 1 0 43.84 43.84l154.44-154.45v138.85a31 31 0 0 0 62 0V669.12a64.12 64.12 0 0 0-64.04-64.05z" /></svg>
