<?xml version="1.0" standalone="no"?><!DOCTYPE svg PUBLIC "-//W3C//DTD SVG 1.1//EN" "http://www.w3.org/Graphics/SVG/1.1/DTD/svg11.dtd"><svg class="icon" width="200px" height="200.00px" viewBox="0 0 1024 1024" version="1.1" xmlns="http://www.w3.org/2000/svg"><path fill="#333333" d="M810.44 397.5h-85.19v-77c0-118-96.67-216.27-216.27-216.27s-216.27 98.3-216.27 216.26v77h-72.09a89.85 89.85 0 0 0-90.11 90.11v344.07c-1.64 50.79 39.32 91.75 90.11 91.75h589.82a89.85 89.85 0 0 0 90.11-90.11V489.25c1.64-50.79-39.32-91.75-90.11-91.75z m-450.56-77c0-81.92 67.18-149.09 149.1-149.09s149.09 67.17 149.09 149.09v77H359.88z m473.5 512.82c0 13.11-9.83 22.94-22.94 22.94H220.62c-13.11 0-22.94-9.83-22.94-22.94V489.25c0-13.11 9.83-22.94 22.94-22.94h589.82c13.11 0 22.94 9.83 22.94 22.94z m-317.85-272c-18 0-34.41 14.74-34.41 34.4v144.2c0 18 14.75 34.41 34.41 34.41s34.41-14.75 34.41-34.41V595.74c0-19.66-16.39-34.4-34.41-34.4z m0 0" /></svg>