<?xml version="1.0" standalone="no"?><!DOCTYPE svg PUBLIC "-//W3C//DTD SVG 1.1//EN" "http://www.w3.org/Graphics/SVG/1.1/DTD/svg11.dtd"><svg class="icon" width="200px" height="200.00px" viewBox="0 0 1024 1024" version="1.1" xmlns="http://www.w3.org/2000/svg"><path fill="#333333" d="M814.08 395h-86.27v-77.32c0-120.54-98.51-219.06-219-219.06S289.7 197.14 289.7 317.68V395H217c-50.5 0-91.89 41.4-91.89 91.9v347.71c0 50.49 41.39 91.89 91.89 91.89h597.08c50.5 0 91.89-41.4 91.89-91.89V486.9c0-50.5-41.39-91.9-91.89-91.9z m-455.5 0v-77.32c0-82.79 67.39-150.18 150.18-150.18s150.17 67.39 150.17 150.18V395z m0 0" /></svg>