<?xml version="1.0" standalone="no"?><!DOCTYPE svg PUBLIC "-//W3C//DTD SVG 1.1//EN" "http://www.w3.org/Graphics/SVG/1.1/DTD/svg11.dtd"><svg class="icon" width="200px" height="200.00px" viewBox="0 0 1024 1024" version="1.1" xmlns="http://www.w3.org/2000/svg"><path fill="#333333" d="M768.17 924.22c-113.15 20-299.5-69.88-455.9-231.28C177.5 554.84 92.64 391.79 96 277c1.66-43.26 16.64-76.53 41.6-99.83l20-18.3c41.59-38.27 74.87-61.56 123.12-61.56 44.92 0 88.18 24.95 126.45 73.21 76.54 98.16 76.54 164.72 1.67 232.93-1.67 1.67-5 5-8.32 6.66 8.32 16.64 33.27 54.91 93.17 114.81 63.23 64.88 103.16 91.51 118.13 98.16 5-3.33 8.32-8.32 11.65-10 10-8.32 16.64-15 25-20 79.86-54.9 154.74-8.32 209.64 38.27 54.91 44.93 78.2 94.84 66.56 144.76-8.32 38.27-33.28 66.55-68.22 96.5L853 876c-6.65 5-18.3 15-21.63 18.3-16.63 15-38.27 25-63.22 30zM270.68 167.17c-16.64 1.66-33.28 11.65-64.89 41.6l-21.63 20c-11.65 10-18.31 28.29-18.31 51.58-3.32 76.54 56.58 223 196.34 364.38C543.55 829.38 736.56 886 786.47 842.69c3.33-3.33 16.64-15 23.29-20l3.33-3.33c28.29-25 41.6-41.6 44.92-58.24 1.67-8.32 8.32-34.94-43.25-76.53-74.88-61.57-103.16-49.92-126.46-33.28-5 3.33-10 8.32-18.3 15-3.33 3.33-11.65 11.65-16.64 15l-3.36 3.32c-15 13.31-51.57 46.58-204.65-111.48-53.24-54.91-118.13-129.78-116.47-173 0-13.31 5-23.3 15-31.62l5-5c5-5 11.64-10 15-13.31 34.94-31.61 54.91-56.57-10-138.1-25-31.61-48.25-46.58-71.55-46.58-5 0-8.32 0-11.64 1.66z m0 0" /></svg>