<?xml version="1.0" standalone="no"?><!DOCTYPE svg PUBLIC "-//W3C//DTD SVG 1.1//EN" "http://www.w3.org/Graphics/SVG/1.1/DTD/svg11.dtd"><svg class="icon" width="200px" height="200.00px" viewBox="0 0 1024 1024" version="1.1" xmlns="http://www.w3.org/2000/svg"><path fill="#333333" d="M876.07 633.85a381.52 381.52 0 0 1-92.94 150c-149.94 149.94-393.92 149.94-543.87 0a384.85 384.85 0 0 1 155.56-638.67v-16.32a123.39 123.39 0 0 1 10.87-50.77 446.24 446.24 0 0 0-210.14 749.44A446.26 446.26 0 0 0 943.4 623.77a123.64 123.64 0 0 1-49.09 10.08z"  /><path fill="#333333" d="M518.82 571.85h375.49a62.09 62.09 0 0 0 62-62.55A445 445 0 0 0 520 66.87h-1.23a62 62 0 0 0-62 62v381a62 62 0 0 0 62.05 61.98zM782.16 241a381.48 381.48 0 0 1 112.16 268.64 1 1 0 0 1 0 0.15v0.06h-375.5v-381A381.16 381.16 0 0 1 782.16 241z"  /></svg>