<?xml version="1.0" standalone="no"?><!DOCTYPE svg PUBLIC "-//W3C//DTD SVG 1.1//EN" "http://www.w3.org/Graphics/SVG/1.1/DTD/svg11.dtd"><svg class="icon" width="200px" height="200.00px" viewBox="0 0 1024 1024" version="1.1" xmlns="http://www.w3.org/2000/svg"><path fill="#333333" d="M513.55 956.14c244.9 0 443.65-198.54 443.65-443.14S758.45 69.79 513.55 69.79 69.9 268.33 69.9 513s198.75 443.14 443.65 443.14z m0-817.22C719.41 138.92 888 305.56 888 513c0 205.63-166.81 374-374.44 374-205.86 0-374.45-168.4-374.45-374S307.7 138.92 513.55 138.92zM254.46 573.24l147.29 147.13A36.37 36.37 0 0 0 453.21 669L336.09 550.19H762c21.29 0 37.26-16 37.26-37.22s-16-37.23-37.26-37.23H336.09l120.67-120.55a36.37 36.37 0 0 0-51.46-51.4L258 450.92c-19.52 17.73-28.4 40.77-28.4 62.05s8.88 44.31 24.85 60.27z m0 0" /></svg>