<?xml version="1.0" standalone="no"?><!DOCTYPE svg PUBLIC "-//W3C//DTD SVG 1.1//EN" "http://www.w3.org/Graphics/SVG/1.1/DTD/svg11.dtd"><svg class="icon" width="200px" height="200.00px" viewBox="0 0 1024 1024" version="1.1" xmlns="http://www.w3.org/2000/svg"><path fill="#333333" d="M421 567.18h182c16.55 0 28.13-13.25 28.13-29.79a29.67 29.67 0 0 0-29.79-29.79h-182c-16.55 0-28.14 13.24-28.14 29.79a29.68 29.68 0 0 0 29.8 29.79zM839.63 98.85H184.31c-48 0-86.06 48-86.06 105.91v307.81c0 57.92 38.07 105.9 86.06 105.9h96v200.24c0 28.14 11.58 54.61 31.44 76.13a106.24 106.24 0 0 0 76.12 31.44h249.87c57.92 0 105.91-48 105.91-105.91v-201.9h96c48 0 86.06-48 86.06-105.9V204.76c0-57.92-38.07-105.91-86.06-105.91z m-155.56 289.6v431.92c0 11.58-5 24.82-13.23 33.09s-21.52 13.25-33.1 13.25H386.2c-13.24 0-24.82-5-33.1-13.25s-13.23-21.46-13.23-33.09V388.45z m59.58 0h36.41a29.79 29.79 0 1 0 0-59.58H243.88a29.79 29.79 0 0 0 0 59.58h36.41V558.9h-96c-11.59 0-26.48-18.2-26.48-46.33V204.76c0-29.79 14.89-46.34 26.48-46.34h655.34c11.59 0 26.48 18.21 26.48 46.34v307.81c0 29.78-14.89 46.33-26.48 46.33h-96zM421 747.56h182c16.55 0 28.13-13.24 28.13-29.79a29.67 29.67 0 0 0-29.8-29.77h-182a29.67 29.67 0 0 0-29.79 29.79c1.65 16.55 14.9 29.79 31.44 29.79z m0 0" /></svg>