<?xml version="1.0" standalone="no"?><!DOCTYPE svg PUBLIC "-//W3C//DTD SVG 1.1//EN" "http://www.w3.org/Graphics/SVG/1.1/DTD/svg11.dtd"><svg class="icon" width="200px" height="200.00px" viewBox="0 0 1024 1024" version="1.1" xmlns="http://www.w3.org/2000/svg"><path fill="#333333" d="M511.68 64.89C292.66 64.89 114.59 243 114.59 462c0 190.54 131.77 350.8 315.18 388.2 0 7.12 1.78 17.8 1.78 23.14 1.78 33.84 5.34 81.91 46.3 81.91 26.71 0 46.3-26.7 74.79-65.88 8.9-12.47 21.37-30.27 28.49-37.4C769.88 818.12 907 654.3 907 462c1.78-219-176.29-397.11-395.32-397.11z m53.42 723c-21.36 3.56-35.61 23.15-64.1 62.33-1.78 1.77-1.78 3.56-3.56 3.56-3.56-32.06-8.91-62.33-39.18-65.89C298 761.14 180.47 624 180.47 462c0-183.41 149.58-331.21 331.21-331.21S842.89 278.57 842.89 462c0 162-117.52 299.16-277.79 325.87z m-65.88-192.36c-23.15 0-42.74 19.59-42.74 42.74S476.07 681 499.22 681 542 661.42 542 638.27s-17.8-42.74-42.73-42.74z m69.45-313.39a153.55 153.55 0 0 0-64.11-14.25q-40.06 0-69.45 16c-19.58 10.69-35.61 24.93-44.51 42.74-10.69 16-16 33.83-16 49.86a32.87 32.87 0 0 0 8.9 21.37c7.13 7.12 14.25 10.68 23.15 10.68 16 0 26.71-8.9 32.05-28.49s14.25-32.05 23.15-42.73c8.91-8.91 23.15-14.25 41-14.25A58.61 58.61 0 0 1 542 337.34c10.69 8.9 14.25 21.36 14.25 35.61 0 7.12-1.78 14.24-5.35 19.59s-7.11 10.68-12.46 16-12.51 12.46-23.2 21.39c-12.46 10.69-21.36 21.37-28.49 28.49A153.8 153.8 0 0 0 469 486.91c-3.56 10.69-7.13 23.15-7.13 37.4 0 12.46 3.57 19.59 8.91 26.71a32.84 32.84 0 0 0 21.36 8.9c16 0 26.72-8.9 30.28-26.71 1.78-8.9 3.56-14.24 3.56-17.81 1.78-3.56 1.78-7.12 3.56-10.68s3.56-7.12 7.12-10.68l14.24-14.25c21.38-19.59 35.62-32.05 42.74-41S607.84 421 615 410.34c5.34-10.68 8.91-23.15 8.91-39.17 0-19.59-5.35-35.62-16-51.64-7.13-14.25-21.37-26.71-39.17-37.39z m0 0" /></svg>