<?xml version="1.0" standalone="no"?><!DOCTYPE svg PUBLIC "-//W3C//DTD SVG 1.1//EN" "http://www.w3.org/Graphics/SVG/1.1/DTD/svg11.dtd"><svg class="icon" width="200px" height="200.00px" viewBox="0 0 1024 1024" version="1.1" xmlns="http://www.w3.org/2000/svg"><path fill="#333333" d="M514.36 67.44c-246 0-445.66 199.43-445.66 445.17s199.65 445.17 445.66 445.17S960 758.35 960 512.61 760.36 67.44 514.36 67.44z m0 819.12C307.57 886.56 140 719.17 140 512.61s167.56-374 374.35-374 374.34 167.39 374.34 374-167.55 373.95-374.33 373.95z"  /><path fill="#333333" d="M514.36 298.93c-118.15 0-213.92 95.67-213.92 213.68s95.77 213.68 213.92 213.68 213.91-95.67 213.91-213.68-95.77-213.68-213.91-213.68z"  /></svg>