<?xml version="1.0" standalone="no"?><!DOCTYPE svg PUBLIC "-//W3C//DTD SVG 1.1//EN" "http://www.w3.org/Graphics/SVG/1.1/DTD/svg11.dtd"><svg class="icon" width="200px" height="200.00px" viewBox="0 0 1024 1024" version="1.1" xmlns="http://www.w3.org/2000/svg"><path fill="#333333" d="M195.15 605a292.4 292.4 0 0 1-9.83-75.54c0-70.94 26.38-137.78 70.62-189.72a132.57 132.57 0 1 0-44.89-99.29 129.48 129.48 0 0 0 2.95 27.67c-67.34 68.32-108.3 161.71-108.3 261.32a372.74 372.74 0 0 0 12.61 96.18 39.69 39.69 0 0 0 38.5 29.49 44.51 44.51 0 0 0 10.33-1.31 39.82 39.82 0 0 0 28-48.82z m455.48 159.39a289.3 289.3 0 0 1-173.34 57 256.48 256.48 0 0 1-27.53-1.48A132.76 132.76 0 1 0 396.68 892a375.44 375.44 0 0 0 80.44 8.85c80.12 0 156.47-25.07 220.69-72.74a39.65 39.65 0 1 0-47.18-63.74z m194.64-283.61c-19.33-144.5-123-267.87-265.75-308.67a39.78 39.78 0 1 0-21.79 76.51c106 30.31 184.65 118.62 205.78 224.3a132.75 132.75 0 1 0 81.76 7.86z m0 0" /></svg>