<?xml version="1.0" standalone="no"?><!DOCTYPE svg PUBLIC "-//W3C//DTD SVG 1.1//EN" "http://www.w3.org/Graphics/SVG/1.1/DTD/svg11.dtd"><svg class="icon" width="200px" height="200.00px" viewBox="0 0 1024 1024" version="1.1" xmlns="http://www.w3.org/2000/svg"><path fill="#333333" d="M420.57 124.14h-231a62 62 0 0 0-62 62v230.74a62 62 0 0 0 62 62h231a62 62 0 0 0 62-62V186.14a62 62 0 0 0-62-62z m0 292.74h-231V186.14h231zM420.57 547.41h-231a62 62 0 0 0-62 62v230.73a62 62 0 0 0 62 62h231a62 62 0 0 0 62-62V609.41a62 62 0 0 0-62-62z m0 292.73h-231V609.41h231zM894.31 679.78V548.55h-62v131.23a2.29 2.29 0 0 1-2.3 2.27h-74.14v-36.49h0.24v-32.45a64.36 64.36 0 0 0-64.3-64.28h-85.55A64.36 64.36 0 0 0 542 613.11v289h62v-289a2.3 2.3 0 0 1 2.3-2.28h85.55a2.29 2.29 0 0 1 2.3 2.28v32.32h-0.24v98.62H830a64.36 64.36 0 0 0 64.31-64.27zM602.08 478.88h231a62 62 0 0 0 62-62V186.14a62 62 0 0 0-62-62h-231a62 62 0 0 0-62 62v230.74a62 62 0 0 0 62 62z m0-292.74h231v230.74h-231z"  /><path fill="#333333" d="M271.77 268.24m2 0l62.6 0q2 0 2 2l0 62.55q0 2-2 2l-62.6 0q-2 0-2-2l0-62.55q0-2 2-2Z"  /><path fill="#333333" d="M271.77 691.5m2 0l62.6 0q2 0 2 2l0 62.55q0 2-2 2l-62.6 0q-2 0-2-2l0-62.55q0-2 2-2Z"  /><path fill="#333333" d="M684.28 268.24m2 0l62.6 0q2 0 2 2l0 62.55q0 2-2 2l-62.6 0q-2 0-2-2l0-62.55q0-2 2-2Z"  /><path fill="#333333" d="M692.61 837h64.52v64.47h-64.52zM831.05 837h64.52v64.47h-64.52z"  /></svg>