<?xml version="1.0" standalone="no"?><!DOCTYPE svg PUBLIC "-//W3C//DTD SVG 1.1//EN" "http://www.w3.org/Graphics/SVG/1.1/DTD/svg11.dtd"><svg class="icon" width="200px" height="200.00px" viewBox="0 0 1024 1024" version="1.1" xmlns="http://www.w3.org/2000/svg"><path fill="#333333" d="M924.59 398a63.39 63.39 0 0 0-24.06-50.16L568 85.51a88.84 88.84 0 0 0-110.39 0L125 347.87A63.39 63.39 0 0 0 100.93 398c0 0.93 0 1.85 0.08 2.77h-0.08v459.44a93.24 93.24 0 0 0 14.75 50.4c1.08 1.69 2.2 3.33 3.38 4.93a93.05 93.05 0 0 0 75.33 38.14h636.73a93.47 93.47 0 0 0 76.26-39.42c0.57-0.8 1.12-1.61 1.67-2.43l0.07-0.12a93.05 93.05 0 0 0 15.47-51.5V400.8h-0.08c0.04-0.92 0.08-1.8 0.08-2.8zM665.88 633.29l196.71-155.18v352.08zM163.39 396.55L496 134.19a26.71 26.71 0 0 1 33.59 0l332.54 262.36a2.61 2.61 0 0 1 0 3L529.56 661.86a26.7 26.7 0 0 1-33.6 0L163.39 399.51a2.61 2.61 0 0 1 0-3zM162.93 829V478.12L359.3 633z m31.46 62.7c-0.6 0-1.21 0-1.81-0.06h-0.53l-1.32-0.12-0.53-0.06c-0.59-0.08-1.17-0.17-1.75-0.28L408.32 671.7l49.24 38.84a88.84 88.84 0 0 0 110.4 0L616.87 672 836 891.29l-0.36 0.06c-0.52 0.07-1 0.13-1.55 0.18l-0.7 0.06c-0.74 0-1.49 0.09-2.25 0.09z" /></svg>