<?xml version="1.0" standalone="no"?><!DOCTYPE svg PUBLIC "-//W3C//DTD SVG 1.1//EN" "http://www.w3.org/Graphics/SVG/1.1/DTD/svg11.dtd"><svg class="icon" width="200px" height="200.00px" viewBox="0 0 1024 1024" version="1.1" xmlns="http://www.w3.org/2000/svg"><path fill="#333333" d="M513.78 72C270.66 72 70.12 272.27 70.12 515.13S270.66 958.3 513.78 958.3 957.43 758 957.43 515.13 758.67 72 513.78 72z m0 820.76c-207.63 0-376.22-168.4-376.22-377.58s168.59-375.87 376.22-375.87 378 168.41 378 375.82-168.59 377.58-378 377.58z m232.47-411.32H281.3c-17.74 0-33.72 16-33.72 33.69s16 33.68 33.72 33.68H748c17.75 0 33.73-16 33.73-33.68s-17.75-33.69-35.5-33.69z m0 0" /></svg>