<?xml version="1.0" standalone="no"?><!DOCTYPE svg PUBLIC "-//W3C//DTD SVG 1.1//EN" "http://www.w3.org/Graphics/SVG/1.1/DTD/svg11.dtd"><svg t="1642813204345" class="icon" viewBox="0 0 1024 1024" version="1.1" xmlns="http://www.w3.org/2000/svg" p-id="12573" xmlns:xlink="http://www.w3.org/1999/xlink" width="16" height="16"><defs><style type="text/css"></style></defs><path d="M512.5 64.83c-247.48 0-448 200.52-448 448s200.53 448 448 448 448-200.53 448-448-200.5-448-448-448z m1.8 228.86c-122.12 0-221.47 98.3-221.47 219.12s98.87 219.13 220.4 219.13c105.18 0 196.59-74.87 217.35-178A26.06 26.06 0 0 1 778 545a25.41 25.41 0 0 1 3.68 19.17c-24.08 128.12-136.5 221.1-267.36 221.1-151 0-273.92-122.19-273.92-272.39s122.87-272.39 273.9-272.39c134.88 0 248.68 95.77 270.59 227.72v0.27a29.87 29.87 0 0 1-11 27.5l-0.58 0.43c-11.71 8.32-26.09 12.32-94.23-17.46a25.73 25.73 0 0 1-13.68-14.47 26.6 26.6 0 0 1 0.48-20.27c5.76-12.89 21.71-18.9 34.83-13.14 6.49 2.94 14.12 6.08 21.47 8.87-30.95-88.06-112.82-146.25-207.88-146.25z" p-id="12574"></path></svg>