<?xml version="1.0" standalone="no"?><!DOCTYPE svg PUBLIC "-//W3C//DTD SVG 1.1//EN" "http://www.w3.org/Graphics/SVG/1.1/DTD/svg11.dtd"><svg class="icon" width="200px" height="200.00px" viewBox="0 0 1024 1024" version="1.1" xmlns="http://www.w3.org/2000/svg"><path fill="#333333" d="M515.19 955.82c-246.41 0-446.4-198.54-446.4-443.17s200-443.18 446.4-443.18c219.63 0 405.33 156 441 370.49 1.79 14.18-3.57 26.59-14.28 35.46-12.5 8.86-28.57 21.27-146.42-30.14-16.07-7.09-23.21-26.59-16.07-42.54s26.78-23.05 42.85-16c19.64 8.86 42.86 17.73 58.93 23.05-46.43-163.09-194.63-274.77-366-274.77-210.7 0-382.12 168.41-382.12 377.59s171.41 377.62 380.33 377.62c182.13 0 339.26-129.41 375-306.68 3.57-17.72 21.43-28.36 37.5-24.82 17.85 3.55 28.57 21.28 25 37.23-39.29 209.18-223.2 359.86-435.69 359.86z m0 0" /></svg>