<?xml version="1.0" standalone="no"?><!DOCTYPE svg PUBLIC "-//W3C//DTD SVG 1.1//EN" "http://www.w3.org/Graphics/SVG/1.1/DTD/svg11.dtd"><svg class="icon" width="200px" height="200.00px" viewBox="0 0 1024 1024" version="1.1" xmlns="http://www.w3.org/2000/svg"><path fill="#333333" d="M792.31 122H231A134 134 0 0 0 96.46 256.51v398.58A134 134 0 0 0 231 789.61h28.23v48.17c0 24.91 11.63 46.5 31.56 56.46 8.3 5 18.27 6.64 28.23 6.64a75.75 75.75 0 0 0 36.54-10l176-103H794a134 134 0 0 0 134.5-134.45V254.85A136.14 136.14 0 0 0 792.31 122z m69.76 533.1c0 38.2-31.56 69.75-69.76 69.75H516.63c-3.32 0-5 0-8.3 1.67L324 834.45v-93a16.64 16.64 0 0 0-16.6-16.61H231c-38.2 0-69.75-31.55-69.75-69.75V256.51c0-38.2 31.55-69.75 69.75-69.75h561.31c38.2 0 69.76 31.55 69.76 69.75z m-592.89-191a48.16 48.16 0 1 0 24.08-41.71 48.18 48.18 0 0 0-24.08 41.71z m194.31 0a48.16 48.16 0 1 0 24.08-41.71 48.16 48.16 0 0 0-24.08 41.71z m192.64 0a48.17 48.17 0 1 0 24.09-41.71 48.17 48.17 0 0 0-24.09 41.71z m0 0" /></svg>