<?xml version="1.0" standalone="no"?><!DOCTYPE svg PUBLIC "-//W3C//DTD SVG 1.1//EN" "http://www.w3.org/Graphics/SVG/1.1/DTD/svg11.dtd"><svg class="icon" width="200px" height="200.00px" viewBox="0 0 1024 1024" version="1.1" xmlns="http://www.w3.org/2000/svg"><path fill="#333333" d="M884.82 147.91H143.61a39.08 39.08 0 0 0-39 39v156h819.2v-156a39.09 39.09 0 0 0-39-39zM317.28 404.65H143.61a39.08 39.08 0 0 0-39 39v117a39.08 39.08 0 0 0 39 39h173.67a39.09 39.09 0 0 0 39-39v-117a39.09 39.09 0 0 0-39-39z m284.1 0H427.71a39.09 39.09 0 0 0-39 39v117a39.09 39.09 0 0 0 39 39h173.67a39.08 39.08 0 0 0 39-39v-117a39.08 39.08 0 0 0-39-39z m283.44 0H711.15a39.08 39.08 0 0 0-39 39v117a39.08 39.08 0 0 0 39 39h173.67a39.09 39.09 0 0 0 39-39v-117a39.09 39.09 0 0 0-39-39zM317.28 661.38H143.61a39.09 39.09 0 0 0-39 39v117a39.09 39.09 0 0 0 39 39h173.67a39.1 39.1 0 0 0 39-39v-117a39.09 39.09 0 0 0-39-39z m284.1 0H427.71a39.1 39.1 0 0 0-39 39v117a39.1 39.1 0 0 0 39 39h173.67a39.09 39.09 0 0 0 39-39v-117a39.09 39.09 0 0 0-39-39z m283.44 0H711.15a39.09 39.09 0 0 0-39 39v117a39.09 39.09 0 0 0 39 39h173.67a39.1 39.1 0 0 0 39-39v-117a39.1 39.1 0 0 0-39-39z m0 0" /></svg>