<?xml version="1.0" standalone="no"?><!DOCTYPE svg PUBLIC "-//W3C//DTD SVG 1.1//EN" "http://www.w3.org/Graphics/SVG/1.1/DTD/svg11.dtd"><svg class="icon" width="200px" height="200.00px" viewBox="0 0 1024 1024" version="1.1" xmlns="http://www.w3.org/2000/svg"><path fill="#333333" d="M912.28 746.07h-44V447.83l40.68-42.1a22 22 0 1 0-31.64-30.57l-44.14 45.67H551.65v-35.39a22 22 0 0 0-22-22H421.18a22 22 0 0 0-22 22v35.4h-44.06a22 22 0 0 0-22 22v92.59a22 22 0 0 0 22 22h44.06V870L375 895a22 22 0 0 0 31.64 30.58l26.07-27h298.93v35.4a22 22 0 0 0 22 22h92.58a22 22 0 0 0 22-22v-35.4h44.06a22 22 0 0 0 22-22V768.07a22 22 0 0 0-22-22z m-88 0h-48.63V543.65l48.58-50.28zM551.65 557.42h149.5l-149.5 154.73z m180 31.77v156.88H580.06z m59-124.36l-47 48.59h-192v-48.59z m-413.5 48.6v-48.59h22.06v48.59z m66.06-106h64.47v350.26l-64.47 66.72z m381 504.5h-48.57v-13.4h48.58z m66.06-57.4h-415l62.29-64.47h352.72z"  /><path fill="#333333" d="M316.45 892.22H165.11a3.41 3.41 0 0 1-0.11-0.89V368.68h169.65c34.09 0 61.82-28.21 61.82-62.89V129.15h305.32a3.07 3.07 0 0 1 0.11 0.89v192.32h62V130c0-34.68-27.13-62.89-60.48-62.89H366.5a30.93 30.93 0 0 0-7.5 0.64 59.73 59.73 0 0 0-17.22 5.37 60.41 60.41 0 0 0-17 12.49l-0.71 0.75-204.18 220.91c-0.19 0.2-0.42 0.47-0.7 0.78-0.78 0.87-1.52 1.76-2.24 2.67l-5.24 5.41a31 31 0 0 0-8.23 27 67.18 67.18 0 0 0-0.48 7.79v540.41c0 34.68 27.14 62.89 60.49 62.89h169.85a81.81 81.81 0 0 1-16.89-62z m18-586.43a1.61 1.61 0 0 1-0.22 0.89H207.07l127.4-131.84z"  /></svg>