<?xml version="1.0" standalone="no"?><!DOCTYPE svg PUBLIC "-//W3C//DTD SVG 1.1//EN" "http://www.w3.org/Graphics/SVG/1.1/DTD/svg11.dtd"><svg class="icon" width="200px" height="200.00px" viewBox="0 0 1024 1024" version="1.1" xmlns="http://www.w3.org/2000/svg"><path fill="#333333" d="M740 331.64a22.83 22.83 0 0 0 8.35 31.13l114.85 66.35a38 38 0 0 0 57-33.09V268.56a22.78 22.78 0 0 0-45.55 0V320C804.07 189.26 666 104.88 514.4 104.88c-225.77 0-409.6 183.83-409.6 409.61s183.83 409.59 409.6 409.59c185.47 0 348.16-125 395.84-303.92a30.37 30.37 0 0 0-58.66-15.73C811 756.8 672.34 863.3 514.4 863.3c-192.35 0-349-156.47-349-349s156.47-349 349-349c131.07 0 250.18 74.06 309.66 188.26l-52.92-30.48a23.18 23.18 0 0 0-31.14 8.56z m0 0" /></svg>