<?xml version="1.0" standalone="no"?><!DOCTYPE svg PUBLIC "-//W3C//DTD SVG 1.1//EN" "http://www.w3.org/Graphics/SVG/1.1/DTD/svg11.dtd"><svg t="1642813436099" class="icon" viewBox="0 0 1024 1024" version="1.1" xmlns="http://www.w3.org/2000/svg" p-id="14462" xmlns:xlink="http://www.w3.org/1999/xlink" width="16" height="16"><defs><style type="text/css"></style></defs><path d="M512.83 65.83c-247.3 0-448 200.7-448 448s200.71 448 448 448 448-200.7 448-448-200.7-448-448-448z m213.25 347.65L473.4 666.13c-5.38 5.38-14.32 9-23.29 9s-16.13-1.79-23.29-9L299.58 538.94c-12.54-14.33-12.54-35.84 0-48.38 14.34-12.55 35.84-12.55 48.38 0l102.15 102.12 229.41-229.37c0.45-0.44 0.9-0.86 1.37-1.27a32 32 0 0 1 45.19 3c12.54 14.39 12.54 35.89 0 48.44z" p-id="14463"></path></svg>