<?xml version="1.0" standalone="no"?><!DOCTYPE svg PUBLIC "-//W3C//DTD SVG 1.1//EN" "http://www.w3.org/Graphics/SVG/1.1/DTD/svg11.dtd"><svg class="icon" width="200px" height="200.00px" viewBox="0 0 1024 1024" version="1.1" xmlns="http://www.w3.org/2000/svg"><path fill="#333333" d="M513.8 70.06c-245.1 0-444 198.91-444 444s198.91 444 444 444 444-198.91 444-444-198.91-444-444-444z m0 825.84a381.84 381.84 0 1 1 381.83-381.83A381.25 381.25 0 0 1 513.8 895.9zM679 364.88L451.64 592.21 350.4 491c-12.43-12.44-33.74-12.44-47.95 0-12.43 12.43-12.43 33.74 0 47.95L428.55 665c7.1 7.11 14.2 8.88 23.09 8.88s17.75-3.55 23.08-8.88l250.42-250.39c12.43-12.44 12.43-33.75 0-48a31.74 31.74 0 0 0-46.14-1.73z m0 0" /></svg>