<?xml version="1.0" standalone="no"?><!DOCTYPE svg PUBLIC "-//W3C//DTD SVG 1.1//EN" "http://www.w3.org/Graphics/SVG/1.1/DTD/svg11.dtd"><svg class="icon" width="200px" height="200.00px" viewBox="0 0 1024 1024" version="1.1" xmlns="http://www.w3.org/2000/svg"><path fill="#333333" d="M791.28 97.61h-570a62 62 0 0 0-62 62v706a62 62 0 0 0 62 62h570a62 62 0 0 0 62-62v-706a62 62 0 0 0-62-62z m0 768h-570v-706h570z"  /><path fill="#333333" d="M475.87 320.41H684.7a31 31 0 0 0 0-62H475.87a31 31 0 0 0 0 62zM475.87 476.47H684.7a31 31 0 0 0 0-62H475.87a31 31 0 0 0 0 62zM388.93 798.57l0.11 0.12c0.29 0.33 0.59 0.65 0.9 1l0.34 0.36 0.73 0.71 0.56 0.52 0.52 0.45c0.26 0.23 0.53 0.46 0.8 0.67l0.07 0.07 0.1 0.07a30.88 30.88 0 0 0 4.23 2.83l0.34 0.18c0.7 0.38 1.4 0.73 2.12 1.05l0.25 0.1c0.62 0.27 1.24 0.52 1.87 0.74l0.62 0.22c0.66 0.22 1.32 0.42 2 0.59l0.69 0.17c0.53 0.12 1.07 0.23 1.61 0.33l0.63 0.12c0.68 0.11 1.37 0.19 2 0.25l0.67 0.06c0.69 0 1.37 0.08 2.06 0.08h2.09c0.42 0 0.84-0.06 1.25-0.11h0.36c0.47-0.06 0.93-0.12 1.4-0.2h0.15a30.83 30.83 0 0 0 3.27-0.73h0.06c0.5-0.14 1-0.29 1.48-0.45l0.22-0.08c0.45-0.16 0.9-0.32 1.34-0.5l0.23-0.19a32.09 32.09 0 0 0 2.91-1.37l0.54-0.3 0.79-0.46c0.23-0.13 0.46-0.28 0.68-0.42l0.6-0.39 0.76-0.52 0.44-0.33a32.58 32.58 0 0 0 2.67-2.21l0.53-0.5 0.5-0.51c0.26-0.26 0.51-0.52 0.76-0.79l0.32-0.36c0.31-0.35 0.61-0.7 0.9-1.06l0.11-0.13 159.17-198.92A31 31 0 0 0 547.27 560L411.35 729.85l-54.09-62.24a31 31 0 0 0-46.79 40.67z"  /></svg>