<?xml version="1.0" standalone="no"?><!DOCTYPE svg PUBLIC "-//W3C//DTD SVG 1.1//EN" "http://www.w3.org/Graphics/SVG/1.1/DTD/svg11.dtd"><svg class="icon" width="200px" height="200.00px" viewBox="0 0 1024 1024" version="1.1" xmlns="http://www.w3.org/2000/svg"><path fill="#333333" d="M827.45 216.11l-298-120.65a34.91 34.91 0 0 0-33.59 0l-298 120.65a63.68 63.68 0 0 0-42.46 60.06v306.9a236.14 236.14 0 0 0 129.38 210.69l205.05 133.86a33.67 33.67 0 0 0 22.49 8.7l11.68-0.1 0.33-1.9a33.42 33.42 0 0 0 11.19-6.75L740.57 793.7a236.13 236.13 0 0 0 129.35-210.63V276.19a63.67 63.67 0 0 0-42.47-60.08z m-24.15 367c0.24 64-36.77 123.62-94.33 151.92a28.32 28.32 0 0 0-3.28 1.92L512.66 863 319.72 737a34 34 0 0 0-3.58-2.09c-57.43-28.23-94.4-87.84-94.16-151.88V278.21h0.06l290.62-117.73 290.63 117.68z"  /><path fill="#333333" d="M613 481.65A128.62 128.62 0 0 0 512.23 273c-71 0-128.74 57.75-128.74 128.73a128.77 128.77 0 0 0 97.18 124.82v167.63a33.29 33.29 0 1 0 66.57 0v-98.66h33.2a33.29 33.29 0 0 0 0-66.58h-33.2v-3.37A129.54 129.54 0 0 0 613 481.65z m-77-22.5a62.87 62.87 0 0 1-14.85 4.08 33.06 33.06 0 0 0-15.57 0.28 62.12 62.12 0 1 1 30.42-4.36z"  /></svg>