<?xml version="1.0" standalone="no"?><!DOCTYPE svg PUBLIC "-//W3C//DTD SVG 1.1//EN" "http://www.w3.org/Graphics/SVG/1.1/DTD/svg11.dtd"><svg class="icon" width="200px" height="200.00px" viewBox="0 0 1024 1024" version="1.1" xmlns="http://www.w3.org/2000/svg"><path fill="#333333" d="M868.59 194.9h-21.1s-80.91-1.75-165.35-33.42c-84.42-33.42-140.71-72.11-140.71-73.87l-10.55-7c-10.56-10.55-21.11-8.79-31.67-3.52l-12.31 8.8s-58 38.7-142.47 73.87c-84.43 31.63-165.34 33.39-165.34 33.39h-22.87c-12.31 3.51-22.87 14.07-22.87 26.38V567.8C133.35 756 381.37 953 513.29 953s379.93-197 379.93-385.2V219.53c0-14.07-10.55-24.63-24.63-24.63zM829.9 260v309.56c-1.76 66.84-45.73 146-119.61 214.59-77.4 72.12-154.79 103.78-195.24 103.78-102 0-314.86-179.42-314.86-318.37V260c28.15-1.75 95-10.55 168.86-40.45 68.6-26.38 121.37-58.05 144.24-72.12A914.55 914.55 0 0 0 661 221.29C710.29 240.64 766.58 253 829.9 260zM622.34 393.66L462.28 553.73l-59.81-59.81c-7-7-17.59-10.55-26.38-10.55-10.55 0-19.35 3.52-28.14 12.31a42.29 42.29 0 0 0 0 52.77l86.18 86.19c7 7 17.59 10.55 26.39 10.55q15.83 0 26.38-10.55l186.45-186.45c12.31-15.83 12.31-40.45 0-52.77-7-7-17.59-10.55-26.38-10.55-7-3.52-17.59 0-24.63 8.79z m0 0" /></svg>