<?xml version="1.0" standalone="no"?><!DOCTYPE svg PUBLIC "-//W3C//DTD SVG 1.1//EN" "http://www.w3.org/Graphics/SVG/1.1/DTD/svg11.dtd"><svg class="icon" width="200px" height="200.00px" viewBox="0 0 1024 1024" version="1.1" xmlns="http://www.w3.org/2000/svg"><path fill="#333333" d="M916.52 237.53L789.3 110.31c-5-6.61-13.22-9.91-21.48-9.91H196.15a95.89 95.89 0 0 0-95.83 95.82v636.12c0 51.22 43 94.17 95.83 94.17h636.11a95.89 95.89 0 0 0 95.83-95.83V259c-1.66-8.26-5-16.52-11.57-21.48z m-546.89-74.35h285.84v170.18c0 11.57-9.91 19.83-19.83 21.48H391.11c-11.56 0-19.82-9.91-19.82-21.48V163.18z m333.75 700.55h-380V644c0-19.83 14.87-34.69 34.7-34.69h310.61c19.82 0 34.69 14.86 34.69 34.69z m127.22 0h-61.13V644c0-54.52-44.61-97.48-99.13-99.13H358.07c-54.53 0-97.48 44.61-99.14 99.13v219.73h-62.78a31.36 31.36 0 0 1-31.39-31.39V196.22a31.37 31.37 0 0 1 31.39-31.39h110.7V335c0 46.26 38 84.27 84.26 84.27h244.53c46.27 0 84.26-38 84.26-84.27V163.18h34.7L862 270.57V829c0 19.83-13.22 33-31.4 34.7z m0 0" /></svg>