<?xml version="1.0" standalone="no"?><!DOCTYPE svg PUBLIC "-//W3C//DTD SVG 1.1//EN" "http://www.w3.org/Graphics/SVG/1.1/DTD/svg11.dtd"><svg class="icon" width="200px" height="200.00px" viewBox="0 0 1024 1024" version="1.1" xmlns="http://www.w3.org/2000/svg"><path fill="#333333" d="M892.56 241.52c21.34-23.79 26.94-56 14-84.85a78.37 78.37 0 0 0-72.26-47.06h-646c-31.32 0-59.14 17.67-71.56 47.06s-7.17 62.46 14.87 84.85l3.15 3.15 239.53 192.1a15.52 15.52 0 0 1 6.47 12.42v329.09a78.68 78.68 0 0 0 41.12 69.28l103.4 57.56a83.22 83.22 0 0 0 37.8 9.27c43.39 0 78.91-35 78.38-78.9v-384.2a16.57 16.57 0 0 1 5.6-12.42l242.33-194z m0 0"  /><path fill="#333333" d="M882.23 456.54H704.64a31.32 31.32 0 1 0 0 62.63h177.42a31.32 31.32 0 0 0 0.17-62.63z m0 235H704.64a31.32 31.32 0 0 0 0 62.64h177.42a31.32 31.32 0 0 0 0.17-62.64z m0-117.22H704.64a31.32 31.32 0 1 0 0 62.64h177.42a31.32 31.32 0 0 0 0.17-62.64z m0 0"  /></svg>