<?xml version="1.0" standalone="no"?><!DOCTYPE svg PUBLIC "-//W3C//DTD SVG 1.1//EN" "http://www.w3.org/Graphics/SVG/1.1/DTD/svg11.dtd"><svg class="icon" width="200px" height="200.00px" viewBox="0 0 1024 1024" version="1.1" xmlns="http://www.w3.org/2000/svg"><path fill="#333333" d="M899.69 238.4c21.26-24.52 27.8-57.23 14.72-86.66-14.72-29.43-42.52-47.42-75.22-47.42H183.51c-31.07 0-60.5 18-71.95 47.42-13.08 29.43-8.18 63.77 14.72 86.66l3.26 3.27 243.64 194.58c3.27 3.27 6.54 8.18 6.54 13.08v335.21c0 29.43 16.35 55.59 40.88 70.3l104.65 58.87a76 76 0 0 0 37.6 9.81A80.25 80.25 0 0 0 643 843.4V451c0-4.91 1.64-9.81 6.55-13.08l245.24-196.25z m-47.42-44.14l-242 194.57c-19.63 14.72-29.44 37.61-29.44 62.14v389.16c0 4.91-3.27 11.45-8.17 14.71a14.87 14.87 0 0 1-16.36 0l-104.63-57.22c-4.91-3.28-8.18-8.18-8.18-14.72V449.33a80.88 80.88 0 0 0-29.43-62.13L170.42 194.26c-3.27-4.91-3.27-11.45-1.63-16.36q4.91-9.81 14.72-9.81h655.68q9.81 0 14.72 9.81a12.59 12.59 0 0 1-1.64 16.36z m36 261.62H708.38a31 31 0 0 0-31.07 31.06c0 16.35 14.72 32.71 31.07 32.71h179.86A32.81 32.81 0 0 0 921 486.94c0-18-14.72-31.06-32.71-31.06z m0 238.72H708.38c-18 0-31.07 14.72-31.07 32.71a31 31 0 0 0 31.07 31.06h179.86c18 0 32.71-14.71 32.71-31.06a32.81 32.81 0 0 0-32.71-32.71z m0-117.73H708.38c-18 0-31.07 14.72-31.07 32.71a31.06 31.06 0 0 0 31.07 31.07h179.86c18 0 32.71-14.72 32.71-31.07 0-19.63-14.72-32.71-32.71-32.71z m0 0" /></svg>