<?xml version="1.0" standalone="no"?><!DOCTYPE svg PUBLIC "-//W3C//DTD SVG 1.1//EN" "http://www.w3.org/Graphics/SVG/1.1/DTD/svg11.dtd"><svg class="icon" width="200px" height="200.00px" viewBox="0 0 1024 1024" version="1.1" xmlns="http://www.w3.org/2000/svg"><path fill="#333333" d="M396.8 324.44Q387 330 370.27 330q-18.61 0-27.82-6.63-9.84-7.28-12.41-24.82h-24.81q1.49 29.1 21 42.58Q342 352 370.27 352q29.1 0 45.36-11.77 16-12 16.05-32.52 0-21.18-19.9-32.95-9.86-5.78-40-15-21-6.63-26.11-9.41Q335 244.84 335 234.79q0-11.13 9.41-15.83 7.49-4.07 22-4.07 17.11 0 25.24 6.21 8.56 6.19 11.77 20.32h24.82q-2.36-25-18.4-37-15-11.13-42.15-11.13-24.82 0-40.65 11.13-17.12 11.34-17.12 31.88 0 20.33 17.55 30.81 6.63 3.86 35.09 12.84 24.6 7.49 29.74 10.05 14.32 7.06 14.33 19.26 0.01 9.19-9.83 15.18zM565.18 328.5q18.41-19.68 18.4-55.84 0-36.38-18.4-55.84-19.24-20.55-56.27-20.54h-55.84V349h55.84q37.02 0 56.27-20.5z m-87.08-0.85v-110h26.1q28.68 0 41.73 13.05 12.83 12.84 12.83 41.94 0 28.24-12.83 41.72-13.27 13.28-41.73 13.27zM632.15 296.41l18.61-18.19 60.34 70.82h33.81l-77.24-87.29 67.18-65.47h-31.67l-71.03 72.1v-72.1h-25.03v152.76h25.03v-52.63z"  /><path fill="#333333" d="M888.3 342.63L850.42 327V158c0-51.59-41.72-93.57-93-93.57H274.29c-51.28 0-93 42-93 93.57v155c-0.65 0.22-1.3 0.46-1.94 0.72l-41 16.95a62.81 62.81 0 0 0-38.93 58.22v367.75a62.79 62.79 0 0 0 38.94 58.22l339.44 140.3a92.37 92.37 0 0 0 71.05 0L888.3 814.85a62.79 62.79 0 0 0 38.93-58.22V400.85a62.81 62.81 0 0 0-38.93-58.22zM243.29 158c0-17.41 13.91-31.57 31-31.57h483.13c17.09 0 31 14.16 31 31.57v232.46l-263.25 108.8a31 31 0 0 1-11.32 2.36h-0.66a31 31 0 0 1-11.7-2.37L243.27 392.54z m-81.24 599.56a1 1 0 0 1-0.62-0.92V425.81l316.38 130.75c1.62 0.67 3.25 1.28 4.89 1.85v331.68z m703.18-0.93a1 1 0 0 1-0.62 0.93L544.7 889.79V558.16c1.39-0.5 2.78-1 4.16-1.6L865.23 425.8v330.83z"  /></svg>