<?xml version="1.0" standalone="no"?><!DOCTYPE svg PUBLIC "-//W3C//DTD SVG 1.1//EN" "http://www.w3.org/Graphics/SVG/1.1/DTD/svg11.dtd"><svg class="icon" width="200px" height="200.00px" viewBox="0 0 1024 1024" version="1.1" xmlns="http://www.w3.org/2000/svg"><path fill="#333333" d="M957.23733333 878.93333333L775.46666667 697.14133333c-0.864-0.85333333-1.74933333-1.67466667-2.656-2.45333333A389.62133333 389.62133333 0 0 0 186.66666667 183.85066667 389.62133333 389.62133333 0 0 0 697.536 769.92c0.78933333 0.896 1.6 1.792 2.464 2.64533333L881.81333333 954.37866667A53.33333333 53.33333333 0 1 0 957.23733333 878.93333333zM745.6 496.10666667h-45.77066667a240.55466667 240.55466667 0 0 1-201.408 201.408v45.728a36.21333333 36.21333333 0 0 1-72.416 0v-45.728A240.55466667 240.55466667 0 0 1 224.59733333 496.10666667h-45.728a36.21333333 36.21333333 0 0 1 0-72.416h45.728a240.55466667 240.55466667 0 0 1 201.408-201.408v-45.728a36.21333333 36.21333333 0 0 1 72.416 0v45.728a240.55466667 240.55466667 0 0 1 201.408 201.408H745.6a36.21333333 36.21333333 0 0 1 0 72.416z"  /><path fill="#333333" d="M601.824 423.69066667h24.39466667A168.23466667 168.23466667 0 0 0 498.42133333 295.89333333v24.39466667a36.21333333 36.21333333 0 0 1-72.416 0V295.89333333a168.23466667 168.23466667 0 0 0-127.79733333 127.79733334h24.39466667a36.21333333 36.21333333 0 0 1 0 72.416h-24.39466667a168.23466667 168.23466667 0 0 0 127.79733333 127.79733333v-38.82666667a36.21333333 36.21333333 0 1 1 72.416 0v38.82666667A168.23466667 168.23466667 0 0 0 626.21866667 496.10666667h-24.39466667a36.21333333 36.21333333 0 0 1 0-72.416z m-139.616 76.64a40.43733333 40.43733333 0 1 1 40.43733333-40.42666667 40.42666667 40.42666667 0 0 1-40.43733333 40.42666667z"  /></svg>