<?xml version="1.0" standalone="no"?><!DOCTYPE svg PUBLIC "-//W3C//DTD SVG 1.1//EN" "http://www.w3.org/Graphics/SVG/1.1/DTD/svg11.dtd"><svg class="icon" width="200px" height="200.00px" viewBox="0 0 1024 1024" version="1.1" xmlns="http://www.w3.org/2000/svg"><path fill="#333333" d="M914.44 885.17L759 729.77C826 661 867.36 567.12 867.36 463.81c0-210.6-171.28-381.87-381.7-381.87S104 253.21 104 463.63s171.27 381.7 381.7 381.7a379.81 379.81 0 0 0 220.6-70.55L865.46 934A34.21 34.21 0 0 0 890 944.33a34.67 34.67 0 0 0 24.49-59.16zM173.3 463.63c0-172.13 140.05-312.36 312.36-312.36S798 291.33 798 463.63 658 776 485.66 776 173.3 635.94 173.3 463.63z m0 0" /></svg>