<?xml version="1.0" standalone="no"?><!DOCTYPE svg PUBLIC "-//W3C//DTD SVG 1.1//EN" "http://www.w3.org/Graphics/SVG/1.1/DTD/svg11.dtd"><svg class="icon" width="200px" height="200.00px" viewBox="0 0 1024 1024" version="1.1" xmlns="http://www.w3.org/2000/svg"><path fill="#333333" d="M931.73 725.57L830.21 622.33l94.64-434v-8.75c0-29.75-24.09-54.25-55.06-54.25-12 0-22.37 7-32.69 12.25-49.91 28-182.4 96.24-320.05 166.24l-137.65-140c-13.77-14-34.42-14-48.18 0s-13.77 35 0 49L453.39 337.1c-175.51 89.25-340.7 171.49-340.7 171.49-17.21 7-29.25 22.75-29.25 42s13.76 36.74 32.69 42l220.25 73.5c3.44 1.74 6.88 1.74 10.32 1.74 18.93 0 34.41-15.74 34.41-35 0-14-6.88-26.25-18.92-31.5-41.3-17.5-166.91-57.74-166.91-57.74L505 386.1l75.71 77-144.53 161A49.57 49.57 0 0 0 419 660.83c0 3.5 1.72 38.49 1.72 38.49v159.24c0 19.25 15.49 35 34.42 35s34.41-15.75 34.41-35V716.82L739 802.57a45.35 45.35 0 0 0 20.65 5.24c24.09 0 43-19.25 43-43.74l13.76-61.25L887 774.57a32.91 32.91 0 0 0 48.18 0 38 38 0 0 0-3.44-49z m-160-162.73l-99.8-101.49 158.3-176.74zM567 354.6l203-103.24L623.73 414.1z m170.3 374.47L505 648.58l122.17-136.49L754.5 641.58z m0 0" /></svg>