<?xml version="1.0" standalone="no"?><!DOCTYPE svg PUBLIC "-//W3C//DTD SVG 1.1//EN" "http://www.w3.org/Graphics/SVG/1.1/DTD/svg11.dtd"><svg class="icon" width="200px" height="200.00px" viewBox="0 0 1024 1024" version="1.1" xmlns="http://www.w3.org/2000/svg"><path fill="#333333" d="M874.88 399.6h-19.26c-5.25-15.75-12.25-31.51-19.26-47.27l14-14c29.76-29.76 29.76-78.78 0-106.79l-54.26-54.27c-14-14-35-22.76-54.27-22.76s-38.51 7-54.27 22.76l-14 14c-15.75-7-31.51-14-47.26-19.25V151c0-42-35-75.28-75.28-75.28h-75.29c-42 0-75.28 35-75.28 75.28v19.25c-15.76 5.26-31.51 12.26-47.27 19.26l-15.75-12.25c-14-14-35-22.76-54.27-22.76s-38.52 7-52.52 22.76l-54.27 54.27c-29.76 29.76-29.76 78.78 0 106.79l14 14c-7 15.76-14 31.52-19.25 47.27h-21c-42 0-75.28 35-75.28 75.28v75.28c0 42 35 75.27 75.28 75.27h19.25c5.26 15.76 12.26 31.52 19.26 47.27l-12.25 15.76c-29.76 29.76-29.76 78.78 0 106.79l54.27 54.27c14 14 35 22.76 54.27 22.76s38.51-7 54.27-22.76l14-14c15.76 7 31.51 14 47.27 19.26V874c0 42 35 75.28 75.28 75.28H551c42 0 75.28-35 75.28-75.28v-19.23c15.75-5.25 31.51-12.25 47.26-19.26l14 14c14 14 35 22.76 54.27 22.76s38.51-7 54.27-22.76l54.27-54.27c29.76-29.76 29.76-78.78 0-106.79l-14-14c7-15.76 14-31.51 19.26-47.26h19.26c42 0 75.27-35 75.27-75.28v-75.28c0-43.77-35-77-75.27-77z m7 152.31a7.53 7.53 0 0 1-7 7h-19.26a67.78 67.78 0 0 0-64.77 47.27c-3.51 12.25-8.76 26.26-15.76 38.51-14 26.26-8.75 59.53 12.25 80.53l14 14c1.75 1.75 1.75 7 0 10.5L747.08 804c-1.75 1.75-3.5 1.75-5.25 1.75s-3.5 0-5.25-1.75l-14-15.76c-14-14-31.51-21-49-21-10.5 0-21 1.75-31.51 7A178.88 178.88 0 0 1 603.53 790a67.78 67.78 0 0 0-47.27 64.77V874a7.53 7.53 0 0 1-7 7H474a7.54 7.54 0 0 1-7-7v-19.23A67.77 67.77 0 0 0 419.71 790a179 179 0 0 1-38.52-15.76c-10.5-5.25-21-7-31.51-7-17.5 0-35 7-49 21l-14 14c-1.75 1.75-3.5 1.75-5.25 1.75s-3.5 0-5.26-1.75L221.88 748c-1.74-1.75-1.74-7 0-10.5l15.76-14c21-21 26.26-52.52 12.26-80.53-7-12.26-12.26-26.26-15.76-38.51a67.78 67.78 0 0 0-64.78-47.27h-19.25a7.53 7.53 0 0 1-7-7v-75.31a7.54 7.54 0 0 1 7-7h19.25a67.77 67.77 0 0 0 64.78-47.26c3.5-12.26 8.75-26.26 15.76-38.52 14-26.26 8.75-59.52-12.26-80.52l-14-14c-1.76-1.75-1.76-7 0-10.51l54.27-54.27c1.74-1.74 3.5-1.74 5.25-1.74s3.5 0 5.25 1.74l14 15.76c14 14 31.51 21 49 21 10.51 0 21-1.75 31.52-7 12.25-7 26.25-12.25 38.51-15.75A67.79 67.79 0 0 0 468.73 172v-21a7.53 7.53 0 0 1 7-7H551a7.53 7.53 0 0 1 7 7v19.25A67.78 67.78 0 0 0 605.28 235c12.25 3.5 26.26 8.75 38.51 15.75 10.5 5.26 21 7 31.52 7 17.5 0 35-7 49-21l14-14c1.75-1.74 3.5-1.74 5.25-1.74s3.5 0 5.25 1.74l54.27 54.27c1.75 1.76 1.75 7 0 10.51l-15.76 15.76c-21 21-26.25 52.51-12.25 80.53 7 12.25 12.25 26.25 15.76 38.51a67.78 67.78 0 0 0 64.77 47.27h19.26a7.53 7.53 0 0 1 7 7zM512.5 361.09c-84 0-152.31 68.27-152.31 152.3S428.46 665.7 512.5 665.7s152.3-68.28 152.3-152.31-68.28-152.3-152.3-152.3z m0 234.58a82.28 82.28 0 1 1 82.27-82.28 82.18 82.18 0 0 1-82.27 82.28z m0 0" /></svg>