<?xml version="1.0" standalone="no"?><!DOCTYPE svg PUBLIC "-//W3C//DTD SVG 1.1//EN" "http://www.w3.org/Graphics/SVG/1.1/DTD/svg11.dtd"><svg class="icon" width="200px" height="200.00px" viewBox="0 0 1024 1024" version="1.1" xmlns="http://www.w3.org/2000/svg"><path fill="#333333" d="M855.76 406.44H838a323.32 323.32 0 0 0-18.77-44.89L831.85 349a72.19 72.19 0 0 0 0-101.89l-51-50.85a72.26 72.26 0 0 0-101.94 0l-12.62 12.59a325 325 0 0 0-45-18.72v-17.77c0-39.59-32.54-72.06-72.22-72.06h-72.19c-39.69 0-72.23 32.47-72.23 72.06v17.73a324.35 324.35 0 0 0-45 18.72L347 196.22a72.46 72.46 0 0 0-102.11 0l-51 50.85A72.19 72.19 0 0 0 194 349l12.62 12.59a322.07 322.07 0 0 0-18.76 44.89h-17.81a72.3 72.3 0 0 0-72.22 72.02v72.06c0 39.6 32.54 72.06 72.22 72.06h17.77a322.19 322.19 0 0 0 18.76 44.9L194 680.11A72.17 72.17 0 0 0 194 782l51 50.86a72.26 72.26 0 0 0 101.94 0l12.62-12.59a326.94 326.94 0 0 0 45 18.72v17.71c0 39.59 32.54 72.06 72.22 72.06H549c39.69 0 72.23-32.47 72.23-72.06V839a326.81 326.81 0 0 0 45-18.72l12.62 12.59a72.26 72.26 0 0 0 101.94 0l51-50.86a72.17 72.17 0 0 0 0-101.88l-12.61-12.59a324.62 324.62 0 0 0 18.76-44.9h17.66c39.68 0 72.22-32.46 72.22-72.06V478.5c0.16-39.76-32.38-72.06-72.06-72.06zM512.91 658.57c-79.78 0-144.45-64.52-144.45-144.12S433 370.32 512.91 370.32s144.44 64.45 144.44 144.13c0 79.51-64.75 144.12-144.44 144.12z m0 0" /></svg>