<?xml version="1.0" standalone="no"?><!DOCTYPE svg PUBLIC "-//W3C//DTD SVG 1.1//EN" "http://www.w3.org/Graphics/SVG/1.1/DTD/svg11.dtd"><svg class="icon" width="200px" height="200.00px" viewBox="0 0 1024 1024" version="1.1" xmlns="http://www.w3.org/2000/svg"><path fill="#333333" d="M796.08 627.62a132.61 132.61 0 0 0-107.28 53.64L358.61 537.11a127.64 127.64 0 0 0 5-35.2c0-10.05-1.68-21.79-3.36-31.84l325.2-130.74c25.14 33.52 65.37 57 110.63 57a135.77 135.77 0 1 0-135.77-135.78c0 6.71 0 13.41 1.68 18.44L330.11 411.4c-25.14-28.49-62-46.93-102.24-46.93a135.77 135.77 0 1 0 0 271.53c38.55 0 75.42-16.76 98.89-43.58L662 739.92c-1.68 8.38-1.68 15.09-1.68 23.47a135.77 135.77 0 1 0 135.76-135.77z m0-437.46c38.55 0 70.39 31.84 70.39 70.39S834.63 331 796.08 331c-18.44 0-33.53-6.71-46.93-16.76-15.09-13.46-25.15-31.9-25.15-53.69v-6.7c5-35.2 35.2-63.69 72.08-63.69zM229.54 572.31c-38.55 0-70.39-31.84-70.39-70.4s31.84-70.39 70.39-70.39c11.74 0 23.47 3.35 35.2 8.38a75.82 75.82 0 0 1 36.88 55.31v15.08c-3.35 23.47-16.76 43.58-36.88 53.64-11.73 5-23.46 8.38-35.2 8.38z m566.54 261.48c-36.88 0-68.73-30.17-70.4-67v-3.35a70.73 70.73 0 0 1 26.82-55.31 71.5 71.5 0 0 1 45.25-16.77c38.55 0 70.4 31.85 70.4 70.41a71.54 71.54 0 0 1-72.07 72.07z m0 0" /></svg>