<?xml version="1.0" standalone="no"?><!DOCTYPE svg PUBLIC "-//W3C//DTD SVG 1.1//EN" "http://www.w3.org/Graphics/SVG/1.1/DTD/svg11.dtd"><svg class="icon" width="200px" height="200.00px" viewBox="0 0 1024 1024" version="1.1" xmlns="http://www.w3.org/2000/svg"><path fill="#333333" d="M938 496a529.94 529.94 0 0 0-182.8-157.41 525.42 525.42 0 0 0-484.49 0A529.94 529.94 0 0 0 87.94 496l-13.28 18.21 13.28 18.25a529.81 529.81 0 0 0 182.8 157.4 522.71 522.71 0 0 0 115.58 43.69 529.61 529.61 0 0 0 253.33 0 522.52 522.52 0 0 0 115.58-43.69A529.81 529.81 0 0 0 938 532.46l13.29-18.25zM513 664.53c-82.91 0-150.37-67.46-150.37-150.38a150.14 150.14 0 0 1 6.4-43.43 122 122 0 1 0 230.68-79.37 150.32 150.32 0 0 1 63.67 122.8c-0.02 82.92-67.48 150.38-150.38 150.38zM461.39 372.9c1.85-0.68 3.73-1.32 5.61-1.93a64.23 64.23 0 1 1-5.61 1.93zM152.06 514.21a465.78 465.78 0 0 1 215.5-149.14 208 208 0 0 0 0.18 298.33 465.73 465.73 0 0 1-215.68-149.19zM658.23 663.4a208 208 0 0 0 0.18-298.33 465.71 465.71 0 0 1 215.5 149.14A465.73 465.73 0 0 1 658.23 663.4z" /></svg>