<?xml version="1.0" standalone="no"?><!DOCTYPE svg PUBLIC "-//W3C//DTD SVG 1.1//EN" "http://www.w3.org/Graphics/SVG/1.1/DTD/svg11.dtd"><svg class="icon" width="200px" height="200.00px" viewBox="0 0 1024 1024" version="1.1" xmlns="http://www.w3.org/2000/svg"><path fill="#333333" d="M679 148.44a39.09 39.09 0 0 0-28.36 0 35.13 35.13 0 0 0-19.5 19.5 39.19 39.19 0 0 0 0 28.36 35.13 35.13 0 0 0 19.5 19.5c127.63 54.95 210.95 179 210.95 317.31 0 189.67-154.22 345.67-345.67 345.67s-345.7-154.22-345.7-343.9c0-138.27 83.31-264.13 211-317.31a35.1 35.1 0 0 0 19.5-19.5 39.19 39.19 0 0 0 0-28.36 35.17 35.17 0 0 0-19.5-19.5 39.12 39.12 0 0 0-28.37 0C196.81 214 97.54 364.7 97.54 534.88c0 230.45 187.9 418.35 418.35 418.35s418.35-187.9 418.35-418.35C934.24 364.7 835 214 679 148.44zM528.3 568.56c21.27 0 37.22-15.95 37.22-37.22V104.12c0-21.27-15.95-37.22-37.22-37.22s-37.23 15.95-37.23 37.22v427.22c0 21.27 15.95 37.22 37.23 37.22z m0 0" /></svg>