<?xml version="1.0" standalone="no"?><!DOCTYPE svg PUBLIC "-//W3C//DTD SVG 1.1//EN" "http://www.w3.org/Graphics/SVG/1.1/DTD/svg11.dtd"><svg class="icon" width="200px" height="200.00px" viewBox="0 0 1024 1024" version="1.1" xmlns="http://www.w3.org/2000/svg"><path fill="#333333" d="M407.68 548.25H193.39a62 62 0 0 0-62 62V838.1a62 62 0 0 0 62 62h214.29a62 62 0 0 0 62-62V610.25a62 62 0 0 0-62-62z m0 289.85H193.39V610.25h214.29zM407.68 123.7H193.39a62 62 0 0 0-62 62v227.85a62 62 0 0 0 62 62h214.29a62 62 0 0 0 62-62V185.7a62 62 0 0 0-62-62z m0 289.85H193.39V185.7h214.29zM621.68 475.55H836a62 62 0 0 0 62-62V185.7a62 62 0 0 0-62-62H621.68a62 62 0 0 0-62 62v227.85a62 62 0 0 0 62 62z m0-289.85H836v227.84H621.68zM709.73 519.94c-104.75 0-189.66 84.91-189.66 189.65 0 104.75 84.91 189.66 189.66 189.66 104.74 0 189.66-84.91 189.66-189.66 0-104.74-84.92-189.65-189.66-189.65zM800 799.86a127.65 127.65 0 1 1 37.39-90.27A126.83 126.83 0 0 1 800 799.86z" /></svg>