<?xml version="1.0" standalone="no"?><!DOCTYPE svg PUBLIC "-//W3C//DTD SVG 1.1//EN" "http://www.w3.org/Graphics/SVG/1.1/DTD/svg11.dtd"><svg class="icon" width="200px" height="200.00px" viewBox="0 0 1024 1024" version="1.1" xmlns="http://www.w3.org/2000/svg"><path fill="#333333" d="M513.13 67.53C267 67.53 67.48 266.79 67.48 512.71S267 957.88 513.13 957.88s445.65-199.26 445.65-445.17S759.31 67.53 513.13 67.53z m0 820c-207 0-375.24-168.1-375.24-374.83s168.28-374.83 375.24-374.83S888.37 306 888.37 512.71 720.09 887.54 513.13 887.54z"  /><path fill="#333333" d="M602.26 352.45H424a71.24 71.24 0 0 0-71.3 71.22v178.07A71.24 71.24 0 0 0 424 673h178.26a71.24 71.24 0 0 0 71.3-71.23v-178.1a71.24 71.24 0 0 0-71.3-71.22z m0 249.29H424V423.67h178.26z"  /></svg>