<?xml version="1.0" standalone="no"?><!DOCTYPE svg PUBLIC "-//W3C//DTD SVG 1.1//EN" "http://www.w3.org/Graphics/SVG/1.1/DTD/svg11.dtd"><svg class="icon" width="200px" height="200.00px" viewBox="0 0 1024 1024" version="1.1" xmlns="http://www.w3.org/2000/svg"><path fill="#333333" d="M594.10204445 167.57191111l7.64586666-20.87822222-21.20817778 6.64462222-17.49902222-13.66471111-0.23893333 22.20942222-18.432 12.42453333 21.0944 7.04284445 6.07573333 21.42435555 13.24373334-17.90862222 22.19804444 0.76231112-12.87964444-18.05653334zM188.37048889 432.59448889l-12.43591111-18.432-7.04284445 21.0944-21.34471111 6.07573333 17.84035556 13.26648889-0.77368889 22.23217778 18.06791111-12.93653334 20.92373333 7.6344889-6.70151111-21.20817778 13.66471111-17.48764445-22.19804444-0.23893333zM236.6464 361.6768l1.45635555-22.20942222 19.11466667-11.32088889-20.62791111-8.26026667-4.88106666-21.66328889-14.2336 17.06666667-22.1184-2.048 11.8215111 18.78471111-8.78364444 20.38897778 21.54951111-5.40444444 16.70257778 14.66595555zM812.20266667 653.16408889l-14.24497778 17.06666666-22.09564444-2.05937777 11.8215111 18.8416-8.8064 20.40035555 21.57226667-5.46133333 16.6912 14.65457778 1.46773333-22.16391111 19.08053334-11.3664-20.60515556-8.23751112-4.88106666-21.67466666zM445.2352 851.09191111l6.13262222 21.34471111 13.22097778-17.84035555 22.20942222 0.77368888-12.89102222-18.0679111 7.58897778-20.85546667-21.1968 6.64462222-17.49902223-13.68746667-0.19342222 22.2208-18.42062222 12.42453334 21.04888889 7.04284444zM598.7328 822.39715555l-14.17671111-17.08942222-4.96071111 21.65191112-20.5824 8.24888888 19.0464 11.35502222 1.41084444 22.18666667 16.74808889-14.63182222 21.54951111 5.44995555-8.77226667-20.3776 11.85564445-18.7847111-22.1184 1.9911111zM697.63982222 799.55057778l9.37528889 20.10453333 10.29688889-19.6608 22.06151111-2.73066666-15.55342222-15.84924445 4.20977778-21.82257778-19.8656 9.94417778-19.42186667-10.79751111 3.25404445 21.98186666-16.21333334 15.1552 21.85671111 3.67502223zM309.08871111 240.99271111l9.37528889 20.10453334 10.29688889-19.6608 22.016-2.73066667-15.55342222-15.84924445 4.25528888-21.8112-19.89973333 9.88728889-19.39911111-10.752 3.25404444 21.97048889-16.25884444 15.16657778 21.9136 3.67502222zM439.23911111 160.92728889l-14.17671111-17.1008-4.9152 21.66328889-20.63928889 8.20337777 19.06915556 11.41191112 1.46773333 22.17528888 16.6912-14.63182222 21.52675555 5.46133334-8.76088888-20.42311112 11.8784-18.80746666-22.14115556 2.048zM858.112 552.82346667l-12.43591111-18.42062222-7.04284444 21.0375111-21.34471112 6.13262223L835.12888889 574.79395555l-0.77368889 22.20942223 18.06791111-12.87964445 20.86684444 7.5776-6.64462222-21.18542222 13.68746667-17.5104-22.2208-0.18204444z"  /><path fill="#333333" d="M934.95751111 453.38168889l-24.87182222 17.43075556 0.26168889 2.048A383.53351111 383.53351111 0 0 1 748.57813333 837.40444445a383.49937778 383.49937778 0 0 1-397.94915555 24.71253333l-1.83182223-0.96711111-25.0311111 17.408 4.76728888 2.67377778a410.98808889 410.98808889 0 0 0 200.69262222 52.33777777q10.08071111 0 20.21831112-0.50062222a411.40906667 411.40906667 0 0 0 386.3552-474.27128889zM93.82115555 561.152l25.03111112-17.408-0.26168889-2.05937778A383.95448889 383.95448889 0 0 1 678.11555555 152.46222222l1.8432 0.95573333 25.03111112-17.4535111-4.76728889-2.6624a411.43182222 411.43182222 0 0 0-607.24337778 422.45688888z"  /><path fill="#333333" d="M252.64355555 461.7216a257.77493333 257.77493333 0 0 1 106.62115556-174.3872 257.83182222 257.83182222 0 0 1 200.14648889-41.472l1.44497778 0.29582222 29.52533333-20.79857777-6.9632-1.92284445A284.95644445 284.95644445 0 0 0 223.40266667 476.72888889l-0.53475556 7.19075556 29.58222222-20.75306667zM1011.06346667 298.98524445L874.51875555 104.67555555a46.36444445 46.36444445 0 0 0-64.42097777-11.19573333l-785.85173333 552.96a46.20515555 46.20515555 0 0 0-11.18435556 64.44373333l136.68124444 194.28693334a46.35306667 46.35306667 0 0 0 64.45511112 11.22986666l785.63555555-552.96a46.25066667 46.25066667 0 0 0 11.22986667-64.44373333z m-26.66951112 42.16604444l-785.64693333 552.96a19.06915555 19.06915555 0 0 1-26.49884444-4.55111111L35.27111111 695.18222222a19.0464 19.0464 0 0 1 0-21.82257777 18.27271111 18.27271111 0 0 1 4.67626667-4.67626667l785.85173333-552.96a19.01226667 19.01226667 0 0 1 26.45333334 4.55111111l136.68124444 194.37795556a19.05777778 19.05777778 0 0 1-4.53973334 26.49884444zM767.06702222 541.33191111A257.06951111 257.06951111 0 0 1 460.29937778 757.19111111l-1.44497778-0.29582222-29.58222222 20.80995556 6.9632 1.91146666a284.93368889 284.93368889 0 0 0 360.02702222-253.30346666l0.54613333-7.20213334-29.58222222 20.75306667z"  /><path fill="#333333" d="M397.88088889 620.2368q16.62293333 26.49884445 15.39413333 32.6656a13.96053333 13.96053333 0 0 1-5.57511111 8.24888889l-81.29422222 56.88888889q-8.9088 6.23502222-15.26897778-2.83306667L279.89333333 670.53795555l99.91964445-69.96195555-47.62737778-68.02773333-122.88 86.07288888 10.31964445 14.79111112 107.38346666-75.18435556 26.98808889 38.53653334-84.3776 59.0848L254.09991111 633.74222222l-15.54204444 10.88853333 59.07342222 84.3776q14.79111111 21.06026667 34.82737778 6.99733334l89.88444444-62.94186667q9.38666667-7.28177778 11.4688-16.71395555 0.94435555-9.35253333-17.46488889-41.83608889zM468.52551111 555.32657778l7.96444444-14.79111111-11.0023111-15.70133334q-3.9936 8.0896-7.8848 14.92764445l-18.83022223-26.88568889 15.06417778-10.5472-10.31964445-14.73422222-15.06417777 10.5472-20.48-29.30915556-15.54204445 10.87715556 20.48 29.32053333-18.30684444 12.81137778 10.31964444 14.79111111 18.3296-12.85688889 23.35857778 33.35964445a247.46666667 247.46666667 0 0 1-16.25884444 20.55964444l14.60906666 12.93653333q8.61297778-11.81013333 12.65208889-17.78346667l24.49635556 34.98666667q3.73191111 5.33617778-1.76355556 9.19324445a141.97191111 141.97191111 0 0 1-13.03893333 7.96444444l13.824 12.51555556 14.41564444-10.09208889q15.71271111-11.00231111 4.82417778-26.55573333zM591.24622222 537.21315555a237.79555555 237.79555555 0 0 1-21.85671111 13.65333334L557.37457778 533.61777778l31.85777777-22.33457778-9.5232-13.65333333-31.85777777 22.34595555-10.43342223-14.80248889 38.8664889-27.21564444L566.61333333 464.21333333l-93.12711111 65.20604445 9.63697778 13.76711111 39.51502222-27.67075556 29.58222223 42.26844445-1.7976889 0.53475555Q538.63537778 561.02684445 521.10222222 551.82222222a142.47253333 142.47253333 0 0 0-9.4208-18.20444444l-14.79111111 7.90755555q16.65706667 27.92106667 14.47253334 62.03164445l18.40924444 1.82044444a127.43111111 127.43111111 0 0 0-2.7648-34.97528889q14.62044445 6.40568889 26.27128889 4.76728889 15.62168889-2.49173333 48.40106667-24.96284444 10.60408889-6.92906667 17.39662222-11.69635556l-6.22364445-17.85173333a265.85315555 265.85315555 0 0 1-21.6064 16.55466666zM551.02577778 462.55217778l-40.96-58.4704L437.21386667 455.11111111l40.96 58.4704zM460.8 457.15911111l42.91697778-30.06008889 7.60035555 10.8544-42.91697778 30.04871111z m58.6752-7.54346666l7.71413333 11.01368888-42.91697778 30.04871112-7.71413333-11.0136889zM571.91537778 402.06791111l144.30435555-101.03466666-10.31964444-14.79111112-62.99875556 44.11164445A215.04 215.04 0 0 0 620.77155555 317.44l-15.13244444 14.93902222a145.55591111 145.55591111 0 0 1 20.25244444 9.95555556l-64.29582222 45.02186667zM668.68337778 352.41528889q45.32906667 3.01511111 74.59271111 11.73048889l3.41333333-19.27395556q-33.34826667-7.96444445-74.59271111-10.0352zM709.80266667 418.70222222a188.35911111 188.35911111 0 0 0 1.08088888-56.02417777L692.20124445 366.36444445a148.98062222 148.98062222 0 0 1-1.67253334 51.38204444 142.77973333 142.77973333 0 0 1-49.14062222-14.34737778l-7.96444444 16.90737778a169.41511111 169.41511111 0 0 0 52.03057777 15.70133333q-12.40177778 35.72622222-42.60977777 70.144l19.34222222 7.68q30.81102222-36.31786667 42.96248888-76.23111111 39.82222222 1.35395555 85.33333334-14.62044444l-0.53475556-21.10577778q-42.9056 16.5888-80.14506666 16.82773333zM617.60853333 373.19111111a216.74666667 216.74666667 0 0 1-17.21457778 70.21226667l19.11466667 5.92782222q14.79111111-37.41013333 16.19057778-74.08071111z"  /></svg>