<?xml version="1.0" standalone="no"?><!DOCTYPE svg PUBLIC "-//W3C//DTD SVG 1.1//EN" "http://www.w3.org/Graphics/SVG/1.1/DTD/svg11.dtd"><svg class="icon" width="200px" height="200.00px" viewBox="0 0 1024 1024" version="1.1" xmlns="http://www.w3.org/2000/svg"><path fill="#333333" d="M512.71 68.3c-244.9 0-443.65 198.55-443.65 443.18s198.75 443.18 443.65 443.18 443.65-198.54 443.65-443.18S757.61 68.3 512.71 68.3z m0 824.31c-211.18 0-381.54-170.17-381.54-381.13s170.36-381.13 381.54-381.13 381.54 170.18 381.54 381.13-170.36 381.13-381.54 381.13z m165-530L450.6 589.48l-101.15-101C337 476 315.73 476 301.53 488.44c-12.42 12.41-12.42 33.68 0 47.86l126 125.86c7.1 7.09 14.2 8.87 23.07 8.87s17.75-3.55 23.07-8.87l250.22-249.95c12.42-12.41 12.42-33.68 0-47.86a31.72 31.72 0 0 0-46.14-1.78z m0 0" /></svg>