<?xml version="1.0" standalone="no"?><!DOCTYPE svg PUBLIC "-//W3C//DTD SVG 1.1//EN" "http://www.w3.org/Graphics/SVG/1.1/DTD/svg11.dtd"><svg class="icon" width="200px" height="200.00px" viewBox="0 0 1024 1024" version="1.1" xmlns="http://www.w3.org/2000/svg"><path fill="#333333" d="M921.65 444.12q-35.19-85.06-94.75-146.67T685 199.49a427 427 0 0 0-345.26 0q-82.41 36.54-141.87 98-59.47 61.6-94.77 146.67a461.86 461.86 0 0 0-35.2 178.5q0 134.4 69.87 247.84c6.22 9.95 15.29 14.93 26.85 14.93h695.5c11.56 0 20.44-5 26.84-14.93q69.87-113.88 69.88-247.84a462.53 462.53 0 0 0-35.21-178.5zM467.59 247.85c12.44-12.8 27.38-19.21 45-19.21s32.53 6.41 45 19.21 18.67 28.26 18.67 46.4-6.23 33.6-18.67 46.4-27.38 19.2-45 19.2-32.54-6.4-45-19.2-18.67-28.26-18.67-46.4c0-18 6.22-33.6 18.67-46.4zM239.84 669c-12.44 12.8-27.38 19.2-45 19.2s-32.53-6.4-45-19.2-18.67-28.27-18.67-46.4 6.23-33.6 18.67-46.4 27.38-19.2 45-19.2 32.54 6.4 45 19.2 18.67 28.27 18.67 46.4-6.22 33.6-18.67 46.4z m95.3-229.87c-12.45 12.8-27.38 19.2-45 19.2s-32.53-6.4-45-19.2-18.67-28.27-18.67-46.41 6.22-33.6 18.67-46.4 27.37-19.2 45-19.2 32.54 6.4 45 19.2 18.66 28.27 18.66 46.4q-0.26 27.21-18.66 46.41zM616 443.59l-50.1 195.92c16.54 11.56 28.45 27.2 35.74 46.76a97.7 97.7 0 0 1 3 60.09c-6.58 26.31-21.33 46.41-44.09 60.09s-46.94 17.07-72.36 10.32-44.8-22-58-45.7-16.53-48.53-9.95-74.84c5.33-20.45 15.64-37.34 31.29-50.5a93.14 93.14 0 0 1 53.16-22.4l50.13-195.92a32.26 32.26 0 0 1 14.93-20.27 29 29 0 0 1 23.83-3.37 31.57 31.57 0 0 1 19 15.11 34.72 34.72 0 0 1 3.42 24.71z m73.78-4.44q-18.68-19.2-18.67-46.41t18.67-46.4c12.44-12.8 27.38-19.2 45-19.2s32.54 6.4 45 19.2 18.67 28.27 18.67 46.4-6.22 33.61-18.67 46.41-27.38 19.2-45 19.2c-17.78 0.18-32.71-6.22-45-19.2zM874.72 669c-12.45 12.8-27.38 19.2-45 19.2s-32.54-6.4-44.8-19.2q-18.68-19.2-18.67-46.4t18.67-46.4Q803.6 557 829.74 557c17.6 0 32.53 6.4 45 19.2s18.67 28.27 18.67 46.4-6.23 33.6-18.67 46.4z m0 0" /></svg>