<?xml version="1.0" standalone="no"?><!DOCTYPE svg PUBLIC "-//W3C//DTD SVG 1.1//EN" "http://www.w3.org/Graphics/SVG/1.1/DTD/svg11.dtd"><svg class="icon" width="200px" height="200.00px" viewBox="0 0 1024 1024" version="1.1" xmlns="http://www.w3.org/2000/svg"><path fill="#333333" d="M123.52 305h124.73a111 111 0 0 0 213.18 0h440.15a31 31 0 0 0 0-62H461.43a111 111 0 0 0-213.18 0H123.52a31 31 0 1 0 0 62z m231.32-80a49 49 0 1 1-49 49 49.05 49.05 0 0 1 49-49zM901.58 492.08H774.22a122 122 0 0 0-235.93 0H123.52a31 31 0 1 0 0 62h414.77a122 122 0 0 0 235.93 0h127.36a31 31 0 0 0 0-62zM656.25 583a60 60 0 1 1 60-60 60 60 0 0 1-60 60zM901.58 735.18H461.43a111 111 0 0 0-213.18 0H123.52a31 31 0 1 0 0 62h124.73a111 111 0 0 0 213.18 0h440.15a31 31 0 0 0 0-62z m-546.74 80a49 49 0 1 1 49-49 49.05 49.05 0 0 1-49 49z" /></svg>