<?xml version="1.0" standalone="no"?><!DOCTYPE svg PUBLIC "-//W3C//DTD SVG 1.1//EN" "http://www.w3.org/Graphics/SVG/1.1/DTD/svg11.dtd"><svg class="icon" width="200px" height="200.00px" viewBox="0 0 1024 1024" version="1.1" xmlns="http://www.w3.org/2000/svg"><path fill="#333333" d="M671.92 287H353.55c-9.63 0-15.86 3.21-22.28 9.62s-9.63 12.64-9.63 22.26v63.58c0 19.05 12.66 31.88 31.91 31.88 19.07 0 31.91-15.85 31.91-31.88v-31.92H481V668.6h-31.9c-15.87 0-31.91 12.65-31.91 31.88 0 19.06 12.65 31.88 31.91 31.88h127.27c15.87 0 31.91-12.64 31.91-31.88 0-19.05-12.65-31.88-31.91-31.88h-31.91V350.54H640v31.88c0 19.05 12.66 31.88 31.91 31.88 19.08 0 31.91-15.85 31.91-31.88v-63.58c0-9.62-3.21-15.85-9.62-22.26S681.37 287 671.92 287z"  /><path fill="#333333" d="M894.75 153.4h-764c-34.94 0-63.64 26.71-63.64 59.3v593.56c0 32.77 28.7 59.49 63.64 59.49h764c34.94 0 63.64-26.72 63.64-59.31V212.7c0-32.59-28.7-59.3-63.64-59.3z m-764 650.35a5 5 0 0 1-1.64-0.25V215.65a5.14 5.14 0 0 1 1.64-0.25h764a5.14 5.14 0 0 1 1.64 0.25V803.5a5.14 5.14 0 0 1-1.64 0.25z"  /></svg>