<?xml version="1.0" standalone="no"?><!DOCTYPE svg PUBLIC "-//W3C//DTD SVG 1.1//EN" "http://www.w3.org/Graphics/SVG/1.1/DTD/svg11.dtd"><svg class="icon" width="200px" height="200.00px" viewBox="0 0 1024 1024" version="1.1" xmlns="http://www.w3.org/2000/svg"><path fill="#333333" d="M865.93 160.3H720.77v-29.72a31 31 0 0 0-62 0v29.72H369v-29.72a31 31 0 1 0-62 0v29.72H160a62 62 0 0 0-62 62V859a62 62 0 0 0 62 62h705.93a62 62 0 0 0 62-62V222.3a62 62 0 0 0-62-62zM307 222.3v25.92a31 31 0 1 0 62 0V222.3h289.77v25.92a31 31 0 1 0 62 0V222.3h145.16v138.2H160V222.3zM160 859V422.5h705.93V859z"  /><path fill="#333333" d="M282.05 617.42L257 568.67h-52.46l53.24 91.99v52.67h47.76v-53.46l53.24-91.2h-51.67l-25.06 48.75zM422.2 656.73h59.5v-33.81h-59.5v-20.44h70.46v-33.81H374.44v144.66h120.57v-33.8H422.2v-22.8zM557.64 568.67L506 713.33h46.19l5.48-18.86h47l5.48 18.86h47L605.4 568.67z m8.62 95.13l14.87-51.88 15.66 51.88zM804.27 689.75v-6.29q1.56-33-25.06-38.53 23.49-7.06 24.27-35.37 3.12-42.46-63.41-40.89H672v144.66h47V663h14q29-2.35 25.84 25.15 0 20.46 2.35 25.16H809v-4.71q-5.52 2.4-4.73-18.85z m-66.55-59h-18.79v-28.3h21.92q18.79 0.79 19.57 14.94t-22.7 13.39z"  /></svg>