<?xml version="1.0" standalone="no"?><!DOCTYPE svg PUBLIC "-//W3C//DTD SVG 1.1//EN" "http://www.w3.org/Graphics/SVG/1.1/DTD/svg11.dtd"><svg class="icon" width="200px" height="200.00px" viewBox="0 0 1024 1024" version="1.1" xmlns="http://www.w3.org/2000/svg"><path fill="#333333" d="M672.33 783.16v73.13a31 31 0 0 1-31 31H348.54V789a93.11 93.11 0 0 0-93-93H149V212.48a31 31 0 0 1 31-31h201.55A90.38 90.38 0 0 1 416.67 126l8.8-6.52H180a93.11 93.11 0 0 0-93 93V727c0 0.62 0 1.24 0.06 1.85v0.51c0 0.54 0.1 1.08 0.17 1.62 0 0.16 0 0.31 0.06 0.47 0.09 0.66 0.21 1.32 0.35 2 0 0.12 0 0.25 0.08 0.37 0.13 0.56 0.27 1.1 0.42 1.65 0 0.16 0.09 0.32 0.14 0.48 0.19 0.64 0.4 1.27 0.63 1.9l0.12 0.29c0.2 0.54 0.43 1.07 0.66 1.59 0.08 0.17 0.16 0.34 0.23 0.51 0.29 0.6 0.58 1.19 0.9 1.77l0.13 0.23q0.45 0.78 0.93 1.53l0.31 0.48c0.38 0.56 0.76 1.11 1.17 1.65l0.07 0.08c0.4 0.52 0.83 1 1.27 1.53l0.34 0.38c0.47 0.52 1 1 1.47 1.52l199.58 191.26c0.36 0.35 0.74 0.69 1.12 1l0.31 0.26c0.28 0.24 0.55 0.47 0.83 0.69s0.51 0.38 0.77 0.57l0.42 0.32q0.46 0.33 0.93 0.63l0.29 0.2 1 0.62 0.24 0.15 1.05 0.57 0.25 0.14 1 0.5 0.3 0.14 1 0.43 0.37 0.16 0.94 0.35 0.44 0.16 0.89 0.29 0.52 0.16 0.83 0.23 0.6 0.16 0.8 0.17 0.64 0.14 0.82 0.14 0.63 0.1c0.31 0 0.63 0.08 0.94 0.12l0.52 0.06 1.36 0.1h325.43a93.11 93.11 0 0 0 93-93v-76.29a336.24 336.24 0 0 1-48.5 3.51c-4.52 0-9.01-0.11-13.5-0.29zM286.54 789v56.65L195.13 758h60.41a31 31 0 0 1 31 31z"  /><path fill="#333333" d="M877.08 261.73c-4.29-4.29-8.7-8.39-13.21-12.35l21.88-29.56 5.71 4.23a31 31 0 1 0 36.89-49.83l-60.06-44.48a31 31 0 0 0-36.89 49.83l4.53 3.36-23.06 31.13a267.71 267.71 0 0 0-96-29.79v-58.4h33a31 31 0 0 0 0-62h-128a31 31 0 1 0 0 62h33v58.4a268 268 0 0 0-89.48 26.41l-20.59-27.76 4.53-3.35a31 31 0 0 0-36.9-49.83l-60.06 44.48a31 31 0 0 0 36.9 49.83l5.7-4.23 18.37 24.81q-9.71 8.07-18.77 17.1a270.48 270.48 0 1 0 382.51 0zM685.83 661.45c-115 0-208.48-93.52-208.48-208.47s93.52-208.47 208.48-208.47S894.3 338 894.3 453s-93.52 208.45-208.47 208.45z"  /><path fill="#333333" d="M774.75 447.32h-77.92v-77.93a31 31 0 0 0-62 0v108.93a31 31 0 0 0 31 31h108.92a31 31 0 0 0 0-62z"  /></svg>