<?xml version="1.0" standalone="no"?><!DOCTYPE svg PUBLIC "-//W3C//DTD SVG 1.1//EN" "http://www.w3.org/Graphics/SVG/1.1/DTD/svg11.dtd"><svg class="icon" width="200px" height="200.00px" viewBox="0 0 1024 1024" version="1.1" xmlns="http://www.w3.org/2000/svg"><path fill="#333333" d="M864.21 162.84H719.64v-29.65a31 31 0 1 0-62 0v29.65H368.77v-29.65a31 31 0 0 0-62 0v29.65H160.35a62 62 0 0 0-62 62v634.81a62 62 0 0 0 62 62h703.86a62 62 0 0 0 62-62V224.84a62 62 0 0 0-62-62z m-557.44 62v25.7a31 31 0 1 0 62 0v-25.7h288.87v25.7a31 31 0 1 0 62 0v-25.7h144.57v137.62H160.35V224.84zM160.35 859.65V424.46h703.86v435.19z"  /><path fill="#333333" d="M468.14 643.45q28-13.38 28.05-48.28-4-64.36-92.16-67.06-92.16 4-97.5 79.13h64.11q2.67-25.46 30.72-25.48t28.05 21.46q0 26.85-42.74 24.14v42.92q46.74-2.67 45.41 26.82-2.7 26.9-32.08 28.16-16-1.32-25.37-9.38-9.36-10.73-9.35-26.83h-66.76q1.32 84.5 97.5 87.18 105.5-1.35 106.85-81.81-1.35-37.53-34.73-50.97zM546.94 583.1v49.62H603v140.83h70.78V528.11H620.4q-10.71 55.02-73.46 54.99z"  /></svg>