<?xml version="1.0" standalone="no"?><!DOCTYPE svg PUBLIC "-//W3C//DTD SVG 1.1//EN" "http://www.w3.org/Graphics/SVG/1.1/DTD/svg11.dtd"><svg class="icon" width="200px" height="200.00px" viewBox="0 0 1024 1024" version="1.1" xmlns="http://www.w3.org/2000/svg"><path fill="#333333" d="M864.23 164.16H720.06v-29.6a31 31 0 1 0-62 0v29.6H369.79v-29.6a31 31 0 0 0-62 0v29.6h-146a62 62 0 0 0-62 62v633.5a62 62 0 0 0 62 62h702.44a62 62 0 0 0 62-62v-633.5a62 62 0 0 0-62-62z m0 695.5H161.77V425.39h702.46zM161.77 363.39V226.16h146v25.55a31 31 0 0 0 62 0v-25.55h288.29v25.55a31 31 0 0 0 62 0v-25.55h144.17v137.23z"  /><path fill="#333333" d="M543.92 580.42q-74.7 79-82.67 183.43h73.33q6.66-123.17 78.67-187.45v-53.55H419.92v57.57z"  /></svg>