<?xml version="1.0" standalone="no"?><!DOCTYPE svg PUBLIC "-//W3C//DTD SVG 1.1//EN" "http://www.w3.org/Graphics/SVG/1.1/DTD/svg11.dtd"><svg class="icon" width="200px" height="200.00px" viewBox="0 0 1024 1024" version="1.1" xmlns="http://www.w3.org/2000/svg"><path fill="#333333" d="M866 162.84H721v-29.7a31 31 0 0 0-62 0v29.7H369.5v-29.7a31 31 0 0 0-62 0v29.7H160.63a62 62 0 0 0-62 62v636.25a62 62 0 0 0 62 62H866a62 62 0 0 0 62-62V224.84a62 62 0 0 0-62-62z m0 698.25H160.63v-436.2H866z m-705.4-498.2v-138h146.9v25.87a31 31 0 0 0 62 0v-25.92H659v25.87a31 31 0 0 0 62 0v-25.87h145v138z"  /><path fill="#333333" d="M407.52 572.52q25.39 2.72 28.1 24.19 2.67 25.54-50.85 59.12-36.13 24.2-52.19 40.31-32.11 33.6-29.43 68.53h203.39v-59.12h-112.4q5.33-4 20.07-10.75 20.07-10.74 29.44-17.47a60.57 60.57 0 0 0 8-5.37q56.2-36.29 56.21-75.25-2.7-75.24-97.69-77.93-101.7 0-101.69 99.43h64.23q-1.33-44.34 34.81-45.69zM632.32 764.67h66.9v-51.06H730v-52.4h-30.78v-138.4h-65.56L519.92 657.17v56.44h112.4z m-57.54-103.46l57.54-73.91v73.91z"  /></svg>