<?xml version="1.0" standalone="no"?><!DOCTYPE svg PUBLIC "-//W3C//DTD SVG 1.1//EN" "http://www.w3.org/Graphics/SVG/1.1/DTD/svg11.dtd"><svg class="icon" width="48px" height="48.00px" viewBox="0 0 1024 1024" version="1.1" xmlns="http://www.w3.org/2000/svg"><path fill="#333333" d="M512 67.71c-247.33 0-448 200.67-448 448s200.67 448 448 448 448-200.71 448-448-200.67-448-448-448zM547.82 772a35.84 35.84 0 0 1-71.64 0V436.88A36 36 0 0 1 512 400.93a35.8 35.8 0 0 1 35.82 35.82z m-7.19-428.33c-7.19 9-17.91 12.49-28.63 12.49h-7.19c-1.76 0-5.42 0-7.19-1.77s-5.42-1.76-7.19-3.53l-5.43-5.42c-9-7.19-12.49-17.91-12.49-28.63S478 295.37 485 288.18l5.42-5.43c1.77-1.76 5.43-1.76 7.19-3.53 1.77 0 5.43-1.76 7.19-1.76 12.49-1.77 26.87 1.76 35.82 9s12.49 17.91 12.49 28.63-5.29 21.39-12.48 28.58z" /></svg>