<?xml version="1.0" standalone="no"?><!DOCTYPE svg PUBLIC "-//W3C//DTD SVG 1.1//EN" "http://www.w3.org/Graphics/SVG/1.1/DTD/svg11.dtd"><svg class="icon" width="200px" height="200.00px" viewBox="0 0 1024 1024" version="1.1" xmlns="http://www.w3.org/2000/svg"><path fill="#333333" d="M512.31 67.09c-245.09 0-444 198.92-444 444s198.91 444 444 444 444-198.91 444-444-198.91-444-444-444z m0 818.74a374.74 374.74 0 1 1 0-749.47C720.1 136.36 887 305.08 887 511.1a373.67 373.67 0 0 1-374.69 374.73z m0-488.4A35.63 35.63 0 0 0 476.79 433v332.06a35.52 35.52 0 0 0 71 0V433a35.63 35.63 0 0 0-35.52-35.52z m-7.1-122.55c-1.78 0-5.33 1.78-7.11 1.78-1.77 1.78-5.33 1.78-7.1 3.56l-5.33 5.32c-7.11 7.11-12.43 17.76-12.43 28.42s3.55 21.31 12.43 28.42l5.33 5.32c1.77 1.78 5.33 1.78 7.1 3.56s5.33 1.77 7.11 1.77h7.1c10.65 0 21.31-3.55 28.41-12.43 7.11-7.1 12.43-17.76 12.43-28.42s-3.54-21.31-12.43-28.41-23.08-10.66-35.51-8.89z m0 0" /></svg>