<?xml version="1.0" standalone="no"?><!DOCTYPE svg PUBLIC "-//W3C//DTD SVG 1.1//EN" "http://www.w3.org/Graphics/SVG/1.1/DTD/svg11.dtd"><svg class="icon" width="200px" height="200.00px" viewBox="0 0 1024 1024" version="1.1" xmlns="http://www.w3.org/2000/svg"><path fill="#333333" d="M672.84 503.36H508.59v-164a31 31 0 0 0-62 0v195a31 31 0 0 0 31 31h195.25a31 31 0 0 0 0-62z"  /><path fill="#333333" d="M889.13 375.74a408.38 408.38 0 0 0-751.84 0 407.93 407.93 0 0 0 664.4 446.74 407.41 407.41 0 0 0 87.44-446.74zM513.21 879.8c-190.78 0-346-155-346-345.44s155.22-345.44 346-345.44 346 155 346 345.44S704 879.8 513.21 879.8zM149 227.8a31 31 0 0 0 20.47-7.72l93.21-82a31 31 0 0 0-41-46.55l-93.21 82A31 31 0 0 0 149 227.8zM763.74 138.08l93.21 82a31 31 0 0 0 40.95-46.56l-93.21-82a31 31 0 0 0-41 46.55z"  /></svg>