<?xml version="1.0" standalone="no"?><!DOCTYPE svg PUBLIC "-//W3C//DTD SVG 1.1//EN" "http://www.w3.org/Graphics/SVG/1.1/DTD/svg11.dtd"><svg class="icon" width="200px" height="200.00px" viewBox="0 0 1024 1024" version="1.1" xmlns="http://www.w3.org/2000/svg"><path fill="#333333" d="M147.34 399.79h15.06a57.36 57.36 0 0 0 54.89-40.16v-0.13a135.79 135.79 0 0 1 12-29.25l0.06-0.11c11.88-22.28 7.6-50.41-10.4-68.4l-10.66-10.67a6.32 6.32 0 0 1 0.28-2.92l42-42a8.85 8.85 0 0 1 1 0h0.92l10.86 12.23 0.18 0.19C275 230 289.77 236.3 305.12 236.3a58.43 58.43 0 0 0 26.71-6l0.22-0.11a135.54 135.54 0 0 1 29.24-11.95h0.13a57.38 57.38 0 0 0 40.19-55.07v-16.29a1.5 1.5 0 0 1 1.28-1.27h58.68a1.49 1.49 0 0 1 1.27 1.27v14.91a57.35 57.35 0 0 0 37 53.92 120.91 120.91 0 0 1 74.38-25.38h59.09a121.22 121.22 0 0 1 74.07 25.18 59.9 59.9 0 0 0-7.64-8.78l-42.54-42.55C645.43 152.37 627.91 145 611.53 145a63.49 63.49 0 0 0-45.71 19.15L557 173c-10.4-4.62-21.07-9.28-31.7-13v-13.31a63.93 63.93 0 0 0-63.49-63.5h-59.12a63.93 63.93 0 0 0-63.5 63.5v11.95c-10.75 3.77-21.54 8.5-32.06 13.16l-10.06-7.8c-11.81-11.72-29.22-19-45.51-19-17.58 0-33.35 6.83-44.43 19.24l-42.51 42.51a64.75 64.75 0 0 0-18.8 46.52 60.52 60.52 0 0 0 18.85 43.57l8.8 8.81c-4.61 10.39-9.27 21.06-13 31.7h-13.33a63.93 63.93 0 0 0-63.49 63.5V460a63.93 63.93 0 0 0 63.49 63.49h12c3.77 10.75 8.5 21.54 13.16 32l-7.83 10.07a64.79 64.79 0 0 0-18.6 46.32 60.58 60.58 0 0 0 18.85 43.59L207.23 698a67.22 67.22 0 0 0 27 16.15c-0.43-0.41-0.87-0.8-1.29-1.22a121.25 121.25 0 0 1-36.57-87v-59.06a121.06 121.06 0 0 1 20.36-67.34 57.36 57.36 0 0 0-54.32-38.47h-15.07a1.5 1.5 0 0 1-1.28-1.28v-58.7a1.52 1.52 0 0 1 1.28-1.29z"  /><path fill="#333333" d="M886.74 500.76l0.11-0.32h-18.16c-3.74-10.68-8.39-21.33-13-31.71l8.85-8.84a64.75 64.75 0 0 0 18.8-46.52 60.54 60.54 0 0 0-18.85-43.58l-42.54-42.55c-11.81-11.81-29.33-19.15-45.71-19.15a63.49 63.49 0 0 0-45.71 19.15l-8.85 8.85c-10.39-4.62-21.06-9.28-31.69-13v-13.34a64 64 0 0 0-63.5-63.5h-59.1a63.92 63.92 0 0 0-63.49 63.5v11.95c-10.76 3.77-21.55 8.5-32.06 13.16L461.77 327c-11.81-11.69-29.22-18.95-45.51-18.95-17.58 0-33.35 6.83-44.43 19.24l-42.5 42.51a64.72 64.72 0 0 0-18.81 46.52 60.56 60.56 0 0 0 18.85 43.58l8.8 8.8c-4.61 10.39-9.27 21.06-13 31.7h-13.32a64 64 0 0 0-63.5 63.5V623a64 64 0 0 0 63.5 63.49h11.95c3.77 10.75 8.5 21.54 13.16 32l-7.83 10.07a64.79 64.79 0 0 0-18.6 46.32 60.58 60.58 0 0 0 18.85 43.59l42.55 42.54c11.81 11.82 29.33 19.15 45.71 19.15a63.47 63.47 0 0 0 45.71-19.15l8.85-8.84c10.4 4.61 21.07 9.27 31.7 13v11.94a63.93 63.93 0 0 0 63.5 63.49h59.07A63.93 63.93 0 0 0 690 877.17v-11.94c10.7-3.74 21.34-8.4 31.7-13l8.84 8.84c11.82 11.82 29.33 19.15 45.71 19.15a63.5 63.5 0 0 0 45.72-19.15l42.59-42.59A64.75 64.75 0 0 0 883.32 772a60.5 60.5 0 0 0-18.85-43.58l-8.79-8.8c4.61-10.4 9.27-21.07 13-31.7h12a63.92 63.92 0 0 0 63.49-63.49v-59.12c-0.04-33.66-25.27-61.41-57.43-64.55z m-6.29 124.71H865.4a57.37 57.37 0 0 0-54.9 40.17v0.12a136.22 136.22 0 0 1-12 29.25l-0.06 0.12c-11.88 22.28-7.61 50.4 10.39 68.4l10.66 10.66a6.45 6.45 0 0 1-0.28 2.92l-42 42h-0.05a8.56 8.56 0 0 1-0.95 0h-0.92l-10.87-12.23-0.18-0.19C752.78 795.28 738 789 722.67 789a58.36 58.36 0 0 0-26.7 6l-0.17 0.08a135.93 135.93 0 0 1-29.29 12h-0.15a57.37 57.37 0 0 0-40.18 55V877a1.51 1.51 0 0 1-1.28 1.28h-58.66A1.52 1.52 0 0 1 565 877v-14.91A57.35 57.35 0 0 0 524.76 807h-0.15a136 136 0 0 1-29.28-12l-0.16-0.08a58.4 58.4 0 0 0-26.71-6c-15.35 0-30.11 6.31-41.57 17.77l-11 11a8.56 8.56 0 0 1-1 0H414a0.39 0.39 0 0 1-0.09-0.07l-42.27-42.24a6.35 6.35 0 0 1 0.24-2.82l11.61-10.32 0.18-0.17c18.06-18.06 22.17-44.87 10.45-68.3l-0.11-0.21a136 136 0 0 1-12-29.25v-0.13a57.37 57.37 0 0 0-54.89-40.17H312a1.51 1.51 0 0 1-1.28-1.28v-58.7a1.52 1.52 0 0 1 1.28-1.29h15.1a57.38 57.38 0 0 0 54.9-40.05v-0.13a135.79 135.79 0 0 1 12-29.25l0.06-0.11c11.88-22.28 7.6-50.41-10.4-68.4L373 414.14a6.49 6.49 0 0 1 0.28-2.93l42-42a8.85 8.85 0 0 1 1 0h0.92l10.87 12.23 0.17 0.19c11.47 11.46 26.23 17.77 41.58 17.77a58.43 58.43 0 0 0 26.71-6l0.22-0.11a135.6 135.6 0 0 1 29.25-12h0.12a57.38 57.38 0 0 0 40.19-55.07v-16.28a1.5 1.5 0 0 1 1.28-1.27h58.68a1.49 1.49 0 0 1 1.27 1.27v14.91a57.39 57.39 0 0 0 40.19 55h0.12a136.42 136.42 0 0 1 29.25 11.94l0.21 0.12a58.31 58.31 0 0 0 26.71 6c15.35 0 30.12-6.31 41.58-17.77l11-11v-0.05a6.43 6.43 0 0 1 1 0h0.92l0.08 0.07 42.27 42.26a6.54 6.54 0 0 1-0.28 2.94l-11.77 11.76c-18 18.06-22.15 44.86-10.44 68.3l0.11 0.22a136.11 136.11 0 0 1 12 29.25v0.12a57.36 57.36 0 0 0 54.89 40.18h15.06a1.5 1.5 0 0 1 1.29 1.27v58.71a1.51 1.51 0 0 1-1.28 1.3z"  /><path fill="#333333" d="M596.25 474.63a119.53 119.53 0 1 0 119.53 119.53 119.64 119.64 0 0 0-119.53-119.53z m45.68 165.21a64.61 64.61 0 1 1 18.89-45.68 64.51 64.51 0 0 1-18.89 45.68z"  /></svg>