<?xml version="1.0" standalone="no"?><!DOCTYPE svg PUBLIC "-//W3C//DTD SVG 1.1//EN" "http://www.w3.org/Graphics/SVG/1.1/DTD/svg11.dtd"><svg t="1642813433137" class="icon" viewBox="0 0 1024 1024" version="1.1" xmlns="http://www.w3.org/2000/svg" p-id="14317" xmlns:xlink="http://www.w3.org/1999/xlink" width="16" height="16"><defs><style type="text/css"></style></defs><path d="M845.43 181.57a63.82 63.82 0 0 0-45-18.7h-85.14a95.71 95.71 0 0 0-90.07-63.51H402.35A95.62 95.62 0 0 0 312.22 163h-85.06a63.84 63.84 0 0 0-63.75 63.67v635.95a63.83 63.83 0 0 0 63.75 63.67h573.07A63.63 63.63 0 0 0 864 862.77V226.56a63.75 63.75 0 0 0-18.57-44.99zM649.89 643.2a30.66 30.66 0 0 1-30 29.93h-1.21a28.21 28.21 0 0 1-27.6-28.8l2.15-116.76L424 696.43a29.55 29.55 0 0 1-41.72 0.82c-11.26-11.24-10.94-29.93 0.82-41.68l169.1-168.85-116.9 2.15a28.93 28.93 0 0 1-20.53-8.27 27.69 27.69 0 0 1-8.29-20.51 31 31 0 0 1 30-30.1l187.92-3.48v0.06h1.26a28.33 28.33 0 0 1 27.72 28.94z m-23.58-416.66H402.35a31.84 31.84 0 0 1-31.8-30.93V194a31.84 31.84 0 0 1 31.8-31h222.87a31.75 31.75 0 1 1 1.09 63.5z" p-id="14318"></path></svg>