<?xml version="1.0" standalone="no"?><!DOCTYPE svg PUBLIC "-//W3C//DTD SVG 1.1//EN" "http://www.w3.org/Graphics/SVG/1.1/DTD/svg11.dtd"><svg class="icon" width="200px" height="200.00px" viewBox="0 0 1024 1024" version="1.1" xmlns="http://www.w3.org/2000/svg"><path fill="#333333" d="M869.23 154a68.69 68.69 0 0 0-48.47-20.12h-91.6a103 103 0 0 0-96.94-68.35H392.35a102.91 102.91 0 0 0-97 68.53H203.8a68.71 68.71 0 0 0-68.61 68.53V887a68.71 68.71 0 0 0 68.61 68.53h616.78A68.49 68.49 0 0 0 889.19 887V202.43A68.67 68.67 0 0 0 869.23 154z m-511.1 13.34a34.26 34.26 0 0 1 34.22-33.28h239.87a34.18 34.18 0 1 1 0 68.35H392.35a34.27 34.27 0 0 1-34.22-33.29zM820.76 887h-617V202.43h91.6a102.75 102.75 0 0 0 97 68.35h239.86a102.73 102.73 0 0 0 96.94-68.35h91.6z"  /><path fill="#333333" d="M631.32 417.63l-202.26 3.74a33.36 33.36 0 0 0-32.26 32.4 29.75 29.75 0 0 0 8.92 22.07 31.09 31.09 0 0 0 22.09 8.9l125.82-2.31-182 181.73c-12.65 12.64-13 32.76-0.88 44.86a31.81 31.81 0 0 0 44.9-0.89l182.17-181.74-2.31 125.67a30.36 30.36 0 0 0 31 31 33 33 0 0 0 32.26-32.22l3.74-202a30.5 30.5 0 0 0-31.19-31.15z"  /></svg>