<?xml version="1.0" standalone="no"?><!DOCTYPE svg PUBLIC "-//W3C//DTD SVG 1.1//EN" "http://www.w3.org/Graphics/SVG/1.1/DTD/svg11.dtd"><svg class="icon" width="200px" height="200.00px" viewBox="0 0 1024 1024" version="1.1" xmlns="http://www.w3.org/2000/svg"><path fill="#333333" d="M131 544.47h132.8a31 31 0 0 0 0-62H131a31 31 0 1 0 0 62zM855 482.47H394.8a31 31 0 1 0 0 62H855a31 31 0 0 0 0-62zM131 252.81h406.52a31 31 0 0 0 0-62H131a31 31 0 0 0 0 62z"  /><path fill="#333333" d="M823.29 188.71a100.58 100.58 0 0 0-89.08 53.59 31 31 0 1 0 54.78 29 38.71 38.71 0 1 1 34.3 56.59H131a31 31 0 0 0 0 62h692.29A100.79 100.79 0 0 0 924 289.31c0-55.47-45.16-100.6-100.71-100.6zM640.53 639.5H131a31 31 0 1 0 0 62h509.5a38.61 38.61 0 1 1-34.3 56.58 31 31 0 0 0-54.78 29 100.77 100.77 0 0 0 189.82-47c0.03-55.45-45.16-100.58-100.71-100.58z"  /></svg>