<?xml version="1.0" standalone="no"?><!DOCTYPE svg PUBLIC "-//W3C//DTD SVG 1.1//EN" "http://www.w3.org/Graphics/SVG/1.1/DTD/svg11.dtd"><svg class="icon" width="200px" height="200.00px" viewBox="0 0 1024 1024" version="1.1" xmlns="http://www.w3.org/2000/svg"><path fill="#333333" d="M777.39 618.78l146.24-113c8-6.14 7.47-17.11 0-23.59l-146.24-113c-8.14-6.48-23.6-2.83-23.6 16.62V602c0 23.76 15.46 23.76 23.6 16.78zM135.1 251.21h736a36.56 36.56 0 0 0 0-73.12h-736a36.56 36.56 0 1 0 0 73.12zM135.1 531.15h525.78a36.56 36.56 0 1 0 0-73.12H135.1a36.56 36.56 0 1 0 0 73.12zM871.09 772.53h-736a36.56 36.56 0 1 0 0 73.12h736a36.56 36.56 0 0 0 0-73.12z" /></svg>