<?xml version="1.0" standalone="no"?><!DOCTYPE svg PUBLIC "-//W3C//DTD SVG 1.1//EN" "http://www.w3.org/Graphics/SVG/1.1/DTD/svg11.dtd"><svg class="icon" width="200px" height="200.00px" viewBox="0 0 1024 1024" version="1.1" xmlns="http://www.w3.org/2000/svg"><path fill="#333333" d="M509.22 565.54c-19.15 0-36.57 15.67-36.57 36.57v151.51c0 19.16 15.68 36.58 36.57 36.58s36.58-15.67 36.58-36.58V602.11c0-20.9-17.42-36.57-36.58-36.57zM821 393.12H350.74v-95.78c0-83.59 67.92-153.25 153.26-153.25 83.59 0 153.25 67.92 153.25 153.25a34.84 34.84 0 0 0 69.67 0c0-121.9-99.27-221.17-221.18-221.17-123.65 0-222.92 99.27-222.92 221.17v95.78h-85.33c-52.25 0-95.79 43.54-95.79 95.79v362.24c0 52.25 43.54 95.79 95.79 95.79h621.73c52.24 0 95.78-43.54 95.78-95.79V488.91c1.74-52.25-41.79-95.79-94-95.79z m22.64 458c0 12.2-10.45 24.39-24.38 24.39H197.49c-12.19 0-24.38-10.46-24.38-24.39V488.91c0-12.19 10.44-24.38 24.38-24.38h621.73c12.19 0 24.38 10.45 24.38 24.38z m0 0" /></svg>