<?xml version="1.0" standalone="no"?><!DOCTYPE svg PUBLIC "-//W3C//DTD SVG 1.1//EN" "http://www.w3.org/Graphics/SVG/1.1/DTD/svg11.dtd"><svg t="1642813420176" class="icon" viewBox="0 0 1024 1024" version="1.1" xmlns="http://www.w3.org/2000/svg" p-id="13736" xmlns:xlink="http://www.w3.org/1999/xlink" width="16" height="16"><defs><style type="text/css"></style></defs><path d="M811.47 400h-447.9v-91.2c0-79.61 64.69-146 146-146 79.62 0 146 64.69 146 146a33.18 33.18 0 0 0 66.35 0c0-116.1-94.55-210.65-210.66-210.65-117.77 0-212.32 94.55-212.32 210.65V400h-81.33c-49.76 0-91.23 41.47-91.23 91.23v345c0 49.77 41.47 91.24 91.23 91.24h592.16c49.76 0 91.23-41.47 91.23-91.24v-345c1.65-49.73-39.81-91.23-89.53-91.23zM586.68 706H442.37c-19.91 0-34.84-14.94-34.84-34.84s16.6-34.83 34.84-34.83h144.31c19.9 0 34.83 16.59 34.83 34.83s-14.93 34.91-34.83 34.91z" p-id="13737"></path></svg>