<?xml version="1.0" standalone="no"?><!DOCTYPE svg PUBLIC "-//W3C//DTD SVG 1.1//EN" "http://www.w3.org/Graphics/SVG/1.1/DTD/svg11.dtd"><svg class="icon" width="200px" height="200.00px" viewBox="0 0 1024 1024" version="1.1" xmlns="http://www.w3.org/2000/svg"><path fill="#333333" d="M607.15 300.29a132.29 132.29 0 0 0-94.16-39c-73.43 0-133.16 59.74-133.16 133.16V407h-4.38a63.07 63.07 0 0 0-63 63v195.61a63.07 63.07 0 0 0 63 63h275.07a63.07 63.07 0 0 0 63-63V470a63.07 63.07 0 0 0-63-63h-4.37v-12.55a132.34 132.34 0 0 0-39-94.16z m-165.32 94.16a71.16 71.16 0 0 1 142.32 0V407H441.83zM651.52 470v195.61a1 1 0 0 1-1 1H375.45a1 1 0 0 1-1-1V470a1 1 0 0 1 1-1h275.07a1 1 0 0 1 1 1z"  /><path fill="#333333" d="M497.49 572.41v40.74a15.5 15.5 0 0 0 31 0v-40.74a36.7 36.7 0 1 0-31 0z"  /><path fill="#333333" d="M844 215.18a1.44 1.44 0 0 0 0.37-2.3l-4.82-4.82c-85.44-89.89-200.7-139.29-324-139.29h-2.23c-245.19 0-445 199.36-445 445v1.77A459.09 459.09 0 0 0 86.56 643.2v0.13l47 121.47a1.44 1.44 0 0 0 2.72-0.12l66.52-228.5a1.43 1.43 0 0 0-1.91-1.73l-55.56 22.22a1.43 1.43 0 0 1-2-1.19c-1.23-12.79-2-26.34-2-39.48 0-206 167.32-373.36 372.91-373.8 205.15 0.44 371.13 167.76 371.13 372 0 205.59-167.32 372-372 372a365.89 365.89 0 0 1-150.85-32A375.3 375.3 0 0 1 249 775.88a6.94 6.94 0 0 0-9.81 0l-41.79 41.4a6.9 6.9 0 0 0 0 9.77 435.91 435.91 0 0 0 135.26 93.45 441.85 441.85 0 0 0 180.67 38.27c245.64 0 445-199.36 445-445A440.17 440.17 0 0 0 844 215.18z"  /></svg>