<?xml version="1.0" standalone="no"?><!DOCTYPE svg PUBLIC "-//W3C//DTD SVG 1.1//EN" "http://www.w3.org/Graphics/SVG/1.1/DTD/svg11.dtd"><svg class="icon" width="200px" height="200.00px" viewBox="0 0 1024 1024" version="1.1" xmlns="http://www.w3.org/2000/svg"><path fill="#333333" d="M511.88 796.11c21.29 0 37.26-16 37.26-37.22V335.21l120.67 120.55a36.37 36.37 0 0 0 51.47-51.41L574 257.21c-17.75-19.5-40.82-28.36-62.11-28.36s-44.37 8.86-60.34 24.82L304.24 400.8a36.37 36.37 0 0 0 51.47 51.41l120.67-120.54v425.45c-1.77 23 14.2 39 35.5 39z m0-726.81C267 69.3 68.22 267.85 68.22 512.48c0 170.18 95.83 322.64 248.45 398.86 5.32 1.78 10.64 3.55 16 3.55 12.42 0 26.62-7.09 31.94-19.5a35.51 35.51 0 0 0-16-47.86C219.06 783.7 139.2 656.07 139.2 512.48c0-205.63 166.82-372.27 372.68-372.27s372.66 166.64 372.66 372.27c0 143.59-79.85 271.22-209.4 335a35.68 35.68 0 1 0 31.94 63.81c152.62-74.4 248.45-226.86 248.45-398.81 0-244.63-198.76-443.18-443.65-443.18z m3.54 815.45h-5.32c-19.52-1.77-35.49 14.18-37.27 33.68 0 19.5 14.2 35.46 33.72 37.23h8.87c19.52 0 35.5-16 35.5-33.68 0-19.5-16-37.23-35.5-37.23z m0 0" /></svg>