<?xml version="1.0" standalone="no"?><!DOCTYPE svg PUBLIC "-//W3C//DTD SVG 1.1//EN" "http://www.w3.org/Graphics/SVG/1.1/DTD/svg11.dtd"><svg class="icon" width="200px" height="200.00px" viewBox="0 0 1024 1024" version="1.1" xmlns="http://www.w3.org/2000/svg"><path fill="#333333" d="M924 935.88c-16 0-30.16-12.42-30.16-28.38-14.19-177.39-149-319.3-324.61-345.91-14.19-1.77-24.83-14.19-26.61-28.38s7.1-28.38 21.28-31.93c72.73-23.06 120.63-88.69 120.63-165 0-94-78-172.06-173.84-172.06S336.88 242.3 336.88 338.09c0 76.27 47.9 141.91 120.63 165 14.19 3.55 23.05 17.74 21.28 31.92s-12.41 26.61-26.61 28.39c-175.61 24.8-308.65 168.48-322.84 344.1-1.78 17.73-16 30.15-33.7 28.38s-30.16-16-28.38-33.7c16-177.39 133-324.62 296.23-381.38-55-44.35-88.69-110-88.69-184.49 0-129.49 106.43-235.92 235.92-235.92s235.92 106.43 235.92 235.92c0 72.73-33.7 140.14-88.69 184.49 163.2 56.76 280.27 204 296.23 381.38 1.78 17.73-10.64 31.92-28.38 33.7z m0 0" /></svg>