<?xml version="1.0" standalone="no"?><!DOCTYPE svg PUBLIC "-//W3C//DTD SVG 1.1//EN" "http://www.w3.org/Graphics/SVG/1.1/DTD/svg11.dtd"><svg class="icon" width="200px" height="200.00px" viewBox="0 0 1024 1024" version="1.1" xmlns="http://www.w3.org/2000/svg"><path fill="#333333" d="M775.84 579.08A166.65 166.65 0 0 0 822 463.64c0-92.17-75-167.16-167.16-167.16a161.28 161.28 0 0 0-22.37 1.61C605.81 214 527.24 155.81 438.83 155.81c-112.22 0-203.49 91.27-203.49 203.49a202.21 202.21 0 0 0 64.78 149.09C167.86 560.29 75.51 683.78 63.34 826.61a33.71 33.71 0 0 0 8 25 34.66 34.66 0 0 0 23.27 12.17 33.58 33.58 0 0 0 25.11-7.78 34.37 34.37 0 0 0 12.17-23.45 307.07 307.07 0 0 1 260.59-278.17 34.39 34.39 0 0 0 5.36-66.76 134.16 134.16 0 0 1-93.6-128.32c0-74.27 60.5-134.77 134.77-134.77a134.35 134.35 0 0 1 129 96.47c-49.58 30.43-80.18 84.48-80.18 142.46a157.23 157.23 0 0 0 2.33 26 168 168 0 0 0 43.85 89.3C432.39 622.57 361.51 720.47 352 831.8a33.53 33.53 0 0 0 55 28.63 32.72 32.72 0 0 0 11.81-22.91A235.73 235.73 0 0 1 619.06 624a33.55 33.55 0 0 0 28.28-30.42 33.51 33.51 0 0 0-23.27-34.72 99.58 99.58 0 0 1-69.44-95.22l0.17-3.76a100.19 100.19 0 0 1 34.55-71.76 99 99 0 0 1 46.17-22.56c63.18-12.35 119.2 36.7 119.2 98.08a99.75 99.75 0 0 1-69.44 95.22 34.47 34.47 0 0 0-17.72 13.24 33.47 33.47 0 0 0 22.91 51.73c6.8 1.07 14 2.5 21.3 4.29a236 236 0 0 1 179 209.4 33.81 33.81 0 0 0 33.47 30.79 14.5 14.5 0 0 0 2.87-0.18A33.82 33.82 0 0 0 950 856.31a32.89 32.89 0 0 0 7.7-24.51c-9.49-111-80.36-208.87-181.84-252.72z m0 0" /></svg>