<?xml version="1.0" standalone="no"?><!DOCTYPE svg PUBLIC "-//W3C//DTD SVG 1.1//EN" "http://www.w3.org/Graphics/SVG/1.1/DTD/svg11.dtd"><svg class="icon" width="200px" height="200.00px" viewBox="0 0 1024 1024" version="1.1" xmlns="http://www.w3.org/2000/svg"><path fill="#333333" d="M887 412.65H743.74v-184a90.11 90.11 0 0 0-90-90H155.8a90.12 90.12 0 0 0-90 90v302.18a90.12 90.12 0 0 0 90 90h53.08V682a51.91 51.91 0 0 0 81.85 42.47l147.1-103.58H469v104.87c0 42.51 32.3 77.1 72 77.1h146.08l99.32 78.63a44.05 44.05 0 0 0 46.85 5.26c16.24-7.86 26.32-24.31 26.32-42.94v-40.95H887c39.71 0 72-34.59 72-77.1v-236c0-42.52-32.3-77.11-72-77.11z m-459 146.2a31 31 0 0 0-17.84 5.65l-139.28 98.07v-72.72a31 31 0 0 0-31-31H155.8a28.05 28.05 0 0 1-28-28V228.69a28 28 0 0 1 28-28h497.93a28 28 0 0 1 28 28v302.14a28 28 0 0 1-28 28H428z m469 166.91c0 8.64-5.28 15.1-10 15.1h-58.43a31 31 0 0 0-31 31v39.4l-80.47-63.7a31 31 0 0 0-19.24-6.7H541c-4.72 0-10-6.46-10-15.1V620.85h122.73a90.12 90.12 0 0 0 90-90v-56.2H887c4.73 0 10 6.46 10 15.1z"  /><path fill="#333333" d="M664.09 265.5a31 31 0 0 0-38.79-20.42l-246.82 76.59-199.68-76a31 31 0 1 0-22.05 58l209.68 79.76a31.07 31.07 0 0 0 20.21 0.63l257-79.76a31 31 0 0 0 20.45-38.8z"  /></svg>