<?xml version="1.0" standalone="no"?><!DOCTYPE svg PUBLIC "-//W3C//DTD SVG 1.1//EN" "http://www.w3.org/Graphics/SVG/1.1/DTD/svg11.dtd"><svg class="icon" width="200px" height="200.00px" viewBox="0 0 1024 1024" version="1.1" xmlns="http://www.w3.org/2000/svg"><path fill="#333333" d="M919 325.07a70.45 70.45 0 0 0-74.44 0l-76.2 44.31v-62c0-62-51.39-113.42-113.42-113.42H183.51c-62 0-113.42 51.39-113.42 113.42v411.11c0 62 51.39 113.42 113.42 113.42h473.16c62 0 113.42-51.39 113.42-113.42v-63.8L846.3 699a70.47 70.47 0 0 0 74.43 0c23-14.18 37.22-37.22 37.22-63.8V388.87c-1.78-26.58-16-49.62-39-63.8zM708.07 718.49a51.43 51.43 0 0 1-51.4 51.39H183.51a51.43 51.43 0 0 1-51.4-51.39V307.35a51.43 51.43 0 0 1 51.4-51.35h473.16a51.43 51.43 0 0 1 51.4 51.39z m186.07-85.06c0 5.31-3.54 8.86-5.31 10.63s-7.09 3.54-12.4 0l-109.88-63.8V442l109.88-63.79c5.31-3.55 10.63-1.78 12.4 0s5.31 3.54 5.31 10.63z m0 0" /></svg>