<?xml version="1.0" standalone="no"?><!DOCTYPE svg PUBLIC "-//W3C//DTD SVG 1.1//EN" "http://www.w3.org/Graphics/SVG/1.1/DTD/svg11.dtd"><svg class="icon" width="200px" height="200.00px" viewBox="0 0 1024 1024" version="1.1" xmlns="http://www.w3.org/2000/svg"><path fill="#333333" d="M511.48 165.53c-215 0-394.41 147.46-444.16 344.66 49.75 197.2 229.19 344.66 444.16 344.66s394.4-147.46 444.15-344.66C905.88 313 726.45 165.53 511.48 165.53z m0 621.81c-174.12 0-326.9-113.7-374.87-277.15C184.58 346.74 337.36 233 511.48 233s326.89 113.7 374.86 277.15c-48 163.45-200.76 277.15-374.86 277.15z m0-444.15c-85.28 0-156.35 69.29-156.35 156.34 0 85.28 69.29 156.34 156.35 156.34s156.33-69.28 156.33-156.34-71.06-156.34-156.33-156.34z m0 245.17c-49.75 0-88.84-39.08-88.84-88.83s39.09-88.83 88.84-88.83 88.83 39.09 88.83 88.83c0 48-39.09 88.83-88.83 88.83z m0 0" /></svg>