<?xml version="1.0" standalone="no"?><!DOCTYPE svg PUBLIC "-//W3C//DTD SVG 1.1//EN" "http://www.w3.org/Graphics/SVG/1.1/DTD/svg11.dtd"><svg t="1642817387902" class="icon" viewBox="0 0 1024 1024" version="1.1" xmlns="http://www.w3.org/2000/svg" p-id="10462" xmlns:xlink="http://www.w3.org/1999/xlink" width="16" height="16"><defs><style type="text/css"></style></defs><path d="M865.43 165.19H545v-27.41a33.41 33.41 0 0 0-9.8-23.38c-6.14-6.15-14.6-9-22.74-9.14a32.27 32.27 0 0 0-31.37 32.06v28.06H160.41A62.35 62.35 0 0 0 98 227.66v447.18a62.6 62.6 0 0 0 62.41 62.49h320.44v15.12L335.66 862.62a32.15 32.15 0 0 0 6.64 55.66 31.8 31.8 0 0 0 32-4.32l119.5-90.72s7.64-5.61 14.44-10.28a8.25 8.25 0 0 1 9.29 0L651.67 914a32.19 32.19 0 0 0 38.83-51.34L545.12 752.45v-15.12H865.6a62.6 62.6 0 0 0 62.4-62.49V227.68a62.73 62.73 0 0 0-62.57-62.49zM800 408.14L612 560.32a31.58 31.58 0 0 1-20.09 7.18h-0.16a31.23 31.23 0 0 1-17.92-5.5L395.74 441 267.31 556.86a32.21 32.21 0 0 1-43-48l147.21-132.62a32.14 32.14 0 0 1 39.48-2.66l179.27 121.79 169.44-137.25a32.65 32.65 0 0 1 23.57-7 32.19 32.19 0 0 1 16.76 57z" p-id="10463"></path></svg>