<?xml version="1.0" standalone="no"?><!DOCTYPE svg PUBLIC "-//W3C//DTD SVG 1.1//EN" "http://www.w3.org/Graphics/SVG/1.1/DTD/svg11.dtd"><svg class="icon" width="200px" height="200.00px" viewBox="0 0 1024 1024" version="1.1" xmlns="http://www.w3.org/2000/svg"><path fill="#333333" d="M590 703.71h141.85q-85.46 90.4-94.59 209.87h83.91q7.62-140.93 90-214.47v-61.28H590zM483.46 267.3a31 31 0 0 0-31 31v205.16L342.54 613.38a31 31 0 1 0 43.84 43.84l119-119c0.37-0.37 0.74-0.75 1.09-1.14 0.13-0.14 0.25-0.29 0.37-0.43s0.42-0.47 0.62-0.72 0.34-0.43 0.5-0.65 0.29-0.35 0.42-0.53 0.36-0.5 0.54-0.76l0.33-0.47c0.18-0.27 0.34-0.54 0.51-0.8l0.3-0.48c0.16-0.27 0.31-0.54 0.46-0.81s0.2-0.34 0.29-0.52 0.27-0.51 0.4-0.77 0.2-0.4 0.29-0.6 0.22-0.47 0.33-0.71l0.3-0.69c0.09-0.22 0.17-0.43 0.25-0.64s0.21-0.53 0.3-0.8 0.13-0.38 0.19-0.56 0.2-0.6 0.29-0.9 0.1-0.33 0.14-0.5l0.27-1c0-0.15 0.07-0.31 0.1-0.46 0.08-0.34 0.16-0.68 0.22-1l0.09-0.47c0.06-0.33 0.12-0.67 0.17-1 0-0.18 0-0.36 0.07-0.54s0.08-0.63 0.11-0.95 0-0.49 0.06-0.73 0-0.52 0-0.78V298.3a31 31 0 0 0-30.93-31z"  /><path fill="#333333" d="M950.89 447.88a31 31 0 0 0-43.84 0l-4.68 4.69a420.25 420.25 0 1 0-462.12 473.24 29.93 29.93 0 0 0 3.4 0.19 31 31 0 0 0 3.35-61.82c-81.77-8.92-155.8-44.44-214.09-102.74-139.58-139.58-139.58-366.7 0-506.28s366.71-139.59 506.29 0c52.59 52.58 86.68 118.27 99.33 189.71a31 31 0 0 0-40.34 46.85l54.45 54.45a31 31 0 0 0 43.84 0l54.44-54.45a31 31 0 0 0-0.03-43.84z"  /></svg>