<?xml version="1.0" standalone="no"?><!DOCTYPE svg PUBLIC "-//W3C//DTD SVG 1.1//EN" "http://www.w3.org/Graphics/SVG/1.1/DTD/svg11.dtd"><svg class="icon" width="200px" height="200.00px" viewBox="0 0 1024 1024" version="1.1" xmlns="http://www.w3.org/2000/svg"><path fill="#333333" d="M734.36 354.72a31 31 0 0 0-31-31H339.17a31 31 0 0 0 0 62h364.19a31 31 0 0 0 31-31zM339.17 527.07a31 31 0 1 0 0 62H548a31 31 0 0 0 0-62z"  /><path fill="#333333" d="M590.66 858.79h-366V167.44h570v472.81l57.4-57.8c1.49-1.5 3-2.92 4.61-4.29V167.44c0-37.46-27.76-67.83-62-67.83h-570c-34.25 0-62 30.37-62 67.83v691.35c0 37.46 27.76 67.82 62 67.82h366.39a101.64 101.64 0 0 1-0.4-67.82z"  /><path fill="#333333" d="M932.51 874.56l-95-87.48 95-87.47a31 31 0 1 0-42-45.61l-98.77 90.94L693 654a31 31 0 1 0-42 45.61l95 87.47-95 87.48a31 31 0 0 0 42 45.61l98.77-90.95 98.77 90.95a31 31 0 1 0 42-45.61z"  /></svg>