<?xml version="1.0" standalone="no"?><!DOCTYPE svg PUBLIC "-//W3C//DTD SVG 1.1//EN" "http://www.w3.org/Graphics/SVG/1.1/DTD/svg11.dtd"><svg class="icon" width="200px" height="200.00px" viewBox="0 0 1024 1024" version="1.1" xmlns="http://www.w3.org/2000/svg"><path fill="#333333" d="M512.52 69.43C267.62 69.43 68.87 268 68.87 512.61s198.75 443.18 443.65 443.18 443.65-198.54 443.65-443.18S757.42 69.43 512.52 69.43z m0 824.31C301.34 893.74 131 723.56 131 512.61s170.34-381.13 381.52-381.13 381.54 170.18 381.54 381.13S723.7 893.74 512.52 893.74zM681.1 344.2c-12.42-12.4-30.16-12.4-42.58 0l-126 125.86-126-125.86c-12.42-12.4-30.17-12.4-42.59 0s-12.42 30.14 0 42.55l126 125.86-126 125.86c-12.42 12.41-12.42 30.14 0 42.55s30.17 12.41 42.59 0l126-125.86 126 125.84c12.42 12.41 30.16 12.41 42.58 0s12.43-30.14 0-42.55l-126-125.86 126-125.86c12.43-12.41 12.43-31.91 0-42.55z m0 0" /></svg>