<?xml version="1.0" standalone="no"?><!DOCTYPE svg PUBLIC "-//W3C//DTD SVG 1.1//EN" "http://www.w3.org/Graphics/SVG/1.1/DTD/svg11.dtd"><svg class="icon" width="200px" height="200.00px" viewBox="0 0 1024 1024" version="1.1" xmlns="http://www.w3.org/2000/svg"><path fill="#333333" d="M69 513.81C69 758.44 267.75 957 512.65 957S956.3 758.44 956.3 513.81 757.54 70.63 512.65 70.63 69 269.17 69 513.81z m818.1 0c0 205.63-166.81 374-374.44 374-205.86 0-374.45-168.41-374.45-374s168.59-374 374.45-374 374.44 168.41 374.44 374z m-273.3 42.54c17.75 0 31.94 14.18 31.94 33.68 0 17.73-14.19 33.68-31.94 33.68h-62.11v42.55c0 23-17.75 42.54-39 42.54s-39-19.5-39-42.54v-42.55h-62.2c-17.74 0-31.94-14.18-31.94-33.68 0-17.72 14.2-33.68 31.94-33.68h62.12v-33.68h-62.12c-17.74 0-31.94-14.18-31.94-33.68 0-17.73 14.2-33.69 31.94-33.69h62.12v-1.77l-69.22-74.45c-12.42-14.18-12.42-33.68 0-47.87 5.33-7.08 14.2-10.63 23.08-10.63s16 3.55 23.07 10.63l63.88 67.37 63.89-69.14c5.32-7.09 14.2-10.63 23.07-10.63s16 3.54 23.07 10.63c12.42 14.18 12.42 33.68 0 47.86L555.24 450v3.54h62.11c17.74 0 31.94 14.18 31.94 33.68 0 17.73-14.2 33.68-31.94 33.68h-62.11v33.68h58.56z m0 0" /></svg>