<?xml version="1.0" standalone="no"?><!DOCTYPE svg PUBLIC "-//W3C//DTD SVG 1.1//EN" "http://www.w3.org/Graphics/SVG/1.1/DTD/svg11.dtd"><svg class="icon" width="200px" height="200.00px" viewBox="0 0 1024 1024" version="1.1" xmlns="http://www.w3.org/2000/svg"><path fill="#333333" d="M514 591.43c-25.44 0-40.63 22.09-40.63 59.09 0 19.68 4.24 35.78 12.27 46.57 7 9.43 16.56 14.21 28.36 14.21s21.35-4.78 28.37-14.21c8-10.79 12.26-26.89 12.26-46.57-0.03-37-15.22-59.09-40.63-59.09zM710 593.1h-20.37v44.07H710c42 0 42-14.67 42-23.43 0-9.2 0-20.64-42-20.64z"  /><path fill="#333333" d="M513.89 64.72c-247.15 0-447.5 200.35-447.5 447.5s200.35 447.51 447.5 447.51S961.4 759.37 961.4 512.22 761 64.72 513.89 64.72z m-99 529.21h-72.1V757h-56.31V594h-72.1v-48.24h200.49z m169.92 136.36c-17.69 19.64-42.19 30-70.84 30s-53.15-10.38-70.84-30-27.07-47.24-27.07-79.77c0-32.15 9.39-59.37 27.16-78.71s42.13-29.39 70.75-29.39 53.09 10.16 70.75 29.39 27.17 46.56 27.17 78.71c0 32.53-9.37 60.12-27.08 79.77z m194.59-61.86c-16.3 10.67-38.53 16.07-66.08 16.07h-23.69V757h-56.29V545.76h80c28.55 0 50 4.53 65.69 13.84 19.12 11.38 29.23 30.11 29.23 54.14-0.02 23.42-9.99 42.33-28.86 54.69zM799.91 487a37.83 37.83 0 0 1-53.25 5.27L514 301.41 281.28 492.23a37.85 37.85 0 0 1-48-58.54l256.6-210.41a36.93 36.93 0 0 1 8.14-5.14 37.62 37.62 0 0 1 12.13-3.33h0.1c0.47-0.05 0.94-0.08 1.41-0.11h4.52c0.51 0 1 0.06 1.52 0.11a37.77 37.77 0 0 1 12.23 3.34 37.37 37.37 0 0 1 8.12 5.13l256.58 210.41a37.86 37.86 0 0 1 5.28 53.31z"  /></svg>