<?xml version="1.0" standalone="no"?><!DOCTYPE svg PUBLIC "-//W3C//DTD SVG 1.1//EN" "http://www.w3.org/Graphics/SVG/1.1/DTD/svg11.dtd"><svg class="icon" width="200px" height="200.00px" viewBox="0 0 1024 1024" version="1.1" xmlns="http://www.w3.org/2000/svg"><path fill="#333333" d="M215.67 576.09h73.35v166.09h42.83V576.09h73.35v-34.62H215.67v34.62zM513.23 538.07c-27 0-50.09 9.54-66.66 27.6-16.83 18.33-25.73 44.39-25.73 75.33 0 31.32 8.88 57.74 25.68 76.42 16.6 18.44 39.67 28.19 66.71 28.19s50.12-9.75 66.71-28.19c16.81-18.68 25.69-45.1 25.69-76.42 0-30.92-8.9-57-25.73-75.31-16.57-18.08-39.62-27.62-66.67-27.62z m0 172c-30 0-48.55-26.5-48.55-69.14 0-41.6 18.6-67.44 48.55-67.44s48.56 25.84 48.56 67.44c0 42.69-18.61 69.19-48.56 69.19zM779.17 554.56c-14.77-8.81-35.42-13.09-63.14-13.09h-74.14v200.71h42.83v-73.82H716c26.61 0 47.9-5.11 63.28-15.2 17.06-11.18 26.08-28.36 26.08-49.66 0.03-22.11-8.79-38.58-26.19-48.94z m-66.52 80h-27.93v-59.32h27.93c41.56 0 49.91 10.81 49.91 28.26 0 15.38-5.93 31.1-49.91 31.1zM252.12 474.79a24.75 24.75 0 0 0 15.74-5.64l245.37-201.51L758.6 469.15a24.89 24.89 0 0 0 31.52-38.52l-261.06-214.4a24.78 24.78 0 0 0-13.34-5.57l-1-0.07h-2.98l-0.95 0.07h-0.05a24.47 24.47 0 0 0-8 2.19 25 25 0 0 0-5.35 3.38l-261.05 214.4a24.9 24.9 0 0 0 15.78 44.16z"  /><path fill="#333333" d="M511.33 126.72A384.14 384.14 0 1 1 361.3 157a383 383 0 0 1 150-30.27m0-62c-247.15 0-447.5 200.35-447.5 447.5s200.35 447.51 447.5 447.51 447.54-200.37 447.54-447.52-200.36-447.5-447.51-447.5z"  /></svg>