<?xml version="1.0" standalone="no"?><!DOCTYPE svg PUBLIC "-//W3C//DTD SVG 1.1//EN" "http://www.w3.org/Graphics/SVG/1.1/DTD/svg11.dtd"><svg class="icon" width="200px" height="200.00px" viewBox="0 0 1024 1024" version="1.1" xmlns="http://www.w3.org/2000/svg"><path fill="#333333" d="M511 68.47C266.11 68.47 67.35 267 67.35 511.65S266.11 954.82 511 954.82s443.66-198.54 443.66-443.17S755.9 68.47 511 68.47z m0 824.31c-211.18 0-381.54-170.18-381.54-381.13S299.82 130.51 511 130.51s381.54 170.18 381.54 381.14S722.18 892.78 511 892.78z m168.59-549.54c-12.42-12.41-30.17-12.41-42.59 0L511 469.1 385 343.24c-12.42-12.41-30.16-12.41-42.58 0s-12.43 30.13 0 42.54l126 125.87-126 125.86c-12.43 12.4-12.43 30.13 0 42.54s30.16 12.41 42.58 0l126-125.86 126 125.86c12.42 12.41 30.17 12.41 42.59 0s12.43-30.14 0-42.54l-126-125.86 126-125.87c12.43-12.41 12.43-31.91 0-42.54z m0 0" /></svg>