<?xml version="1.0" standalone="no"?><!DOCTYPE svg PUBLIC "-//W3C//DTD SVG 1.1//EN" "http://www.w3.org/Graphics/SVG/1.1/DTD/svg11.dtd"><svg class="icon" width="200px" height="200.00px" viewBox="0 0 1024 1024" version="1.1" xmlns="http://www.w3.org/2000/svg"><path fill="#333333" d="M846.34 368.39a31 31 0 0 0-33.09 4.55L587.3 565.3l-12.24 10.43L402 423.54l-16-14.1a31 31 0 0 0-39.37-1.31l-210 161.07a31 31 0 0 0-12.1 24.54v293.34a31 31 0 0 0 31 30.95h677.83a31 31 0 0 0 31-30.95V396.49a31 31 0 0 0-18.02-28.1zM350.47 856.13h-164V609l164-125.81z m225.94 0H412.46V515.25l141.78 124.66a30.94 30.94 0 0 0 22.17 7.67z m226 0h-164v-253l164-139.58z"  /><path fill="#333333" d="M912.33 132a31 31 0 0 0-30.18-24h-196a30.95 30.95 0 1 0 0 61.89H796L577.21 348.57 395.53 199.81l-0.41-0.33c-0.39-0.33-0.8-0.64-1.21-0.94l-0.07-0.06c-0.39-0.28-0.77-0.55-1.17-0.81l-0.21-0.14c-0.34-0.22-0.68-0.44-1-0.65l-0.41-0.24-0.84-0.47-0.62-0.32-0.65-0.32-0.82-0.38-0.47-0.2c-0.33-0.15-0.67-0.28-1-0.41l-0.33-0.12-1.13-0.4-0.24-0.07c-0.4-0.13-0.8-0.25-1.21-0.36l-0.2-0.06-1.23-0.3-0.24-0.05-1.19-0.23-0.32-0.06-1.1-0.16-0.47-0.05c-0.31 0-0.63-0.07-0.94-0.09h-4.23l-1.17 0.09h-0.27l-1.26 0.16h-0.18c-0.43 0.07-0.87 0.14-1.3 0.23h-0.16c-0.43 0.08-0.85 0.18-1.28 0.28l-0.2 0.05-1.19 0.32-0.3 0.09-1.06 0.34-0.45 0.16-0.88 0.34-0.64 0.26-0.66 0.29-0.86 0.4-0.44 0.22-1.06 0.56-0.23 0.13c-0.41 0.23-0.82 0.48-1.22 0.73l-0.08 0.05c-0.43 0.27-0.85 0.56-1.27 0.85l-0.43 0.31L128.34 360.1a31 31 0 0 0 35.82 50.51l209.89-148.34L557.53 412.5l0.24 0.18 0.8 0.63 0.3 0.21c0.58 0.43 1.16 0.83 1.76 1.21l0.29 0.18 0.72 0.42 0.66 0.38 0.62 0.33 0.9 0.45 0.44 0.21c1 0.44 2 0.84 3 1.18h0.13c0.49 0.16 1 0.31 1.46 0.44h0.13a31.62 31.62 0 0 0 4.79 0.92h0.24c0.45 0.05 0.9 0.09 1.35 0.11H577.3c0.72 0 1.45 0 2.17-0.09l0.66-0.05c0.71-0.07 1.42-0.15 2.12-0.27l0.59-0.11c0.55-0.1 1.11-0.22 1.66-0.35l0.74-0.19c0.68-0.18 1.36-0.38 2-0.61l0.58-0.21c0.59-0.22 1.18-0.45 1.77-0.71l0.43-0.18c0.72-0.33 1.43-0.69 2.13-1.07l0.31-0.18a29.77 29.77 0 0 0 4.23-2.88l0.12-0.09 305.07-248.93A30.9 30.9 0 0 0 912.33 132z"  /></svg>