<?xml version="1.0" standalone="no"?><!DOCTYPE svg PUBLIC "-//W3C//DTD SVG 1.1//EN" "http://www.w3.org/Graphics/SVG/1.1/DTD/svg11.dtd"><svg class="icon" width="200px" height="200.00px" viewBox="0 0 1024 1024" version="1.1" xmlns="http://www.w3.org/2000/svg"><path fill="#333333" d="M865.48 180.3H715.65v-26.44c0-21.16-14.1-38.78-31.73-38.78s-31.73 17.62-31.73 38.78v26.44H371.91v-26.44c0-21.16-14.1-38.78-31.73-38.78s-31.73 17.62-31.73 38.78v26.44h-151.6a86.52 86.52 0 0 0-86.38 86.38v558.79a86.52 86.52 0 0 0 86.38 86.38h708.63a86.52 86.52 0 0 0 86.38-86.38V266.68a86.52 86.52 0 0 0-86.38-86.38z m-708.63 65.22h149.84v47.6c0 21.15 14.1 38.78 31.72 38.78s31.73-17.63 31.73-38.78v-47.6h280.29v47.6c0 21.15 14.1 38.78 31.72 38.78s31.74-17.63 31.74-38.78v-47.6h149.83c12.34 0 21.15 10.58 21.15 21.16V374.2H135.7V266.68c0-12.34 8.81-21.16 21.15-21.16z m708.63 601.11H156.85c-12.34 0-21.15-10.58-21.15-21.16v-387.8h752.7v387.8c-1.76 10.58-10.58 21.16-22.92 21.16zM752.67 545.19h-84.62c-15.86 0-28.2 14.1-28.2 31.73s12.34 31.74 28.2 31.74h84.62c15.86 0 28.2-14.11 28.2-31.74s-14.1-31.73-28.2-31.73z m0 151.6h-84.62c-15.86 0-28.2 14.1-28.2 31.73s12.34 31.73 28.2 31.73h84.62c15.86 0 28.2-14.1 28.2-31.73-1.76-17.63-14.1-31.73-28.2-31.73z m-193.91-151.6h-84.61c-15.86 0-28.2 14.1-28.2 31.73s12.34 31.74 28.2 31.74h84.61c15.87 0 28.21-14.11 28.21-31.74s-12.34-31.73-28.21-31.73z m0 151.6h-84.61c-15.86 0-28.2 14.1-28.2 31.73s12.34 31.73 28.2 31.73h84.61c15.87 0 28.21-14.1 28.21-31.73s-12.34-31.73-28.21-31.73z m-193.9-151.6H282c-15.87 0-28.21 14.1-28.21 31.73s12.34 31.74 28.21 31.74h84.61c15.86 0 28.2-14.11 28.2-31.74s-14.1-31.73-30-31.73z m0 151.6H282c-15.87 0-28.21 14.1-28.21 31.73s12.34 31.73 28.21 31.73h84.61c15.86 0 28.2-14.1 28.2-31.73-1.76-17.63-14.1-31.73-30-31.73z m0 0" /></svg>