<?xml version="1.0" standalone="no"?><!DOCTYPE svg PUBLIC "-//W3C//DTD SVG 1.1//EN" "http://www.w3.org/Graphics/SVG/1.1/DTD/svg11.dtd"><svg class="icon" width="200px" height="200.00px" viewBox="0 0 1024 1024" version="1.1" xmlns="http://www.w3.org/2000/svg"><path fill="#333333" d="M389 136.36h245.11a35.78 35.78 0 0 0 0-71.55H389a35.78 35.78 0 1 0 0 71.55z m463.31 44.73l-678-1.79a35.78 35.78 0 1 0 0 71.55l678 1.79a35.78 35.78 0 0 0 0-71.55z m-87.66 98.38a35.88 35.88 0 0 0-35.78 35.78v545.59c0 12.52-10.73 25-25 25h-390c-12.53 0-25.05-10.73-25.05-25V315.25a35.78 35.78 0 1 0-71.55 0v545.59a96.2 96.2 0 0 0 96.6 96.6h390a96.2 96.2 0 0 0 96.6-96.6V315.25c1.79-19.68-14.31-35.78-35.78-35.78zM449.86 710.58V431.52a35.78 35.78 0 0 0-71.55 0v280.85a35.88 35.88 0 0 0 35.77 35.77c19.68 0 35.78-16.1 35.78-37.56z m193.19 0V431.52a35.78 35.78 0 0 0-71.55 0v280.85a35.88 35.88 0 0 0 35.78 35.77c19.67 0 35.77-16.1 35.77-37.56z m0 0" /></svg>