<?xml version="1.0" standalone="no"?><!DOCTYPE svg PUBLIC "-//W3C//DTD SVG 1.1//EN" "http://www.w3.org/Graphics/SVG/1.1/DTD/svg11.dtd"><svg class="icon" width="200px" height="200.00px" viewBox="0 0 1024 1024" version="1.1" xmlns="http://www.w3.org/2000/svg"><path fill="#333333" d="M881.43 839.42V266L672 102.14H253.1c-57.5 0-104.69 36.87-104.69 81.92v655.36c0 45.06 47.19 81.92 104.69 81.92h523.47c57.68 0 104.86-36.86 104.86-81.92zM310.12 684.27A32.24 32.24 0 0 1 342.4 652H655a32.28 32.28 0 1 1 0 64.55H342.4a32.24 32.24 0 0 1-32.28-32.27z m0-129.44a32.23 32.23 0 0 1 32.28-32.27h334.06a32.28 32.28 0 1 1 0 64.55H342.4a32.14 32.14 0 0 1-32.28-32.28z m204.8-129.27a32.24 32.24 0 0 1-32.28 32.28H342.56a32.28 32.28 0 1 1 0-64.55h140.08a32.12 32.12 0 0 1 32.28 32.27z m330.14-107.8H708.91c-47.35 0-86.18-38.83-86.18-86.18v-93.07z m0 0" /></svg>