<?xml version="1.0" standalone="no"?><!DOCTYPE svg PUBLIC "-//W3C//DTD SVG 1.1//EN" "http://www.w3.org/Graphics/SVG/1.1/DTD/svg11.dtd"><svg t="1642813417740" class="icon" viewBox="0 0 1024 1024" version="1.1" xmlns="http://www.w3.org/2000/svg" p-id="13590" xmlns:xlink="http://www.w3.org/1999/xlink" width="16" height="16"><defs><style type="text/css"></style></defs><path d="M296.42 785.23H170.85A37.89 37.89 0 0 1 133 747.34V621.77A37.92 37.92 0 0 1 144.06 595l471.72-471.74a42.22 42.22 0 0 1 59.7 0l119.44 119.45a42.21 42.21 0 0 1 0 59.7L323.21 774.13a37.86 37.86 0 0 1-26.79 11.1z" p-id="13591"></path><path d="M132.96 833.09m42.22 0l675.56 0q42.22 0 42.22 42.22l0 0q0 42.22-42.22 42.22l-675.56 0q-42.22 0-42.22-42.22l0 0q0-42.22 42.22-42.22Z" p-id="13592"></path></svg>