<?xml version="1.0" standalone="no"?><!DOCTYPE svg PUBLIC "-//W3C//DTD SVG 1.1//EN" "http://www.w3.org/Graphics/SVG/1.1/DTD/svg11.dtd"><svg class="icon" width="200px" height="200.00px" viewBox="0 0 1024 1024" version="1.1" xmlns="http://www.w3.org/2000/svg"><path fill="#333333" d="M885.5 903.72333333l-38.53-39-37.36-37.84c58.7-81.82 51.67-197.32-21.12-271a205 205 0 0 0-292.29 0c-80.59 81.63-80.59 214.46 0 296.1a205 205 0 0 0 267.56 21.40000001l37.36 37.83999999 38.53 39a32.13 32.13 0 0 0 45.85 0 33.15 33.15 0 0 0 0-46.49999999z m-142.86-98.27a140.7 140.7 0 0 1-200.59 0c-55.31-56-55.31-147.18 0-203.21a140.73 140.73 0 0 1 200.59 0c55.36 56.03 55.36 147.19 0 203.21zM674.18 345.24333333a31.16 31.16 0 0 0-31-31.36H301.83a31.36 31.36 0 0 0 0 62.72h341.39a31.16 31.16 0 0 0 30.96-31.36z"  /><path fill="#333333" d="M442.39 874.58333333H218a33.06 33.06 0 0 1-32.81-33.22999999v-653.4A33.06 33.06 0 0 1 218 154.72333334h509.1a33.06 33.06 0 0 1 32.81 33.22999999v286.00000001a258.6 258.6 0 0 1 60.14 42.99999999v-329c0-51.92-41.69-94.16-92.95-94.15999999H218c-51.26 0-92.95 42.24-92.95 94.15999999v653.41c0 51.92 41.69 94.16 92.95 94.16h295.52a260.32 260.32 0 0 1-54.3-42.15999999q-8.91-9.03-16.83-18.78000001z"  /><path fill="#333333" d="M459.22 506.34333333a262.44 262.44 0 0 1 31.56-27.24999999H301.83a31.36 31.36 0 0 0 0 62.70999999h128a264.62 264.62 0 0 1 29.39-35.46zM301.83 644.37333333a31.36 31.36 0 0 0 0 62.71h82.08c-0.28-5-0.44-10.13-0.44-15.22999999a268.89 268.89 0 0 1 4.21-47.48000001z"  /></svg>