<?xml version="1.0" standalone="no"?><!DOCTYPE svg PUBLIC "-//W3C//DTD SVG 1.1//EN" "http://www.w3.org/Graphics/SVG/1.1/DTD/svg11.dtd"><svg class="icon" width="200px" height="200.00px" viewBox="0 0 1024 1024" version="1.1" xmlns="http://www.w3.org/2000/svg"><path fill="#333333" d="M371.8 368.56L480.16 260.2v381.91a33.72 33.72 0 0 0 33.75 33.75c19.54 0 33.75-14.2 33.75-33.75V262L656 370.33c12.44 12.44 33.76 12.44 46.19 0s12.44-33.75 0-46.18L569 190.93c-16-16-35.52-23.1-55.06-23.1s-39.08 7.11-55.07 23.1L325.61 324.15c-12.43 12.43-12.43 33.75 0 46.18s32 12.44 46.19-1.77z m550.67 104.8a33.72 33.72 0 0 0-33.75 33.75v250.47A33.73 33.73 0 0 1 855 791.33H171.07a33.73 33.73 0 0 1-33.75-33.75V507.11a33.72 33.72 0 0 0-33.74-33.75c-17.77 0-35.53 16-35.53 33.75v250.47a103.09 103.09 0 0 0 103 103h682.14a103.09 103.09 0 0 0 103-103V507.11c0-17.76-16-33.75-33.74-33.75z m0 0" /></svg>