<?xml version="1.0" standalone="no"?><!DOCTYPE svg PUBLIC "-//W3C//DTD SVG 1.1//EN" "http://www.w3.org/Graphics/SVG/1.1/DTD/svg11.dtd"><svg class="icon" width="200px" height="200.00px" viewBox="0 0 1024 1024" version="1.1" xmlns="http://www.w3.org/2000/svg"><path fill="#333333" d="M884.68 845.42v-581.9L672.2 97.26H247.08c-58.36 0-106.24 37.41-106.24 83.13v665c0 45.72 47.88 83.13 106.24 83.13h531.19c58.53 0 106.41-37.41 106.41-83.13z m-81.3-562.29h-93.61a54.84 54.84 0 0 1-54.69-54.69v-61.35zM819 348.81v496.61c-0.67 4-14.8 17.46-40.57 17.46H247.08c-25.77 0-39.91-13.47-40.57-17.63v-665c0.66-4 14.8-17.45 40.57-17.45h342.16v65.67c0 66.33 54 120.37 120.37 120.37z m0 0" /></svg>