<?xml version="1.0" standalone="no"?><!DOCTYPE svg PUBLIC "-//W3C//DTD SVG 1.1//EN" "http://www.w3.org/Graphics/SVG/1.1/DTD/svg11.dtd"><svg class="icon" width="200px" height="200.00px" viewBox="0 0 1024 1024" version="1.1" xmlns="http://www.w3.org/2000/svg"><path fill="#333333" d="M869.3 368.44a93.11 93.11 0 0 0 0-131.52L724 91.61a93 93 0 0 0-125-6 30.81 30.81 0 0 0-8.56 11.28l-25.2-11.24a57.56 57.56 0 0 0-44.62-0.82 53.82 53.82 0 0 0-30.2 29.52l-4.51 10.11c-10.1-0.53-20.44-1-30.47-0.72l-4.23-11.07a56.87 56.87 0 0 0-72.93-32.53L329.24 99a56.86 56.86 0 0 0-32.54 72.9l3.81 9.93c-7.73 6.55-15.19 13.91-22.44 21.12l-10.85-3.29a57.56 57.56 0 0 0-44.39-0.72 53.82 53.82 0 0 0-30.2 29.52l-21.8 48.86c-6.06 13.58-6.58 30.46-1.37 44.06a56.5 56.5 0 0 0 30.45 31.88l10.16 4.53c-0.08 1.62-0.17 3.24-0.24 4.87h-22.76a31 31 0 0 0-31 31v90a31 31 0 0 0 8.39 21.21l234.3 249.8v171.62A31 31 0 0 0 438.68 956l168.74-50.67a31 31 0 0 0 22.08-29.69v-121l234.3-249.8a31 31 0 0 0 8.39-21.21v-90a30.85 30.85 0 0 0-7.69-20.42z m-189.15-233l145.31 145.32a31 31 0 0 1 0 43.85l-38 38.05h-50.21a57 57 0 0 0 25.17-69.48l-18.8-49.08a56.86 56.86 0 0 0-72.93-32.54l-9.93 3.81c-6.55-7.74-13.91-15.2-21.12-22.44l3.3-10.85c5.95-13.53 6.44-30.3 1.26-43.83a58.75 58.75 0 0 0-3.09-6.72 30.8 30.8 0 0 1 39.04 3.92z m-460 162.94l21.64-48.55a5.82 5.82 0 0 1 2.41-0.69l12.26 6.36 0.21 0.1c20.74 9.25 44.31 4.13 60.05-13.05l0.14-0.16a120.32 120.32 0 0 1 20.49-19.23l0.09-0.07a51.05 51.05 0 0 0 15.91-58.37 0.69 0.69 0 0 1-0.05-0.13l-4.75-12.38a1.34 1.34 0 0 1 0.66-1.47L398 132.08a1.34 1.34 0 0 1 1.48 0.65l4.73 12.37 0.06 0.14a51 51 0 0 0 50.82 32.81h0.11a120.58 120.58 0 0 1 28.1 0.62h0.11a52.06 52.06 0 0 0 53.5-30.39l5.44-12.28a5.76 5.76 0 0 1 2.52-0.69l48.24 21.52a5.71 5.71 0 0 1 0.33 0.78c0.12 0.3 0.27 0.71 0.29 0.77l-6.7 12.92-0.1 0.2c-5.87 13.17-6.41 27.44-1.53 40.19a52.08 52.08 0 0 0 13.44 20.29l0.17 0.14a121.16 121.16 0 0 1 19.22 20.49l0.07 0.09a51.05 51.05 0 0 0 58.53 15.87l13.52-5.18a1.33 1.33 0 0 1 1.47 0.65l18.66 48.73a1.33 1.33 0 0 1-0.65 1.47l-12.38 4.74a51 51 0 0 0-32.84 43.6H569a106.31 106.31 0 0 0-210.18 0h-94.3c0.13-1.29 0.29-2.58 0.47-3.86v-0.16a51.91 51.91 0 0 0-3.54-24.07c-4.89-12.75-14.82-23-28-28.88l-12.62-5.63h-0.06c-0.08-0.14-0.22-0.5-0.33-0.77s-0.26-0.7-0.28-0.78zM519 362.66H408.72a57.43 57.43 0 0 1 110.27 0z m291.2 79.07v29.63l-85.9 91.57L685.79 604 627 666.72l-51.06 54.44a31 31 0 0 0-8.39 21.2v110.21l-106.74 32V742.36a31 31 0 0 0-8.39-21.2l-49.44-52.71-72.48-77.27-38.47-41-71.76-76.51-2.15-2.29v-46.7h592.07z" /></svg>