<?xml version="1.0" standalone="no"?><!DOCTYPE svg PUBLIC "-//W3C//DTD SVG 1.1//EN" "http://www.w3.org/Graphics/SVG/1.1/DTD/svg11.dtd"><svg t="1642813444457" class="icon" viewBox="0 0 1024 1024" version="1.1" xmlns="http://www.w3.org/2000/svg" p-id="14897" xmlns:xlink="http://www.w3.org/1999/xlink" width="16" height="16"><defs><style type="text/css"></style></defs><path d="M181.6 819.29h663.46V653.43A41.47 41.47 0 0 1 886.53 612 41.47 41.47 0 0 1 928 653.43v207.33a41.47 41.47 0 0 1-41.47 41.47H140.14a41.47 41.47 0 0 1-41.47-41.47V653.43A41.47 41.47 0 0 1 140.14 612a41.46 41.46 0 0 1 41.46 41.46zM513.33 446.1h-124.4a248.48 248.48 0 0 0-170.64 67.69c-8.38 7.91-21.82-0.86-18-11.74a331.91 331.91 0 0 1 313.04-221.81V136.52a11.08 11.08 0 0 1 17.72-8.86l302.19 226.65a11.07 11.07 0 0 1 0 17.72L531.05 598.67a11.07 11.07 0 0 1-17.72-8.86z m0 0" p-id="14898"></path></svg>