<?xml version="1.0" standalone="no"?><!DOCTYPE svg PUBLIC "-//W3C//DTD SVG 1.1//EN" "http://www.w3.org/Graphics/SVG/1.1/DTD/svg11.dtd"><svg class="icon" width="200px" height="200.00px" viewBox="0 0 1024 1024" version="1.1" xmlns="http://www.w3.org/2000/svg"><path fill="#333333" d="M830.25 387.09h-90.89v-82.15c0-125.85-103.13-230.73-230.73-230.73S277.9 179.09 277.9 304.94v82.15H201a95.86 95.86 0 0 0-96.14 96.14V850.3c-1.75 54.18 42 97.88 96.14 97.88h629.25a95.86 95.86 0 0 0 96.14-96.13V485c1.75-54.19-41.95-97.89-96.14-97.89z m-480.69-82.15c0-87.4 71.67-159.06 159.07-159.06s159.06 71.66 159.06 159.06v82.15H349.56z m505.16 547.11c0 14-10.49 24.47-24.47 24.47H201c-14 0-24.47-10.49-24.47-24.47V485c0-14 10.48-24.48 24.47-24.48h629.25c14 0 24.47 10.49 24.47 24.48z m-339.1-290.16c-19.23 0-36.71 15.73-36.71 36.7v153.82c0 19.23 15.73 36.71 36.71 36.71s36.71-15.73 36.71-36.71V598.59c0-21-17.48-36.7-36.71-36.7z m0 0" /></svg>