<?xml version="1.0" standalone="no"?><!DOCTYPE svg PUBLIC "-//W3C//DTD SVG 1.1//EN" "http://www.w3.org/Graphics/SVG/1.1/DTD/svg11.dtd"><svg class="icon" width="200px" height="200.00px" viewBox="0 0 1024 1024" version="1.1" xmlns="http://www.w3.org/2000/svg"><path fill="#333333" d="M861.77 615.4a31 31 0 0 0-31 31v138.84L670 624.48a31 31 0 0 0-43.84 43.84l160.77 160.76H647.47a31 31 0 0 0 0 62h181.26a64.11 64.11 0 0 0 64-64V646.4a31 31 0 0 0-30.96-31zM381.69 133.86H199.6a64.12 64.12 0 0 0-64 64v182.76a31 31 0 0 0 62 0V239.7l154.14 154.19a31 31 0 0 0 43.84-43.84L241.39 195.86h140.3a31 31 0 0 0 0-62zM828.73 133.86H647.47a31 31 0 0 0 0 62h139.46L632.41 350.39a31 31 0 1 0 43.84 43.84L830.77 239.7v140.92a31 31 0 0 0 62 0V197.91a64.12 64.12 0 0 0-64.04-64.05zM381.69 829.08h-140.3l154.44-154.44A31 31 0 0 0 352 630.8L197.55 785.24V646.4a31 31 0 0 0-62 0V827a64.12 64.12 0 0 0 64 64h182.14a31 31 0 0 0 0-62z" /></svg>
