<?xml version="1.0" standalone="no"?><!DOCTYPE svg PUBLIC "-//W3C//DTD SVG 1.1//EN" "http://www.w3.org/Graphics/SVG/1.1/DTD/svg11.dtd"><svg class="icon" width="200px" height="200.00px" viewBox="0 0 1024 1024" version="1.1" xmlns="http://www.w3.org/2000/svg"><path fill="#333333" d="M908.7 431.6l-1.16-1.16c-19.09-17.1-44.31-17.6-51.78-17.43H674.34c29.87-122.16 26.22-212-11.12-266.9C640.14 111.42 607.28 98.8 591 98.8c-25.56 0-68.54 8.64-68.54 66.4v1.66a32.67 32.67 0 0 0-1.17 8c-2.15 131.46-137.76 234.7-143.57 239a32.31 32.31 0 0 0-13 25.89v408.3c0 53.44 64.9 76.52 98.1 76.52h313c42.16 0 67.22-70.38 74-92.29 77.67-262.75 78.5-344.91 78.5-348.23 0-21.41-6.8-39.51-19.75-52.45zM271.5 412h-126a31.42 31.42 0 0 0-13.11 2.83c-22.08 5.64-33.86 26.06-33.86 45.31v2l26.06 415.45c0.66 27.22 20.58 47 48.13 47h107.74c25.73 0 38.84-16.11 42.66-31.21a30.22 30.22 0 0 0 1-7.8V464.63c0-5.81 0-23.57-13.95-37.51C296.56 413.51 278.64 412 271.5 412z m0 0" /></svg>