<?xml version="1.0" standalone="no"?><!DOCTYPE svg PUBLIC "-//W3C//DTD SVG 1.1//EN" "http://www.w3.org/Graphics/SVG/1.1/DTD/svg11.dtd"><svg class="icon" width="200px" height="200.00px" viewBox="0 0 1024 1024" version="1.1" xmlns="http://www.w3.org/2000/svg"><path fill="#333333" d="M460.88 905.68a21.5 21.5 0 0 0 18.69 24l1 0.12 2.64-21.33 2.53-21.35-0.87-0.11a21.48 21.48 0 0 0-23.99 18.67zM415.25 871.43l-1.35-0.43a21.5 21.5 0 0 0-13.6 40.8l1.53 0.5a21.5 21.5 0 0 0 13.42-40.85zM348.79 842l-1.25-0.72a21.5 21.5 0 0 0-21.4 37.3l1.38 0.79A21.5 21.5 0 0 0 348.79 842zM200.91 685.29l-0.63-1.27a21.5 21.5 0 0 0-38.62 18.9l0.71 1.44a21.5 21.5 0 1 0 38.54-19.07zM289.47 799.89l-1.11-1A21.5 21.5 0 0 0 260 831.28l1.17 1a21.5 21.5 0 1 0 28.26-32.41zM238.58 745.8a21.5 21.5 0 1 0-34.07 26.2l1 1.25a21.5 21.5 0 1 0 34-26.32zM175.34 617.23l-0.24-0.92a21.5 21.5 0 0 0-41.59 10.94l0.27 1a21.5 21.5 0 1 0 41.56-11zM928.87 351.37A419.59 419.59 0 0 0 124.1 453.61l-4.65-4.61a31 31 0 0 0-43.79 43.83l54.39 54.43a30.94 30.94 0 0 0 43.79 0l54.39-54.43A31 31 0 0 0 188 445.9c12.64-71.4 46.69-137.07 99.22-189.63a357.33 357.33 0 0 1 505.66 0c139.43 139.55 139.43 366.62 0 506.18-58.25 58.27-132.19 93.78-213.88 102.69a31 31 0 0 0 3.35 61.86 32.55 32.55 0 0 0 3.4-0.18 420.26 420.26 0 0 0 343.12-575.45z"  /><path fill="#333333" d="M758.1 293.08c-122.1-122.2-320.06-122.2-442.16 0a311.87 311.87 0 0 0-66.27 97.78 91.08 91.08 0 0 1 20.94 144.34l-40.24 40.27a311.52 311.52 0 0 0 85.57 160.16c122.1 122.2 320.06 122.2 442.16 0s122.1-320.34 0-442.55z m-79.31 365.16a31 31 0 0 1-43.8 0l-118.87-119-0.12-0.13c-0.32-0.32-0.63-0.64-0.93-1l-0.51-0.59-0.48-0.55-0.58-0.74-0.34-0.45-0.59-0.82-0.28-0.41c-0.19-0.28-0.37-0.57-0.55-0.86s-0.18-0.28-0.26-0.42-0.33-0.56-0.49-0.85l-0.27-0.47c-0.14-0.27-0.28-0.54-0.41-0.82l-0.28-0.56-0.33-0.74c-0.1-0.22-0.2-0.44-0.29-0.66l-0.27-0.67c-0.09-0.26-0.19-0.51-0.29-0.77s-0.13-0.4-0.2-0.59-0.19-0.58-0.28-0.87-0.09-0.35-0.14-0.52-0.18-0.63-0.26-0.95c0-0.16-0.07-0.33-0.11-0.49-0.08-0.33-0.15-0.66-0.22-1l-0.09-0.5c-0.06-0.32-0.11-0.65-0.16-1s-0.05-0.38-0.07-0.57-0.09-0.62-0.12-0.93 0-0.5-0.05-0.75l-0.06-0.76v-1.44-218.09a31 31 0 1 1 61.94 0v205.25l109.8 109.89a31 31 0 0 1-0.04 43.83z"  /></svg>