<?xml version="1.0" standalone="no"?><!DOCTYPE svg PUBLIC "-//W3C//DTD SVG 1.1//EN" "http://www.w3.org/Graphics/SVG/1.1/DTD/svg11.dtd"><svg class="icon" width="200px" height="200.00px" viewBox="0 0 1024 1024" version="1.1" xmlns="http://www.w3.org/2000/svg"><path fill="#333333" d="M262.63 520.58L241.38 550l-10.89 15 34.55-0.57 5.25-0.09 0.92 2.91 11 35 18.79-26 22.58-31.23q3.86 0.28 7.74 0.29t7.46-0.27l22.62 31.29 18.74 25.92 11-34.86 1-3.06 5.51 0.09 34.29 0.57L421 550l-21.29-29.44a106.72 106.72 0 0 0 18.15-144.35 106.85 106.85 0 1 0-155.23 144.37z m11.61-91.09a57.71 57.71 0 0 1 56.82-48.41 58.88 58.88 0 0 1 9.33 0.75A57.36 57.36 0 0 1 378 405a57.65 57.65 0 1 1-103.72 24.51z"  /><path fill="#333333" d="M867.07 164.57H157.89a91.45 91.45 0 0 0-91.41 91.29v511.42a91.46 91.46 0 0 0 91.41 91.29h709.18a91.46 91.46 0 0 0 91.41-91.29V255.86a91.45 91.45 0 0 0-91.41-91.29z m33.15 602.71a33.16 33.16 0 0 1-33.15 33.1H157.89a33.16 33.16 0 0 1-33.15-33.1V255.86a33.16 33.16 0 0 1 33.15-33.11h709.18a33.16 33.16 0 0 1 33.15 33.11z"  /><path fill="#333333" d="M551.53 387.14H797a25.08 25.08 0 1 0 0-50.14H551.53a25.08 25.08 0 1 0 0 50.16zM551.53 546.69H797a25.08 25.08 0 1 0 0-50.16H551.53a25.08 25.08 0 1 0 0 50.16zM797.1 652H225.45a25.08 25.08 0 1 0 0 50.16H797.1a25.08 25.08 0 1 0 0-50.16z"  /></svg>