<?xml version="1.0" standalone="no"?><!DOCTYPE svg PUBLIC "-//W3C//DTD SVG 1.1//EN" "http://www.w3.org/Graphics/SVG/1.1/DTD/svg11.dtd"><svg class="icon" width="200px" height="200.00px" viewBox="0 0 1024 1024" version="1.1" xmlns="http://www.w3.org/2000/svg"><path fill="#333333" d="M867 168.44H157.81a91.46 91.46 0 0 0-91.41 91.3v507.41a91.45 91.45 0 0 0 91.41 91.29H867a91.45 91.45 0 0 0 91.41-91.29V259.74a91.46 91.46 0 0 0-91.41-91.3z m33.15 598.71A33.16 33.16 0 0 1 867 800.26H157.81a33.16 33.16 0 0 1-33.15-33.11V259.74a33.16 33.16 0 0 1 33.15-33.11H867a33.16 33.16 0 0 1 33.15 33.11z"  /><path fill="#333333" d="M829.79 613a45.1 45.1 0 0 1-3.3-3.69c-10.26-12.18-23.74-24.56-65.18-30.53-18-2.59-25.29-7.68-28-10.48a9.71 9.71 0 0 1-3-6.16q-0.09-0.6-0.21-1.17c0.14-3.54 0.35-7.4 0.55-10.72 8.72-5 21.69-14.4 29.1-28.7 12.94-6.39 16.49-13.78 17.84-23.83 0.12-0.86 0.23-1.67 0.37-2.43 0-0.21 0.08-0.43 0.11-0.65 2.05-13.87 2.66-32.4-6-41.81a19.68 19.68 0 0 0-4.46-3.64c0.34-12.76 0.29-31.83-0.54-39.87-1.42-13.94-10.87-41.55-36.48-46.28-11.44-2.13-13.45-2.37-15.76-2.4h-0.25c-4-2.41-8.49-4.05-16.15-4.25l-20.88-4.17a14.64 14.64 0 0 0-3-0.3c-13.4 0-22 10.31-27.13 16.46-0.25 0.31-0.54 0.66-0.84 1-4.12-0.71-9.09-1.08-17.12 0.38-11.73 2.19-20.47 10-24.6 22-2.74 8-3 16.38-3.18 21.95 0 1.42-0.09 2.89-0.16 3.59-0.11 1-2.06 20.31-1.38 33.83a22.35 22.35 0 0 0-4 3.59c-9.75 11-8.31 32-7.25 40.45q0.1 0.76 0.27 1.53c3 12.8 11.21 17.5 19.17 22l2.12 1.22c7.07 15 19.71 26.44 27.65 32.63 0 4.51 0.08 9.81 0.13 12.37v0.77c-0.21 8.82-19.25 12.26-25.06 13.11-43 6.18-58.17 18.8-70.06 31.19-1.14 1.2-2.13 2.23-3 3-6.66 6.2-10.67 17.38-13 36.25-1.45 11.55-1.71 21.88-1.72 22.32A15.06 15.06 0 0 0 540.33 687h287.5a15.06 15.06 0 0 0 15.07-14.79c0-0.44 0.17-10.8-0.84-22.38-1.66-19.08-5.44-30.43-12.27-36.83z m-273.36 43.9c1.1-10.31 2.89-19.33 4.65-22.35 1.3-1.24 2.52-2.52 3.71-3.75 7.27-7.58 16.32-17 52.62-22.24 44.93-6.52 50.56-31.43 50.86-42a13.45 13.45 0 0 0 0.05-1.55c-0.06-2.82-0.15-14.51-0.19-20.3a15.14 15.14 0 0 0-6.91-12.55c-5.33-3.45-20.15-15.16-24.66-27.73a15.05 15.05 0 0 0-6.26-7.71c-2.72-1.68-5.14-3.06-7.08-4.16-1.64-0.94-3.6-2.06-4.65-2.78a64.64 64.64 0 0 1 0.1-13.3 17.9 17.9 0 0 0 7.51-4.78c2.59-2.78 6.59-8.95 4.29-19.08-0.83-4-0.14-21.11 1-32.31 0.18-1.76 0.23-3.67 0.3-5.7 0.34-11 1.58-14.28 2.56-15.09a1.85 1.85 0 0 1 0.56-0.17c4.3-0.78 5.61-0.52 7.59-0.12a30.19 30.19 0 0 0 10.74 0.54h0.15c8.06-1.18 12.9-7 17.18-12.12a60 60 0 0 1 4.67-5.18l18.59 3.71a14.61 14.61 0 0 0 2.95 0.29 20.25 20.25 0 0 1 2.46 0.12 25.24 25.24 0 0 0 10.25 3.75 35.08 35.08 0 0 0 4.76 0.44c0.81 0.1 3.29 0.49 10.79 1.89 7.25 1.34 11.46 14.47 12 19.74 0.65 6.38 0.78 27.36 0.26 40.21a20.5 20.5 0 0 0 4 16.45 19.66 19.66 0 0 0 7.73 5.84 86.1 86.1 0 0 1-0.75 15.12c-0.27 1.43-0.44 2.69-0.58 3.72v0.22a43.28 43.28 0 0 1-4.85 2.2 15 15 0 0 0-8.67 8.9c-4.09 11.35-18.59 19.6-23.77 21.79a15.07 15.07 0 0 0-9.27 12.84c0 0.55-1 13.48-1.24 23a15.1 15.1 0 0 0 0.88 5.57c4.09 21.71 23.51 35.67 56.28 40.39 33.54 4.83 40.68 13.3 46.41 20.11a75.32 75.32 0 0 0 5.22 5.76c1.65 3.14 3.08 12.2 3.75 22.46zM225.38 389H393.9a26.09 26.09 0 1 0 0-52.17H225.38a26.09 26.09 0 1 0 0 52.17zM434.05 484.36H225.38a26.09 26.09 0 1 0 0 52.17h208.67a26.09 26.09 0 1 0 0-52.17zM434.05 631.86H225.38a26.09 26.09 0 1 0 0 52.17h208.67a26.09 26.09 0 1 0 0-52.17z"  /></svg>