<?xml version="1.0" standalone="no"?><!DOCTYPE svg PUBLIC "-//W3C//DTD SVG 1.1//EN" "http://www.w3.org/Graphics/SVG/1.1/DTD/svg11.dtd"><svg class="icon" width="200px" height="200.00px" viewBox="0 0 1024 1024" version="1.1" xmlns="http://www.w3.org/2000/svg"><path fill="#333333" d="M866.49 167H157.31a91.45 91.45 0 0 0-91.41 91.27v507.42A91.45 91.45 0 0 0 157.31 857h709.18a91.45 91.45 0 0 0 91.41-91.29V258.27A91.46 91.46 0 0 0 866.49 167z m33.15 598.71a33.17 33.17 0 0 1-33.15 33.11H157.31a33.16 33.16 0 0 1-33.15-33.11V258.27a33.16 33.16 0 0 1 33.15-33.1h709.18a33.17 33.17 0 0 1 33.15 33.1z"  /><path fill="#333333" d="M575.64 573.41h215.88a13.05 13.05 0 0 0 13.05-12.82c0-0.33 0.13-8.2-0.63-17-1.29-14.79-4.29-23.66-9.76-28.78a32.6 32.6 0 0 1-2.34-2.61c-7.92-9.4-18.3-19-50-23.53-13-1.87-18.14-5.42-20-7.37a5.54 5.54 0 0 1-1.78-3.66c0-0.26-0.08-0.51-0.13-0.76 0.09-2.26 0.22-4.69 0.35-6.88 6.61-3.94 15.88-10.89 21.44-21.26 8.74-4.43 12.63-9.94 13.85-19 0.09-0.65 0.16-1.21 0.26-1.72 0-0.19 0.07-0.38 0.1-0.57 2.31-15.7 0.64-26.75-5-32.83a16.87 16.87 0 0 0-2.87-2.48c0.23-9.61 0.17-23.29-0.44-29.19-1.11-10.91-8.56-32.55-28.81-36.28-8.47-1.58-10.15-1.8-11.82-1.83-3.15-1.82-6.64-3.05-12.45-3.22L679 318.55a13 13 0 0 0-2.56-0.25c-10.88 0-17.66 8.13-21.71 13a37.6 37.6 0 0 0-12.47 0.45c-9.46 1.76-16.49 8-19.8 17.64-2.15 6.22-2.35 12.71-2.49 17 0 1-0.06 2.1-0.11 2.57a212.46 212.46 0 0 0-1.07 24.72 18.15 18.15 0 0 0-2.57 2.4c-7.5 8.5-6.89 23.53-5.86 31.74 0.06 0.45 0.14 0.89 0.24 1.33 2.4 10.35 9.22 14.24 15.23 17.66l1.11 0.64c5.3 10.88 14.33 19.31 20.36 24.11 0 3.15 0.06 6.62 0.09 8.41v0.57c-0.08 3.39-7.05 6.67-17.32 8.16-32.81 4.72-44.47 14.42-53.61 23.94-0.85 0.88-1.57 1.64-2.2 2.22-5.31 5-8.5 13.68-10.32 28.28-1.1 8.76-1.3 16.6-1.31 16.93a13 13 0 0 0 13.06 13.36z m17-40.08c0.92-0.89 1.78-1.79 2.62-2.66 5.28-5.5 11.84-12.34 38.5-16.18 35-5.08 39.44-24.76 39.69-33.18v-1.29c0-2.18-0.12-11.72-0.14-15.22a13.12 13.12 0 0 0-6-10.87c-3.86-2.51-14.6-11-17.83-19.95a13.07 13.07 0 0 0-5.42-6.68c-2.07-1.28-3.9-2.32-5.37-3.16-0.89-0.51-1.93-1.1-2.69-1.57a52.24 52.24 0 0 1 0-7.72 15.09 15.09 0 0 0 5.31-3.67c2.19-2.34 5.56-7.51 3.67-15.85-0.54-2.82-0.15-14.8 0.77-23.75 0.14-1.38 0.19-2.85 0.24-4.4 0.07-2.2 0.24-7.81 1.26-9.86a10.11 10.11 0 0 1 4.69 0 24.3 24.3 0 0 0 8.65 0.42h0.13c6.71-1 10.74-5.83 14-9.71 0.75-0.9 1.84-2.2 2.73-3.12l13.06 2.61a13.71 13.71 0 0 0 2.56 0.25h1.27a20.34 20.34 0 0 0 8 2.84 27.18 27.18 0 0 0 3.68 0.35c0.61 0.08 2.45 0.37 7.92 1.39 3.94 0.73 7.15 9 7.59 13.29 0.47 4.62 0.57 20.41 0.19 29.85a17.09 17.09 0 0 0 3.38 13.6 16.21 16.21 0 0 0 5.46 4.43 64.57 64.57 0 0 1-0.59 9.95c-0.14 0.78-0.25 1.48-0.34 2.1-0.61 0.31-1.48 0.69-2.67 1.16a13 13 0 0 0-7.51 7.72c-2.86 7.91-13.2 13.78-16.88 15.34a13 13 0 0 0-8 11.13c0 0.41-0.72 10.16-0.94 17.3a13 13 0 0 0 0.72 4.7c2.35 12.17 12 27 43.7 31.59 24.52 3.53 29.43 9.36 33.76 14.5 1.11 1.32 2.35 2.79 3.8 4.22 1 2.24 1.89 7.73 2.39 14.11H589.68c0.77-6.41 1.87-11.85 2.96-14.01zM224.87 385.56h168.52a25.08 25.08 0 1 0 0-50.16H224.87a25.08 25.08 0 1 0 0 50.16zM224.87 547.12h208.67a25.08 25.08 0 1 0 0-50.16H224.87a25.08 25.08 0 1 0 0 50.16zM809.57 650.44h-584.7a25.08 25.08 0 1 0 0 50.16h584.7a25.08 25.08 0 1 0 0-50.16z"  /></svg>