<?xml version="1.0" standalone="no"?><!DOCTYPE svg PUBLIC "-//W3C//DTD SVG 1.1//EN" "http://www.w3.org/Graphics/SVG/1.1/DTD/svg11.dtd"><svg class="icon" width="200px" height="200.00px" viewBox="0 0 1024 1024" version="1.1" xmlns="http://www.w3.org/2000/svg"><path fill="#333333" d="M353.11 549.49l56.76 62.83a56.41 56.41 0 0 0 82.12 0l23.56-23.56A33.2 33.2 0 0 0 468.78 542l-17.49 17.49L399.87 507l249.92-249.92a91 91 0 1 0-50.34-78.9 90.48 90.48 0 0 0 7.5 35.71L353.11 465.94a56.42 56.42 0 0 0 0 83.55zM314.9 671.59a35.7 35.7 0 0 0 0-47.85L195.66 504.5l120-119.24a34.09 34.09 0 0 0-48.56-47.85L148.53 456.66a67.12 67.12 0 0 0-17.85 46.06v3.21A67.5 67.5 0 0 0 148.53 552l118.53 119.59a35.71 35.71 0 0 0 47.84 0zM879.71 460.23l-117.1-117.1a33.07 33.07 0 0 0-46.77 46.77L832.94 507l-117.1 116.74a33.2 33.2 0 0 0 46.77 46.77l117.1-116.74a71.39 71.39 0 0 0 0-93.54z"  /><path fill="#333333" d="M697.63 480.58L638 414.89a57.48 57.48 0 0 0-83.55 0l-17.85 17.85a33.92 33.92 0 0 0 47.85 47.84l17.85-17.85 53.55 53.55-252.76 252.77a93.49 93.49 0 1 0 40.34 49.27l254.2-254.2a57.46 57.46 0 0 0 0-83.54z"  /></svg>