<?xml version="1.0" standalone="no"?><!DOCTYPE svg PUBLIC "-//W3C//DTD SVG 1.1//EN" "http://www.w3.org/Graphics/SVG/1.1/DTD/svg11.dtd"><svg class="icon" width="200px" height="200.00px" viewBox="0 0 1024 1024" version="1.1" xmlns="http://www.w3.org/2000/svg"><path fill="#333333" d="M893 133.09l-1.66-1.65c-24.91-21.57-53.12-33.19-81.34-33.19H609.28c-24.89 3.32-48.12 8.3-71.34 16.59-28.21 10-49.78 28.21-66.37 41.48L133.13 494.77c-23.23 23.22-34.84 51.42-34.84 83 0 29.86 13.27 61.38 34.84 82.95l230.61 232.22c21.56 21.57 51.43 34.84 81.29 34.84h1.66c28.2 0 59.72-13.27 81.29-34.84l338.45-338.45c19.9-19.91 33.18-41.47 43.13-63 11.61-23.23 18.25-51.43 18.25-79.64v-195.8c0-29.87-13.27-61.39-34.84-83z m-26.57 278.72c0 18.25-5 36.5-11.62 53.09l-1.65 3.32c-5 14.93-14.94 29.86-28.21 43.14L484.84 849.8c-9.95 10-24.88 16.59-38.15 16.59a57.93 57.93 0 0 1-39.82-16.59L176.26 619.19c-9.95-10-16.59-26.54-16.59-39.81 0-16.59 5-28.21 16.59-39.82l335.13-336.79c18.25-14.93 31.52-24.88 46.45-29.86 18.25-6.63 36.5-11.61 54.75-13.27h195.77c13.27 0 26.54 5 41.48 18.25a57.93 57.93 0 0 1 16.59 39.82zM707.16 214.39c-54.75 0-99.55 44.79-99.55 99.54s44.8 99.54 99.55 99.54 99.54-44.79 99.54-99.54-44.79-99.54-99.54-99.54z m0 139.36c-21.57 0-38.16-16.59-38.16-38.16s16.59-38.16 38.16-38.16 38.16 16.59 38.16 38.16c0 19.91-18.25 38.16-38.16 38.16z m0 0" /></svg>