<?xml version="1.0" standalone="no"?><!DOCTYPE svg PUBLIC "-//W3C//DTD SVG 1.1//EN" "http://www.w3.org/Graphics/SVG/1.1/DTD/svg11.dtd"><svg t="1642817380325" class="icon" viewBox="0 0 1024 1024" version="1.1" xmlns="http://www.w3.org/2000/svg" p-id="10172" xmlns:xlink="http://www.w3.org/1999/xlink" width="16" height="16"><defs><style type="text/css"></style></defs><path d="M797.24 99H228.89a61.75 61.75 0 0 0-61.82 61.7v702.6a61.75 61.75 0 0 0 61.82 61.7h568.35a61.76 61.76 0 0 0 61.83-61.7V160.7A61.76 61.76 0 0 0 797.24 99zM375.58 716.67c0 0.52-0.07 1-0.12 1.51s-0.12 1-0.19 1.5-0.16 1-0.26 1.5-0.21 1-0.33 1.47-0.25 1-0.4 1.46-0.31 1-0.48 1.44-0.36 0.93-0.55 1.4-0.39 0.93-0.61 1.38-0.44 0.9-0.68 1.35-0.49 0.89-0.74 1.32-0.53 0.86-0.81 1.27-0.57 0.84-0.87 1.25-0.61 0.8-0.94 1.19-0.66 0.79-1 1.16-0.69 0.75-1.05 1.1l-1.11 1c-0.38 0.34-0.77 0.67-1.15 1s-0.79 0.64-1.2 0.94l-1.25 0.86c-0.42 0.28-0.85 0.55-1.27 0.81s-0.87 0.5-1.32 0.73-0.9 0.46-1.36 0.68-1 0.43-1.38 0.62-1 0.37-1.41 0.54-1 0.32-1.43 0.47-1 0.29-1.47 0.41-1 0.23-1.48 0.33-1 0.2-1.48 0.27-1 0.14-1.52 0.19-1 0.11-1.51 0.11H343.18c-0.52 0-1-0.06-1.52-0.11s-1-0.11-1.5-0.19-1-0.18-1.5-0.27-1-0.21-1.48-0.33-1-0.26-1.46-0.41l-1.44-0.47c-0.47-0.17-0.94-0.34-1.4-0.54l-1.39-0.62c-0.46-0.21-0.92-0.45-1.36-0.68s-0.88-0.47-1.31-0.73-0.86-0.53-1.28-0.81-0.84-0.57-1.24-0.86-0.81-0.61-1.2-0.94-0.79-0.66-1.16-1-0.74-0.69-1.09-1-0.71-0.73-1.06-1.1-0.68-0.77-1-1.16-0.64-0.78-0.94-1.19-0.58-0.83-0.86-1.25-0.55-0.83-0.81-1.27-0.5-0.89-0.74-1.32-0.46-0.89-0.68-1.35-0.43-0.92-0.62-1.38-0.37-1-0.54-1.4-0.32-1-0.47-1.44-0.29-1-0.41-1.46-0.24-1-0.34-1.47-0.18-1-0.26-1.5-0.14-1-0.19-1.5a14.65 14.65 0 0 1-0.12-1.51v-1.52-1.52c0-0.52 0.07-1 0.12-1.52s0.12-1 0.19-1.5 0.16-1 0.26-1.48 0.22-1 0.34-1.49 0.27-1 0.41-1.45 0.3-1 0.47-1.43 0.36-0.94 0.54-1.41 0.41-0.92 0.62-1.38 0.45-0.92 0.68-1.35 0.48-0.89 0.74-1.32 0.53-0.84 0.81-1.27 0.56-0.84 0.86-1.25 0.61-0.8 0.94-1.19 0.66-0.78 1-1.15 0.71-0.76 1.06-1.11 0.71-0.7 1.09-1 0.77-0.68 1.16-1 0.79-0.64 1.2-0.93 0.82-0.59 1.24-0.87 0.85-0.55 1.28-0.81l1.31-0.74 1.36-0.68c0.46-0.21 0.93-0.42 1.39-0.61s1-0.37 1.4-0.54 1-0.34 1.44-0.48 1-0.27 1.46-0.4 1-0.24 1.48-0.34 1-0.18 1.5-0.26 1-0.14 1.5-0.19 1-0.11 1.52-0.11h3c0.52 0 1 0.06 1.51 0.11s1 0.12 1.52 0.19 1 0.16 1.48 0.26 1 0.22 1.48 0.34 1 0.25 1.47 0.4 1 0.31 1.43 0.48l1.41 0.54c0.47 0.19 0.93 0.4 1.38 0.61l1.36 0.68 1.32 0.74c0.42 0.26 0.85 0.53 1.27 0.81s0.84 0.57 1.25 0.87 0.81 0.6 1.2 0.93l1.15 1c0.38 0.33 0.75 0.68 1.11 1s0.7 0.73 1.05 1.11 0.67 0.76 1 1.15 0.64 0.79 0.94 1.19 0.59 0.83 0.87 1.25 0.55 0.84 0.81 1.27 0.51 0.87 0.74 1.32 0.47 0.9 0.68 1.35 0.42 0.93 0.61 1.38 0.38 1 0.55 1.41 0.34 1 0.48 1.43 0.27 1 0.4 1.45 0.23 1 0.33 1.49 0.18 1 0.26 1.48 0.14 1 0.19 1.5 0.12 1 0.12 1.52v1.52c0.03 0.52 0.06 1 0.03 1.52z m0-208.68c0 0.52-0.07 1-0.12 1.51s-0.12 1-0.19 1.5-0.16 1-0.26 1.49-0.21 1-0.33 1.48-0.25 1-0.4 1.45-0.31 1-0.48 1.44-0.36 0.93-0.55 1.4-0.39 0.93-0.61 1.38-0.44 0.92-0.68 1.36-0.49 0.88-0.74 1.31-0.53 0.87-0.81 1.28-0.57 0.83-0.87 1.24-0.61 0.79-0.94 1.19-0.66 0.78-1 1.16a13.8 13.8 0 0 1-1.05 1.1c-0.36 0.31-0.73 0.65-1.11 1s-0.77 0.67-1.15 1-0.79 0.64-1.2 0.94-0.83 0.58-1.25 0.86-0.85 0.55-1.27 0.81-0.87 0.52-1.32 0.74-0.9 0.47-1.36 0.68-1 0.41-1.38 0.61-0.94 0.38-1.41 0.55l-1.43 0.47c-0.47 0.14-1 0.27-1.47 0.4s-1 0.24-1.48 0.34-1 0.2-1.48 0.27l-1.52 0.18a12.8 12.8 0 0 1-1.51 0.12H343.18c-0.52 0-1-0.07-1.52-0.12s-1-0.1-1.5-0.18-1-0.17-1.5-0.27-1-0.22-1.48-0.34l-1.46-0.4-1.44-0.47c-0.47-0.17-0.94-0.36-1.4-0.55s-0.93-0.39-1.39-0.61-0.92-0.44-1.36-0.68-0.88-0.48-1.31-0.74-0.86-0.53-1.28-0.81-0.84-0.56-1.24-0.86-0.81-0.61-1.2-0.94-0.79-0.71-1.16-1a11.21 11.21 0 0 1-1.09-1c-0.36-0.36-0.71-0.74-1.06-1.1s-0.68-0.77-1-1.16-0.64-0.78-0.94-1.19-0.58-0.82-0.86-1.24-0.55-0.85-0.81-1.28-0.5-0.87-0.74-1.31-0.46-0.91-0.68-1.36-0.43-1-0.62-1.38-0.37-1-0.54-1.4-0.32-1-0.47-1.44-0.29-1-0.41-1.45a29.329 29.329 0 0 1-0.79-4.48 14.88 14.88 0 0 1-0.12-1.51v-1.52-1.53c0-0.53 0.07-1 0.12-1.51s0.12-1 0.19-1.5 0.16-1 0.26-1.49 0.22-1 0.34-1.48 0.27-1 0.41-1.45 0.3-1 0.47-1.43 0.36-1 0.54-1.42 0.41-0.93 0.62-1.38 0.45-0.9 0.68-1.34 0.48-0.88 0.74-1.32 0.53-0.86 0.81-1.28 0.56-0.85 0.86-1.24 0.61-0.81 0.94-1.2 0.66-0.77 1-1.14 0.71-0.75 1.06-1.11 0.71-0.71 1.09-1 0.77-0.68 1.16-1 0.79-0.62 1.2-0.92 0.82-0.61 1.24-0.88 0.85-0.55 1.28-0.81l1.31-0.73c0.45-0.24 0.9-0.46 1.36-0.68a28.21 28.21 0 0 1 2.79-1.15l1.44-0.48a32.07 32.07 0 0 1 2.94-0.75c0.48-0.1 1-0.19 1.5-0.26s1-0.13 1.5-0.18 1-0.11 1.52-0.11h3c0.52 0 1 0.06 1.51 0.11s1 0.1 1.52 0.18 1 0.16 1.48 0.26 1 0.22 1.48 0.34 1 0.26 1.47 0.41 1 0.31 1.43 0.48 0.94 0.34 1.41 0.53 0.93 0.41 1.38 0.62 0.91 0.44 1.36 0.68l1.32 0.73c0.42 0.26 0.85 0.53 1.27 0.81s0.84 0.58 1.25 0.88 0.81 0.59 1.2 0.92 0.77 0.65 1.15 1 0.75 0.69 1.11 1 0.7 0.74 1.05 1.11 0.67 0.75 1 1.14 0.64 0.79 0.94 1.2 0.59 0.82 0.87 1.24 0.55 0.86 0.81 1.28 0.51 0.88 0.74 1.32 0.47 0.88 0.68 1.34 0.42 0.92 0.61 1.38 0.38 1 0.55 1.42 0.34 1 0.48 1.43 0.27 1 0.4 1.45 0.23 1 0.33 1.48 0.18 1 0.26 1.49 0.14 1 0.19 1.5 0.12 1 0.12 1.51v1.53c0.03 0.54 0.06 1.01 0.03 1.54z m0-197.64c0 0.51-0.07 1-0.12 1.51s-0.12 1-0.19 1.5-0.16 1-0.26 1.48-0.21 1-0.33 1.49-0.25 1-0.4 1.45-0.31 1-0.48 1.43-0.36 0.94-0.55 1.41-0.39 0.92-0.61 1.38-0.44 0.92-0.68 1.35-0.49 0.89-0.74 1.32-0.53 0.84-0.81 1.27-0.57 0.84-0.87 1.24-0.61 0.81-0.94 1.2-0.66 0.78-1 1.15-0.69 0.75-1.05 1.11-0.73 0.69-1.11 1-0.77 0.68-1.15 1-0.79 0.64-1.2 0.93-0.83 0.59-1.25 0.87-0.85 0.55-1.27 0.81l-1.32 0.74-1.36 0.68c-0.45 0.21-1 0.42-1.38 0.61s-1 0.37-1.41 0.54-1 0.32-1.43 0.47-1 0.28-1.47 0.41-1 0.24-1.48 0.34-1 0.18-1.48 0.26-1 0.14-1.52 0.18-1 0.12-1.51 0.12h-3c-0.52 0-1-0.07-1.52-0.12s-1-0.11-1.5-0.18-1-0.16-1.5-0.26-1-0.22-1.48-0.34-1-0.27-1.46-0.41-1-0.3-1.44-0.47-0.94-0.36-1.4-0.54-0.93-0.4-1.39-0.61l-1.36-0.68-1.31-0.74c-0.43-0.26-0.86-0.53-1.28-0.81s-0.84-0.57-1.24-0.87-0.81-0.6-1.2-0.93-0.79-0.66-1.16-1l-1.09-1c-0.35-0.32-0.71-0.73-1.06-1.11s-0.68-0.76-1-1.15-0.64-0.79-0.94-1.2-0.58-0.82-0.86-1.24-0.55-0.85-0.81-1.27-0.5-0.87-0.74-1.32-0.46-0.9-0.68-1.35-0.43-0.93-0.62-1.38-0.37-1-0.54-1.41-0.32-1-0.47-1.43-0.29-1-0.41-1.45-0.24-1-0.34-1.49a29.74 29.74 0 0 1-0.45-3 14.43 14.43 0 0 1-0.12-1.51v-1.53-1.52c0-0.52 0.07-1 0.12-1.51s0.12-1 0.19-1.5 0.16-1 0.26-1.5 0.22-1 0.34-1.47 0.27-1 0.41-1.46 0.3-1 0.47-1.44 0.36-0.93 0.54-1.4 0.41-0.93 0.62-1.38 0.45-0.9 0.68-1.35 0.48-0.89 0.74-1.32 0.53-0.86 0.81-1.27 0.56-0.85 0.86-1.25 0.61-0.8 0.94-1.19 0.66-0.79 1-1.16 0.71-0.73 1.06-1.09 0.71-0.71 1.09-1.06 0.77-0.67 1.16-1 0.79-0.65 1.2-0.94 0.82-0.58 1.24-0.86 0.85-0.55 1.28-0.81 0.87-0.5 1.31-0.73 0.9-0.46 1.36-0.68 0.93-0.43 1.39-0.62l1.4-0.55c0.44-0.16 1-0.31 1.44-0.46s1-0.29 1.46-0.41 1-0.24 1.48-0.34 1-0.18 1.5-0.26 1-0.14 1.5-0.19 1-0.12 1.52-0.12c1-0.05 2-0.05 3 0 0.52 0 1 0.07 1.51 0.12s1 0.12 1.52 0.19 1 0.16 1.48 0.26 1 0.22 1.48 0.34 1 0.27 1.47 0.41l1.43 0.46c0.47 0.17 0.94 0.36 1.41 0.55s0.93 0.41 1.38 0.62 0.92 0.45 1.36 0.68 0.89 0.47 1.32 0.73 0.85 0.53 1.27 0.81 0.84 0.56 1.25 0.86 0.81 0.61 1.2 0.94l1.15 1c0.38 0.34 0.75 0.71 1.11 1.06s0.7 0.72 1.05 1.09 0.67 0.77 1 1.16 0.64 0.78 0.94 1.19 0.59 0.83 0.87 1.25 0.55 0.83 0.81 1.27 0.51 0.89 0.74 1.32 0.47 0.89 0.68 1.35 0.42 0.92 0.61 1.38 0.38 1 0.55 1.4 0.34 1 0.48 1.44 0.27 1 0.4 1.46 0.23 1 0.33 1.47 0.18 1 0.26 1.5 0.14 1 0.19 1.5a15.11 15.11 0 0 1 0.12 1.51v1.52c0 0.55 0.03 1.03 0 1.55zM681.44 746H478.39a30.85 30.85 0 1 1 0-61.7h203.05a30.85 30.85 0 1 1 0 61.7z m0-208.69H478.39a30.85 30.85 0 1 1 0-61.7h203.05a30.85 30.85 0 1 1 0 61.7z m0-197.6H478.39a30.85 30.85 0 1 1 0-61.7h203.05a30.85 30.85 0 1 1 0 61.7z" p-id="10173"></path></svg>