<?xml version="1.0" standalone="no"?><!DOCTYPE svg PUBLIC "-//W3C//DTD SVG 1.1//EN" "http://www.w3.org/Graphics/SVG/1.1/DTD/svg11.dtd"><svg class="icon" width="200px" height="200.00px" viewBox="0 0 1024 1024" version="1.1" xmlns="http://www.w3.org/2000/svg"><path fill="#333333" d="M507.19 392c3.42 0 5.13 0 6.85-1.71 15.39-12 47.89-29.08 77-37.63 47.89-15.39 90.65-12 118 18.81 8.55 8.56 13.68 18.82 17.1 30.79 6.84 24 1.71 37.63-12 70.13-10.26 24-12 30.79-3.42 39.34C715.87 518.58 721 520.3 733 522c3.43 0 5.13 0 12 1.72 58.16 3.42 85.52 27.37 85.52 99.2 0 87.24-61.57 159.08-160.78 208.68-78.68 41-179.6 65-256.57 65-88.95-1.71-174.47-20.53-236-61.58-83.81-58.16-114.6-153.94-77-283.93 30.79-102.63 159.08-246.31 280.52-299.34 27.37-12 61.58-13.68 87.23-1.71 37.63 18.82 44.47 61.58 20.53 112.89-10.26 20.53-8.56 22.24 0 25.66a61.47 61.47 0 0 0 18.74 3.41z m-77-56.45c6.85-13.68 8.56-22.23 8.56-27.37-6.85-1.7-22.24-1.7-32.5 3.43-104.31 44.48-218.91 172.77-244.57 258.29C130.89 674.24 151.42 740.94 213 782c49.61 32.5 123.16 49.6 201.84 49.6 66.71 0 157.36-22.23 227.49-58.15 80.39-41.06 124.87-94.08 124.87-152.24a107.77 107.77 0 0 0-3.42-27.37c-1.72-3.42-1.72-5.13-1.72-5.13-1.71-1.71-5.13-1.71-20.52-3.42-5.13 0-10.26 0-15.4-1.71-27.37-3.42-49.6-12-66.71-35.92-25.65-34.21-22.23-61.58-3.41-104.34 8.55-17.1 10.26-23.94 8.55-25.65 0-1.71-1.71-1.71-3.42-5.13-6.85-8.56-25.66-8.56-53 0-12 3.42-25.66 8.55-37.63 15.39-8.55 5.13-17.1 10.26-18.82 12-18.85 17.07-61.61 18.79-90.7 8.53-41.05-17.11-56.45-61.58-30.79-112.9z m506.3 85.53Q934 439 916 446.74c-10.26 3.43-22.23 1.72-32.49-5.13a34 34 0 0 1-12-30.79c1.71-10.26 1.71-18.81 1.71-29.07 0-106-85.52-193.29-193.28-193.29h-8.54c-17.11 0-32.5-13.68-34.21-30.78 0-17.11 13.68-32.5 30.79-34.21h10.26A256.22 256.22 0 0 1 934.81 380c5.13 15.39 3.42 27.36 1.71 41z m-104.34-15.4c-1.71 12-8.55 22.24-18.81 25.66-10.26 5.13-22.24 3.42-32.5-3.42a36.55 36.55 0 0 1-13.68-29.08c1.71-24-5.14-47.89-22.24-65-15.4-17.1-39.34-27.36-63.29-27.36a32.5 32.5 0 0 1 0-65c82.11 0 148.81 66.7 148.81 150.52 1.71 5.13 1.71 10.26 1.71 13.68z m0 0" /></svg>