<?xml version="1.0" standalone="no"?><!DOCTYPE svg PUBLIC "-//W3C//DTD SVG 1.1//EN" "http://www.w3.org/Graphics/SVG/1.1/DTD/svg11.dtd"><svg class="icon" width="200px" height="200.00px" viewBox="0 0 1024 1024" version="1.1" xmlns="http://www.w3.org/2000/svg"><path fill="#333333" d="M508.7 349a30 30 0 0 0 29.95-29.95V146.36a30 30 0 1 0-59.9 0v172.53A30 30 0 0 0 508.7 349z m201.22-1.25a30 30 0 0 0 23.32-11.13L801.75 252a30.28 30.28 0 0 0-4.48-42.32 30 30 0 0 0-42.15 4.48l-68.51 84.64a30.11 30.11 0 0 0 23.31 49z m-422.35-13.44A29.93 29.93 0 1 0 334.38 297L267 212.36a29.93 29.93 0 1 0-46.81 37.3z m671.82 339.5c-0.18-3.77-1.25-23.14-5.92-40.71-4.66-17.75-14-36.05-15.78-39.46a7.65 7.65 0 0 0-1.25-2L842.64 443a27.64 27.64 0 0 0-1.62-2.33c-2.86-3.76-18.29-22.77-37.3-33.71C783.81 395.47 758 393.32 753 393H251.88c-6.63 0-29.77 0.9-49 12.73-18.11 11.3-31.39 30.13-33.9 33.72a12.66 12.66 0 0 0-1.25 2L88.68 581.27c-2.51 4.12-11.12 19.37-18.29 42.86a166.13 166.13 0 0 0-6.46 52.73v159.07c0.36 5.57 2.87 34.44 24.21 54.53 21 19.54 52.37 21.7 58.29 21.88h726.34c8.79 0 38.91-1.62 61.33-21.7 23.68-21.17 25.29-49.86 25.11-58.11V675.07zM140 612.65l0.9-1.43 78.55-139 0.18-0.36c2.69-3.77 9.33-11.84 15.06-15.24 4-2.51 12.74-3.77 17.22-3.77h498.4c6.1 0.54 17.93 2.69 23.67 5.92 6.64 3.76 15.06 12.73 18.47 17l0.36 0.35 87.34 138.28-254.85 0.36a30 30 0 0 0-29.94 30c0 47.16-37.49 84.11-85.37 84.11-48.07 0-85.55-37-85.55-84.11a30 30 0 0 0-30-30l-255.56-0.18 0.72-1.44c0 0.18 0.35-0.54 0.35-0.54zM894.11 846c-4.84 4.3-15.24 6.27-21.34 6.27H147.86c-3.58-0.17-14-2-18.11-5l-0.54-0.35-0.36-0.36c-3-3-4.66-9.87-5-12.74V674.71l243.55 0.18 1.26 5.2C385 744.29 443.06 789 509.78 789s124.64-44.84 141-108.86l1.26-5.2 247.13-0.18a4.42 4.42 0 0 0 0.18 1.43v158.49c0 0.9-0.89 7.53-5.2 11.3z m0 0" /></svg>