<?xml version="1.0" standalone="no"?><!DOCTYPE svg PUBLIC "-//W3C//DTD SVG 1.1//EN" "http://www.w3.org/Graphics/SVG/1.1/DTD/svg11.dtd"><svg class="icon" width="200px" height="200.00px" viewBox="0 0 1024 1024" version="1.1" xmlns="http://www.w3.org/2000/svg"><path fill="#333333" d="M596.30933333 174.39857778l7.63448889-20.87822223-21.20817777 6.64462223-17.49902223-13.66471111-0.22755555 22.20942222-18.432 12.42453333 21.08302222 7.04284445 6.08711111 21.42435555 13.23235555-17.90862222 22.19804445 0.76231111-12.86826667-18.05653333zM190.5664 439.42115555l-12.42453333-18.432-7.04284445 21.0944-21.34471111 6.07573334 17.82897778 13.26648889-0.76231111 22.23217777 18.06791111-12.93653333 20.92373333 7.63448889-6.70151111-21.20817778 13.66471111-17.48764444-22.20942222-0.23893334zM238.84231111 368.50346667l1.45635556-22.20942222 19.11466666-11.3208889-20.61653333-8.26026666-4.88106667-21.66328889-14.24497778 17.06666667-22.10702222-2.048 11.82151112 18.78471111-8.79502223 20.38897777 21.56088889-5.40444444 16.6912 14.66595556zM814.40995555 659.99075555l-14.24497777 17.06666667-22.09564445-2.05937777 11.81013334 18.8416-8.8064 20.40035555 21.57226666-5.46133333 16.6912 14.65457778 1.46773334-22.16391112 19.08053333-11.3664-20.59377778-8.23751111-4.88106667-21.67466667zM447.44248889 857.91857778l6.12124444 21.34471111 13.22097778-17.84035556 22.20942222 0.77368889-12.87964444-18.06791111 7.58897778-20.85546666-21.1968 6.64462222-17.5104-13.68746667-0.18204445 22.2208-18.42062222 12.42453333 21.04888889 7.04284445zM600.94008889 829.22382222l-14.17671111-17.08942222-4.96071111 21.65191111-20.59377778 8.24888889 19.05777778 11.35502222 1.41084444 22.18666667 16.74808889-14.63182222 21.53813333 5.44995555-8.76088888-20.3776 11.85564444-18.78471111-22.1184 1.99111111zM699.84711111 806.37724445l9.37528889 20.10453333 10.29688889-19.6608 22.05013333-2.73066667-15.55342222-15.84924444 4.20977778-21.82257778-19.85422223 9.94417778-19.43324444-10.79751112 3.26542222 21.98186667-16.21333333 15.1552 21.85671111 3.67502223zM311.296 247.81937778l9.37528889 20.10453333 10.29688889-19.6608 22.00462222-2.73066666-15.54204445-15.84924445 4.2552889-21.8112-19.91111112 9.88728889-19.38773333-10.752 3.25404445 21.97048889-16.27022223 15.16657777 21.92497778 3.67502223zM441.4464 167.75395555l-14.18808889-17.1008-4.9152 21.6632889-20.63928889 8.20337777 19.06915556 11.41191111 1.46773333 22.17528889 16.6912-14.63182222 21.53813334 5.46133333-8.7608889-20.42311111 11.86702223-18.80746667-22.12977778 2.048zM860.30791111 559.65013333l-12.42453333-18.42062222-7.04284445 21.03751111-21.34471111 6.13262223 17.82897778 13.22097777-0.76231111 22.20942223 18.06791111-12.87964445 20.86684445 7.5776-6.656-21.18542222 13.68746666-17.5104-22.2208-0.18204445z"  /><path fill="#333333" d="M945.12924445 455.65724445l-24.8832 17.43075555 0.26168888 2.048A383.43111111 383.43111111 0 0 1 758.73848889 839.68a383.49937778 383.49937778 0 0 1-397.94915556 24.71253333l-1.83182222-0.96711111-25.03111111 17.408 4.76728889 2.67377778a411.05635555 411.05635555 0 0 0 200.69262222 52.33777778q10.10346667 0 20.22968889-0.50062223a411.43182222 411.43182222 0 0 0 386.3552-474.27128888zM96.01706667 567.97866667l25.09937778-17.408-0.27306667-2.05937778A383.95448889 383.95448889 0 0 1 680.39111111 159.28888889l1.83182222 0.95573333 25.03111112-17.45351111-4.75591112-2.6624a411.42044445 411.42044445 0 0 0-607.31164444 422.45688889z"  /><path fill="#333333" d="M254.86222222 468.54826667a257.72942222 257.72942222 0 0 1 106.60977778-174.3872 257.80906667 257.80906667 0 0 1 200.13511111-41.472l1.45635556 0.29582222 29.51395555-20.79857778-6.95182222-1.92284444A284.94506667 284.94506667 0 0 0 225.60995555 483.55555555l-0.54613333 7.19075556 29.58222223-20.75306666zM1013.27075555 305.81191111L876.72604445 111.50222222a46.36444445 46.36444445 0 0 0-64.44373334-11.22986667l-785.85173333 552.96a46.22791111 46.22791111 0 0 0-11.19573333 64.44373334l136.71537777 194.32106666a46.34168889 46.34168889 0 0 0 64.44373333 11.22986667l785.63555556-552.96a46.26204445 46.26204445 0 0 0 11.24124444-64.44373333z m-26.6695111 42.16604444l-785.64693334 552.96a19.0464 19.0464 0 0 1-26.49884444-4.5511111L37.54666667 702.00888889a19.06915555 19.06915555 0 0 1 0-21.82257778 18.45475555 18.45475555 0 0 1 4.55111111-4.63075556l785.85173333-552.96a19.01226667 19.01226667 0 0 1 26.45333334 4.55111112l136.73813333 194.33244444a19.08053333 19.08053333 0 0 1-4.53973333 26.49884444zM769.26293333 548.15857778A257.04675555 257.04675555 0 0 1 462.50666667 764.01777778l-1.44497778-0.29582223-29.58222222 20.80995556 6.9632 1.91146667a284.93368889 284.93368889 0 0 0 360.02702222-253.30346667l0.53475556-7.20213333-29.58222223 20.75306667z"  /><path fill="#333333" d="M324.74453333 702.00888889l26.06648889-18.20444444-9.63697777-13.76711112-40.32284445 28.23964445-5.79128889-8.26026667-14.73422222 10.31964444 5.77991111 8.26026667L245.76 736.77937778l9.63697778 13.76711111L281.03111111 732.62648889q-1.13777778 21.78844445-15.92888889 45.88657778l17.12355556 7.56622222q15.65582222-32.4608 12.37902222-62.976l1.13777778-0.79644444 29.47982222 42.09777777 14.73422222-10.31964444-29.47982222-42.09777778L311.75111111 711.11111111q23.30168889 11.91253333 58.17457778 11.37777778l1.26293333-19.22844444q-27.78453333 4.03911111-46.44408889-1.25155556zM225.82613333 742.05866667q6.22364445-11.10471111 9.216-16.82773334L224.38115555 709.97333333q-3.92533333 7.81653333-9.216 16.82773334l-19.27395555-27.53422222 15.06417778-10.5472-10.31964445-14.79111112-15.06417778 10.5472-20.41173333-29.14986666-15.22346667 10.66097778L170.34808889 695.18222222l-16.83911111 11.78737778 10.31964444 14.79111111 16.83911111-11.78737778 23.47235556 33.53031112q-6.05297778 8.56746667-15.14382222 19.03502222l14.50666666 12.77724444q6.28053333-8.26026667 11.63946667-16.12231111l24.04124445 34.33813333q4.1984 5.98471111-1.7976889 10.18311112a94.79964445 94.79964445 0 0 1-10.93404444 6.4512l13.44853334 12.31075555 12.51555555-8.73813333q15.872-11.10471111 4.75591111-26.97671112zM289.78062222 689.31128889l40.49351111-28.35342222-23.58613333-33.67822222L266.24 655.63306667z m20.53688889-30.3104l-15.54204444 10.88853333L286.15111111 657.63555555l15.55342222-10.87715555zM288.88177778 628.39466667L263.96444445 592.78222222l-64.3072 45.02186667 24.95146666 35.62382222z m-30.48106667-13.89226667l8.16924444 11.66222222-36.6023111 25.63413333-8.16924445-11.66222222zM217.77066667 689.49333333l23.58613333 33.67822222 40.33422222-28.22826666-23.59751111-33.6896z m28.5696 14.25635556l-8.61297778-12.29937778 15.38275556-10.77475556 8.57884444 12.35626667zM359.68568889 527.16657778l-19.34222222 3.41333333a212.85546667 212.85546667 0 0 1 7.87342222 89.82755556l16.74808889 12.89102222q2.27555555-14.6432 3.2768-26.68088889l60.56391111 86.47111111 15.54204444-10.88853333-76.23111111-108.82844445a233.13066667 233.13066667 0 0 0-8.43093333-46.20515555z"  /><path fill="#333333" d="M515.28817778 556.032l-45.82968889 32.08533333L452.83555555 564.33777778l45.51111112-31.85777778-10.43342222-14.89351111-45.51111112 31.85777778-16.21333333-23.15377778 51.98506667-36.40888889L467.62666667 474.79466667l-66.73066667 46.71715555q-3.16302222-13.45991111-6.47395555-24.42808889l-17.93137778 7.48657778q14.79111111 51.2 11.13884444 88.9856l20.30933334 5.57511111a238.93333333 238.93333333 0 0 0-3.1288889-57.90151111l5.82542223-4.08462222 79.26897777 113.19751111 15.50791112-10.91128889-25.63413334-36.60231111L525.65333333 570.76622222zM628.33777778 457.56871111l58.02666667-40.59591111-10.52444445-14.90488889-65.42222222 45.81831111a241.4592 241.4592 0 0 0-12.34488889-21.76568889l-5.44995556-7.7824 52.96355556-37.08017778-10.5472-15.06417777-52.96355556 37.09155555-19.0464-27.21564444-15.55342222 10.88853333L566.61333333 414.15111111l-27.8528 19.50151111a211.00088889 211.00088889 0 0 0-5.41582222-23.2448l-18.50026666 4.26666667q11.74186667 38.83235555 3.3223111 72.97706666l21.0488889 2.1504a135.97582222 135.97582222 0 0 0 2.1504-35.5328l35.79448888-25.0311111 5.43857778 7.77102222a205.28924445 205.28924445 0 0 1 12.02631111 22.00462222l-61.44 42.97386666 10.43342223 14.9048889 57.6512-40.37973334a108.80568889 108.80568889 0 0 1 4.3008 24.75804444q-0.1024 28.78577778-28.9336889 68.26666667l17.32835556 7.168q29.3888-38.68444445 30.46968889-72.98844444a116.92942222 116.92942222 0 0 0-4.79004445-32.3584q39.45813333 27.38631111 105.0168889 13.83537777l-0.98986667-19.34222222q-61.22382222 15.63306667-95.3344-8.28302222zM780.33351111 405.43573333q24.08675555 5.10862222 40.6528 12.57244445l3.41333334-19.28533333a266.1376 266.1376 0 0 0-40.6528-10.14897778zM852.19555555 335.06417778q-4.79004445-39.59466667-31.85777777-81.43075556l9.10222222-6.3488-10.43342222-14.89351111-45.35182223 31.744q-5.05173333-12.3904-11.37777777-25.56586666l-16.46364445 8.87466666q24.7808 45.39733333 23.56337778 80.53191111l17.22595556 5.30204445a87.60888889 87.60888889 0 0 0 0.56888888-18.48888889 188.12017778 188.12017778 0 0 0 47.9800889 32.99555555 113.95982222 113.95982222 0 0 1-9.94417778 47.50222222l17.88586666 7.72551112a142.1312 142.1312 0 0 0 10.02382222-48.0256 137.50044445 137.50044445 0 0 0 48.70826667 7.168l-1.78631111-20.48a148.28657778 148.28657778 0 0 1-47.84355556-6.61048889z m-70.54222222-47.63875556l-1.71804444-5.55235555 25.9072-18.14755556q20.92373333 32.6656 26.96533333 63.71555556Q805.39875555 314.02666667 781.65333333 287.42542222zM723.23982222 292.87537778l62.2592 88.91733333 13.9264-9.75075556-72.12373333-103.00302222L664.46222222 313.0368l72.12373333 103.00302222 14.0856889-9.86453333-62.24782223-88.91733334 34.816-24.38257777z"  /><path fill="#333333" d="M755.00657778 360.67555555l-35.03217778-50.06222222-13.4144 9.40942222 35.04355555 50.06222223q14.5408 22.15253333 18.20444445 40.11804444 2.59413333 17.49902222-8.41955555 37.26222223l17.72657777 7.38417777q11.68497778-21.20817778 8.94293333-42.71217777-3.67502222-22.78968889-23.05137777-51.4616889z"  /></svg>