<?xml version="1.0" standalone="no"?><!DOCTYPE svg PUBLIC "-//W3C//DTD SVG 1.1//EN" "http://www.w3.org/Graphics/SVG/1.1/DTD/svg11.dtd"><svg class="icon" width="200px" height="200.00px" viewBox="0 0 1024 1024" version="1.1" xmlns="http://www.w3.org/2000/svg"><path fill="#333333" d="M401 543.92a22 22 0 0 1 14.1 20.53v47.13h65.1v-47.13a22 22 0 0 1 14.1-20.53c46.86-18 77.14-60.55 77.14-108.32 0-30.58-12.53-59.27-34.15-80.67v98.81a22 22 0 0 1-10.56 18.78l-72.14 44a22 22 0 0 1-24-0.74l-63.12-43.95a22 22 0 0 1-9.47-18.09v-98.81c-21.62 21.4-34.16 50.09-34.16 80.67-0.01 47.77 30.27 90.29 77.16 108.32z"  /><path fill="#333333" d="M821.84 82H339.57A69.76 69.76 0 0 0 270 146.64h454.7a93.83 93.83 0 0 1 93.83 93.83v580.22h3.31a69.77 69.77 0 0 0 69.77-69.77V151.81A69.77 69.77 0 0 0 821.84 82z"  /><path fill="#333333" d="M696.53 206.65H198.72a62 62 0 0 0-62 62v614.64a62 62 0 0 0 62 62h497.81a62 62 0 0 0 62-62V268.65a62 62 0 0 0-62-62z m-326.38 86.19A22 22 0 0 1 402 312.52v129.73l41.93 29.19 49.34-30.06V312.52a22 22 0 0 1 31.83-19.68c55.71 27.85 90.32 82.55 90.32 142.76a155.46 155.46 0 0 1-29.72 91.45 165.64 165.64 0 0 1-61.52 51.77v54.76a22 22 0 0 1-22 22H393.07a22 22 0 0 1-22-22v-54.76a165.72 165.72 0 0 1-61.52-51.77 155.46 155.46 0 0 1-29.72-91.45c0-60.21 34.61-114.91 90.32-142.76zM625.84 859.1H268.16a22 22 0 0 1 0-44h357.68a22 22 0 0 1 0 44z m0-107.88H268.16a22 22 0 0 1 0-44h357.68a22 22 0 0 1 0 44z"  /></svg>