<?xml version="1.0" standalone="no"?><!DOCTYPE svg PUBLIC "-//W3C//DTD SVG 1.1//EN" "http://www.w3.org/Graphics/SVG/1.1/DTD/svg11.dtd"><svg class="icon" width="200px" height="200.00px" viewBox="0 0 1024 1024" version="1.1" xmlns="http://www.w3.org/2000/svg"><path fill="#333333" d="M513 63.8c-247.42 0-448 200.57-448 448s200.58 448 448 448 448-200.58 448-448-200.58-448-448-448z m-57.27 695.86a31 31 0 0 1-62 0V678l-98.94 99A31 31 0 0 1 251 733.11l98.94-98.94h-82.76a31 31 0 1 1 0-62h133.35a55.27 55.27 0 0 1 55.2 55.2z m0-360.2a55.26 55.26 0 0 1-55.2 55.2H267.18a31 31 0 0 1 0-62h82.71l-98.75-98.74A31 31 0 1 1 295 250.08l98.75 98.74v-83.16a31 31 0 1 1 62 0z m326.91 338.28a31 31 0 1 1-43.84 43.84L635.24 678v81.65a31 31 0 1 1-62 0V627.37a55.27 55.27 0 0 1 55.2-55.2h132.74a31 31 0 0 1 0 62h-82.1z m-21.46-283.08H628.44a55.26 55.26 0 0 1-55.2-55.2v-133.8a31 31 0 1 1 62 0v83.16l99-99a31 31 0 0 1 43.85 43.84l-99 99h82.1a31 31 0 0 1 0 62z" /></svg>