<?xml version="1.0" standalone="no"?><!DOCTYPE svg PUBLIC "-//W3C//DTD SVG 1.1//EN" "http://www.w3.org/Graphics/SVG/1.1/DTD/svg11.dtd"><svg class="icon" width="200px" height="200.00px" viewBox="0 0 1024 1024" version="1.1" xmlns="http://www.w3.org/2000/svg"><path fill="#333333" d="M514.11 68c-245.27 0-444 198.73-444 444s198.74 444 444 444 444-198.74 444-444-198.74-444-444-444z m0 814.47c-204.25 0-370.48-166.23-370.48-370.47s166.23-370.46 370.48-370.46S884.58 307.78 884.58 512 718.34 882.49 514.11 882.49z"  /><path fill="#333333" d="M408.78 303.69h-0.7a36.46 36.46 0 0 0-36.41 36.41v343.66a36.46 36.46 0 0 0 36.41 36.41h0.7a36.46 36.46 0 0 0 36.42-36.41V340.1c0.17-19.89-16.34-36.41-36.42-36.41zM620 303.69h-0.72a36.45 36.45 0 0 0-36.4 36.41v343.66a36.45 36.45 0 0 0 36.4 36.41h0.72a36.46 36.46 0 0 0 36.4-36.41V340.1a36.57 36.57 0 0 0-36.4-36.41z"  /></svg>