<?xml version="1.0" standalone="no"?><!DOCTYPE svg PUBLIC "-//W3C//DTD SVG 1.1//EN" "http://www.w3.org/Graphics/SVG/1.1/DTD/svg11.dtd"><svg t="1642813430346" class="icon" viewBox="0 0 1024 1024" version="1.1" xmlns="http://www.w3.org/2000/svg" p-id="14172" xmlns:xlink="http://www.w3.org/1999/xlink" width="16" height="16"><defs><style type="text/css"></style></defs><path d="M513.05 64.83c-247.48 0-448 200.52-448 448s200.53 448 448 448 448-200.53 448-448-200.53-448-448-448z m-69.53 621.31a36.78 36.78 0 0 1-36.75 36.73h-0.7a36.78 36.78 0 0 1-36.74-36.73V339.38a36.79 36.79 0 0 1 36.74-36.74h0.7c20.27 0 36.92 16.67 36.75 36.74z m213.11 0a36.79 36.79 0 0 1-36.73 36.73h-0.73a36.78 36.78 0 0 1-36.73-36.73V339.38a36.78 36.78 0 0 1 36.73-36.74h0.73a36.91 36.91 0 0 1 36.73 36.74z" p-id="14173"></path></svg>