<?xml version="1.0" standalone="no"?><!DOCTYPE svg PUBLIC "-//W3C//DTD SVG 1.1//EN" "http://www.w3.org/Graphics/SVG/1.1/DTD/svg11.dtd"><svg class="icon" width="200px" height="200.00px" viewBox="0 0 1024 1024" version="1.1" xmlns="http://www.w3.org/2000/svg"><path fill="#333333" d="M836.61 187a388.51 388.51 0 0 0-268-114.09h-1.07a54.32 54.32 0 0 0-54.28 54.32v333.63a54.3 54.3 0 0 0 54.3 54.3h328.89a54.36 54.36 0 0 0 54.3-54.78A388.4 388.4 0 0 0 836.61 187z"  /><path fill="#333333" d="M520.63 571.09c-37.28 0-67.49-29.22-67.49-65.27V106.05c-91.85 10.8-180.78 50.29-251.28 118.47-167.53 162-167.53 424.71 0 586.74s439.14 162 606.66 0C878.27 743.8 919 658.89 930.64 571.06h-1.23z"  /></svg>