<?xml version="1.0" standalone="no"?><!DOCTYPE svg PUBLIC "-//W3C//DTD SVG 1.1//EN" "http://www.w3.org/Graphics/SVG/1.1/DTD/svg11.dtd"><svg t="1642817384681" class="icon" viewBox="0 0 1024 1024" version="1.1" xmlns="http://www.w3.org/2000/svg" p-id="10317" xmlns:xlink="http://www.w3.org/1999/xlink" width="16" height="16"><defs><style type="text/css"></style></defs><path d="M892.31 130.24H133.17A35.31 35.31 0 0 0 98 165.43v178.64a35.33 35.33 0 0 0 35.2 35.18h759.6a35.31 35.31 0 0 0 35.2-35.18V165.43a35.72 35.72 0 0 0-35.69-35.19zM842.11 436.82H185.46a29 29 0 0 0-29.05 28.91V866a29 29 0 0 0 28.9 29h655.08a29 29 0 0 0 29.1-28.83V465.85a28.22 28.22 0 0 0-27.38-29.03zM589.35 646.51H436.79a33.18 33.18 0 0 1 0-66.36h152.56a33.18 33.18 0 0 1 0 66.36z" p-id="10318"></path></svg>