<?xml version="1.0" standalone="no"?><!DOCTYPE svg PUBLIC "-//W3C//DTD SVG 1.1//EN" "http://www.w3.org/Graphics/SVG/1.1/DTD/svg11.dtd"><svg class="icon" width="200px" height="200.00px" viewBox="0 0 1024 1024" version="1.1" xmlns="http://www.w3.org/2000/svg"><path fill="#333333" d="M890.75 132.92h-756.7A35.19 35.19 0 0 0 99 168v178.07a35.2 35.2 0 0 0 35.08 35.06h757.16a35.19 35.19 0 0 0 35.08-35.06V168a35.61 35.61 0 0 0-35.57-35.08zM860.14 315h-695V199.06h695zM839.62 438.51H186.17a28.88 28.88 0 0 0-28.95 28.94V866.3a28.87 28.87 0 0 0 28.95 28.94H839a28.87 28.87 0 0 0 29-28.94V467.45a28.12 28.12 0 0 0-28.29-28.94zM801.89 829.1H223.57V504.66h578.32z"  /><path fill="#333333" d="M436.7 647.53h152.06a33.07 33.07 0 1 0 0-66.14H436.7a33.07 33.07 0 1 0 0 66.14z"  /></svg>