<?xml version="1.0" standalone="no"?><!DOCTYPE svg PUBLIC "-//W3C//DTD SVG 1.1//EN" "http://www.w3.org/Graphics/SVG/1.1/DTD/svg11.dtd"><svg class="icon" width="200px" height="200.00px" viewBox="0 0 1024 1024" version="1.1" xmlns="http://www.w3.org/2000/svg"><path fill="#333333" d="M513.13 67.39c-246.19 0-446 199.8-446 446s199.81 446 446 446 446-199.81 446-446-199.81-446-446-446zM597 313.58c10.7-16.06 32.12-21.41 49.95-10.7 69.58 44.6 114.18 119.52 116 201.58 0 19.63-14.27 35.69-33.89 37.47h-1.79c-19.62 0-35.68-14.27-35.68-33.9-1.78-58.87-33.89-112.39-83.85-144.5-16.11-12.53-21.46-33.9-10.74-49.95z m-83.87-80.28a67.79 67.79 0 1 1-67.79 67.79c1.79-39.25 30.33-67.79 67.79-67.79zM263.37 504.46c3.57-82.06 46.39-158.77 116-201.58 16.06-10.71 39.25-5.36 49.95 10.7s5.36 39.25-10.7 49.95c-49.95 32.11-80.28 85.63-83.84 144.5 0 19.63-16.06 33.9-35.69 33.9h-1.78c-19.66 0-35.72-17.84-33.94-37.47z m98.12 173.05c-32.11 17.85-73.14 7.14-91-25s-7.14-73.14 25-91 73.15-7.13 91 25 7.12 73.16-25 91zM629.1 734.6c-35.69 17.84-74.94 28.55-116 28.55A255.35 255.35 0 0 1 399 736.38a35.9 35.9 0 1 1 32.11-64.22 177.81 177.81 0 0 0 164.13 0c17.84-8.92 39.25-1.78 48.16 14.27 10.67 17.85 3.53 39.25-14.3 48.17z m126.66-80.28c-17.84 32.11-58.88 42.82-91 25s-42.81-58.88-25-91 58.87-42.82 91-25c33.92 17.86 44.62 58.89 25 91z" /></svg>