<?xml version="1.0" standalone="no"?><!DOCTYPE svg PUBLIC "-//W3C//DTD SVG 1.1//EN" "http://www.w3.org/Graphics/SVG/1.1/DTD/svg11.dtd"><svg class="icon" width="200px" height="200.00px" viewBox="0 0 1024 1024" version="1.1" xmlns="http://www.w3.org/2000/svg"><path fill="#333333" d="M594.31822222 173.32906667l7.64586667-20.87822222-21.20817778 6.656-17.49902222-13.6760889-0.23893334 22.20942223-18.432 12.43591111 21.0944 7.03146666 6.08711112 21.42435556 13.23235555-17.90862222 22.19804445 0.77368889-12.87964445-18.06791111zM188.58666667 438.35164445l-12.43591112-18.42062223-7.03146666 21.08302223-21.34471111 6.07573333 17.82897777 13.27786667-0.7623111 22.2208 18.0679111-12.92515556 20.92373334 7.63448889-6.71288889-21.20817778 13.67608889-17.49902222-22.20942222-0.23893333zM236.86257778 367.43395555l1.45635555-22.20942222 19.11466667-11.32088888-20.62791111-8.2488889-4.88106667-21.67466666-14.2336 17.06666666-22.10702222-2.048 11.82151111 18.7960889-8.79502222 20.3776 21.56088889-5.40444445 16.6912 14.66595555zM812.43022222 658.92124445l-14.24497777 17.07804444-22.09564445-2.05937778 11.81013333 18.83022222-8.8064 20.40035556 21.57226667-5.44995556 16.6912 14.65457778 1.46773333-22.17528889 19.08053334-11.35502222-20.60515556-8.24888889-4.86968889-21.67466666zM445.45137778 856.84906667l6.13262222 21.34471111 13.22097778-17.82897778 22.20942222 0.77368889-12.87964445-18.07928889 7.5776-20.85546667-21.18542222 6.64462222-17.5104-13.67608888-0.18204444 22.20942222-18.42062222 12.42453333 21.03751111 7.04284445zM598.96035555 828.16568889l-14.1767111-17.1008-4.9720889 21.66328889-20.5824 8.24888889 19.0464 11.35502222 1.42222223 22.17528889 16.73671111-14.63182223 21.54951111 5.46133334-8.76088889-20.38897778 11.85564444-18.77333333-22.1184 1.99111111zM697.86737778 805.31911111l9.37528889 20.10453334 10.29688888-19.6608 22.05013334-2.73066667-15.55342222-15.86062223 4.20977778-21.82257777-19.85422223 9.94417777-19.43324444-10.78613333 3.25404444 21.97048889-16.20195555 15.16657778 21.85671111 3.67502222zM309.31626667 246.74986667l9.36391111 20.10453333 10.29688889-19.6608 22.016-2.73066667-15.54204445-15.84924444 4.25528889-21.8112-19.91111111 9.89866666-19.38773333-10.752 3.25404444 21.95911112-16.27022222 15.17795555 21.92497778 3.66364445zM439.46666667 166.69582222l-14.18808889-17.11217777-4.9152 21.66328888-20.63928889 8.20337778 19.06915556 11.41191111 1.46773333 22.17528889 16.6912-14.62044444 21.53813333 5.44995555-8.77226666-20.42311111 11.8784-18.79608889-22.12977778 2.048zM858.32817778 558.58062222l-12.42453333-18.42062222-7.04284445 21.04888889-21.35608889 6.13262222 17.84035556 13.22097778-0.76231112 22.19804444 18.06791112-12.87964444 20.85546666 7.58897778-6.64462222-21.1968 13.68746667-17.5104-22.2208-0.18204445z"  /><path fill="#333333" d="M930.63395555 454.58773333l-24.8832 17.43075556 0.2616889 2.048a383.49937778 383.49937778 0 0 1-161.76924445 364.56675556 383.52213333 383.52213333 0 0 1-397.94915555 24.70115555l-1.83182223-0.95573333-25.03111111 17.408 4.76728889 2.6624a410.9312 410.9312 0 0 0 200.69262222 52.33777778q10.10346667 0 20.22968889-0.48924445A411.43182222 411.43182222 0 0 0 931.47591111 460.00355555zM94.03733333 566.90915555l25.03111112-17.408-0.2616889-2.05937777A383.96586667 383.96586667 0 0 1 678.37724445 158.15111111l1.83182222 0.96711111 25.03111111-17.46488889-4.75591111-2.6624a411.4432 411.4432 0 0 0-607.28888889 422.53653334z"  /><path fill="#333333" d="M255.14666667 472.02986667A257.72942222 257.72942222 0 0 1 361.81333333 297.64266667a257.85457778 257.85457778 0 0 1 200.13511112-41.472l1.44497777 0.3072 29.58222223-20.80995556-7.0200889-1.92284444a284.94506667 284.94506667 0 0 0-360.04977777 253.31484444l-0.54613333 7.19075556 29.58222222-20.75306667zM1011.29102222 304.7424l-136.53333333-194.26417778a46.36444445 46.36444445 0 0 0-64.44373334-11.22986667l-785.84035555 552.96a46.20515555 46.20515555 0 0 0-11.19573333 64.44373334L149.95911111 910.93902222a46.3872 46.3872 0 0 0 64.45511111 11.22986667l785.63555556-552.96a46.25066667 46.25066667 0 0 0 11.24124444-64.44373334z m-26.68088889 42.16604445l-785.64693333 552.96a19.05777778 19.05777778 0 0 1-26.49884445-4.55111112L35.51004445 700.99626667a19.06915555 19.06915555 0 0 1 0-21.82257778 18.09066667 18.09066667 0 0 1 4.67626666-4.67626667l785.84035556-552.96a19.01226667 19.01226667 0 0 1 26.45333333 4.55111111l136.66986667 194.33244445a19.0464 19.0464 0 0 1-4.53973334 26.48746667zM769.55875555 549.376a257.05813333 257.05813333 0 0 1-306.75626666 215.8592l-1.45635556-0.3072-29.51395555 20.80995555 6.95182222 1.92284445A284.93368889 284.93368889 0 0 0 798.72 534.34595555l0.54613333-7.20213333-29.58222222 20.76444445z"  /><path fill="#333333" d="M419.99928889 662.78968889q-16.2816 11.90115555-23.89333334 17.22595556-14.07431111 9.86453333-32.44942222 22.24355555-13.93777778 9.02257778-23.89333333 10.69511111a46.29617778 46.29617778 0 0 1-18.29546667-1.67253333l-3.85706666-0.68266667-42.98524445-61.37173333-36.27235555 25.3952 9.97831111 14.25635555L270.18808889 673.56444445l32.08533333 45.84106666q-6.31466667 11.66222222-4.63075555 39.92462222l18.71644444 2.58275556q-2.85582222-30.58346667 2.01386667-33.9968 2.91271111-2.02524445 8.82915555-0.14791111 13.65333333 3.25404445 24.7808-0.45511111 12.1856-4.66488889 27.30666667-15.0528 20.63928889-13.96053333 28.74026667-19.62666667l37.08017778-25.97546667-6.92906667-17.82897778q-7.60035555 6.31466667-18.18168889 13.96053334z"  /><path fill="#333333" d="M276.55964445 623.72977778l17.8176-12.51555556 8.04408888 11.49155556a178.24426667 178.24426667 0 0 1 11.04782222 17.86311111l-22.50524444 15.75822222 10.24 14.57493334 19.59253334-13.7216q8.26026667 23.17653333 1.46773333 42.42773333l17.85173333 5.8368q8.3968-25.9072-4.41457778-58.69795556l25.74791112-18.0224 30.84515555 44.04337778 14.89351111-10.43342222-30.84515556-44.04337778 24.46222223-17.12355555-10.24-14.57493334-24.46222223 17.06666667-20.0704-28.672 19.27395556-13.49404445-10.09208889-14.41564444-19.27395555 13.49404444-17.00977778-24.29155555-14.89351111 10.43342222 17.00977777 24.29155555-22.02737777 15.5192889-17.12355556-24.46222223-14.79111111 10.31964445 17.12355556 24.46222222-17.80622222 12.51555556z m54.61333333-38.21795556l20.0704 28.672-23.16515556 16.21333333a252.98488889 252.98488889 0 0 0-13.38026667-21.52675555l-5.55235555-7.96444445zM258.71928889 618.5984a253.72444445 253.72444445 0 0 0-44.89671111-6.21226667l-3.53848889 17.68106667q27.63662222 1.88871111 45.13564444 7.25902222zM458.74062222 505.09368889L440.32 508.37048889q5.31342222 35.13457778-8.99982222 74.35377778l15.20071111 12.04906666a267.22986667 267.22986667 0 0 0 8.59022222-27.72764444l45.51111111 64.94435556 15.06417778-10.5472L459.66222222 541.43431111a144.29297778 144.29297778 0 0 0-0.9216-36.34062222zM439.78752 465.24074667l79.03459555-55.34151112 10.54606223 15.06190223-79.03459556 55.34151111zM539.40906667 478.28764445l25.27004444-17.68106667-10.58133333-15.06417778L464.08817778 508.58666667l10.5472 15.06417778 49.23164444-34.47466667 45.13564445 64.45511111q3.95946667 5.68888889-3.16302222 10.66097778-10.36515555 7.2704-22.2208 14.10844444l13.94915555 12.68622222 23.48373333-16.44088888q17.31697778-12.12871111 6.09848889-28.17137778zM414.83377778 552.00426667q16.0768-42.87146667 10.49031111-78.77973334l-18.62542222 3.41333334q4.47146667 30.17386667-7.32728889 63.29457778zM648.3968 346.46471111l-19.61528889-28.01208889-15.872 11.10471111 19.61528889 28.02346667-57.49191111 40.25457778 54.77262222 78.22222222 15.38275556-10.77475555-6.46257778-9.22737778 42.09777778-29.47982222 37.9904 54.24924444 15.92888888-11.11608889-37.9904-54.24924445 42.26844445-29.58222222 6.46257778 9.23875556 15.39413333-10.77475556-54.81813333-78.27911111z m-20.21831111 94.52657778l-27.21564444-38.86648889 42.09777777-29.47982222 27.21564445 38.86648889z m58.02666666-40.59591111l-27.21564444-38.86648889 42.26844444-29.58222222 27.21564445 38.86648888z"  /></svg>