<?xml version="1.0" standalone="no"?><!DOCTYPE svg PUBLIC "-//W3C//DTD SVG 1.1//EN" "http://www.w3.org/Graphics/SVG/1.1/DTD/svg11.dtd"><svg class="icon" width="200px" height="200.00px" viewBox="0 0 1024 1024" version="1.1" xmlns="http://www.w3.org/2000/svg"><path fill="#333333" d="M829 682.27c-6.54-1.64-13.08-8.18-19.62-16.36-4.9-4.9-8.17-9.8-13.08-14.71-1.64-4.91-6.54-6.54-11.45-8.18-11.44-4.9-22.89 1.64-27.79 13.09-4.91 14.71-11.45 27.79-18 40.87-8.18 13.08-14.72 26.16-22.89 37.61-1.64 1.64-1.64 1.64-1.64 4.91-4.9 11.44 1.64 22.89 13.08 27.79a122.8 122.8 0 0 1 36 19.62c4.9 4.91 8.17 11.45 8.17 14.72 0 11.45-13.08 21.26-32.7 31.07-26.16 11.44-62.13 19.62-101.38 19.62-24.52 0-45.78-1.64-65.4-6.54a239.47 239.47 0 0 1-49.06-18c-6.54-4.9-14.71-4.9-22.89 0-11.44 8.18-29.43 14.72-49.05 18-19.62 4.9-42.52 6.54-65.41 6.54-40.88 0-76.85-8.18-101.38-19.62-19.62-9.81-32.7-19.62-32.7-31.07 0-4.9 3.27-9.81 8.18-14.72 8.17-8.17 19.62-14.71 36-19.62 1.63-1.63 4.9-1.63 6.54-3.27 9.81-6.54 11.45-19.62 4.91-29.43A288.93 288.93 0 0 1 284.46 697c-6.54-13.08-13.08-26.16-18-40.87-1.64-3.27-4.91-6.55-8.18-9.82-9.81-8.17-24.52-6.54-31.06 3.27-4.91 6.55-9.82 13.08-14.72 18-8.18 8.18-14.72 13.08-21.26 16.35-4.9-4.9-8.17-21.26-4.9-42.51 4.9-27.8 13.08-60.5 29.43-91.57 3.27-8.18 8.17-14.71 11.45-19.62 3.27-6.54 8.17-13.08 11.44-18 1.63-3.27 3.27-8.17 3.27-11.44 1.64-93.2 32.7-176.6 83.39-235.46 49.06-58.86 114.46-94.84 186.41-94.84s137.35 36 191.31 96.47c49.05 60.5 80.12 142.26 83.39 235.46 0 3.27 1.63 8.18 3.27 11.45 3.27 4.9 6.54 11.44 11.45 18 3.27 6.54 6.53 13.07 11.44 19.62a291.43 291.43 0 0 1 26.17 89.93c-1.64 19.62-3.28 36-9.82 40.88m32.73-152.1c-3.27-8.18-8.18-16.35-11.45-22.89-3.27-4.91-6.54-11.45-9.81-16.35C837.14 383 799.53 288.2 742.3 217.89 681.8 144.31 600 100.16 508.48 100.16s-173.33 44.15-232.19 117.73h3.27C222.33 288.2 184.72 384.67 181.45 491a143.34 143.34 0 0 0-9.81 16.35c-4.9 6.54-8.17 14.71-13.08 24.53-18 37.6-29.43 76.84-32.7 109.55-4.91 37.61 1.63 68.67 18 85 1.64 1.64 3.28 1.64 4.91 3.27 13.08 9.82 27.79 11.45 45.78 4.91A111 111 0 0 0 224 713.33c1.64 4.91 4.91 9.81 6.55 13.08 3.27 8.18 6.53 14.72 11.44 21.26-11.44 6.54-21.26 13.08-27.8 21.26-14.71 14.71-24.52 32.7-24.52 50.69 0 32.7 22.89 58.86 62.13 75.21 32.7 14.72 76.85 24.53 127.54 24.53 27.8 0 55.6-3.27 80.12-9.81 21.26-4.91 39.25-9.81 54-18 16.35 8.18 32.7 13.08 54 18 22.89 4.9 50.69 9.81 78.49 9.81 49 0 93.2-9.81 127.54-24.53 37.6-18 62.13-44.15 62.13-75.21 0-18-9.81-36-24.53-50.69a124.53 124.53 0 0 0-27.79-21.26c3.27-6.54 8.17-14.71 11.44-21.26 1.64-3.27 4.91-8.17 6.55-13.08a110.82 110.82 0 0 0 29.43 21.26c16.35 4.91 32.7 4.91 45.78-4.91 1.64-1.63 3.27-1.63 4.91-3.27 16.35-16.35 22.89-47.41 18-85-6.54-32.71-18-71.95-37.6-111.19" /></svg>