<?xml version="1.0" standalone="no"?><!DOCTYPE svg PUBLIC "-//W3C//DTD SVG 1.1//EN" "http://www.w3.org/Graphics/SVG/1.1/DTD/svg11.dtd"><svg class="icon" width="200px" height="200.00px" viewBox="0 0 1024 1024" version="1.1" xmlns="http://www.w3.org/2000/svg"><path fill="#333333" d="M916.78 887.92L760.61 731.74c67.25-69.16 108.85-163.45 108.85-267.28 0-211.64-172.12-383.76-383.59-383.76S102.29 252.82 102.29 464.29 274.4 847.88 485.87 847.88A381.65 381.65 0 0 0 707.56 777l160 160a34.41 34.41 0 0 0 24.61 10.4 34.84 34.84 0 0 0 24.62-59.45zM172 464.29c0-173 140.74-313.91 313.9-313.91s313.88 140.75 313.88 313.91S659 778.2 485.87 778.2 172 637.45 172 464.29z m0 0" /></svg>