<?xml version="1.0" standalone="no"?><!DOCTYPE svg PUBLIC "-//W3C//DTD SVG 1.1//EN" "http://www.w3.org/Graphics/SVG/1.1/DTD/svg11.dtd"><svg class="icon" width="200px" height="200.00px" viewBox="0 0 1024 1024" version="1.1" xmlns="http://www.w3.org/2000/svg"><path fill="#333333" d="M224.73 824.23L441.08 783c6.87-1.72 13.74-5.16 17.17-8.59l408.68-408.66a65.28 65.28 0 0 0 0-92.72L734.71 140.81a65.28 65.28 0 0 0-92.72 0L235 549.48c-5.15 5.15-8.59 10.31-8.59 17.17l-41.18 218.08c-1.71 10.31 1.72 22.33 8.59 30.91 8.58 6.87 20.6 10.3 30.91 8.59zM690.07 190.6l128.78 128.79L731.28 407 602.5 278.18zM291.7 590.7l262.71-264.44L683.2 455 420.48 719.48l-158 29.19z m618.16 249H120a34.34 34.34 0 0 0 0 68.68h789.86a34.34 34.34 0 0 0 0-68.68z m0 0" /></svg>