<?xml version="1.0" standalone="no"?><!DOCTYPE svg PUBLIC "-//W3C//DTD SVG 1.1//EN" "http://www.w3.org/Graphics/SVG/1.1/DTD/svg11.dtd"><svg class="icon" width="200px" height="200.00px" viewBox="0 0 1024 1024" version="1.1" xmlns="http://www.w3.org/2000/svg"><path fill="#333333" d="M758 442.22l-0.09-0.34a22 22 0 0 0-21.21-16.15H621.26a22 22 0 0 0 0 44h41.22l-105.38 68-106.91-69.19a20.26 20.26 0 0 0-1.92-1.1h-0.06c-0.61-0.31-1.23-0.58-1.85-0.83l-0.34-0.13c-0.55-0.21-1.11-0.4-1.67-0.56l-0.5-0.13c-0.54-0.15-1.09-0.28-1.65-0.38l-0.43-0.07c-0.58-0.09-1.16-0.17-1.74-0.22h-0.28c-0.64 0-1.27-0.06-1.91-0.05h-0.09a21.82 21.82 0 0 0-8.07 1.73l-0.12 0.05c-0.55 0.24-1.1 0.51-1.65 0.8-0.11 0.06-0.23 0.11-0.34 0.18h-0.07l-135 75.39a22 22 0 1 0 21.45 38.41l123.45-68.96 107.74 69.69h0.07c0.4 0.25 0.81 0.5 1.22 0.73l0.15 0.08c0.45 0.24 0.91 0.48 1.38 0.69l0.33 0.14c0.32 0.14 0.65 0.28 1 0.41l0.77 0.27 0.57 0.18 0.87 0.25 0.5 0.13 0.9 0.19 0.51 0.09 0.88 0.14 0.6 0.06c0.26 0 0.53 0.06 0.8 0.07s0.72 0 1.09 0H558.5c0.36 0 0.53 0 0.79-0.07l0.61-0.06 0.87-0.14 0.52-0.09 0.89-0.19 0.51-0.13 0.86-0.24 0.58-0.19c0.25-0.09 0.51-0.17 0.76-0.27s0.64-0.26 1-0.4l0.36-0.14c0.46-0.22 0.92-0.45 1.37-0.69l0.15-0.09c0.41-0.22 0.81-0.46 1.21-0.71h0.08l179.67-115.93a22 22 0 0 0 9.58-23c-0.08-0.45-0.16-0.83-0.31-1.23zM456.49 633.9v195.41h98.75V669.6l-67.45-46.86c-12.17-8.46-31.3-1.64-31.3 11.16zM718.5 574.87a22.22 22.22 0 0 0-22.48 0.75l-104.26 70.13v183.56h116.11c10.08 0 18.25-6.44 18.25-14.4V586.82c0-4.71-2.75-9.22-7.62-11.95zM389.64 611.13L297.55 667c-4.5 2.73-7.13 6.95-7.13 11.42v136.49c0 8 8.17 14.4 18.26 14.4H420V622.92c0-12.33-18-19.3-30.36-11.79z"  /><path fill="#333333" d="M804.79 66.22H440.42a63 63 0 0 0-7.79 0.5 31 31 0 0 0-27.38 8.58l-9.38 9.37-110.81 110.82-120.19 120.19a31 31 0 0 0-8.58 27.38 63 63 0 0 0-0.5 7.79v542.37a63.07 63.07 0 0 0 63 63h586a63.07 63.07 0 0 0 63-63v-764a63.07 63.07 0 0 0-63-63zM396.17 172.06V305.6a1 1 0 0 1-1 1H261.63z m409.62 721.16a1 1 0 0 1-1 1h-586a1 1 0 0 1-1-1V368.6h177.38a63.08 63.08 0 0 0 63-63V128.22h346.62a1 1 0 0 1 1 1z"  /><path fill="#333333" d="M531.52 365.61H687a22 22 0 0 0 0-44H531.52a22 22 0 0 0 0 44zM531.52 248.32h193.61a22 22 0 0 0 0-44H531.52a22 22 0 0 0 0 44z"  /></svg>