<?xml version="1.0" standalone="no"?><!DOCTYPE svg PUBLIC "-//W3C//DTD SVG 1.1//EN" "http://www.w3.org/Graphics/SVG/1.1/DTD/svg11.dtd"><svg class="icon" width="200px" height="200.00px" viewBox="0 0 1024 1024" version="1.1" xmlns="http://www.w3.org/2000/svg"><path fill="#333333" d="M873.07 598.37c-31.56-24.48-74.25-10.52-87.3 23.57C737 749.71 599.84 827.8 456.7 793c-105.3-25.69-187.54-114-205.95-220.82C220.4 396.26 355 243.71 525.29 243.71A277.08 277.08 0 0 1 686.54 295l-21.45 26.5c-12.14 15-2.63 37.33 16.49 39.15l167.82 15.58A31.17 31.17 0 0 0 882.07 336L831.9 175.13c-5.77-18.41-29.64-23-41.68-8l-33.28 41.07c-86.08-63.63-196.65-90.54-309.24-68.48-159.32 31.16-284.7 162.56-308.33 323.2-35.81 242 150.83 449.85 385.92 449.85a390.35 390.35 0 0 0 363.06-246.72c9.4-23.67 4.85-52.05-15.28-67.68z" /></svg>