<?xml version="1.0" standalone="no"?><!DOCTYPE svg PUBLIC "-//W3C//DTD SVG 1.1//EN" "http://www.w3.org/Graphics/SVG/1.1/DTD/svg11.dtd"><svg class="icon" width="200px" height="200.00px" viewBox="0 0 1024 1024" version="1.1" xmlns="http://www.w3.org/2000/svg"><path fill="#333333" d="M847.57 213.85H828c-0.83 0-76.06-1.49-156.26-32-79.37-31.82-132.73-68.6-133.22-68.93l-10.28-7.3c-9.44-9.44-20.22-7.62-30-2.48L487 111.28c-0.5 0.33-53.85 37.28-134.88 68.93-77.38 30-154.27 32-154.77 32l-21.21 0.17c-12.26 2.48-21 12.76-21 24.19V565c0 176.14 232.48 362.56 357.59 362.56S870.27 741.12 870.27 565V236.55a22.73 22.73 0 0 0-22.7-22.7zM666.79 450l-176 176a35.06 35.06 0 0 1-25.18 10.43A37.9 37.9 0 0 1 440.44 626l-81.36-81.37c-12.76-14.74-12.76-35.62-0.5-50a35.53 35.53 0 0 1 25.68-10.94 37.87 37.87 0 0 1 25.19 10.45l56 56 150.3-150.29a35.07 35.07 0 0 1 25.18-10.44 37.88 37.88 0 0 1 25.19 10.44c12.92 12.76 13.09 35.79 0.66 50.21z m0 0" /></svg>