<?xml version="1.0" standalone="no"?><!DOCTYPE svg PUBLIC "-//W3C//DTD SVG 1.1//EN" "http://www.w3.org/Graphics/SVG/1.1/DTD/svg11.dtd"><svg class="icon" width="200px" height="200.00px" viewBox="0 0 1024 1024" version="1.1" xmlns="http://www.w3.org/2000/svg"><path fill="#333333" d="M942.36 184.65c0-29.22-24.06-53.28-55-53.28-12 0-22.34 6.87-32.65 12C729.25 207 114 511.25 114 511.25c-17.22 6.88-31 22.35-31 41.26 0 20.63 13.75 36.09 32.65 43l225.18 73.89c3.43 1.71 6.87 1.71 10.31 1.71 20.62 0 36.09-15.47 36.09-34.37a35.42 35.42 0 0 0-18.9-30.94c-41.25-17.2-171.87-56.73-171.87-56.73l587.78-293.94-343.73 374.73c-10.31 8.59-18.9 22.35-18.9 37.82 0 3.43 1.71 37.82 1.71 37.82v159.86c0 18.91 15.47 34.37 36.1 34.37s36.09-15.46 36.09-34.37v-141l256.08 86a45.7 45.7 0 0 0 20.62 5.15c24.07 0 44.69-18.9 44.69-43l125.46-579.26zM751.59 734.72l-237.18-80.79 333.43-364.42z m0 0" /></svg>