<?xml version="1.0" standalone="no"?><!DOCTYPE svg PUBLIC "-//W3C//DTD SVG 1.1//EN" "http://www.w3.org/Graphics/SVG/1.1/DTD/svg11.dtd"><svg class="icon" width="200px" height="200.00px" viewBox="0 0 1024 1024" version="1.1" xmlns="http://www.w3.org/2000/svg"><path fill="#333333" d="M876.08 829.96666667l-62.33-529.71a66.67 66.67 0 0 0-66.2-58.86h-64v-10.5c0-86.29-77.17-156.48-172-156.48s-172 70.19-172 156.48v10.5h-64a66.67 66.67 0 0 0-66.2 58.86L147 829.96666667a66.65 66.65 0 0 0 66.19 74.45h596.7a66.65 66.65 0 0 0 66.19-74.45zM401.52 230.89666667c0-52.1 49.36-94.48 110-94.48s110 42.38 110 94.48v10.5h-220z m411.84 610a4.54 4.54 0 0 1-3.47 1.56H213.2a4.66 4.66 0 0 1-4.62-5.2l62.34-529.71a4.66 4.66 0 0 1 4.62-4.11h64v50.52a31 31 0 0 0 62 0v-50.56h220.03v50.52a31 31 0 1 0 62 0v-50.52h64a4.65 4.65 0 0 1 4.62 4.11l62.34 529.71a4.55 4.55 0 0 1-1.17 3.64z" /></svg>