<?xml version="1.0" standalone="no"?><!DOCTYPE svg PUBLIC "-//W3C//DTD SVG 1.1//EN" "http://www.w3.org/Graphics/SVG/1.1/DTD/svg11.dtd"><svg class="icon" width="200px" height="200.00px" viewBox="0 0 1024 1024" version="1.1" xmlns="http://www.w3.org/2000/svg"><path fill="#333333" d="M829.88 831c0 17.62-19.94 32.46-43.43 32.46H238.94c-23.49 0-43.43-14.84-43.43-32.46V542.45a159.68 159.68 0 0 1-61.83-36.17V831c0 51.94 47.3 94.29 105.26 94.29h547.51c58.11 0 105.26-42.35 105.26-94.29V506.13a162.14 162.14 0 0 1-61.83 36.32z"  /><path fill="#333333" d="M943.65 312.91l-39.11-164.16A61.69 61.69 0 0 0 844.25 101l-663.12 0.16a61.59 61.59 0 0 0-60.28 47.6L81.9 312.91a28.36 28.36 0 0 0-0.93 7.27 163.61 163.61 0 0 0 52.71 120.41 159.8 159.8 0 0 0 61.83 36.17 162.54 162.54 0 0 0 50.08 7.88 164.36 164.36 0 0 0 133.55-68.47 164.7 164.7 0 0 0 267.11 0A164.07 164.07 0 0 0 780 484.49 164.91 164.91 0 0 0 944.42 320a37.45 37.45 0 0 0-0.77-7.09zM780 422.66a102.27 102.27 0 0 1-99.7-78.06c-3.56-14.07-10-22-16.54-26.28a32.14 32.14 0 0 0-17.46-5.1c-7.89 0-26.9 3.09-33.7 31.07a102.8 102.8 0 0 1-199.4 1.24c-7.11-28.14-26.12-31.23-34-31.23h-0.2c-7.73 0-26.9 3.09-33.86 31.07A102.69 102.69 0 0 1 143 323.43l38-160.3 0.15-0.15h663.26l38.18 160.45A102.83 102.83 0 0 1 780 422.66zM703.33 779.87a31 31 0 0 1-31-31V619.64a31 31 0 0 1 62 0v129.23a31 31 0 0 1-31 31z"  /></svg>