<?xml version="1.0" standalone="no"?><!DOCTYPE svg PUBLIC "-//W3C//DTD SVG 1.1//EN" "http://www.w3.org/Graphics/SVG/1.1/DTD/svg11.dtd"><svg class="icon" width="200px" height="200.00px" viewBox="0 0 1024 1024" version="1.1" xmlns="http://www.w3.org/2000/svg"><path fill="#333333" d="M664.75 151.60666667a36.71 36.71 0 0 0-26.58 0 32.87 32.87 0 0 0-18.26 18.27 36.69 36.69 0 0 0 0 26.57A32.88 32.88 0 0 0 638.17 214.66666667C757.75 266.19666667 835.8 382.44666667 835.8 511.97666667 835.8 689.66666667 691.32 835.81666667 512 835.81666667S188.12 691.33666667 188.12 513.66666667c0-129.54 78.05-247.45 197.63-297.27A32.9 32.9 0 0 0 404 198.10666667a36.69 36.69 0 0 0 0-26.57 32.87 32.87 0 0 0-18.26-18.27 36.71 36.71 0 0 0-26.58 0C213 213.05666667 120 354.20666667 120 513.66666667c0 215.87 176.07 391.9 392 391.9S903.89 729.53666667 903.89 513.66666667c0-159.44-93-300.59-239.14-362zM523.59 545.19666667c19.92 0 34.87-14.95 34.87-34.88V110.08666667c0-19.93-15-34.87-34.87-34.87s-34.88 14.94-34.88 34.87v400.23c0 19.93 14.94 34.88 34.88 34.88z m0 0" /></svg>