<?xml version="1.0" standalone="no"?><!DOCTYPE svg PUBLIC "-//W3C//DTD SVG 1.1//EN" "http://www.w3.org/Graphics/SVG/1.1/DTD/svg11.dtd"><svg class="icon" width="200px" height="200.00px" viewBox="0 0 1024 1024" version="1.1" xmlns="http://www.w3.org/2000/svg"><path fill="#333333" d="M799.4 98.61h-570a62 62 0 0 0-62 62v706a62 62 0 0 0 62 62h570a62 62 0 0 0 62-62v-706a62 62 0 0 0-62-62z m0 768h-570v-706h570z"  /><path fill="#333333" d="M336 331.92h356.82a31 31 0 0 0 0-62H336a31 31 0 0 0 0 62zM336 540.06h356.82a31 31 0 1 0 0-62H336a31 31 0 0 0 0 62zM336 759.86h356.82a31 31 0 0 0 0-62H336a31 31 0 1 0 0 62z"  /></svg>