<?xml version="1.0" standalone="no"?><!DOCTYPE svg PUBLIC "-//W3C//DTD SVG 1.1//EN" "http://www.w3.org/Graphics/SVG/1.1/DTD/svg11.dtd"><svg class="icon" width="200px" height="200.00px" viewBox="0 0 1024 1024" version="1.1" xmlns="http://www.w3.org/2000/svg"><path fill="#333333" d="M277.65 448.63H160.81c-36.72 0-65.09 30-65.09 65.09v323.8c0 36.72 30 65.09 65.09 65.09h116.84c36.71 0 65.09-30 65.09-65.09V515.39c0-36.72-30-66.76-65.09-66.76z m-5 385.55H165.82V518.73h108.49v315.45zM858.48 266.7H755a71.24 71.24 0 0 0-71.77 71.77v494A71.24 71.24 0 0 0 755 904.28h103.48a71.24 71.24 0 0 0 71.77-71.77v-494a71.24 71.24 0 0 0-71.77-71.77z m1.67 565.81a3.59 3.59 0 0 1-3.34 3.34H753.33a3.59 3.59 0 0 1-3.34-3.34v-494a3.59 3.59 0 0 1 3.34-3.34h103.48a3.59 3.59 0 0 1 3.34 3.34zM559.72 123.16h-95.14c-41.73 0-76.78 35.05-76.78 76.78V827.5c0 41.73 35.05 76.78 76.78 76.78h95.14c41.72 0 76.77-35 76.77-76.78V199.94a76.57 76.57 0 0 0-76.77-76.78z m6.67 704.34a7.17 7.17 0 0 1-6.67 6.68h-95.14a7.18 7.18 0 0 1-6.68-6.68V199.94a7.18 7.18 0 0 1 6.68-6.68h95.14a7.17 7.17 0 0 1 6.67 6.68z m0 0" /></svg>