<?xml version="1.0" standalone="no"?><!DOCTYPE svg PUBLIC "-//W3C//DTD SVG 1.1//EN" "http://www.w3.org/Graphics/SVG/1.1/DTD/svg11.dtd"><svg class="icon" width="200px" height="200.00px" viewBox="0 0 1024 1024" version="1.1" xmlns="http://www.w3.org/2000/svg"><path fill="#333333" d="M134.77 578.85A35.77 35.77 0 0 0 170.61 543v-72.25c0-69.62 56.66-126.25 126.5-126.25h499.18L682.45 451.1c-14.34 13.49-14.83 34.65-1.17 49.3 14.34 15.33 36.34 16.16 51.33 2.17l180.18-168.9a35.34 35.34 0 0 0 10.83-26v-0.5c-0.17-9.83-4.16-19.16-11.17-25.32L733.12 121.47c-10-8.83-22.84-11.66-35.17-7.5-12.83 4.17-22.83 15.16-25.33 27.82-2.5 11.66 1.49 23.31 11 31.81l111 99.28H297.11c-109.34-0.17-198.17 88.61-198.17 197.87V543a35.77 35.77 0 0 0 35.83 35.85z m700-270.5c-0.17 0.17-0.17 0 0 0z"  /><path fill="#333333" d="M896.45 445.6a35.77 35.77 0 0 0-35.83 35.81v72.29c0 69.63-56.62 126.3-126.34 126.3H235.1l113.51-106.47c14.33-13.5 14.83-34.65 1.16-49.31-14.33-15.32-36.33-16.16-51.33-2.17L118.27 691.29a35.28 35.28 0 0 0-10.83 26v0.5c0.17 9.83 4.17 19.15 11.16 25.32l179.51 160.4c10 8.83 22.83 11.66 35.17 7.49 12.83-4.16 22.83-15.15 25.33-27.81 2.5-11.66-1.5-23.32-11-31.81l-111.34-99.46h497.85c109.33 0 198.17-88.78 198.17-198v-72.34a35.91 35.91 0 0 0-35.84-35.98z m-700 270.84c0.17-0.17 0.17 0 0 0z"  /></svg>