<?xml version="1.0" standalone="no"?><!DOCTYPE svg PUBLIC "-//W3C//DTD SVG 1.1//EN" "http://www.w3.org/Graphics/SVG/1.1/DTD/svg11.dtd"><svg class="icon" width="200px" height="200.00px" viewBox="0 0 1024 1024" version="1.1" xmlns="http://www.w3.org/2000/svg"><path fill="#333333" d="M863.54133333 279.06133333l4.768 4.768a35.08266667 35.08266667 0 0 0 49.62133334-49.62133333L858.77333333 175.04a35.09333333 35.09333333 0 0 0-49.632 49.632l4.72533334 4.768-35.52 35.56266667a408.21333333 408.21333333 0 0 0-236.07466667-95.52v-62.93333334h114.304a35.09333333 35.09333333 0 1 0 0-70.176H357.78133333a35.09333333 35.09333333 0 1 0 0 70.176h114.304V170.66666667a408.256 408.256 0 0 0-222.80533333 94.86933333l-36.096-36.096 4.768-4.768a35.09333333 35.09333333 0 0 0-49.62133333-49.632l-59.15733334 59.168a35.08266667 35.08266667 0 1 0 49.62133334 49.62133333l4.768-4.768 36.26666666 36.26666667a408.37333333 408.37333333 0 0 0-95.65866666 263.24266667c0 226.432 183.56266667 410.00533333 410.00533333 410.00533333s410.00533333-183.57333333 410.00533333-410.00533333A408.352 408.352 0 0 0 827.94666667 314.66666667z m-9.6 299.46666667a338.464 338.464 0 1 1-26.66666666-132.26666667 337.73866667 337.73866667 0 0 1 26.67733333 132.26666667z"  /><path fill="#333333" d="M515.296 288.77866667c-159.552 0-288.896 129.344-288.896 288.896s129.344 288.896 288.896 288.896 288.90666667-129.344 288.90666667-288.896-129.344-288.896-288.90666667-288.896z m96.736 417.74933333a35.11466667 35.11466667 0 0 1-49.35466667 5.248l-101.12-81.70666667a0.416 0.416 0 0 1-0.10666666-0.08533333l-0.82133334-0.69333333-0.544-0.48-0.55466666-0.512a35.2 35.2 0 0 1-6.656-8.53333334l-0.13866667-0.256c-0.17066667-0.30933333-0.33066667-0.62933333-0.49066667-0.94933333s-0.20266667-0.40533333-0.30933333-0.608-0.18133333-0.42666667-0.27733333-0.62933333-0.29866667-0.65066667-0.43733334-0.98133334l-0.10666666-0.26666666a35.06133333 35.06133333 0 0 1-2.48533334-10.54933334v-0.77866666-0.69333334-1.06666666-158.63466667a35.09333333 35.09333333 0 0 1 70.18666667 0v141.664l88.08533333 71.168a35.09333333 35.09333333 0 0 1 5.13066667 49.344z"  /></svg>