<?xml version="1.0" standalone="no"?><!DOCTYPE svg PUBLIC "-//W3C//DTD SVG 1.1//EN" "http://www.w3.org/Graphics/SVG/1.1/DTD/svg11.dtd"><svg class="icon" width="200px" height="200.00px" viewBox="0 0 1024 1024" version="1.1" xmlns="http://www.w3.org/2000/svg"><path fill="#333333" d="M878.34 430.01666666v407.27L656.79 615.74666666l191.73-191.73a105.78 105.78 0 0 1-50-37.68L527 657.84666666a35.78 35.78 0 0 1-50.54 0L156.69 338.07666666l0.46-0.07c0.61-0.09 1.23-0.16 1.86-0.22l0.75-0.06c0.84-0.06 1.7-0.1 2.56-0.1h617.1a106.17 106.17 0 0 1-0.78-12.81A104.58 104.58 0 0 1 790.86 275.66666666H162.32a95.44 95.44 0 0 0-11.5 0.69 98.22 98.22 0 0 0-67.19 39.07 97 97 0 0 0-19 57.94v490.83a97.55 97.55 0 0 0 15 52.09c0.13 0.22 0.27 0.43 0.4 0.64a97.44 97.44 0 0 0 82.31 45H842.6c3.08 0 6.14-0.15 9.17-0.43q3.26-0.3 6.45-0.83a97.54 97.54 0 0 0 65.86-42.49v-0.06a97.3 97.3 0 0 0 16.22-53.92v-450.4A104.76 104.76 0 0 1 884 430.16666666c-1.91 0-3.79-0.05-5.66-0.15zM126.58 395.66666666l220.1 220.11-220.1 220.1z m35.74 504.3c-0.84 0-1.68 0-2.51-0.1l-0.79-0.07c-0.57-0.05-1.14-0.11-1.7-0.19l-0.9-0.14c-0.53-0.09-1-0.19-1.57-0.3l-0.89-0.2c-0.55-0.13-1.09-0.28-1.63-0.43l-0.56-0.17 238.75-238.78L432.63 701.66666666a97.85 97.85 0 0 0 138.22 0l42.1-42.1L852 898.66666666l-0.3 0.09c-0.43 0.11-0.86 0.21-1.3 0.3s-0.61 0.15-0.93 0.21-0.91 0.16-1.38 0.23l-0.89 0.14c-0.51 0.07-1 0.11-1.54 0.16l-0.76 0.07c-0.77 0-1.55 0.08-2.33 0.08z"  /><path fill="#333333" d="M883.99 324.81666666m-75.35 0a75.35 75.35 0 1 0 150.7 0 75.35 75.35 0 1 0-150.7 0Z"  /></svg>