<?xml version="1.0" standalone="no"?><!DOCTYPE svg PUBLIC "-//W3C//DTD SVG 1.1//EN" "http://www.w3.org/Graphics/SVG/1.1/DTD/svg11.dtd"><svg class="icon" width="200px" height="200.00px" viewBox="0 0 1024 1024" version="1.1" xmlns="http://www.w3.org/2000/svg"><path fill="#333333" d="M934.36 727.36L610.47 189.93c-24.91-44.49-60.51-69.41-99.65000001-69.41s-74.75 24.92-99.65999999 69.41L87.28 727.36c-24.92 44.49-28.48 89-7.12 122.79 19.57 33.81 58.72 53.39 108.55 53.38999999h647.77c48 0 87.2-19.58000001 106.78000001-53.38999999s16-78.30000001-8.90000001-122.79z m-48.05 90.76c-7.12 12.46000001-24.92 21.35-49.83 21.35H188.71c-24.91 0-44.49-7.12-51.6-19.56999999s-5.35-33.81 7.11000001-56.95000001L468.11 222c12.45-23.14000001 28.47-35.59 42.70999999-35.59s30.25 12.45 42.70000001 37.37000001l323.89 537.38999999c12.46000001 21.36 16 42.71 8.9 57zM491.24 631.26000001c5.34000001 3.56 12.46000001 5.34000001 19.58000001 5.33999999s14.23-1.78000001 19.56999999-5.34000001A38.14000001 38.14000001 0 0 0 550 597.45V380.33999999c0-14.24-7.11-28.47-19.57-35.58999999s-28.47-7.12-39.15 0c-12.46000001 7.12-19.57 21.35-19.57 35.59000001v218.88999999c0 12.46000001 7.11 24.91 19.57 32z m40.93 47.99999998c-14.23-8.90000001-30.25-8.90000001-44.49 0s-21.36 23.14000001-21.36 39.15000001c0 23.14000001 19.58000001 42.71 42.72 42.71s42.71-19.57 42.71-42.71c3.56-16-5.34000001-32-19.58-39.15000001z m0 0" /></svg>