<?xml version="1.0" standalone="no"?><!DOCTYPE svg PUBLIC "-//W3C//DTD SVG 1.1//EN" "http://www.w3.org/Graphics/SVG/1.1/DTD/svg11.dtd"><svg class="icon" width="200px" height="200.00px" viewBox="0 0 1024 1024" version="1.1" xmlns="http://www.w3.org/2000/svg"><path fill="#333333" d="M226 568a34.8 34.8 0 0 0 24.67-8.7L388 435.45 578.42 564.8a33.43 33.43 0 0 0 19.17 5.87h0.17a33.81 33.81 0 0 0 21.48-7.67L820.3 400.27a34.41 34.41 0 0 0-17.92-60.94 34.88 34.88 0 0 0-25.2 7.46L596 493.55 404.33 363.32a34.39 34.39 0 0 0-42.23 2.84L204.69 508A34.6 34.6 0 0 0 226 568z"  /><path fill="#333333" d="M890.22 140.5H547.55v-29.31a35.66 35.66 0 0 0-10.48-25c-6.56-6.58-15.61-9.6-24.31-9.78a34.51 34.51 0 0 0-33.54 34.29v30H136.37a66.66 66.66 0 0 0-66.73 66.63v478.12a66.92 66.92 0 0 0 66.73 66.81H479v16.17l-155.24 117.8a34.38 34.38 0 0 0 7.1 59.52 34 34 0 0 0 34.25-4.62l127.77-97s8.17-6 15.44-11a8.84 8.84 0 0 1 9.94 0l143.39 108a34.75 34.75 0 0 0 20.76 6.93 34.46 34.46 0 0 0 20.77-61.83l-155.46-117.8v-16.17H890.4a66.92 66.92 0 0 0 66.72-66.81V207.31a67.06 67.06 0 0 0-66.9-66.81z m-1.77 543H138.14V209.09h750.31z"  /></svg>