<?xml version="1.0" standalone="no"?><!DOCTYPE svg PUBLIC "-//W3C//DTD SVG 1.1//EN" "http://www.w3.org/Graphics/SVG/1.1/DTD/svg11.dtd"><svg class="icon" width="200px" height="200.00px" viewBox="0 0 1024 1024" version="1.1" xmlns="http://www.w3.org/2000/svg"><path fill="#333333" d="M296.52 570.41v-48.7l48.5-83.08h-47.07l-22.82 44.41-22.83-44.41h-47.78l48.5 83.79v47.99h43.5zM466.97 469.43v-30.8H359.28v131.78h109.83v-30.8h-66.32v-20.77h54.2v-30.79h-54.2v-18.62h64.18zM569.67 438.63h-43.5L479.1 570.41h42.08l5-17.19H569l5 17.19h42.79zM534 525.29L547.56 478l14.27 47.27zM755.1 566.11q-5 2.14-4.28-17.19v-5.73q1.42-30.08-22.82-35.09 21.39-6.45 22.11-32.22 2.83-38.69-57.77-37.25h-62.05v131.78h42.8v-45.84h12.83q26.39-2.15 23.54 22.92 0 18.63 2.14 22.92h43.5z m-64.9-70.9h-17.11v-25.78h20q17.13 0.72 17.83 13.61t-20.72 12.17zM539.25 886.26l-0.94 0.12a21.5 21.5 0 0 0 2.56 42.84 21.05 21.05 0 0 0 2.62-0.16l1-0.13a21.5 21.5 0 1 0-5.28-42.67zM676.69 840.54l-1.23 0.7a21.5 21.5 0 1 0 21.24 37.39l1.39-0.8a21.5 21.5 0 1 0-21.4-37.29zM610.28 870.26l-1.36 0.44a21.5 21.5 0 1 0 13.42 40.86l1.51-0.5a21.5 21.5 0 0 0-13.57-40.8zM735.93 798.22l-1.08 0.93a21.5 21.5 0 0 0 28.21 32.46l1.21-1.06a21.5 21.5 0 1 0-28.34-32.33zM815.92 741.13a21.51 21.51 0 0 0-30.15 4l-0.87 1.13a21.5 21.5 0 0 0 34 26.34l1-1.27a21.49 21.49 0 0 0-3.98-30.2zM852.94 673.42a21.5 21.5 0 0 0-28.78 9.81l-0.65 1.33a21.5 21.5 0 1 0 38.56 19l0.69-1.39a21.5 21.5 0 0 0-9.82-28.75zM875.65 600.19a21.5 21.5 0 0 0-26.27 15.31l-0.25 1a21.5 21.5 0 0 0 41.57 11l0.26-1a21.51 21.51 0 0 0-15.31-26.31z"  /><path fill="#333333" d="M950.17 448.86a31 31 0 0 0-43.84 0l-4.68 4.68a420.23 420.23 0 1 0-462.12 473.25 32.41 32.41 0 0 0 3.4 0.18 31 31 0 0 0 3.32-61.82c-81.77-8.92-155.8-44.44-214.09-102.73a358 358 0 0 1 0-506.29c139.59-139.58 366.71-139.58 506.29 0 52.59 52.59 86.68 118.28 99.33 189.71a31 31 0 0 0-40.34 46.86l54.45 54.44a31 31 0 0 0 43.84 0l54.44-54.44a31 31 0 0 0 0-43.84z"  /></svg>