<?xml version="1.0" standalone="no"?><!DOCTYPE svg PUBLIC "-//W3C//DTD SVG 1.1//EN" "http://www.w3.org/Graphics/SVG/1.1/DTD/svg11.dtd"><svg class="icon" width="200px" height="200.00px" viewBox="0 0 1024 1024" version="1.1" xmlns="http://www.w3.org/2000/svg"><path d="M891.18 936.87h-757c-20.18 0-36.62-10.68-36.62-23.9v-390c0-13.22 16.28-23.9 36.62-23.9h757.17c20.17 0 36.62 10.68 36.62 23.9V913c-0.17 13.22-16.61 23.9-36.79 23.9z m0 0" fill="#56CBFF" /><path d="M836.43 740.58V234.09L651.33 89.33H281.46c-50.85 0-92.55 32.54-92.55 72.38v578.87c0 39.84 41.7 72.38 92.55 72.38h462.42c50.85 0 92.55-32.54 92.55-72.38zM331.8 603.45a28.62 28.62 0 0 1 28.65-28.65h276a28.65 28.65 0 0 1 0 57.3H360.28a28.59 28.59 0 0 1-28.48-28.65z m0-114.25a28.62 28.62 0 0 1 28.65-28.65h295.11a28.65 28.65 0 1 1 0 57.29H360.28a28.58 28.58 0 0 1-28.48-28.64zM512.67 375A28.61 28.61 0 0 1 484 403.59H360.28a28.65 28.65 0 1 1 0-57.29H484a28.72 28.72 0 0 1 28.67 28.7z m291.56-95.27H684a76.32 76.32 0 0 1-76.11-76.1v-82.1z m0 0" fill="#33A0FB" /><path d="M891.18 536H530.81l-24.92-82.72a41.78 41.78 0 0 0-40.18-29.83H139.58a42 42 0 0 0-42 42v444.64c0 14.92 16.28 26.78 36.62 26.78h757.15c20.17 0 36.62-12 36.62-26.78V562.77C927.8 548 911.52 536 891.18 536z m0 0" fill="#56CBFF" /></svg>