<?xml version="1.0" standalone="no"?><!DOCTYPE svg PUBLIC "-//W3C//DTD SVG 1.1//EN" "http://www.w3.org/Graphics/SVG/1.1/DTD/svg11.dtd"><svg class="icon" width="32px" height="32.00px" viewBox="0 0 1024 1024" version="1.1" xmlns="http://www.w3.org/2000/svg"><path d="M926.24 954.57066667h-689.06666667a66.13333333 66.13333333 0 0 1-66.13333333-66.13333334v-676.26666666h755.2v742.4z" fill="#78082A" /><path d="M230.95466667 75.73333333h569.6a66.13333333 66.13333333 0 0 1 66.13333333 66.13333334v552.53333333h-635.73333333V75.73333333z" fill="#E51050" /><path d="M230.95466667 694.38933333l-132.04266667 78.976V156.288l132.04266667-80.576v618.67733333z" fill="#E85984" /><path d="M437.19466667 884.45866667c-14.64533333 0-25.76-4.928-34.93333334-14.08-13.23733333-13.19466667-12.71466667-30.79466667-12.71466666-49.632s-0.52266667-36.42666667 12.71466666-49.632c9.17333333-9.152 20.26666667-14.08 34.93333334-14.08 23.81866667 0 43.05066667 13.20533333 47.63733333 40.832h-31.41333333c-1.94133333-7.04-5.824-13.376-16.05333334-13.376-5.64266667 0-9.87733333 2.29333333-12.17066666 5.28-2.82666667 3.70133333-4.768 8.096-4.768 30.93333333s1.94133333 27.28533333 4.768 30.93333333c2.29333333 2.99733333 6.528 5.33333333 12.17066666 5.33333334 10.22933333 0 14.112-6.336 16.05333334-13.376h31.41333333c-4.58666667 27.66933333-23.81866667 40.864-47.63733333 40.864zM569.52533333 883.40266667l-5.824-18.656h-38.63466666l-6.18666667 18.656h-32.288L532.26666667 758.09066667h23.81866666l45.728 125.312z m-24.53333333-77.792l-11.296 33.44h21.87733333zM694.976 871.08266667c-8.64 8.62933333-20.82133333 12.32-33.87733333 12.32h-46.58133334V758.09066667h46.58133334c13.056 0 25.23733333 3.70133333 33.87733333 12.32 14.64533333 14.61333333 13.056 30.624 13.056 50.336s1.58933333 35.78666667-13.056 50.336z m-21.17333333-78.496c-2.816-4.26666667-7.05066667-7.04-14.816-7.04h-13.58933334v70.4h13.58933334c7.76533333 0 12-2.816 14.816-7.04 2.47466667-3.52 3.34933333-6.85866667 3.34933333-28.16 0-21.12-0.88533333-24.64-3.34933333-28.16zM628.69333333 580.46933333h99.11466667l-112.16-395.73333333-3.68-9.6H485.65333333l-3.68 9.6-112.14933333 395.73333333h99.104l19.904-81.06666666h119.968z m-38.4-156.34133333h-82.98666666l41.51466666-169.056z" fill="#FFFFFF" /></svg>