<?xml version="1.0" standalone="no"?><!DOCTYPE svg PUBLIC "-//W3C//DTD SVG 1.1//EN" "http://www.w3.org/Graphics/SVG/1.1/DTD/svg11.dtd"><svg class="icon" width="200px" height="200.00px" viewBox="0 0 1024 1024" version="1.1" xmlns="http://www.w3.org/2000/svg"><path d="M578.68 170.94h361v668h-361zM145.68 236.94h396v538h-396z" fill="#FFFFFF" /><path d="M959.86 218.18c0-17.87 0-35.74-10.73-51.82-14.3-10.72-34-8.93-51.85-8.93H591.53V77h-60.79C377 103.82 221.41 130.62 65.86 157.43v711.18c155.55 26.8 309.32 53.61 464.88 80.41h62.58v-91.13h316.47c16.1 0 42.91-1.79 46.49-21.45 5.37-30.37 1.79-60.75 3.58-89.34zM364.45 672.05c-17.88-42.89-37.54-84-50.06-126.87-14.31 41.1-34 80.41-50.06 119.72-21.46 0-44.71-1.79-66.16-1.79C225 611.3 250 561.27 276.84 509.44 253.6 457.63 228.56 405.8 205.32 354c21.46-1.79 44.7-1.79 66.15-3.58 14.31 39.31 32.19 78.62 44.71 119.72 12.51-42.88 34-84 50.06-125.08 23.25-1.79 46.49-3.57 69.73-3.57-26.82 55.39-53.64 110.78-82.25 166.18 28.61 57.18 57.22 112.57 84 169.75-23.2-1.8-48.23-3.58-73.27-5.37z m565 155.46H593.32v-60.75h82.25v-71.48h-82.25V656h82.25v-71.51h-82.25v-41.1h82.25v-71.47h-82.25v-39.31h82.25v-71.48h-82.25V320h82.25v-71.44h-82.25v-60.75h336.14z" fill="#226F47" /><path d="M714.9 361.13h143.04v71.48H714.9zM714.9 584.49h143.04v71.47H714.9zM714.9 471.92h143.04v71.47H714.9zM714.9 695.28h143.04v71.47H714.9zM714.9 248.56h143.04v71.48H714.9z" fill="#226F47" /></svg>