<?xml version="1.0" standalone="no"?><!DOCTYPE svg PUBLIC "-//W3C//DTD SVG 1.1//EN" "http://www.w3.org/Graphics/SVG/1.1/DTD/svg11.dtd"><svg class="icon" width="200px" height="200.00px" viewBox="0 0 1024 1024" version="1.1" xmlns="http://www.w3.org/2000/svg"><path d="M396.0832 374.9888l-120.832-191.6928c-13.312-21.0944-35.6352-21.504-49.5616-0.8192l-127.5904 187.1872c-14.1312 20.6848-14.7456 54.6816-1.2288 75.776l120.6272 191.6928c13.312 21.0944 35.6352 21.7088 49.5616 1.024L394.6496 450.56c14.1312-20.48 14.7456-54.4768 1.4336-75.5712z m531.0464 9.8304l-120.832-191.6928c-13.312-21.0944-35.6352-21.7088-49.7664-0.8192l-127.3856 186.9824c-14.1312 20.6848-14.7456 54.6816-1.2288 75.776l120.832 191.6928c13.312 21.0944 35.6352 21.7088 49.5616 1.024l127.5904-187.1872c13.9264-20.6848 14.7456-54.6816 1.2288-75.776z m0 0" fill="#EAA652" /><path d="M942.08 821.6576a99.67616 99.67616 0 0 1-63.2832 78.848c-75.1616 26.624-216.4736 43.8272-380.3136 42.3936-160.1536-1.6384-297.984-20.6848-372.736-47.5136a100.22912 100.22912 0 0 1-62.8736-82.5344c0 0.6144-0.2048 1.4336 0 2.2528L0 278.528c0.4096-0.2048 0.8192 0.2048 1.024-1.024 0.2048-9.0112 4.096-17.6128 10.4448-23.7568 6.5536-6.144 15.1552-9.6256 24.1664-9.216 7.168 0 13.5168 3.072 19.0464 6.9632l229.5808 211.968 189.44-358.4c8.3968-14.7456 23.9616-23.9616 40.96-24.1664 16.9984-0.2048 32.768 8.8064 41.3696 23.552l177.3568 367.0016 232.448-199.68c0.2048 0-0.2048 1.024 0 0.8192 6.5536-5.9392 15.1552-9.216 23.9616-9.0112 18.8416 0.4096 33.792 15.5648 33.3824 34.2016 0 1.024 0.4096 0.4096 0.8192 0.8192l-81.7152 530.432c0-2.4576-0.6144-4.5056-0.2048-7.3728z m0 0" fill="#F7C478" /><path d="M515.2768 425.7792c102.1952 1.8432 183.5008 85.1968 181.8624 186.5728-2.048 101.1712-86.2208 181.6576-188.6208 179.8144-102.1952-1.8432-183.5008-85.1968-181.6576-186.5728 1.6384-101.1712 86.2208-181.4528 188.416-179.8144z m0 0" fill="#EAA652" /><path d="M450.1504 681.1648l16.9984-22.9376c10.8544 10.6496 24.1664 18.6368 40.5504 18.6368 18.432 0 30.9248-9.0112 30.9248-25.3952 0-18.0224-10.6496-29.0816-50.176-29.0816v-26.0096c33.3824 0 44.2368-11.4688 44.2368-27.8528 0-14.336-8.8064-22.528-24.3712-22.9376-13.1072 0.2048-23.552 6.3488-34.4064 16.1792l-18.432-22.1184c15.7696-13.7216 33.1776-22.3232 54.6816-22.3232 35.2256 0 58.9824 17.2032 58.9824 48.3328 0 19.6608-11.0592 33.9968-30.5152 41.5744v1.2288c20.6848 5.7344 36.4544 20.8896 36.4544 44.6464 0 33.3824-29.2864 52.8384-63.8976 52.8384-28.672 0.6144-48.128-10.24-61.0304-24.7808z" fill="#F7C478" /></svg>