<?xml version="1.0" standalone="no"?><!DOCTYPE svg PUBLIC "-//W3C//DTD SVG 1.1//EN" "http://www.w3.org/Graphics/SVG/1.1/DTD/svg11.dtd"><svg t="1631242727385" class="icon" viewBox="0 0 1024 1024" version="1.1" xmlns="http://www.w3.org/2000/svg" p-id="9609" xmlns:xlink="http://www.w3.org/1999/xlink" width="200" height="200"><defs><style type="text/css"></style></defs><path d="M484.35 478.41c-8.94 26.83-23.26 57.26-44.73 98.41-8.95 16.1-16.1 32.2-25.05 46.52 44.73-16.1 96.62-30.42 153.88-42.94-3.58-3.58-7.16-5.37-10.73-8.95-28.63-25.05-53.72-57.26-73.37-93.04zM772.43 601.87c-21.47-5.37-28.63-5.37-50.1-5.37-12.52 0-25.05 0-39.37 1.79 37.58 14.31 64.42 25.05 85.89 25.05 7.16 0 17.89-1.79 21.47-3.58s3.58-12.52-17.89-17.89z" fill="#D14322" p-id="9610"></path><path d="M867.26 267.27c-19.68-26.84-46.52-57.26-76.94-87.67s-60.83-57.26-87.67-76.94c-42.94-32.21-64.42-35.79-76.94-35.79h-434.8c-37.57 0-69.78 32.21-69.78 69.78v755.08c0 37.58 32.21 69.78 69.78 69.78h644.15c39.36 0 69.78-32.2 69.78-69.78V346c0-12.53-3.58-34-37.58-78.73zM801.06 643a32.83 32.83 0 0 1-17.9 12.53c-5.36 1.79-10.73 1.79-17.89 1.79-39.36 0-103.78-21.47-155.67-50.1-68 8.94-144.93 28.63-212.92 50.1-57.26 102-100.2 148.51-137.78 148.51-7.15 0-12.52-1.79-19.68-5.37l-12.52-9c-8.95-5.37-10.74-16.1-8.95-25 5.37-26.84 39.37-62.62 91.25-93 7.16-3.58 32.21-17.89 34-17.89l14.32-7.16c14.31-25 30.41-53.68 48.3-89.47l1.8-3.58c17.89-34 35.78-71.57 51.88-109.14l5.37-12.53c-21.47-82.3-32.2-144.93-21.47-187.87 3.58-14.31 17.89-23.26 35.79-23.26h8.94c14.32-1.79 25.05 10.73 30.42 23.26l1.79 5.37c0 3.57 1.79 5.37 1.79 10.73C527.3 297.69 507.62 405 507.62 405c-1.79 3.58-1.79 8.95-3.58 12.53 17.89 48.31 44.73 91.25 78.72 123.46 12.53 12.53 28.63 21.47 44.74 30.42a624.61 624.61 0 0 1 94.83-7.16c41.16 0 66.21 5.37 78.73 17.9 5.37 3.58 9 10.73 7.15 16.1 1.79 16.14 0 32.25-7.15 44.75zM679.39 290.53V156.34c21.47 16.1 46.52 35.78 71.57 62.62 26.84 26.84 48.31 51.89 62.62 71.57z" fill="#D14322" p-id="9611"></path><path d="M250 777.22c17.89-7.16 46.52-34 87.67-100.2-5.36 5.37-12.52 10.73-14.31 12.52-39.36 32.21-66.24 69.79-73.36 87.68zM504 297.69c-1.79-26.84-7.16-57.26-19.69-57.26-5.36 0-5.36 42.94-5.36 42.94 0 21.47 3.58 55.47 10.73 76.95 8.99-14.32 14.32-34 14.32-62.63z" fill="#D14322" p-id="9612"></path></svg>