<?xml version="1.0" standalone="no"?><!DOCTYPE svg PUBLIC "-//W3C//DTD SVG 1.1//EN" "http://www.w3.org/Graphics/SVG/1.1/DTD/svg11.dtd"><svg class="icon" width="200px" height="200.00px" viewBox="0 0 1024 1024" version="1.1" xmlns="http://www.w3.org/2000/svg"><path d="M183.23 252.87h288v506h-288zM537.23 184.87h399v648h-399z" fill="#FFFFFF" /><path d="M289.3 401.8c0 33.95 0 67.9 1.78 101.85 19.65-1.79 46.43 0 57.15-21.44 8.93-19.66 10.72-46.46-1.78-66.12S308.94 400 289.3 401.8zM664.35 269.57v134c44.65 0 89.3 0 133.95-1.78-3.57-69.68-62.51-130.44-133.95-132.22z" fill="#D14322" /><path d="M957.25 208.81c1.75-23.22-16.07-41.09-39.25-39.31-108.94-1.78-216.1 0-325.05 0V78.37h-57.19C378.59 105.17 223.21 132 66.05 158.78V870c155.38 26.8 309 53.61 464.35 80.41h62.51V848.52h303.62c17.86 0 37.51 0 51.8-10.72 12.5-17.87 8.92-41.1 8.92-60.76 0-189.41 1.75-378.82 0-568.23zM364.31 548.32c-23.22 12.51-50 10.72-75 8.94V677c-19.65-1.79-41.08-3.58-60.73-5.36-1.78-109-1.78-216.22 0-325.21C283.94 348.19 350 325 396.46 366.06c42.86 51.82 32.14 150.1-32.15 182.26z m560.8 269.82h-332.2v-80.41h242.9v-41.1h-242.9v-50h242.9V605.5h-242.9v-59C634 559 678.64 559 714.36 534c39.29-23.23 58.94-66.12 62.51-110.79h-134c0-44.67 0-87.56-1.78-132.23-16.08 3.57-33.94 7.15-50 10.72V199.88h334z" fill="#D14322" /></svg>