<?xml version="1.0" standalone="no"?><!DOCTYPE svg PUBLIC "-//W3C//DTD SVG 1.1//EN" "http://www.w3.org/Graphics/SVG/1.1/DTD/svg11.dtd"><svg class="icon" width="32px" height="32.00px" viewBox="0 0 1024 1024" version="1.1" xmlns="http://www.w3.org/2000/svg"><path d="M97.312 377.696h833.536v270.86933333H97.312z" fill="#F95F5D" /><path d="M864.72533333 111.24266667H163.34933333a66.13333333 66.13333333 0 0 0-66.13333333 66.13333333v200.30933333h833.64266667V177.376a66.13333333 66.13333333 0 0 0-66.13333334-66.13333333z" fill="#55C7F7" /><path d="M97.312 648.53333333v203.904a66.13333333 66.13333333 0 0 0 66.03733333 62.56h701.376a66.13333333 66.13333333 0 0 0 66.13333334-66.13333333V648.53333333z" fill="#7ECF3B" /><path d="M423.22133333 111.25333333h186.048v803.75466667H423.22133333z" fill="#FDAF42" /><path d="M666.66666667 392.30933333H361.44c-5.23733333 0-14.06933333 5.25866667-14.06933333 14.08v213.472c0 5.248 5.248 14.06933333 14.06933333 14.06933334H666.66666667c5.23733333 0 14.06933333-5.23733333 14.06933333-14.06933334V406.4c-3.488-10.50666667-8.864-14.09066667-14.06933333-14.09066667zM623.31733333 577.49333333h-218.56V450.66666667h218.56z" fill="#FFFFFF" /></svg>