<?xml version="1.0" standalone="no"?><!DOCTYPE svg PUBLIC "-//W3C//DTD SVG 1.1//EN" "http://www.w3.org/Graphics/SVG/1.1/DTD/svg11.dtd"><svg class="icon" width="32px" height="32.00px" viewBox="0 0 1024 1024" version="1.1" xmlns="http://www.w3.org/2000/svg"><path d="M852.192 288L667.86133333 103.68a110.80533333 110.80533333 0 0 0-78.31466666-32.45866667H204.416a61.10933333 61.10933333 0 0 0-61.10933333 61.10933334v763.94666666a61.10933333 61.10933333 0 0 0 61.10933333 61.10933334h619.11466667a61.10933333 61.10933333 0 0 0 61.10933333-61.10933334V366.32533333A110.85866667 110.85866667 0 0 0 852.192 288zM702.93333333 320.45866667a55.46666667 55.46666667 0 0 1-55.38133333-55.392V149.54666667L818.45333333 320.45866667z" fill="#2C5494" /><path d="M358.464 485.024h311.01866667v66.13333333H358.464z" fill="#FFFFFF" /><path d="M547.04 485.152v324.26666667h-66.13333333v-324.26666667z" fill="#FFFFFF" /></svg>