<?xml version="1.0" standalone="no"?><!DOCTYPE svg PUBLIC "-//W3C//DTD SVG 1.1//EN" "http://www.w3.org/Graphics/SVG/1.1/DTD/svg11.dtd"><svg class="icon" width="32px" height="32.00px" viewBox="0 0 1024 1024" version="1.1" xmlns="http://www.w3.org/2000/svg"><path d="M891.43466667 148.192H140.224a66.06933333 66.06933333 0 0 0-65.99466667 66.13333333v152.75733334h0.10666667v444.096A66.05866667 66.05866667 0 0 0 140.224 873.6h751.21066667a66.06933333 66.06933333 0 0 0 65.99466666-66.13333333V214.4a66.06933333 66.06933333 0 0 0-65.99466666-66.208z" fill="#6554E2" /><path d="M595.936 592.93866667a43.56266667 43.56266667 0 0 1-43.52 43.616H281.14133333a43.56266667 43.56266667 0 0 1-43.52-43.616V422.944a43.56266667 43.56266667 0 0 1 43.52-43.62666667h271.27466667a43.62666667 43.62666667 0 0 1 43.52 43.62666667zM790.70933333 612.352c0 21.152-25.35466667 32.16-40.81066666 17.664l-91.17866667-85.33333333a50.13333333 50.13333333 0 0 1 0-73.28l91.17866667-85.33333334c15.456-14.50666667 40.81066667-3.488 40.81066666 17.664z" fill="#FFFFFF" /></svg>