<?xml version="1.0" standalone="no"?><!DOCTYPE svg PUBLIC "-//W3C//DTD SVG 1.1//EN" "http://www.w3.org/Graphics/SVG/1.1/DTD/svg11.dtd"><svg class="icon" width="200px" height="200.00px" viewBox="0 0 1024 1024" version="1.1" xmlns="http://www.w3.org/2000/svg"><path d="M578.58 178.94h362v666h-362zM96.58 186.94h432v585h-432z" fill="#FFFFFF" /><path d="M956.23 197.67a32.44 32.44 0 0 0-37.49-37.44c-108.87-1.78-216 0-324.84 0v-82h-60.68C376.15 105 220.86 131.71 65.58 158.45V868c155.28 26.74 308.78 53.49 464.06 80.23h64.26V868h305.21c17.85 0 35.7 0 51.76-10.7 12.49-17.82 8.93-41 10.71-60.61-5.35-199.69-3.58-399.35-5.35-599.02zM404.71 650.5c-16.07 8.91-42.84 0-62.48 1.78-14.23-67.74-28.55-133.71-41.05-201.45-12.49 66-26.77 130.14-41.05 196.1-19.63-1.78-39.27-1.78-58.9-3.56-16.06-89.14-37.48-178.28-51.76-267.37 17.85 0 33.91-1.78 51.76-1.78l32.13 192.54 42.83-197.89c19.64-1.78 39.27-1.78 57.12-3.57 14.28 67.75 26.77 137.28 41.05 205 10.71-69.53 25-140.85 35.7-210.37 19.63 0 41.05-1.79 60.69-3.57-21.42 98.03-41.06 196.08-66.04 294.14z m521.17 187.19H592.11v-80.22h264.16v-41H592.11v-49.92h264.16v-41H592.11v-49.93h264.16v-41H592.11V484.7h264.16v-42.79H592.11V392h264.16v-41H592.11v-49.93h264.16v-41H592.11v-71.31h333.77z" fill="#2C5494" /></svg>