<?xml version="1.0" standalone="no"?><!DOCTYPE svg PUBLIC "-//W3C//DTD SVG 1.1//EN" "http://www.w3.org/Graphics/SVG/1.1/DTD/svg11.dtd"><svg class="icon" width="48px" height="48.00px" viewBox="0 0 1024 1024" version="1.1" xmlns="http://www.w3.org/2000/svg"><path fill="#333333" d="M853 279h94v157h-94zM853 515h94v157h-94zM701.5 110h-577a48 48 0 0 0-48 48v710a48 48 0 0 0 48 48h577a94.11 94.11 0 0 0 94-94V204a94.11 94.11 0 0 0-94-94z m-2 710h-527V206h527z"  /><path fill="#333333" d="M283.5 408v270c0 0.68 0 1.35 0.05 2s-0.05 1.32-0.05 2a39 39 0 0 0 39 39h182.26a66 66 0 1 0 0-78H361.5v-98h143.26a66 66 0 1 0 0-78H361.5v-58.36a71 71 0 1 0-78-0.64z"  /></svg>