<?xml version="1.0" standalone="no"?><!DOCTYPE svg PUBLIC "-//W3C//DTD SVG 1.1//EN" "http://www.w3.org/Graphics/SVG/1.1/DTD/svg11.dtd"><svg class="icon" width="48px" height="48.00px" viewBox="0 0 1024 1024" version="1.1" xmlns="http://www.w3.org/2000/svg"><path fill="#333333" d="M846 285h94v157h-94zM846 521h94v157h-94zM705 917H128a48 48 0 0 1-48-48V159a48 48 0 0 1 48-48h577a94.11 94.11 0 0 1 94 94v618a94.11 94.11 0 0 1-94 94z m-529-96h527V207H176z"  /><path fill="#333333" d="M253 161h94v710h-94z"  /><path fill="#333333" d="M525 443m-79 0a79 79 0 1 0 158 0 79 79 0 1 0-158 0Z"  /><path fill="#333333" d="M642 679H408a117 117 0 0 1 234 0z"  /></svg>