<?xml version="1.0" standalone="no"?><!DOCTYPE svg PUBLIC "-//W3C//DTD SVG 1.1//EN" "http://www.w3.org/Graphics/SVG/1.1/DTD/svg11.dtd"><svg class="icon" width="32px" height="32.00px" viewBox="0 0 1024 1024" version="1.1" xmlns="http://www.w3.org/2000/svg"><path d="M853.14133333 288L668.8 103.68a110.80533333 110.80533333 0 0 0-78.31466667-32.45866667H205.36533333a61.10933333 61.10933333 0 0 0-61.10933333 61.10933334v763.94666666a61.10933333 61.10933333 0 0 0 61.10933333 61.10933334H824.53333333a61.10933333 61.10933333 0 0 0 61.10933334-61.10933334V366.32533333A110.85866667 110.85866667 0 0 0 853.14133333 288z" fill="#EA5454" /><path d="M664.05333333 733.86666667c0 37.12-33.49333333 67.2-74.85866666 67.2s-74.85866667-30.12266667-74.85866667-67.2 33.49333333-67.2 74.85866667-67.2a19.50933333 19.50933333 0 0 0 19.47733333-19.47733334V502.96533333a13.86666667 13.86666667 0 0 0-18.26133333-13.152l-124.448 41.97333334a13.86666667 13.86666667 0 0 0-9.42933334 13.152l0.17066667 177.06666666h-0.34133333v56.768c0 37.55733333-34.13333333 68.02133333-76.16 68.02133334s-76.14933333-30.464-76.14933334-68.02133334 34.13333333-68.01066667 76.14933334-68.01066666h1.55733333a19.50933333 19.50933333 0 0 0 19.47733333-19.47733334L401.06666667 534.98666667a55.40266667 55.40266667 0 0 1 37.73866666-52.53333334l152.224-51.2c35.904-12.10666667 73.03466667 14.63466667 73.03466667 52.53333334zM691.744 320.45866667a55.46666667 55.46666667 0 0 1-55.38133333-55.392V149.54666667l170.912 170.912z" fill="#FFFFFF" /></svg>