<?xml version="1.0" standalone="no"?><!DOCTYPE svg PUBLIC "-//W3C//DTD SVG 1.1//EN" "http://www.w3.org/Graphics/SVG/1.1/DTD/svg11.dtd"><svg class="icon" width="200px" height="83.08px" viewBox="0 0 2465 1024" version="1.1" xmlns="http://www.w3.org/2000/svg"><path d="M77.866188 1024a77.860716 77.860716 0 0 1-59.174144-28.029858 77.860716 77.860716 0 0 1 8.564678-109.783609L1047.232102 22.711192a77.860716 77.860716 0 1 1 100.440324 118.348289L128.475653 1005.313428a77.860716 77.860716 0 0 1-50.609465 18.686572z" fill="#119DFE" opacity=".35" /><path d="M708.537987 1024a77.860716 77.860716 0 0 1-59.952751-28.029858 77.860716 77.860716 0 0 1 9.343286-109.783609L1677.903902 22.711192a77.860716 77.860716 0 1 1 100.440323 118.348289l-1019.975379 864.253947a77.860716 77.860716 0 0 1-49.830859 18.686572z" fill="#119DFE" opacity=".64" /><path d="M1357.896359 1024a77.860716 77.860716 0 0 1-59.174144-28.029858 77.860716 77.860716 0 0 1 9.343286-109.783609L2327.262273 22.711192a77.860716 77.860716 0 1 1 101.218931 118.348289l-1019.97538 864.253947a77.860716 77.860716 0 0 1-50.609465 18.686572z" fill="#119DFE" /></svg>