<?xml version="1.0" standalone="no"?><!DOCTYPE svg PUBLIC "-//W3C//DTD SVG 1.1//EN" "http://www.w3.org/Graphics/SVG/1.1/DTD/svg11.dtd"><svg class="icon" width="200px" height="200.00px" viewBox="0 0 1024 1024" version="1.1" xmlns="http://www.w3.org/2000/svg"><path d="M93.03 171.12h823.78V825.7H93.03z" fill="#999999" /><path d="M667.79 610.31C514.76 223.31 281 490.84 96 723v89.84h824V689.39c-137.89-265.85-252.24-79.08-252.24-79.08z m0 0M186 344.61a67.5 67.5 0 1 0 67.5-67.3 67.4 67.4 0 0 0-67.5 67.3z m0 0" fill="#DDDDDD" /><path d="M959 207.82v585.73c0 34.35-28.74 62.5-63.73 62.5H130.08c-35 0-63.74-28.15-63.74-62.68V207.82c0-34.35 28.75-62.5 63.74-62.5H895.3c34.99 0 63.7 28.15 63.7 62.5z m-63.7 586.23a2.17 2.17 0 0 0 1.73-0.81V208.13a2.17 2.17 0 0 0-1.73-0.81H130.08a2.19 2.19 0 0 0-1.74 0.81V793.2a2.14 2.14 0 0 0 1.74 0.85z" fill="#CCCCCC" /></svg>