<?xml version="1.0" standalone="no"?><!DOCTYPE svg PUBLIC "-//W3C//DTD SVG 1.1//EN" "http://www.w3.org/Graphics/SVG/1.1/DTD/svg11.dtd"><svg class="icon" width="48px" height="48.00px" viewBox="0 0 1024 1024" version="1.1" xmlns="http://www.w3.org/2000/svg"><path fill="#333333" d="M110.56 745.71c0-57.14 6-84.48 6-135.3 0-28.15-13-57.77-53.33-59.22v-73.32c40.22-1.45 53.33-31.06 53.33-59.22 0-50.66-6-78.16-6-134.48 0-88 25-116.19 80.44-116.19h40.72v66.18h-10.87c-25.61 0-32.1 10.53-32.1 54.22 0 42.23 2.13 81.08 2.13 129.62 0 62-15.25 85.29-47.34 95.16v3.55c32.09 9.23 47.34 32.37 47.34 95.16 0 47.26-2.13 85.93-2.13 129 0 43.7 6.49 54.22 32.1 54.22h10.87v66.18H191c-55.46 0-80.44-28.15-80.44-115.53z"  /><path fill="#333333" d="M236.72 866.24H191c-30.84 0-51.51-8.59-65-27-13.91-19-20.39-48.67-20.39-93.49 0-29.59 1.6-51.24 3.14-72.17 1.47-19.88 2.85-38.65 2.85-63.13 0-15.78-4.72-52.65-48.51-54.23l-4.87-0.22v-83l4.82-0.17c43.79-1.59 48.51-38.45 48.51-54.23 0-24.47-1.39-43.26-2.86-63.14-1.54-20.77-3.13-42.25-3.13-71.34 0-45.13 6.48-75 20.38-94.06C139.46 171.6 160.14 163 191 163h45.72v76.18h-15.87c-19.67 0-27.1 4.24-27.1 49.22 0 20.31 0.49 39.65 1 60.12 0.56 21.79 1.13 44.32 1.13 69.5 0 55.74-12 83.92-42.4 96.86 30.35 12.4 42.4 40.65 42.4 97 0 24.24-0.56 46.32-1.11 67.66-0.52 20.76-1 40.36-1 61.31 0 45 7.43 49.22 27.1 49.22h15.87zM68.22 546.5c33.5 3.19 53.33 26.76 53.33 63.91 0 24.85-1.4 43.8-2.88 63.86-1.53 20.76-3.11 42.22-3.11 71.44 0 92 28.86 110.53 75.44 110.53h35.72v-56.18h-5.87c-10.93 0-23-1.56-29.95-13.16-5.08-8.52-7.15-21.87-7.15-46.06 0-21.08 0.5-40.74 1-61.56 0.54-21.29 1.1-43.29 1.1-67.41 0-64.77-16.73-82.59-43.73-90.35l-3.61-1v-11l3.53-1.08c27-8.32 43.81-26.34 43.81-90.38 0-25.05-0.57-47.52-1.12-69.25-0.52-20.53-1-39.93-1-60.37 0-24.19 2.07-37.53 7.15-46.06 6.92-11.59 19-13.16 29.95-13.16h5.87V173H191c-27.77 0-45.35 7.1-57 23-12.6 17.25-18.46 45.26-18.46 88.16 0 28.72 1.58 50 3.1 70.6 1.49 20.07 2.89 39 2.89 63.88 0 11.77-2.18 28.72-12.58 42.62-9.34 12.5-23 19.65-40.75 21.29zM791.12 795.06H802c25 0 32.1-10.52 32.1-54.22 0-43-2.12-81.71-2.12-129 0-62.63 15.23-85.93 47.34-95.16v-3.55C847.2 503.29 832 480 832 418c0-48.54 2.12-87.39 2.12-129.62 0-43.69-7.12-54.22-32.1-54.22h-10.9V168h40.72c55.46 0 80.44 28.16 80.44 116.19 0 56.32-6 83.82-6 134.48 0 28.16 13 57.77 52.71 59.22v73.32c-39.72 1.45-52.71 31.07-52.71 59.22 0 50.66 6 78.16 6 135.3 0 87.38-25 115.53-80.44 115.53h-40.72z"  /><path fill="#333333" d="M831.84 866.24h-45.72v-76.18H802c19.26 0 27.1-4.45 27.1-49.22 0-21-0.49-40.55-1-61.31-0.54-21.34-1.1-43.42-1.1-67.66 0-56.36 12-84.61 42.4-97C839 501.92 827 473.74 827 418c0-25.18 0.57-47.71 1.12-69.5 0.51-20.47 1-39.81 1-60.12 0-44.77-7.84-49.22-27.1-49.22h-15.9V163h45.72c30.86 0 51.54 8.62 65.06 27.13 13.9 19 20.38 48.93 20.38 94.06 0 29.09-1.59 50.57-3.13 71.34-1.47 19.88-2.86 38.67-2.86 63.14 0 15.78 4.66 52.64 47.89 54.23l4.82 0.17v83l-4.82 0.17c-43.23 1.59-47.89 38.45-47.89 54.23 0 24.39 1.38 43.15 2.84 63 1.55 21 3.15 42.67 3.15 72.28 0 44.82-6.48 74.53-20.39 93.49-13.54 18.41-34.2 27-65.05 27z m-35.72-10h35.72c46.58 0 75.44-18.49 75.44-110.53 0-29.24-1.58-50.75-3.12-71.54-1.48-20.06-2.87-39-2.87-63.76 0-11.76 2.15-28.69 12.44-42.6C923 555.32 936.5 548.16 954 546.5v-63.94c-17.5-1.66-31-8.81-40.27-21.31-10.29-13.9-12.44-30.84-12.44-42.6 0-24.84 1.4-43.81 2.89-63.88 1.52-20.59 3.1-41.88 3.1-70.6 0-42.9-5.86-70.91-18.46-88.16-11.63-15.93-29.21-23-57-23h-35.7v56.18H802c31.75 0 37.1 18.27 37.1 59.22 0 20.44-0.49 39.84-1 60.37-0.56 21.7-1.1 44.22-1.1 69.22 0 64.05 16.76 82.06 43.81 90.38l3.53 1.08v11l-3.62 1c-27 7.76-43.72 25.58-43.72 90.35 0 24.12 0.56 46.13 1.1 67.41 0.52 20.82 1 40.48 1 61.56 0 40.95-5.35 59.22-37.1 59.22h-5.87zM283.86 442h94v145.22h-94zM464.11 442h94v145.22h-94zM644.36 442h94v145.22h-94z"  /></svg>