<?xml version="1.0" standalone="no"?><!DOCTYPE svg PUBLIC "-//W3C//DTD SVG 1.1//EN" "http://www.w3.org/Graphics/SVG/1.1/DTD/svg11.dtd"><svg class="icon" width="48px" height="48.00px" viewBox="0 0 1024 1024" version="1.1" xmlns="http://www.w3.org/2000/svg"><path fill="#333333" d="M576 588h165v94H576zM287.089 616.743l169.706-169.705 66.468 66.468L353.557 683.21z"  /><path fill="#333333" d="M287.087 410.264l66.468-66.468 169.706 169.706-66.468 66.468z"  /><path fill="#333333" d="M881.44 906.5h-736a48 48 0 0 1-48-48v-690a48 48 0 0 1 48-48h736a48 48 0 0 1 48 48v690a48 48 0 0 1-48 48z m-688-96h640v-594h-640z"  /></svg>