<?xml version="1.0" standalone="no"?><!DOCTYPE svg PUBLIC "-//W3C//DTD SVG 1.1//EN" "http://www.w3.org/Graphics/SVG/1.1/DTD/svg11.dtd"><svg class="icon" width="48px" height="48.00px" viewBox="0 0 1024 1024" version="1.1" xmlns="http://www.w3.org/2000/svg"><path fill="#333333" d="M876.83 98.36H300.19a48 48 0 0 0-33.94 14L116.89 261.77a48 48 0 0 0-14.06 34v586.59a48 48 0 0 0 48 48h726a48 48 0 0 0 48-48v-736a48 48 0 0 0-48-48z m-48 736h-630V315.6l121.24-121.24h508.76z"  /><path fill="#333333" d="M466.71 722.35c35.09 0 67-11.54 89.92-32.5 24.79-22.69 37.89-54.66 37.89-92.45V350.58h-81.4v243c0 34.89-15.62 52.59-46.41 52.59-19.9 0-27.76-6.37-37.47-16.08l-10.53-10.53-55.63 54.86 10.68 10.68c26.1 26.11 53.9 37.25 92.95 37.25z"  /></svg>