<?xml version="1.0" standalone="no"?><!DOCTYPE svg PUBLIC "-//W3C//DTD SVG 1.1//EN" "http://www.w3.org/Graphics/SVG/1.1/DTD/svg11.dtd"><svg class="icon" width="48px" height="48.00px" viewBox="0 0 1024 1024" version="1.1" xmlns="http://www.w3.org/2000/svg"><path fill="#333333" d="M40.90311111 308.98631111v100.10168889l89.55448889-78.59768889V705.30844445h86.18666667V226.13333333h-79.75822222l-95.98293334 82.85297778zM592.78222222 361.34684445c0-41.40373333-13.85813333-76.51555555-40.04977777-101.5352889-25.71377778-24.56462222-61.30346667-37.54666667-102.912-37.54666666-40.61866667 0-77.19822222 13.65333333-102.99164445 38.36586666-26.56711111 25.46346667-40.59591111 60.5184-40.59591111 101.36462223v10.24h86.18666666v-10.24c0-54.71573333 40.1408-60.6208 57.4008889-60.6208 35.54417778 0 56.76373333 22.17528889 56.76373333 59.33511111 0 20.38897778-5.80266667 34.7136-22.15253333 54.69297778l-178.8472889 217.31555555v72.59022223H592.78222222v-79.1096889H417.31413333l130.02524445-159.16373333c30.79964445-37.80835555 45.44284445-63.26044445 45.44284444-105.68817777zM903.12248889 457.53457778c30.6176-21.4016 46.64888889-54.72711111 46.64888889-97.47342223 0-39.46951111-14.42702222-74.97955555-40.60728889-100.01066666-25.94133333-24.7808-62.50951111-38.43413333-102.99164444-38.43413334-38.82097778 0-74.42204445 12.74311111-100.2496 35.87413334-27.19288889 24.3712-42.62115555 58.55004445-44.62364445 98.83875556l-0.53475555 10.752h85.93635555l0.75093333-9.43217778c2.83306667-35.76035555 24.24604445-56.27448889 58.72071112-56.27448889 27.7504 0 57.41226667 15.92888889 57.41226666 60.6208 0 39.37848889-19.968 59.33511111-59.34648889 59.33511111h-21.17404444v77.824h21.18542222c43.46311111 0 66.42346667 22.51662222 66.42346667 65.1264 0 39.97013333-25.30417778 65.78631111-64.48924445 65.78631111-18.44337778 0-61.65617778-5.8368-64.50062222-59.88124445l-0.512-9.69386666h-85.97048889l0.3072 10.53582222c1.28568889 44.70328889 17.66968889 81.23733333 47.38844444 105.61991111 26.43057778 21.69742222 62.1568 33.16622222 103.28746667 33.16622223 41.51751111 0 79.06417778-12.82275555 105.71093333-36.11306667 29.42293333-25.7024 44.97635555-62.8736 44.97635556-107.48586667 0-49.20888889-18.48888889-86.40284445-53.74862222-108.68053333zM70.54222222 826.02666667h896.56888889v109.22666666H70.54222222z" /></svg>