<?xml version="1.0" standalone="no"?><!DOCTYPE svg PUBLIC "-//W3C//DTD SVG 1.1//EN" "http://www.w3.org/Graphics/SVG/1.1/DTD/svg11.dtd"><svg class="icon" width="48px" height="48.00px" viewBox="0 0 1024 1024" version="1.1" xmlns="http://www.w3.org/2000/svg"><path fill="#333333" d="M632.52 856.84h-240a342 342 0 1 1 0-684h240a342 342 0 1 1 0 684z m-240-588c-135.65 0-246 110.35-246 246s110.35 246 246 246h240c135.64 0 246-110.36 246-246s-110.36-246-246-246z"  /><path fill="#333333" d="M389 515m-122 0a122 122 0 1 0 244 0 122 122 0 1 0-244 0Z"  /></svg>