<?xml version="1.0" standalone="no"?><!DOCTYPE svg PUBLIC "-//W3C//DTD SVG 1.1//EN" "http://www.w3.org/Graphics/SVG/1.1/DTD/svg11.dtd"><svg class="icon" width="48px" height="48.00px" viewBox="0 0 1024 1024" version="1.1" xmlns="http://www.w3.org/2000/svg"><path fill="#333333" d="M422.94 911h-0.06a299.93 299.93 0 0 1-212-511.92l235.86-236 66.48 66.46-235.86 236c-80.21 80.24-80.17 210.85 0.08 291.13A204.45 204.45 0 0 0 422.9 817a204.21 204.21 0 0 0 145.41-60.25L770.85 554.2l66.48 66.45-202.5 202.59A297.61 297.61 0 0 1 422.94 911z"  /><path fill="#333333" d="M518 701.64l-66.48-66.46L685 401.61a121.63 121.63 0 0 0-86-207.57 120.55 120.55 0 0 0-85.85 35.58l-235.86 236-66.48-66.46 235.86-236A214 214 0 0 1 599 100h0.05a215.63 215.63 0 0 1 152.44 368z"  /><path fill="#333333" d="M425.25 740.09a130.39 130.39 0 0 1-92.81-38.48c-51.17-51.19-51.18-134.47 0-185.65l200.07-200.21L599 382.21 398.88 582.42a37.31 37.31 0 0 0 26.37 63.67 37 37 0 0 0 26.31-10.91L685 401.61l66.48 66.45L518 701.64a130.34 130.34 0 0 1-92.75 38.45z"  /></svg>