<?xml version="1.0" standalone="no"?><!DOCTYPE svg PUBLIC "-//W3C//DTD SVG 1.1//EN" "http://www.w3.org/Graphics/SVG/1.1/DTD/svg11.dtd"><svg class="icon" width="48px" height="48.00px" viewBox="0 0 1024 1024" version="1.1" xmlns="http://www.w3.org/2000/svg"><path fill="#333333" d="M804.23 955.2h-583a48 48 0 0 1-48-48v-664a48 48 0 0 1 48-48h583a48 48 0 0 1 48 48v664a48 48 0 0 1-48 48z m-535-96h487v-568h-487z"  /><path fill="#333333" d="M97.73 195.2h830v96h-830z"  /><path fill="#333333" d="M306.73 116.2h412v127h-412zM383.9 413.2h94v320h-94zM549.9 413.2h94v320h-94z"  /></svg>