<?xml version="1.0" standalone="no"?><!DOCTYPE svg PUBLIC "-//W3C//DTD SVG 1.1//EN" "http://www.w3.org/Graphics/SVG/1.1/DTD/svg11.dtd"><svg class="icon" width="48px" height="48.00px" viewBox="0 0 1024 1024" version="1.1" xmlns="http://www.w3.org/2000/svg"><path fill="#333333" d="M510.26 66.48c247.38 0 448 178.22 448 398.23-0.08 137.43-111.48 248.82-248.91 248.87h-88.08a74.41 74.41 0 0 0-55.78 124 75.19 75.19 0 0 1 19.45 50.26c0 41.35-34.36 74.68-74.68 74.68-247.39 0-448-200.61-448-448s200.61-448 448-448zM457 788.26A164.16 164.16 0 0 1 621.27 624h88.08a159.38 159.38 0 0 0 159.3-159.21c0-168-158.23-308.68-358.39-308.68-192.17-0.2-350.26 151.22-358.41 343.22S288.47 855.57 480 871.63a163.39 163.39 0 0 1-23-83.33zM308.66 514.48a67.2 67.2 0 1 1 67.2-67.2 67.19 67.19 0 0 1-67.2 67.2z m403.2 0a67.2 67.2 0 1 1 67.2-67.2 67.19 67.19 0 0 1-67.2 67.2z m-201.6-134.4a67.2 67.2 0 1 1 67.2-67.19 67.19 67.19 0 0 1-67.2 67.19z m0 0" /></svg>