<?xml version="1.0" standalone="no"?><!DOCTYPE svg PUBLIC "-//W3C//DTD SVG 1.1//EN" "http://www.w3.org/Graphics/SVG/1.1/DTD/svg11.dtd"><svg class="icon" width="48px" height="48.00px" viewBox="0 0 1024 1024" version="1.1" xmlns="http://www.w3.org/2000/svg"><path fill="#333333" d="M289.5 129h96v168h-96zM639.5 129h96v168h-96z"  /><path fill="#333333" d="M880.5 927.06h-736a48 48 0 0 1-48-48v-666a48 48 0 0 1 48-48h736a48 48 0 0 1 48 48v666a48 48 0 0 1-48 48z m-688-96h640v-570h-640z"  /><path fill="#333333" d="M284 410h95v94h-95zM462.5 410h95v94h-95zM641 410h95v94h-95zM284 618h95v94h-95zM462.5 618h95v94h-95z"  /></svg>