<?xml version="1.0" standalone="no"?><!DOCTYPE svg PUBLIC "-//W3C//DTD SVG 1.1//EN" "http://www.w3.org/Graphics/SVG/1.1/DTD/svg11.dtd"><svg class="icon" width="48px" height="48.00px" viewBox="0 0 1024 1024" version="1.1" xmlns="http://www.w3.org/2000/svg"><path fill="#333333" d="M299.75 745m-42 0a42 42 0 1 0 84 0 42 42 0 1 0-84 0Z"  /><path fill="#333333" d="M485.75 944h-372a48 48 0 0 1-48-48V342a48 48 0 0 1 48-48h372a48 48 0 0 1 48 48v554a48 48 0 0 1-48 48z m-324-96h276V390h-276z"  /><path fill="#333333" d="M863 944H251v-96h610V178H299v164h-96V176a94.11 94.11 0 0 1 94-94h566a94.11 94.11 0 0 1 94 94v674a94.11 94.11 0 0 1-94 94z"  /></svg>