<?xml version="1.0" standalone="no"?><!DOCTYPE svg PUBLIC "-//W3C//DTD SVG 1.1//EN" "http://www.w3.org/Graphics/SVG/1.1/DTD/svg11.dtd"><svg class="icon" width="48px" height="48.00px" viewBox="0 0 1024 1024" version="1.1" xmlns="http://www.w3.org/2000/svg"><path fill="#333333" d="M479 948.5H126.6a48 48 0 0 1-48-48V547.74a48 48 0 0 1 48-48h202a48 48 0 0 1 48 48V645H479a48 48 0 0 1 48 48v207.5a48 48 0 0 1-48 48z m-304.44-96H431V741H328.57a48 48 0 0 1-48-48v-97.3h-106z"  /><path fill="#333333" d="M896.6 741H479v-96h369.6V172.5h-472v375.24h-96V124.5a48 48 0 0 1 48-48h568a48 48 0 0 1 48 48V693a48 48 0 0 1-48 48z"  /><path fill="#333333" d="M462.11 266.28h301.34v94H462.11zM462.11 434.06h197.57v94H462.11z"  /></svg>