<?xml version="1.0" standalone="no"?><!DOCTYPE svg PUBLIC "-//W3C//DTD SVG 1.1//EN" "http://www.w3.org/Graphics/SVG/1.1/DTD/svg11.dtd"><svg class="icon" width="48px" height="48.00px" viewBox="0 0 1024 1024" version="1.1" xmlns="http://www.w3.org/2000/svg"><path fill="#333333" d="M874.85 929.79h-726a48 48 0 0 1-48-48v-736a48 48 0 0 1 48-48h726a48 48 0 0 1 48 48v736a48 48 0 0 1-48 48z m-678-96h630v-640h-630z"  /><path fill="#333333" d="M298.79 451.13c0 20.65-13.51 20.65-18 20.65-7.56 0-10.42-2-14.73-6.34l-6.32-6.32-27.85 27.47 6.4 6.41c11.79 11.79 24.9 17 42.5 17 34.45 0 58.5-23.54 58.5-57.24V342.08h-40.5zM462.25 420.16c-7.92-7.11-17.31-11-32.42-13.24l-16.89-2.5c-6-0.91-10.18-3-12.06-4.7-1.13-1-2.64-2.85-2.64-7.08 0-9 6.62-14.18 18.15-14.18 11.73 0 19.56 2.69 26.16 9l6.32 6 27.31-26.92-6.86-6.4C455 346.79 438.88 340.83 417 340.83c-35.11 0-58.71 21.16-58.71 52.65 0 14.63 4.61 26.39 13.71 35 7.94 7.43 19.4 12.35 33.08 14.24l17.54 2.51c8.14 1.16 9.63 2.24 11.39 3.9l0.17 0.16c2.36 2.11 2.85 5.92 2.85 8.75 0 11.38-11.8 13.76-21.7 13.76-14.45 0-23.33-3.24-31.65-11.56l-6.32-6.32-27.81 27.42 6.32 6.41C371.3 503.37 389 510 414.93 510c37.37 0 62.47-21.16 62.47-52.65 0-15.65-5.24-28.52-15.15-37.19zM600.71 359.34c-12.11-12.11-27.89-18.51-45.63-18.51s-33.14 6.22-45.42 18.51c-17.05 17.05-17.05 36.09-17.05 64.9v2.39c0 28.81 0 47.85 17.05 64.9 12.28 12.29 27.56 18.47 45.42 18.47s33.52-6.4 45.63-18.51c16.86-16.85 16.85-35.52 16.84-63.78v-4.63c0.01-28.22 0.02-46.88-16.84-63.74z m-30.09 106.14c-3.66 3.95-9.47 6.3-15.54 6.3s-11.88-2.35-15.52-6.28c-4.95-5.38-6.39-11.29-6.39-40.06s1.44-34.69 6.37-40.05c3.66-3.95 9.47-6.3 15.54-6.3s11.88 2.35 15.53 6.3c4.94 5.37 6.38 11.29 6.38 40.05s-1.44 34.68-6.37 40.04zM730.72 342.08v83.38l-54.87-83.38h-34.53v166.71h40.56v-83.54l54.86 83.54h34.53V342.08h-40.55zM286.74 634h450.21v94H286.74z"  /></svg>