<?xml version="1.0" standalone="no"?><!DOCTYPE svg PUBLIC "-//W3C//DTD SVG 1.1//EN" "http://www.w3.org/Graphics/SVG/1.1/DTD/svg11.dtd"><svg class="icon" width="48px" height="48.00px" viewBox="0 0 1024 1024" version="1.1" xmlns="http://www.w3.org/2000/svg"><path fill="#333333" d="M866.56 460.14h-544a48 48 0 0 1-48-48v-262a48 48 0 0 1 48-48h544a48 48 0 0 1 48 48v262a48 48 0 0 1-48 48z m-496-96h448v-166h-448zM866.56 921.73h-544a48 48 0 0 1-48-48v-262a48 48 0 0 1 48-48h544a48 48 0 0 1 48 48v262a48 48 0 0 1-48 48z m-496-96h448v-166h-448z"  /><path fill="#333333" d="M322.56 791C205.91 791 111 696.09 111 579.44V444.56C111 327.91 205.91 233 322.56 233v96A115.69 115.69 0 0 0 207 444.56v134.88A115.69 115.69 0 0 0 322.56 695z"  /></svg>