<?xml version="1.0" standalone="no"?><!DOCTYPE svg PUBLIC "-//W3C//DTD SVG 1.1//EN" "http://www.w3.org/Graphics/SVG/1.1/DTD/svg11.dtd"><svg class="icon" width="48px" height="48.00px" viewBox="0 0 1024 1024" version="1.1" xmlns="http://www.w3.org/2000/svg"><path fill="#333333" d="M879 908H143a48 48 0 0 1-48-48V170a48 48 0 0 1 48-48h736a48 48 0 0 1 48 48v690a48 48 0 0 1-48 48z m-688-96h640V218H191z"  /><path fill="#333333" d="M348 389m-69 0a69 69 0 1 0 138 0 69 69 0 1 0-138 0Z"  /><path fill="#333333" d="M226.23 874.23l-66.46-66.46L564.5 403.03l345.73 345.74-66.46 66.46L564.5 535.97 226.23 874.23z"  /></svg>