<?xml version="1.0" standalone="no"?><!DOCTYPE svg PUBLIC "-//W3C//DTD SVG 1.1//EN" "http://www.w3.org/Graphics/SVG/1.1/DTD/svg11.dtd"><svg class="icon" width="48px" height="48.00px" viewBox="0 0 1024 1024" version="1.1" xmlns="http://www.w3.org/2000/svg"><path fill="#333333" d="M879.76 894.35h-736a48 48 0 0 1-48-48v-666a48 48 0 0 1 48-48h736a48 48 0 0 1 48 48v666a48 48 0 0 1-48 48z m-688-96h640v-570h-640z"  /><path fill="#333333" d="M235.42 404.13v68.06l54.21-47.58v223.52h57.78V352.45h-52.13l-59.86 51.68zM554.43 373.76c-16.23-15.25-38.55-23.65-62.86-23.65s-46.56 8.4-62.69 23.67c-17.18 16.25-26.26 38.69-26.26 64.89v123.24c0 26.19 9.08 48.63 26.26 64.89 16.13 15.26 38.39 23.67 62.69 23.67s46.63-8.4 62.86-23.65c17.32-16.28 26.48-38.73 26.48-64.91V438.67c0-26.19-9.16-48.67-26.48-64.91z m-94 66.08c0-22.69 11.65-36.24 31.17-36.24 19.76 0 31.56 13.55 31.56 36.24v120.9c0 22.69-11.8 36.24-31.56 36.24-19.52 0-31.17-13.55-31.17-36.24zM762.29 373.76c-16.22-15.25-38.55-23.65-62.86-23.65s-46.55 8.4-62.68 23.67c-17.19 16.25-26.27 38.69-26.27 64.89v123.24c0 26.19 9.08 48.63 26.27 64.89 16.13 15.26 38.39 23.67 62.68 23.67s46.64-8.4 62.86-23.65c17.33-16.28 26.48-38.73 26.48-64.91V438.67c0-26.19-9.15-48.67-26.48-64.91z m-94 66.08c0-22.69 11.65-36.24 31.17-36.24 19.76 0 31.56 13.55 31.56 36.24v120.9c0 22.69-11.8 36.24-31.56 36.24-19.52 0-31.17-13.55-31.17-36.24z"  /></svg>