<?xml version="1.0" standalone="no"?><!DOCTYPE svg PUBLIC "-//W3C//DTD SVG 1.1//EN" "http://www.w3.org/Graphics/SVG/1.1/DTD/svg11.dtd"><svg class="icon" width="48px" height="48.00px" viewBox="0 0 1024 1024" version="1.1" xmlns="http://www.w3.org/2000/svg"><path fill="#333333" d="M880.5 175.88h-145v-36.06h-96v36.06h-254v-36.06h-96v36.06h-145a48 48 0 0 0-48 48v666a48 48 0 0 0 48 48h736a48 48 0 0 0 48-48v-666a48 48 0 0 0-48-48z m-48 666h-640v-570h97v35.94h96v-35.94h254v35.94h96v-35.94h97z"  /><path fill="#333333" d="M513.52 590.15l-85.91-182.98h-64.3V743.3h67.95V565.56l58.32 120.46h48.13l56.48-119.5V743.3h67.95V407.17h-64.36l-84.26 182.98z"  /></svg>