<?xml version="1.0" standalone="no"?><!DOCTYPE svg PUBLIC "-//W3C//DTD SVG 1.1//EN" "http://www.w3.org/Graphics/SVG/1.1/DTD/svg11.dtd"><svg class="icon" width="48px" height="48.00px" viewBox="0 0 1024 1024" version="1.1" xmlns="http://www.w3.org/2000/svg"><path fill="#333333" d="M289.68 113h96v168h-96zM639.68 113h96v168h-96z"  /><path fill="#333333" d="M880.68 911.06h-736a48 48 0 0 1-48-48v-666a48 48 0 0 1 48-48h736a48 48 0 0 1 48 48v666a48 48 0 0 1-48 48z m-688-96h640v-570h-640z"  /><path fill="#333333" d="M454.14 542.86c22.24-14.26 33.93-37.32 33.93-67.26 0-55-39.85-93.36-96.91-93.36-26.25 0-50.3 8.6-67.72 24.2-18.32 16.42-28.72 39.48-30.07 66.69l-0.26 5.25h55.16l0.37-4.61c2-25.47 17.91-40.68 42.52-40.68 25.28 0 41.62 17.21 41.62 43.84 0 19.59-7.45 42.95-42.95 42.95h-12.55v49.52h12.55c31.29 0 47.83 16.23 47.83 47 0 28.79-18.25 47.39-46.5 47.39-27.7 0-45.09-16.16-46.51-43.22l-0.25-4.73h-55.18l0.15 5.14c0.87 30.2 11.9 54.85 31.91 71.26 17.85 14.65 42 22.4 69.88 22.4 28.12 0 53.51-8.66 71.5-24.38 19.82-17.32 30.29-42.4 30.29-72.53 0.05-34.45-13.37-60.12-38.81-74.87zM698.44 408.19c-17.49-16.45-41.63-25.5-68-25.5s-50.37 9.06-67.76 25.51c-18.49 17.49-28.26 41.72-28.26 70.06v140.31c0 28.34 9.77 52.57 28.26 70.06 17.39 16.45 41.45 25.51 67.76 25.51s50.48-9 68-25.5c18.64-17.51 28.5-41.75 28.5-70.07V478.26c0-28.32-9.86-52.56-28.5-70.07z m-108.7 71.4c0-28.68 15.61-46.5 40.73-46.5 25.4 0 41.18 17.82 41.18 46.5v137.64c0 28.69-15.78 46.51-41.18 46.51-25.12 0-40.73-17.82-40.73-46.51z"  /></svg>