<?xml version="1.0" standalone="no"?><!DOCTYPE svg PUBLIC "-//W3C//DTD SVG 1.1//EN" "http://www.w3.org/Graphics/SVG/1.1/DTD/svg11.dtd"><svg class="icon" width="48px" height="48.00px" viewBox="0 0 1024 1024" version="1.1" xmlns="http://www.w3.org/2000/svg"><path fill="#333333" d="M898 909H126a48 48 0 0 1-48-48V165a48 48 0 0 1 48-48h772a48 48 0 0 1 48 48v696a48 48 0 0 1-48 48z m-724-96h676V213H174z"  /><path fill="#333333" d="M124 350h772v94H124z"  /><path fill="#333333" d="M240.5 280.5m-37 0a37 37 0 1 0 74 0 37 37 0 1 0-74 0Z"  /><path fill="#333333" d="M346.5 280.5m-37 0a37 37 0 1 0 74 0 37 37 0 1 0-74 0Z"  /><path fill="#333333" d="M460.5 280.5m-37 0a37 37 0 1 0 74 0 37 37 0 1 0-74 0Z"  /><path fill="#333333" d="M568.91 538.79l35.52 202.73 167.21-167.21-202.73-35.52z"  /><path fill="#333333" d="M659.605 684.307l55.154-55.154 47.617 47.617-55.155 55.154z"  /></svg>