<?xml version="1.0" standalone="no"?><!DOCTYPE svg PUBLIC "-//W3C//DTD SVG 1.1//EN" "http://www.w3.org/Graphics/SVG/1.1/DTD/svg11.dtd"><svg class="icon" width="48px" height="48.00px" viewBox="0 0 1024 1024" version="1.1" xmlns="http://www.w3.org/2000/svg"><path fill="#333333" d="M913 877.67H113a48 48 0 0 1-48-48v-628a48 48 0 0 1 48-48h800a48 48 0 0 1 48 48v628a48 48 0 0 1-48 48z m-752-96h704v-532H161z"  /><path fill="#333333" d="M476.3 402.22L416 442.61v-62.94h-78v62.94l-60.3-40.39-43.4 64.8 72.62 48.65-72.62 48.64 43.4 64.81 60.3-40.39v62.94h78v-62.94l60.3 40.39 43.4-64.81-72.62-48.64 72.62-48.65-43.4-64.8zM655 367.17h94v297h-94z"  /></svg>