<?xml version="1.0" standalone="no"?><!DOCTYPE svg PUBLIC "-//W3C//DTD SVG 1.1//EN" "http://www.w3.org/Graphics/SVG/1.1/DTD/svg11.dtd"><svg class="icon" width="48px" height="48.00px" viewBox="0 0 1024 1024" version="1.1" xmlns="http://www.w3.org/2000/svg"><path fill="#333333" d="M509.9 888.2c-78.11 0-151.3-19.42-217.54-57.7-52.26-30.2-100-72-141.82-124.31C80.4 618.54 50.62 531.14 49.39 527.46a48 48 0 0 1 0-30.6c1.24-3.68 31.18-91.06 101.39-178.68 41.88-52.27 89.6-94.09 141.81-124.29 66.21-38.28 139.31-57.69 217.29-57.69 77 0 149.51 19.42 215.5 57.73 52 30.16 99.67 71.91 141.83 124.1 70.66 87.45 101.68 174.62 103 178.28a48 48 0 0 1 0.64 29.81c-1.12 3.7-28.26 91.63-97.32 179.69-41.18 52.51-88.88 94.49-141.78 124.79-66.75 38.22-141.4 57.6-221.85 57.6z m-363.55-376c10.82 26.09 36.78 81.65 80.94 136.19C304.52 743.83 399.61 792.2 509.9 792.2c114.39 0 210.68-48.2 286.2-143.26 43.23-54.41 67.56-109.86 77.52-135.75-11.12-26-37.91-82-82.82-137-78-95.56-172.56-144-280.9-144-110 0-205.06 48.37-282.4 143.79-44.21 54.55-70.26 110.12-81.15 136.26z"  /><path fill="#333333" d="M509.9 700.2c-103.67 0-188-84.34-188-188s84.33-188 188-188 188 84.33 188 188-84.34 188-188 188z m0-282a94 94 0 1 0 94 94 94.1 94.1 0 0 0-94-94z"  /></svg>