<?xml version="1.0" standalone="no"?><!DOCTYPE svg PUBLIC "-//W3C//DTD SVG 1.1//EN" "http://www.w3.org/Graphics/SVG/1.1/DTD/svg11.dtd"><svg class="icon" width="48px" height="48.00px" viewBox="0 0 1024 1024" version="1.1" xmlns="http://www.w3.org/2000/svg"><path fill="#333333" d="M779 176.07a378.77 378.77 0 1 0-536 535.38l268 267.61 268-267.61a378 378 0 0 0 0-535.38z m2.52 351a282.92 282.92 0 0 1-70.36 116.45L511 843.38 310.87 643.53a282 282 0 0 1 0-399.53c110.35-110.2 289.91-110.2 400.26 0a281.87 281.87 0 0 1 70.36 283.07z"  /><path fill="#333333" d="M511 283.58a160.25 160.25 0 1 0 113.35 46.89A159.41 159.41 0 0 0 511 283.58z m46.93 207a66.08 66.08 0 1 1 19.4-46.77 66 66 0 0 1-19.4 46.72z"  /></svg>