<?xml version="1.0" standalone="no"?><!DOCTYPE svg PUBLIC "-//W3C//DTD SVG 1.1//EN" "http://www.w3.org/Graphics/SVG/1.1/DTD/svg11.dtd"><svg class="icon" width="48px" height="48.00px" viewBox="0 0 1024 1024" version="1.1" xmlns="http://www.w3.org/2000/svg"><path fill="#333333" d="M524.39 893.54a48 48 0 0 1-39.18-20.29L351.42 684.06l-231.71 3h-0.61a48 48 0 0 1-38.47-76.71l138.59-185.74-74.42-219.45a48 48 0 0 1 60.87-60.87l219.45 74.41L610.83 80.12a48 48 0 0 1 76.71 39.08l-3 231.7 189.2 133.8a48 48 0 0 1-13.47 85L639 638.51l-68.76 221.28A48 48 0 0 1 531.91 893a49 49 0 0 1-7.52 0.54zM376 587.74A48 48 0 0 1 415.23 608l92.21 130.38 47.4-152.5a48 48 0 0 1 31.59-31.58l152.5-47.41-130.39-92.18a48 48 0 0 1-20.28-39.8l2-159.69-128 95.52a48 48 0 0 1-44.12 7L267 266.44l51.29 151.24a48 48 0 0 1-7 44.12l-95.51 128 159.68-2z"  /><path fill="#333333" d="M677.815 745.18l67.883-67.881 195.345 195.345-67.882 67.882z"  /></svg>