<?xml version="1.0" standalone="no"?><!DOCTYPE svg PUBLIC "-//W3C//DTD SVG 1.1//EN" "http://www.w3.org/Graphics/SVG/1.1/DTD/svg11.dtd"><svg class="icon" width="48px" height="48.00px" viewBox="0 0 1024 1024" version="1.1" xmlns="http://www.w3.org/2000/svg"><path fill="#333333" d="M205.25 373.74h-96V159a48 48 0 0 1 48-48h214.5v96h-166.5zM867.25 917h-215v-96h167V656.19h96V869a48 48 0 0 1-48 48zM371.75 917h-214.5a48 48 0 0 1-48-48V656.19h96V821h166.5zM915.25 373.74h-96V207h-167v-96h215a48 48 0 0 1 48 48zM310.25 346h404v94h-404z"  /><path fill="#333333" d="M466.75 393h94v339h-94z"  /></svg>