<?xml version="1.0" standalone="no"?><!DOCTYPE svg PUBLIC "-//W3C//DTD SVG 1.1//EN" "http://www.w3.org/Graphics/SVG/1.1/DTD/svg11.dtd"><svg class="icon" width="48px" height="48.00px" viewBox="0 0 1024 1024" version="1.1" xmlns="http://www.w3.org/2000/svg"><path fill="#333333" d="M610 879H416a365 365 0 1 1 0-730h194a365 365 0 1 1 0 730zM416 245c-148.33 0-269 120.67-269 269s120.67 269 269 269h194c148.33 0 269-120.68 269-269S758.33 245 610 245z"  /><path fill="#333333" d="M426 683c-93.19 0-169-75.82-169-169s75.81-169 169-169 169 75.81 169 169-75.81 169-169 169z m0-244a75 75 0 1 0 75 75 75.08 75.08 0 0 0-75-75z"  /></svg>