<?xml version="1.0" standalone="no"?><!DOCTYPE svg PUBLIC "-//W3C//DTD SVG 1.1//EN" "http://www.w3.org/Graphics/SVG/1.1/DTD/svg11.dtd"><svg class="icon" width="48px" height="48.00px" viewBox="0 0 1024 1024" version="1.1" xmlns="http://www.w3.org/2000/svg"><path fill="#333333" d="M513 961h-2.72l1.44-96H513c193.54 0 351-157.46 351-351S706.54 163 513 163c-192.6 0-350 156.67-351 349.23l-96-0.46A447.1 447.1 0 0 1 924.85 340 446.88 446.88 0 0 1 513 961z"  /><path fill="#333333" d="M513.35 954h-2.18l0.39-82h1.79c11.87 0 23.86-0.6 35.65-1.78l8.16 81.6c-14.49 1.48-29.23 2.18-43.81 2.18z m-48.15-2.6a444 444 0 0 1-45.43-7.4l17.35-80.14a364.78 364.78 0 0 0 37 6z m137.5-6.54L586 864.57a355.89 355.89 0 0 0 36.25-9.57l25 78.09a438.75 438.75 0 0 1-44.55 11.77z m-227.35-12.92a442.82 442.82 0 0 1-42.93-16.64L366 840.5a361.58 361.58 0 0 0 35 13.5z m315-15.18l-33.12-75a357.51 357.51 0 0 0 33.44-16.91L731.48 896a441 441 0 0 1-41.11 20.76z m-398.92-22.5A436.35 436.35 0 0 1 252.91 869l48.47-66.14a356.24 356.24 0 0 0 31.31 20.51zM770.16 871l-47.92-66.54A363.37 363.37 0 0 0 751.51 781l54.55 61.23a445.78 445.78 0 0 1-35.9 28.77z m-552.92-31.13a440.82 440.82 0 0 1-32.4-32.73l61.21-54.56a357.92 357.92 0 0 0 26.36 26.62z m621.56-30l-60.66-55.18a357 357 0 0 0 23.69-29L868 774.21a440.29 440.29 0 0 1-29.2 35.65zM156 771.24l-0.14-0.19a446.2 446.2 0 0 1-24.79-38.47l71.12-40.81a365.61 365.61 0 0 0 20.2 31.35l0.16 0.21z m737.17-35.57l-70.86-41.26a360.64 360.64 0 0 0 17.12-33.31l74.79 33.61a441.73 441.73 0 0 1-21.01 40.96zM110.3 691.48a440.15 440.15 0 0 1-16.38-43.09l78.08-25a357.13 357.13 0 0 0 13.31 35z m820.61-39.7L853 626.16a363 363 0 0 0 9.86-36.16L943 607.37a441.9 441.9 0 0 1-12.09 44.41z m-848.74-48a442.22 442.22 0 0 1-7-45.54l81.59-8.18a355 355 0 0 0 5.69 37z m868.22-41.88l-81.5-9a363.08 363.08 0 0 0 2.11-37.35l82 0.42a441.31 441.31 0 0 1-2.61 45.97zM155 512.66l-82-0.38a446.82 446.82 0 0 1 2.62-46l81.51 8.91a363.06 363.06 0 0 0-2.13 37.47z m714.29-34.55a357.32 357.32 0 0 0-5.66-37l80.29-16.65a442.16 442.16 0 0 1 7 45.54z m-706.15-39.9L83 420.89a444.12 444.12 0 0 1 12-44.43L172.94 402a361.15 361.15 0 0 0-9.82 36.21z m691-33.35a357.1 357.1 0 0 0-13.28-35l75-33.09a437.65 437.65 0 0 1 16.36 43.1z m-667.67-37.77l-74.82-33.57a440.63 440.63 0 0 1 21-41l70.88 41.22a359.44 359.44 0 0 0-17.06 33.35z m637.42-30.68a365.62 365.62 0 0 0-20.33-31.56l-0.24-0.33 66.5-48 0.27 0.38A447.21 447.21 0 0 1 895 295.64z m-599.83-34L157.91 254a438.62 438.62 0 0 1 29.14-35.67l60.69 55.14a358.71 358.71 0 0 0-23.68 28.98z m555.77-27.19a357.78 357.78 0 0 0-26.37-26.6L808.59 188A441 441 0 0 1 841 220.67z m-505.48-28.11l-54.58-61.2a447.47 447.47 0 0 1 35.88-28.79l48 66.51a363 363 0 0 0-29.3 23.48zM724.47 225a357.58 357.58 0 0 0-31.32-20.48l41.2-70.9a440.21 440.21 0 0 1 38.56 25.22z m-389.32-21.73l-40.83-71.11a441.06 441.06 0 0 1 41.1-20.82l33.16 75a358.72 358.72 0 0 0-33.43 16.93z m324.67-15.85a358.68 358.68 0 0 0-34.94-13.52L650.43 96a443.8 443.8 0 0 1 42.94 16.61zM403.58 173L378.5 95a438.53 438.53 0 0 1 44.56-11.76l16.72 80.28a355.62 355.62 0 0 0-36.2 9.48z m185.11-8.93a361.49 361.49 0 0 0-37-6l8.88-81.52A447.36 447.36 0 0 1 606 83.93z m-111.88-6.32l-8.21-81.57A441.19 441.19 0 0 1 512.68 74h1.92l-0.36 82h-1.56a357.78 357.78 0 0 0-35.87 1.77zM452 322h94v240h-94z"  /><path fill="#333333" d="M452 468h240v94H452zM115 440h112v72H115zM512 817h72v112h-72z"  /></svg>